<svg width="32" height="32" viewBox="0 0 32 32" fill="none" xmlns="http://www.w3.org/2000/svg">
<path d="M22.1159 0.640625H9.46774C4.32744 0.640625 0.145508 4.82256 0.145508 9.96286V22.611C0.145508 27.7513 4.32744 31.9332 9.46774 31.9332H22.1159C27.2562 31.9332 31.4381 27.7513 31.4381 22.611V9.96286C31.438 4.82256 27.2561 0.640625 22.1159 0.640625ZM28.2901 22.611C28.2901 26.0209 25.5257 28.7852 22.1159 28.7852H9.46774C6.05785 28.7852 3.29354 26.0209 3.29354 22.611V9.96286C3.29354 6.55291 6.05785 3.78866 9.46774 3.78866H22.1159C25.5257 3.78866 28.2901 6.55291 28.2901 9.96286V22.611Z" fill="#FAB900"/>
<path d="M15.7916 8.19385C11.3289 8.19385 7.69824 11.8245 7.69824 16.2872C7.69824 20.7498 11.3289 24.3806 15.7916 24.3806C20.2543 24.3806 23.885 20.7499 23.885 16.2872C23.885 11.8245 20.2543 8.19385 15.7916 8.19385ZM15.7916 21.2326C13.0604 21.2326 10.8463 19.0185 10.8463 16.2872C10.8463 13.556 13.0604 11.3419 15.7916 11.3419C18.5229 11.3419 20.737 13.556 20.737 16.2872C20.737 19.0184 18.5228 21.2326 15.7916 21.2326Z" fill="#FAB900"/>
<path d="M23.9009 10.1938C24.9717 10.1938 25.8398 9.32573 25.8398 8.25488C25.8398 7.18402 24.9717 6.31592 23.9009 6.31592C22.83 6.31592 21.9619 7.18402 21.9619 8.25488C21.9619 9.32573 22.83 10.1938 23.9009 10.1938Z" fill="#FAB900"/>
</svg>
