<svg width="54" height="55" viewBox="0 0 54 55" xmlns="http://www.w3.org/2000/svg" fill="none"><path d="M47.299 6.343c-.351-.332-.926-.337-1.284-.012s-.364.858-.013 1.19c3.404 3.217 5.279 7.469 5.279 11.974v8.077c0 9.433-8.285 17.107-18.468 17.107h-10.657c-.241 0-.472.089-.642.246l-7.169 6.64v-7.54c0-.334-.214-.637-.545-.771-6.732-2.725-11.081-8.88-11.081-15.682v-8.077c0-9.433 8.285-17.107 18.468-17.107h11.626c3.629 0 7.142.974 10.157 2.817.419.256.982.149 1.258-.239s.161-.91-.258-1.166c-3.314-2.025-7.172-3.096-11.158-3.096h-11.626c-11.185 0-20.284 8.429-20.284 18.789v8.077c0 7.285 4.543 13.896 11.626 16.995v9.03c0 .732.989 1.114 1.55.595l8.453-7.83h10.281c11.185 0 20.284-8.429 20.284-18.789v-8.077c0-4.948-2.059-9.619-5.798-13.152zM41.567 34.109l-.871-4.371c-.067-.338-.351-.605-.715-.672l-6.85-1.269c-.298-.055-.605.031-.82.23l-2.813 2.605c-4.741-1.96-7.36-4.392-9.668-8.971l2.804-2.597c.215-.199.308-.484.248-.76l-1.37-6.346c-.073-.338-.36-.6-.726-.662l-4.718-.807c-.121-.021-.246-.018-.366.007-1.235.26-2.361.836-3.258 1.667-1.552 1.438-2.145 3.539-1.714 6.076.196 1.155.488 2.351.867 3.556.14.446.645.702 1.126.573.482-.13.758-.597.618-1.043-.357-1.137-.632-2.263-.816-3.347-.342-2.012.064-3.568 1.205-4.625.612-.567 1.37-.971 2.202-1.176l3.921.671 1.154 5.345-2.906 2.692c-.266.247-.34.62-.187.938 2.642 5.481 5.741 8.349 11.436 10.584.341.134.735.063.997-.18l2.906-2.692 5.771 1.069.724 3.632c-.221.77-.658 1.473-1.27 2.04-1.141 1.057-2.822 1.432-4.993 1.116-4.342-.633-10.364-2.585-14.245-6.166l-.056-.052c-1.785-1.66-3.377-3.951-4.602-6.623-.196-.428-.729-.627-1.191-.445-.462.182-.677.675-.481 1.103 1.315 2.868 3.04 5.342 4.991 7.156l.056.052c4.191 3.866 10.623 5.964 15.246 6.637.58.084 1.139.127 1.675.127 1.993 0 3.661-.581 4.885-1.715.897-.831 1.519-1.874 1.8-3.018.027-.111.03-.226.008-.339zM28.938 15.962c-.502 0-.908.377-.908.841 0 .465.407.841.908.841 2.17 0 3.936 1.635 3.936 3.646 0 .459.413.841.908.841.495 0 .908-.383.908-.841 0-2.938-2.581-5.328-5.752-5.328zM28.938 12.372c-.356 0-.716.018-1.068.054-.499.051-.858.467-.803.929.055.462.504.794 1.002.744.287-.029.579-.044.869-.044 4.307 0 7.811 3.246 7.811 7.235 0 .269-.016.539-.048.805-.055.462.305.878.803.929.492.049.948-.287 1.002-.744.039-.327.059-.66.059-.99 0-4.917-4.319-8.918-9.627-8.918zM28.938 8.782c-.345 0-.694.012-1.038.036-.5.035-.875.439-.837.903.038.463.472.81.974.775.298-.021.601-.031.9-.031 6.444 0 11.686 4.856 11.686 10.825 0 .845-.105 1.685-.313 2.499-.112.441.185.895.658 1.008.486.116.994-.169 1.11-.621.24-.94.361-1.911.361-2.886 0-6.897-6.057-12.508-13.503-12.508z" fill="#171717"/></svg>