<svg id="donate-btn-icon" xmlns="http://www.w3.org/2000/svg" width="30" height="30" viewBox="0 0 30 30">
  <defs>
    <style>
      .cls-1 {
        fill: #f3eeeb;
      }

      .cls-1, .cls-2 {
        fill-rule: evenodd;
      }

      .cls-2 {
        fill: #270d4c;
      }
    </style>
  </defs>
  <path id="Path" class="cls-1" d="M232.02,708.413a8.915,8.915,0,0,1,2.7,2.642,10.645,10.645,0,0,1,.705,1.409c0.058,0.118.411,0.294,0.587,0.529a1.932,1.932,0,0,1,.587,1.585,2.437,2.437,0,0,1-2.114,2.466h-1.174a1.111,1.111,0,0,0-.822.939,1.131,1.131,0,0,0,.822,1h2.7a0.656,0.656,0,0,1,.587.705,0.808,0.808,0,0,1-.529.763h-1.526c0.059,0.469.059,1.35-.705,1.35a0.952,0.952,0,0,1-.763-1.115V720.39a2.572,2.572,0,0,1-1.7-1.233,4.2,4.2,0,0,1-.353-1.174,4.322,4.322,0,0,1,.235-0.939,10.431,10.431,0,0,1-5.4-2.172,8.754,8.754,0,0,0-.176,1.468,8.161,8.161,0,1,0,8.219-8.161A17.788,17.788,0,0,0,232.02,708.413Z" transform="translate(-212 -694.5)"/>
  <path id="Path-2" data-name="Path" class="cls-2" d="M213.937,697.67a9.281,9.281,0,0,0-1.35,2.466,8.8,8.8,0,0,0-.587,3.111,0.669,0.669,0,0,0,.176.47c0.352,0.293.763,0.528,1.174,0.822a7.145,7.145,0,0,1,1.879,1.879,36.147,36.147,0,0,0,2.348,3.463,5.778,5.778,0,0,0,3.7,2.114,10.269,10.269,0,0,1,5.46,1.7c1.7,1.057,3.111,1.879,4.638,1.879,1.115,0,2.7-.646,2.7-2.113,0-1.644-2.054-3.582-3.816-4.462-1.467-.763-3.053-1.233-4.52-2.818a6.973,6.973,0,0,1,1.35-.764,7.8,7.8,0,0,1,1.409.47c0.352,0.118.352,1.7,1.174,1.7a19.048,19.048,0,0,1,3.464-.881h1.115a0.567,0.567,0,0,0,.411-0.7,22.328,22.328,0,0,0-1-3.934c-0.352-1.585-2.348-2.29-3.522-2.7-0.763-.234-1.585-0.528-2.348-0.763-0.588-.176-1.233-0.411-1.82-0.528-0.47-.118-1.116-0.294-1.644-0.47a8.83,8.83,0,0,1-1.527-.47,9.692,9.692,0,0,1-1.937-.939,18.662,18.662,0,0,0-2.759-1.7C217.284,694.5,214.29,697.083,213.937,697.67Z" transform="translate(-212 -694.5)"/>
</svg>
