<svg id="donate-invert-btn-icon" xmlns="http://www.w3.org/2000/svg" width="30" height="30.03" viewBox="0 0 30 30.03">
  <defs>
    <style>
      .cls-1 {
        fill: #f3eeeb;
      }

      .cls-1, .cls-2 {
        fill-rule: evenodd;
      }

      .cls-2 {
        fill: #f98060;
      }
    </style>
  </defs>
  <path id="Path" class="cls-1" d="M813.019,4048.9a8.876,8.876,0,0,1,2.7,2.64,10.537,10.537,0,0,1,.7,1.41c0.058,0.12.41,0.29,0.587,0.53a1.943,1.943,0,0,1,.587,1.59,2.433,2.433,0,0,1-2.114,2.46h-1.174a0.983,0.983,0,0,0,0,1.94h2.7a0.659,0.659,0,0,1,.587.71,0.81,0.81,0,0,1-.529.76h-1.526c0.059,0.47.059,1.35-.7,1.35a0.956,0.956,0,0,1-.764-1.12v-0.29a2.59,2.59,0,0,1-1.7-1.23,4.17,4.17,0,0,1-.353-1.18,4.529,4.529,0,0,1,.235-0.94,10.444,10.444,0,0,1-5.4-2.17,8.75,8.75,0,0,0-.176,1.47,8.161,8.161,0,1,0,8.219-8.17A17.406,17.406,0,0,0,813.019,4048.9Z" transform="translate(-793 -4034.97)"/>
  <path id="Path-2" data-name="Path" class="cls-2" d="M794.937,4038.15a9.234,9.234,0,0,0-1.35,2.46,8.855,8.855,0,0,0-.587,3.12,0.667,0.667,0,0,0,.176.47c0.352,0.29.763,0.53,1.174,0.82a7.075,7.075,0,0,1,1.879,1.88,36.335,36.335,0,0,0,2.348,3.47,5.789,5.789,0,0,0,3.7,2.11,10.237,10.237,0,0,1,5.46,1.71c1.7,1.05,3.111,1.87,4.638,1.87,1.115,0,2.7-.64,2.7-2.11,0-1.65-2.055-3.58-3.816-4.46-1.467-.77-3.053-1.24-4.52-2.82a6.762,6.762,0,0,1,1.35-.77,8.314,8.314,0,0,1,1.409.47c0.352,0.12.352,1.71,1.174,1.71a18.893,18.893,0,0,1,3.464-.89h1.115a0.561,0.561,0,0,0,.411-0.7,22.619,22.619,0,0,0-1-3.94c-0.352-1.58-2.348-2.29-3.522-2.7-0.763-.23-1.585-0.53-2.348-0.76-0.588-.18-1.233-0.41-1.82-0.53-0.47-.12-1.116-0.29-1.644-0.47a9.693,9.693,0,0,1-1.527-.47,10.154,10.154,0,0,1-1.937-.94,18.893,18.893,0,0,0-2.759-1.7C798.284,4034.98,795.29,4037.56,794.937,4038.15Z" transform="translate(-793 -4034.97)"/>
</svg>
