<svg xmlns="http://www.w3.org/2000/svg" width="11.22" height="24.75" viewBox="0 0 11.22 24.75">
  <defs>
    <style>
      .cls-1 {
        fill: #fff;
        fill-rule: evenodd;
      }
    </style>
  </defs>
  <path id="Path" class="cls-1" d="M1361.8,9520.12v4.07h-2.55a1.712,1.712,0,0,0-1.44,1.89v3.15h3.82v4.31h-3.82v11.33h-3.9v-11.33h-3.35v-4.31h3.35v-3.88c0.04-.33.08-0.77,0.12-1.06a9.018,9.018,0,0,1,.43-1.4,4.3,4.3,0,0,1,2.88-2.57c0.21-.05.47-0.1,0.72-0.15a3.987,3.987,0,0,0,.77-0.05h2.97Z" transform="translate(-1350.56 -9520.13)"/>
</svg>
