<svg xmlns="http://www.w3.org/2000/svg" width="23.59" height="24.75" viewBox="0 0 23.59 24.75">
  <defs>
    <style>
      .cls-1 {
        fill: #fff;
        fill-rule: evenodd;
      }
    </style>
  </defs>
  <path id="Composite_Path" data-name="Composite Path" class="cls-1" d="M1474.55,9520.11a3.08,3.08,0,0,1,2.77,2.76v19.18a3.2,3.2,0,0,1-2.68,2.81h-18.29a3.139,3.139,0,0,1-2.63-2.76v-19.23a3.114,3.114,0,0,1,2.72-2.76h18.11Zm-0.92,2.76a1.108,1.108,0,0,1,1.01.97v2.86a1.376,1.376,0,0,1-.88,1.02h-3.04a1.351,1.351,0,0,1-.84-0.92v-3.01a1.061,1.061,0,0,1,.93-0.92h2.82Zm-3.38,9.54a4.718,4.718,0,0,1-4.71,4.8,4.62,4.62,0,0,1-4.48-3.2c-0.09-.34-0.23-0.97-0.23-1.06v-1.02a4.826,4.826,0,0,1,4.71-4.31A4.748,4.748,0,0,1,1470.25,9532.41Zm-11.78-1.79a8.025,8.025,0,0,0-.32,2.04,7.392,7.392,0,1,0,14.78-.05,8.369,8.369,0,0,0-.32-1.99h2.03v10.56a1.219,1.219,0,0,1-.78.82h-16.77a1.01,1.01,0,0,1-.74-0.87v-10.51h2.12Z" transform="translate(-1453.72 -9520.13)"/>
</svg>
