<svg xmlns="http://www.w3.org/2000/svg" width="17" height="25" viewBox="0 0 17 25">
  <defs>
    <style>
      .cls-1 {
        fill: #fa8161;
        fill-rule: evenodd;
      }
    </style>
  </defs>
  <path id="Composite_Path" data-name="Composite Path" class="cls-1" d="M914.5,9322.13a9.764,9.764,0,0,1-.552,2.92c-2.1,4.37-4.747,8.74-7.286,13.11a0.849,0.849,0,0,1-.662.34,0.525,0.525,0,0,1-.552-0.22c-2.539-4.15-5.188-8.52-7.286-12.78a7.381,7.381,0,0,1-.662-3.37,8.429,8.429,0,0,1,8.5-8.63A8.568,8.568,0,0,1,914.5,9322.13Zm-4.636.67a3.865,3.865,0,0,1-3.864,3.93A3.87,3.87,0,1,1,909.864,9322.8Z" transform="translate(-897.5 -9313.5)"/>
</svg>
