<svg xmlns="http://www.w3.org/2000/svg" width="54" height="149.97" viewBox="0 0 54 149.97">
  <defs>
    <style>
      .cls-1 {
        fill: #fff;
        fill-rule: evenodd;
      }
    </style>
  </defs>
  <path id="Composite_Path" data-name="Composite Path" class="cls-1" d="M262.65,1885.3q4.812-43.08-.734-50.27-5.544,7.185-.733,50.27h-1.112c-4.093-12.28-7.506-31.71-4.618-44.48q1.4-6.18,6.463-5.8,5.067-.375,6.464,5.8c2.888,12.77-.526,32.2-4.618,44.48H262.65Zm-22.241-26.25q-3.3-17.9,12.281-23.05-11.477,5.025-10.8,19.22,0.288,10.425,14.521,30.08h-0.936q-13.833-18.39-15.063-26.25h0Zm17.389-23.86q-10.26,3.075-7.664,24.77a99.808,99.808,0,0,0,8.543,25.34h-1.316c-3.8-6.32-10.832-18.32-11.937-30.02-0.853-9.03,1.8-18.84,12.374-20.09h0Zm25.626,23.86q3.3-17.9-12.281-23.05,11.475,5.025,10.8,19.22-0.288,10.425-14.521,30.08h0.936q13.833-18.39,15.063-26.25h0Zm-17.389-23.86q10.26,3.075,7.664,24.77a99.808,99.808,0,0,1-8.543,25.34h1.315c3.8-6.32,10.833-18.32,11.938-30.02,0.853-9.03-1.8-18.84-12.374-20.09h0Z" transform="translate(-230 -1835.03)"/>
  <path id="Path" class="cls-1" d="M268.034,1885.89H255.8l1.783,2.62h8.669l1.783-2.62h0Z" transform="translate(-230 -1835.03)"/>
  <path id="Path-2" data-name="Path" class="cls-1" d="M261.912,1889.1h1.761l-1.752,2.73v0.02l0-.01,0,0.01v-0.02l-1.752-2.73h1.752Z" transform="translate(-230 -1835.03)"/>
  <path id="Path-3" data-name="Path" class="cls-1" d="M265.06,1893.75h-6.287v2.83h6.287v-2.83h0Z" transform="translate(-230 -1835.03)"/>
  <path id="Composite_Path-2" data-name="Composite Path" class="cls-1" d="M247.262,1983.23c2.839,0,5.518.04,7.88,0.1a2.484,2.484,0,0,0-1.561-.95q-3.168-.63-1.931-2.89a5.906,5.906,0,0,0,.494-3.26,22.083,22.083,0,0,1,.212-8.07,2.947,2.947,0,0,0,.189-1.97,13,13,0,0,1-.424-4.27,20.081,20.081,0,0,1-2.968.47,8.379,8.379,0,0,0-.541,1.36,6.275,6.275,0,0,1-2.52,3.17q-5.486,8.19-5.111,11.74a5.22,5.22,0,0,0,1.875,4.36c0.109,0.08.223,0.16,0.335,0.24,1.306-.02,2.669-0.03,4.071-0.03h0Zm-8.219-37.71c-0.293,1.53-.318,2.21-2.247,1.34-0.249.06-.308,0.17-0.179,0.33,0,0,.354.23,1.062,0.7a0.132,0.132,0,0,1-.021.2s-0.7.08-2.107,0.23c-0.235.14-.233,0.27,0.005,0.4,0,0,.6.01,1.8,0.02,0.209,0.17.174,0.36-.106,0.56l-1.861.96c-0.174.29-.083,0.44,0.272,0.42,0,0,.625-0.23,1.875-0.7a0.277,0.277,0,0,1,.41.13,8.268,8.268,0,0,1-1.158,1.98c-0.055.25,0.049,0.36,0.314,0.33,1.577-1.2,2.418-3.94,3.767-1.89a1.944,1.944,0,0,1,.145.23,0.539,0.539,0,0,0,.409.34,0.61,0.61,0,0,0,.114-0.85c-0.849-1.71-1.233-2.08-.6-3.87,1.009-2.87,2.2-7.63,4.162-9.91,1.941,1.15,1.745-1.97,2.716-2.59,2.5,2.63,1.41,7.43-.284,10.24-2.8,5.24-1.79,14.92-4.427,16.77a9.549,9.549,0,0,0,4.427,1.43,14.116,14.116,0,0,1-3.391.12,5.323,5.323,0,0,1-1.649,2.29q-2.419,1.755-3.673,9.11a4.016,4.016,0,0,1-1.79,2.7,2.039,2.039,0,0,0,.118,2.57,17.592,17.592,0,0,1,1.377,4.25c-5.1.15-8.519,0.43-8.519,0.76,0,0.48,7.728.88,17.262,0.88s17.262-.4,17.262-0.88c0-.28-2.513-0.53-6.44-0.69q0.368-.555-0.476-0.93a7.313,7.313,0,0,1-2.685-2.67q-1.164-1.11,1.225-8.11a12.885,12.885,0,0,0,.565-4.46,6.568,6.568,0,0,0,.306-2.67,6.307,6.307,0,0,1,.518-2.98,11.4,11.4,0,0,1-3.226-.36,31.35,31.35,0,0,0,9.184-1.43q0.672-7.125-2.826-15.65a6.822,6.822,0,0,1,.1-3.53c1.956-7.13-1.536-12.98-2.56-14.56a5.245,5.245,0,0,0,1.093-2.95,1.421,1.421,0,0,0-.891-1.08,25.6,25.6,0,0,0,.426-7.6c-0.023-4.94-2.465-7.98.4-12.11a0.629,0.629,0,0,0,.01-0.89,0.573,0.573,0,0,0-.475.28,1.451,1.451,0,0,1-.185.22c-1.708,1.91-2.163-1.06-3.615-2.54-0.27-.07-0.394.02-0.375,0.29a8.568,8.568,0,0,1,.9,2.23,0.3,0.3,0,0,1-.445.08c-1.223-.69-1.834-1.03-1.834-1.03-0.366-.07-0.482.07-0.346,0.4,1.188,0.85,1.782,1.28,1.782,1.28,0.258,0.26.266,0.45,0.025,0.59-1.244-.17-1.866-0.25-1.866-0.25-0.266.1-.288,0.23-0.067,0.41,1.433,0.38,2.149.56,2.149,0.56a0.148,0.148,0,0,1-.009.22c-0.8.37-1.206,0.56-1.206,0.56-0.158.14-.113,0.27,0.134,0.37,1.275-.36,1.964-0.2,2.065.49a24.42,24.42,0,0,1-.151,3.69,27.037,27.037,0,0,0,.071,6.15c0.281,1.16-.416,4.14-0.447,5.7,1.767,2.83-1.877,2.79-1.378,4.92-0.67-.48-0.474-1.28.589-2.41,0.907-1.05.685-1.59-.472-2.2a0.6,0.6,0,0,1-.111-0.67c0.071-.39-0.129-0.48-0.518-0.45a0.618,0.618,0,0,0-.047-0.48,0.77,0.77,0,0,1-.948-0.26,1.952,1.952,0,0,0,.17-0.52q-0.059-.4-0.488-0.18a2.233,2.233,0,0,1-2.815-.98,1.74,1.74,0,0,0,.765-1.8c-0.388,1.45-2.727-1.68-3.909.98a5.79,5.79,0,0,0-4.262,6.26l-0.913.22c-1.4-2.9-7.007.79-4.474,4.53,1.315,1.94,6.032,5.55,1.55,8.08a7.9,7.9,0,0,0,4.4-1.59,15.677,15.677,0,0,0-2.379,4.02c-0.5,2.26-.427,4.41-1.061,6.9h0Zm7.291-15.66a3.927,3.927,0,0,0-3.11,1.23c-0.98-2.29-3.516-4.69-2.039-6.15l1.023-.26c0.724,2.07,2.718,3.6,6.05,3.03a4.214,4.214,0,0,1-1.924,2.15h0Z" transform="translate(-230 -1835.03)"/>
</svg>
