<svg xmlns="http://www.w3.org/2000/svg" width="24" height="25.13" viewBox="0 0 24 25.13">
  <defs>
    <style>
      .cls-1 {
        fill: #fa8161;
        fill-rule: evenodd;
      }
    </style>
  </defs>
  <path id="Composite_Path" data-name="Composite Path" class="cls-1" d="M900.2,9427.01a1.271,1.271,0,0,1,1.127,1.17v1.08a22.84,22.84,0,0,0,.329,2.59c0.094,0.64.47,1.76,0.47,1.86a2.44,2.44,0,0,1-.282.73c-0.986,1.08-3.053,3.13-3.053,3.23a11.838,11.838,0,0,0,.987,1.81c0.281,0.49.7,1.02,1.08,1.56a27.16,27.16,0,0,0,2.536,2.84c0.281,0.29,3.616,2.98,4.179,2.98,0.094,0,1.973-2.1,3.006-3.08a1.912,1.912,0,0,1,.939-0.29,29.588,29.588,0,0,0,4.274.88h1.033a1.39,1.39,0,0,1,1.174,1.02v5.53c-0.329,1.22-1.174,1.07-1.832,1.07a22.686,22.686,0,0,1-21.274-16.87,28.263,28.263,0,0,1-.892-5.37v-1.72a1.212,1.212,0,0,1,1.08-1.02H900.2Zm6.716,0c0.751,0.1,1.5.24,2.254,0.39,0.47,0.1.892,0.34,1.409,0.49,2.536,0.83,5.964,4.55,6.669,7.23,0.14,0.54.328,1.13,0.469,1.67,0.094,0.54.282,1.56,0.282,1.71v0.98h-2.63c-0.047-.64-0.141-1.32-0.235-2.01-0.375-3.08-3.522-6.35-5.494-6.99-0.329-.1-0.611-0.24-0.94-0.34-0.422-.15-0.892-0.2-1.268-0.3-0.469-.04-0.939-0.04-1.409-0.09v-2.74h0.893Zm0.516,5.67c2.349,0.29,4.744,3.13,4.978,4.94,0.047,0.29.141,0.63,0.188,0.98,0.047,0.24.047,0.58,0.094,0.88h-2.677c0-.25-0.094-0.54-0.094-0.79,0-1.27-1.831-3.32-3.146-3.32-0.235,0-.517-0.05-0.752-0.05v-2.79Z" transform="translate(-894 -9427)"/>
</svg>
