<svg xmlns="http://www.w3.org/2000/svg" width="25" height="25" viewBox="0 0 25 25">
  <defs>
    <style>
      .cls-1 {
        fill: #fa8161;
        fill-rule: evenodd;
      }
    </style>
  </defs>
  <path id="Path" class="cls-1" d="M918.5,9512.14c0,0.09-.391,2.49-0.587,3.76-0.147,1.03-.343,2.16-0.489,3.23-0.147.98-.343,1.96-0.441,2.94-0.1.58-.244,1.32-0.293,1.95-0.049.49-.2,1.08-0.245,1.62-0.1.59-.245,1.32-0.293,1.96-0.147,1.12-.392,2.39-0.539,3.57a6.066,6.066,0,0,1-.391,1.76,0.949,0.949,0,0,1-.783.44l-7.338-2.55c-0.441.59-3.474,5.68-3.669,5.68a0.573,0.573,0,0,1-.539-0.49v-6.11a1.334,1.334,0,0,1,.245-0.74c3.522-4.16,7.681-8.32,11.3-12.43l-14.285,11.7c-1.077-.39-2.2-0.83-3.229-1.18-0.636-.24-1.321-0.49-1.957-0.68-0.392-.15-1.468-0.39-1.468-1.03a0.359,0.359,0,0,1,.1-0.34,3.467,3.467,0,0,1,1.467-.98c0.734-.44,1.615-0.88,2.447-1.37,6.653-3.72,13.307-7.53,20.058-11.25a0.58,0.58,0,0,1,.392-0.1A0.622,0.622,0,0,1,918.5,9512.14Z" transform="translate(-893.5 -9511.5)"/>
</svg>
