<svg xmlns="http://www.w3.org/2000/svg" width="33.562" height="30" viewBox="0 0 33.562 30">
  <defs>
    <style>
      .cls-1 {
        fill: #270d4c;
      }

      .cls-1, .cls-2 {
        fill-rule: evenodd;
      }

      .cls-2 {
        fill: #fff;
      }
    </style>
  </defs>
  <path id="Composite_Path" data-name="Composite Path" class="cls-1" d="M828.978,5905.24a2.931,2.931,0,0,1,.434,1.19c0,1.34-1.158,1.79-2.461,3.35l-5.935-6.1c1.592-1.71,2.027-2.46,3.257-2.46C825.793,5901.22,827.53,5903.83,828.978,5905.24Zm-3.4,5.96-14.042,14.29h-5.791v-6.1l13.9-14.3Zm-5.5-2.76-7.745,8.04a0.738,0.738,0,0,1-.434-0.52l7.745-7.96A0.88,0.88,0,0,1,820.075,5908.44Zm-6.876,12.58-2.317,2.46h-1.23v-2.01H807.7v-1.19l2.389-2.46Z" transform="translate(-795.844 -5901)"/>
  <path id="Path" class="cls-2" d="M815.8,5901c0.073,0,2.606.15,2.606,1.12a4.02,4.02,0,0,1-1.592,1.71c-0.217,0-1.014-.22-1.231-0.22H802.36a3.539,3.539,0,0,0-3.4,3.49v17.72a3.609,3.609,0,0,0,3.4,3.57h13.227c1.448,0.15,3.619-2.08,3.475-3.49v-2.98a6.163,6.163,0,0,1,1.881-1.71,0.649,0.649,0,0,1,.652.44v4.69a6.176,6.176,0,0,1-5.574,5.66H801.926a6.083,6.083,0,0,1-5.5-5.96v-18.09c-0.217-2.38-1.612-5.65.85-5.88,0.144,0,4.506,0,4.8-.07H815.8Z" transform="translate(-795.844 -5901)"/>
</svg>
