<svg xmlns="http://www.w3.org/2000/svg" width="25.87" height="21.38" viewBox="0 0 25.87 21.38">
  <defs>
    <style>
      .cls-1 {
        fill: #fff;
        fill-rule: evenodd;
      }
    </style>
  </defs>
  <path id="Path" class="cls-1" d="M1419.48,9523.46a14.051,14.051,0,0,0,3.15-1.24h0.15v0.16a6.928,6.928,0,0,1-1.83,2.62c0.05,0.06,0,.06.11,0.06a21.274,21.274,0,0,0,2.43-.72v0.1a13.22,13.22,0,0,1-2.59,2.78v1.44c-1.01,9.63-7.92,14.53-15.03,14.53a15.6,15.6,0,0,1-8.23-2.42l0.15-.11a12.24,12.24,0,0,0,5.23-.82,10.21,10.21,0,0,0,2.14-1.24c-0.05-.05-0.16-0.05-0.21-0.1a5.514,5.514,0,0,1-4.47-3.81c0.51,0.05.97,0.1,1.07,0.1a2.39,2.39,0,0,0,.86-0.15c-2.08-.47-3.76-3.2-3.76-4.64v-0.72a8.058,8.058,0,0,0,2.04.57,5.621,5.621,0,0,1-1.93-3.3c0-.1-0.05-0.2-0.05-0.31v-1.34a4.9,4.9,0,0,1,.71-2.11,0.5,0.5,0,0,1,.3.26,14.84,14.84,0,0,0,9.14,5.15,6.634,6.634,0,0,0,.87.15h0.4a1.955,1.955,0,0,0,0-1.13,5.384,5.384,0,0,1,5.39-5.41A6.611,6.611,0,0,1,1419.48,9523.46Z" transform="translate(-1397.63 -9521.81)"/>
</svg>
