<svg xmlns="http://www.w3.org/2000/svg" viewBox="0 0 345.6 320.12"><defs><style>.a{fill:none;}.b{clip-path:url(#a);}.c{fill:#0b6664;}.d{fill:#0c6170;}</style><clipPath id="a"><path class="a" d="M-118.32-259h595.28v841.89h-595.28z"/></clipPath></defs><title>logo</title><g class="b"><path class="c" d="M106.14 318.27v-1c-2.9-.2-4.66-1.76-4.66-4s1.76-3.82 4.66-4v-1h1.25v1c2.89.2 4.67 1.77 4.67 4s-1.79 3.83-4.67 4v1zm0-2.1v-5.8c-2.13.18-3.37 1.31-3.37 2.9s1.23 2.72 3.37 2.9m1.25-5.8v5.8c2.12-.18 3.38-1.31 3.38-2.9s-1.26-2.72-3.38-2.9M121.51 318.27v-10h4a3 3 0 1 1 0 6h-2.78v4zm5.88-7a1.86 1.86 0 0 0-2-1.91h-2.63v3.82h2.63a1.86 1.86 0 0 0 2-1.91"/><path class="c" d="M137.85 318.27v-10.03h6.56v1.11h-5.32v3.23h5.22v1.12h-5.22v3.45h5.32v1.12h-6.56zM153.17 316.79l.74-.8a3.89 3.89 0 0 0 3 1.34c1.58 0 2.53-.72 2.53-1.88s-1.07-1.77-2.6-1.77h-2v-1.11h2c1.34 0 2.43-.5 2.43-1.65s-1.08-1.71-2.4-1.71a3.76 3.76 0 0 0-2.84 1.22l-.69-.78a4.75 4.75 0 0 1 3.62-1.55c2 0 3.59 1 3.59 2.68a2.45 2.45 0 0 1-2.16 2.33 2.52 2.52 0 0 1 2.32 2.46c0 1.67-1.5 2.89-3.76 2.89a4.61 4.61 0 0 1-3.77-1.65"/><path class="c" d="M170.2 318.27v-10.03h6.57v1.11h-5.32v3.23h5.21v1.12h-5.21v3.45h5.32v1.12h-6.57zM186.26 318.27v-10h4a3 3 0 1 1 0 6h-2.78v4zm5.88-7a1.86 1.86 0 0 0-2-1.91h-2.63v3.82h2.63a1.86 1.86 0 0 0 2-1.91"/><path class="c" d="M209.7 318.27v-4.6h-5.86v4.6h-1.25v-10.03h1.25v4.32h5.86v-4.32h1.25v10.03h-1.25zM222.05 308.24v4h2.78a3 3 0 1 1 0 6h-4v-10zm0 5.1v3.82h2.63a1.91 1.91 0 1 0 0-3.82zm7-5.1h1.25v10h-1.25zM240.16 318.27v-10h1.25v7.83l5.77-7.83h1.28v10h-1.25v-8l-5.85 8zm4.15-10.6a3.32 3.32 0 0 1-2.65-1.32l.56-.48a2.53 2.53 0 0 0 2.09 1.08 2.46 2.46 0 0 0 2.07-1.08l.56.48a3.25 3.25 0 0 1-2.63 1.32"/><path class="c" d="M277.73 318.27h-8.03v-10.03h1.25v8.91h5.86v-8.91h1.25v8.91h.91v2.97h-1.24v-1.85zM288.07 318.27v-10.03h6.57v1.11h-5.32v3.23h5.22v1.12h-5.22v3.45h5.32v1.12h-6.57zM311.25 318.27v-4.6h-5.86v4.6h-1.25v-10.03h1.25v4.32h5.86v-4.32h1.25v10.03h-1.25zM324.83 318.27v-8.92h-3.17v-1.11h7.6v1.11h-3.18v8.92h-1.25zM338.43 318.27v-10h4a3 3 0 1 1 0 6h-2.78v4zm5.88-7a1.86 1.86 0 0 0-2-1.91h-2.63v3.82h2.63a1.86 1.86 0 0 0 2-1.91"/><path class="d" d="M91.61 233.91l-12.61 12q-12.84-13.58-28.9-13.58a31.67 31.67 0 0 0-32.1 32.11 33.79 33.79 0 0 0 4.11 16.8 29.47 29.47 0 0 0 11.63 11.52 33.77 33.77 0 0 0 16.7 4.18 34.39 34.39 0 0 0 14.32-2.94q6.49-2.93 14.26-10.65l12.2 12.73q-10.48 10.23-19.8 14.18a54.08 54.08 0 0 1-21.28 4q-22.05 0-36.1-14t-14.04-35.85a49 49 0 0 1 6.4-25.14 47.57 47.57 0 0 1 18.32-17.67 51.67 51.67 0 0 1 25.68-6.68 54.52 54.52 0 0 1 41.21 19"/><path class="d" d="M100.72 296.77v-64.4h45.57v12.07h-31.86v13.62h31.18v12.06h-31.18v14.58h31.86v12.07h-45.57zM193.4 296.77l-12.65-22.88h-10v22.88h-13.75v-64.4h30.12c13.42 0 21.63 8.79 21.63 20.76 0 11.39-7.15 17.47-14.1 19.12l14.48 24.52zm1.35-43.64c0-5.41-4.15-8.69-9.65-8.69h-14.39v17.38h14.39c5.5 0 9.65-3.28 9.65-8.69M213.29 264.57c0-19.41 14.19-33.31 33.6-33.31s33.69 13.9 33.69 33.31-14.19 33.31-33.69 33.31-33.6-13.9-33.6-33.31m53.2 0c0-12.07-7.72-21.14-19.6-21.14s-19.5 9.08-19.5 21.14 7.63 21.14 19.5 21.14 19.6-9.17 19.6-21.14"/><path class="d" d="M328.66 296.77l-16.12-23.56-16.22 23.56h-16.32l23.37-33.02-21.92-31.38h16.31l14.78 22.02 14.57-22.02h16.51l-21.91 31.28 23.36 33.12h-16.41zM192.88 0a103.81 103.81 0 1 0 103.82 103.81 103.81 103.81 0 0 0-103.82-103.81m36.75 62.9a54.94 54.94 0 1 0 0 81.83 113.39 113.39 0 0 0 10.57 20.77 77.7 77.7 0 1 1 0-123.37 113.42 113.42 0 0 0-10.57 20.77m5.61 40.92a42.36 42.36 0 1 1-42.36-42.36 42.36 42.36 0 0 1 42.36 42.36"/></g></svg>