<svg width="100" height="100" viewBox="0 0 100 100" fill="none" xmlns="http://www.w3.org/2000/svg">
<path d="M51.0458 99.1426L56.0453 97.0816C58.7185 95.9797 59.9837 92.8983 58.8817 90.2455L57.5962 87.1438C60.1061 85.2869 62.2896 83.083 64.1669 80.5731L67.2686 81.8586C68.5542 82.3892 69.9827 82.3892 71.2682 81.8586C72.5538 81.3281 73.5741 80.3078 74.1047 79.0222L76.1861 74.0227C77.288 71.3495 76.0229 68.2886 73.3497 67.1867L68.7583 65.2889C67.7176 64.8604 66.5544 65.3501 66.1259 66.3908C65.6974 67.4315 66.1871 68.5947 67.2278 69.0232L71.8192 70.921C72.4314 71.1659 72.7171 71.8801 72.4722 72.4923L70.3908 77.4917C70.2683 77.7774 70.0439 78.0223 69.7378 78.1447C69.4521 78.2672 69.1256 78.2672 68.8195 78.1447L64.2281 76.247C63.3303 75.8797 62.31 76.1858 61.7794 76.9816C59.7184 80.0833 57.1064 82.6953 54.0047 84.7563C53.2089 85.2869 52.8824 86.3276 53.2497 87.205L55.1474 91.7964C55.3923 92.4086 55.1066 93.1024 54.4944 93.3677L49.495 95.4287C49.2093 95.5511 48.8828 95.5511 48.5767 95.4287C48.291 95.3063 48.0461 95.0818 47.9237 94.7757L46.0259 90.1843C45.6586 89.2865 44.7199 88.7763 43.7608 88.9804C40.1286 89.715 36.4147 89.6946 32.7824 88.9804C31.8437 88.7967 30.8846 89.3069 30.5173 90.1843L28.6195 94.7757C28.3747 95.3879 27.6604 95.6736 27.0483 95.4287L22.0488 93.3473C21.7631 93.2248 21.5182 93.0004 21.3958 92.6943C21.2733 92.4086 21.2733 92.0821 21.3958 91.776L23.2935 87.1846C23.6609 86.2868 23.3548 85.2665 22.5589 84.7359C19.4572 82.6749 16.8452 80.0629 14.7842 76.9612C14.2536 76.1654 13.2129 75.8389 12.3355 76.2062L7.74411 78.1039C7.43802 78.2264 7.13193 78.2264 6.82583 78.1039C6.54015 77.9815 6.29528 77.757 6.17284 77.4509L4.11183 72.4514C3.98939 72.1658 3.98939 71.8393 4.11183 71.5332C4.23426 71.2475 4.45873 71.0026 4.76482 70.8802L9.35619 68.9824C10.2541 68.6151 10.7438 67.6764 10.5601 66.7173C9.82553 63.0851 9.84593 59.3711 10.5601 55.7389C10.7438 54.8002 10.2337 53.8411 9.35619 53.4738L4.76482 51.576C4.15264 51.3311 3.86695 50.6169 4.11183 50.0048L6.19325 45.0053C6.43812 44.3931 7.15233 44.1074 7.76451 44.3523L12.3559 46.25C13.2537 46.6173 14.2741 46.3113 14.8046 45.5154C16.8656 42.4137 19.4776 39.8017 22.5793 37.7407C23.3752 37.2101 23.7017 36.1694 23.3344 35.292L21.4366 30.7006C21.3142 30.4149 21.3142 30.0884 21.4366 29.7823C21.559 29.4966 21.7835 29.2518 22.0896 29.1293L27.0891 27.0683C27.3748 26.9459 27.7013 26.9459 28.0073 27.0683C28.293 27.1908 28.5379 27.4152 28.6603 27.7213L30.5581 32.3127C30.9866 33.3534 32.1702 33.8431 33.1905 33.4146C34.2312 32.9861 34.721 31.8025 34.2924 30.7822L32.3947 26.1909C31.8641 24.9053 30.8438 23.885 29.5582 23.3544C28.9052 23.0891 28.2318 22.9463 27.5584 22.9463C26.885 22.9463 26.1912 23.0891 25.5586 23.3544L20.5591 25.4154C19.2735 25.946 18.2532 26.9663 17.7227 28.2519C17.1921 29.5375 17.1921 30.9659 17.7227 32.2515L19.0083 35.3532C16.4983 37.2101 14.3149 39.414 12.4375 41.9239L9.33578 40.6384C6.66259 39.5364 3.60167 40.8016 2.49975 43.4748L0.397919 48.4743C-0.70401 51.1475 0.561167 54.2084 3.23436 55.3103L6.33609 56.5959C5.88715 59.6772 5.88715 62.7994 6.33609 65.8807L3.23436 67.1663C1.94878 67.6968 0.928477 68.7171 0.397919 70.0027C-0.13264 71.2883 -0.13264 72.7167 0.397919 74.0023L2.45893 79.0018C2.98949 80.2874 4.0098 81.3077 5.29538 81.8382C6.58096 82.3688 8.00939 82.3688 9.29497 81.8382L12.3967 80.5527C14.2536 83.0626 16.4575 85.2461 18.9675 87.1234L17.6819 90.2251C17.1513 91.5107 17.1513 92.9391 17.6819 94.2247C18.2124 95.5103 19.2327 96.5306 20.5183 97.0612L25.5178 99.1426C28.191 100.245 31.2519 98.9793 32.3538 96.3062L33.6394 93.2044C36.7207 93.6534 39.8429 93.6534 42.9242 93.2044L44.2098 96.3062C44.7403 97.5917 45.7606 98.612 47.0462 99.1426C48.3318 99.6732 49.7602 99.6732 51.0458 99.1426Z" fill="#171717"/>
<path d="M21.8651 61.3716C21.9263 70.3911 29.2929 77.6761 38.292 77.6761C38.3328 77.6761 38.3736 77.6761 38.4145 77.6761C42.8018 77.6352 46.9238 75.9007 50.0051 72.7786C53.0864 69.6565 54.7597 65.514 54.7393 61.1267C54.7393 60.0248 53.821 59.1269 52.7191 59.1269H52.6987C51.5764 59.1269 50.6785 60.0452 50.6989 61.1675C50.7193 64.4733 49.4541 67.5955 47.1278 69.9626C44.8016 72.3297 41.6998 73.6357 38.394 73.6561C38.3736 73.6561 38.3328 73.6561 38.3124 73.6561C31.5172 73.6561 25.9667 68.1464 25.9259 61.3512C25.8851 54.5152 31.3948 48.9239 38.2308 48.8627C39.3531 48.8627 40.251 47.9444 40.2306 46.8221C40.2306 45.7201 39.3123 44.8223 38.2104 44.8223C38.2104 44.8223 38.2104 44.8223 38.19 44.8223C29.1093 44.8835 21.8039 52.3113 21.8651 61.3716Z" fill="#171717"/>
<path d="M72.3906 0.458984H68.4522C66.0443 0.458984 64.0853 2.41797 64.0853 4.82589V6.84609C62.1263 7.37665 60.249 8.15208 58.494 9.17238L57.0656 7.74396C56.2494 6.92771 55.1474 6.45837 53.9843 6.45837C52.8211 6.45837 51.7192 6.90731 50.903 7.74396L48.1277 10.5192C47.3115 11.3354 46.8422 12.4374 46.8422 13.6005C46.8422 14.7636 47.2911 15.8656 48.1277 16.6818L49.5562 18.1102C48.5359 19.8652 47.7604 21.7425 47.2299 23.7015H45.2097C42.8018 23.7015 40.8428 25.6605 40.8428 28.0684V32.0068C40.8428 34.4147 42.8018 36.3737 45.2097 36.3737H47.2299C47.7604 38.3327 48.5359 40.21 49.5562 41.965L48.1277 43.3934C47.3115 44.2096 46.8422 45.3116 46.8422 46.4747C46.8422 47.6378 47.2911 48.7398 48.1277 49.556L50.903 52.3312C51.7192 53.1475 52.8211 53.6168 53.9843 53.6168C55.1474 53.6168 56.2494 53.1679 57.0656 52.3312L58.494 50.9028C60.249 51.9231 62.1263 52.6986 64.0853 53.2291V55.2493C64.0853 57.6572 66.0443 59.6162 68.4522 59.6162H72.3906C74.7985 59.6162 76.7575 57.6572 76.7575 55.2493V53.2291C78.7165 52.6986 80.5938 51.9231 82.3487 50.9028L83.7772 52.3312C84.5934 53.1475 85.6953 53.6168 86.8585 53.6168C88.0216 53.6168 89.1236 53.1679 89.9398 52.3312L92.715 49.556C94.4087 47.8623 94.4087 45.0871 92.715 43.3934L91.2866 41.965C92.3069 40.21 93.0823 38.3327 93.6129 36.3737H95.6331C98.041 36.3737 100 34.4147 100 32.0068V28.0684C100 25.6605 98.041 23.7015 95.6331 23.7015H93.6129C93.0823 21.7425 92.3069 19.8652 91.2866 18.1102L92.715 16.6818C94.4087 14.9881 94.4087 12.2129 92.715 10.5192L89.9398 7.74396C89.1236 6.92771 88.0216 6.45837 86.8585 6.45837C85.6953 6.45837 84.5934 6.90731 83.7772 7.74396L82.3487 9.17238C80.5938 8.15208 78.7165 7.37665 76.7575 6.84609V4.82589C76.7371 2.41797 74.7781 0.458984 72.3906 0.458984ZM81.5121 13.3964C81.859 13.6209 82.2467 13.7433 82.6344 13.7433C83.165 13.7433 83.6751 13.5393 84.0629 13.1516L86.6136 10.6008C86.6952 10.5192 86.7769 10.4988 86.8381 10.4988C86.8993 10.4988 86.9809 10.5192 87.0625 10.6008L89.8378 13.376C89.9602 13.4985 89.9602 13.7025 89.8378 13.825L87.287 16.3757C86.6136 17.0491 86.4912 18.1306 87.0421 18.9265C88.5114 21.1099 89.5113 23.5383 90.0214 26.1094C90.2051 27.0481 91.0417 27.7419 92.0008 27.7419H95.6127C95.7963 27.7419 95.9392 27.8848 95.9392 28.0684V32.0068C95.9392 32.1904 95.7963 32.3333 95.6127 32.3333H92.0008C91.0417 32.3333 90.2051 33.0067 90.0214 33.9658C89.5113 36.5369 88.5114 38.9653 87.0421 41.1487C86.5116 41.9445 86.6136 43.0261 87.287 43.6995L89.8378 46.2502C89.9602 46.3727 89.9602 46.5767 89.8378 46.6992L87.0625 49.4744C86.9809 49.556 86.8993 49.5764 86.8381 49.5764C86.7769 49.5764 86.6952 49.556 86.6136 49.4744L84.0629 46.8828C83.3895 46.2094 82.3079 46.087 81.5121 46.6379C79.3286 48.1072 76.9003 49.1071 74.3292 49.6172C73.3905 49.8009 72.6967 50.6375 72.6967 51.5966V55.2085C72.6967 55.3922 72.5538 55.535 72.3702 55.535H68.4318C68.2481 55.535 68.1053 55.3922 68.1053 55.2085V51.5966C68.1053 50.6375 67.4319 49.8009 66.4728 49.6172C63.9016 49.1071 61.4733 48.1072 59.2899 46.6379C58.494 46.1074 57.4125 46.2094 56.7391 46.8828L54.1883 49.4336C54.1067 49.5152 54.0251 49.5356 53.9639 49.5356C53.9027 49.5356 53.821 49.5152 53.7394 49.4336L50.9642 46.6584C50.8826 46.5767 50.8622 46.4951 50.8622 46.4339C50.8622 46.3727 50.8826 46.291 50.9642 46.2094L53.515 43.6587C54.1884 42.9853 54.3108 41.9037 53.7598 41.1079C52.2906 38.9244 51.2907 36.4961 50.7805 33.925C50.5969 32.9863 49.7602 32.2925 48.8011 32.2925H45.1893C45.0056 32.2925 44.8628 32.1496 44.8628 31.966V28.0276C44.8628 27.8439 45.0056 27.7011 45.1893 27.7011H48.8011C49.7602 27.7011 50.5969 27.0277 50.7805 26.0686C51.2907 23.4974 52.2906 21.0691 53.7598 18.8857C54.2904 18.0898 54.1884 17.0083 53.515 16.3349L50.9642 13.7842C50.8826 13.7025 50.8622 13.6209 50.8622 13.5597C50.8622 13.4985 50.8826 13.4168 50.9642 13.3352L53.7394 10.56C53.821 10.4784 53.9027 10.458 53.9639 10.458C54.0251 10.458 54.1067 10.4784 54.1883 10.56L56.7391 13.1108C57.4125 13.7842 58.494 13.9066 59.2899 13.3556C61.4733 11.8864 63.9016 10.8865 66.4728 10.3763C67.4115 10.1927 68.1053 9.35604 68.1053 8.39695V4.82589C68.1053 4.64223 68.2481 4.49939 68.4318 4.49939H72.3702C72.5538 4.49939 72.6967 4.64223 72.6967 4.82589V8.43776C72.6967 9.39685 73.3701 10.2335 74.3292 10.4172C76.9003 10.9273 79.3286 11.9272 81.5121 13.3964Z" fill="white"/>
<path d="M58.4326 30.0066C58.4326 36.6182 63.8198 42.0054 70.4314 42.0054C77.043 42.0054 82.4302 36.6182 82.4302 30.0066C82.4302 23.395 77.043 18.0078 70.4314 18.0078C63.8198 18.0078 58.4326 23.395 58.4326 30.0066ZM78.3694 30.0066C78.3694 34.3939 74.7983 37.965 70.411 37.965C66.0237 37.965 62.4526 34.3939 62.4526 30.0066C62.4526 25.6193 66.0237 22.0482 70.411 22.0482C74.7983 22.0482 78.3694 25.6397 78.3694 30.0066Z" fill="white"/>
</svg>
