<svg xmlns="http://www.w3.org/2000/svg" viewBox="0 0 77.88 172.76"><defs><style>.cls-1{fill:#fff;}</style></defs><title>icon_adv_insta</title><g id="Layer_2" data-name="Layer 2"><g id="Слой_1" data-name="Слой 1"><path class="cls-1" d="M39.86,147.09a2.1,2.1,0,0,0-1.06-.49h0a1.5,1.5,0,0,0-1.06.49,2.1,2.1,0,0,0-.49,1.06V171.2a1.5,1.5,0,0,0,.49,1.06,2.1,2.1,0,0,0,1.06.49,1.45,1.45,0,0,0,1.48-1.48V148.22A1.27,1.27,0,0,0,39.86,147.09Z"/><path class="cls-1" d="M37.31,77.08v51.05a1.5,1.5,0,0,0,.49,1.06,2.1,2.1,0,0,0,1.06.49h0a1.45,1.45,0,0,0,1.48-1.48V77.15a1.5,1.5,0,0,0-.49-1.06,2.1,2.1,0,0,0-1.06-.49,1.5,1.5,0,0,0-1.06.49A1.78,1.78,0,0,0,37.31,77.08Z"/><path class="cls-1" d="M25.86,119.93a2.1,2.1,0,0,0-1.06-.49,1.5,1.5,0,0,0-1.06.49,2.1,2.1,0,0,0-.49,1.06v30.69a1.5,1.5,0,0,0,.49,1.06,2.1,2.1,0,0,0,1.06.49,1.45,1.45,0,0,0,1.48-1.48V121.07A1.27,1.27,0,0,0,25.86,119.93Z"/><path class="cls-1" d="M54.36,121a1.5,1.5,0,0,0-.49-1.06,2.1,2.1,0,0,0-1.06-.49h0a1.5,1.5,0,0,0-1.06.49,2.1,2.1,0,0,0-.49,1.06l.07,30.62a1.5,1.5,0,0,0,.49,1.06,2.1,2.1,0,0,0,1.06.49,1.45,1.45,0,0,0,1.48-1.48Z"/><path class="cls-1" d="M46.36,11.46,40.14.72A1.42,1.42,0,0,0,38.87,0,1.79,1.79,0,0,0,37.6.72L31.37,11.46c-10.11,17.47-15,38.89-13.72,60.25l.07,1.2L2.67,86.7a8.57,8.57,0,0,0-2.47,8l7.35,32.67A1.51,1.51,0,0,0,9,128.56a1.39,1.39,0,0,0,1.41-1.13,99.38,99.38,0,0,1,11.1-27.22c1.2-2.05,2.26-3.68,2.76-4.6a1.83,1.83,0,0,0,.21-1.2C16.74,67.11,20.27,36.71,34,12.95l4.95-8.49,4.95,8.49C54.14,30.7,58.81,52.19,57.11,73.55a87,87,0,0,1-1.56,11.31c-.64,3.18-1.34,6.43-2.26,9.48a1.29,1.29,0,0,0,.14,1.13l1.34,2.19h0l1.56,2.69a98.81,98.81,0,0,1,11,26.87,1.52,1.52,0,0,0,3,0l7.35-32.67a8.57,8.57,0,0,0-2.47-8L60.15,72.77l.07-1.2C61.36,50.36,56.48,29.07,46.36,11.46ZM18.58,81.4a88.44,88.44,0,0,0,2.55,12.16l.28,1-.49.92c-.57.85-1.2,1.91-1.84,3.11A109.94,109.94,0,0,0,12,112.72l-3,7.42L3.09,93.91A5.66,5.66,0,0,1,4.5,89l.21-.21L18,76.59ZM74.58,94l-5.87,26.23-3-7.42a93.9,93.9,0,0,0-6.93-13.86l-2.62-4.31.28-1c.78-2.9,1.41-5.52,1.84-8.06L58.88,82l.78-5.16L73,89A5,5,0,0,1,74.58,94Z"/><path class="cls-1" d="M38.8,30.77A9.78,9.78,0,0,0,29,40.53h0a9.76,9.76,0,1,0,19.52,0A9.6,9.6,0,0,0,38.8,30.77Zm7.28,9.69a7.28,7.28,0,1,1-7.28-7.28A7.36,7.36,0,0,1,46.08,40.46Z"/></g></g></svg>