<svg xmlns="http://www.w3.org/2000/svg" viewBox="0 0 103.15 98.45"><defs><style>.cls-1{fill:#fff;}</style></defs><title>icon_instagramm</title><g id="Layer_2" data-name="Layer 2"><g id="Слой_1" data-name="Слой 1"><path class="cls-1" d="M71.34,98.45H31.81A31.85,31.85,0,0,1,0,66.64V31.81A31.85,31.85,0,0,1,31.81,0H71.34a31.85,31.85,0,0,1,31.81,31.81V66.64A31.85,31.85,0,0,1,71.34,98.45ZM31.81,7.07A24.77,24.77,0,0,0,7.07,31.81V66.64A24.77,24.77,0,0,0,31.81,91.38H71.34A24.77,24.77,0,0,0,96.08,66.64V31.81A24.77,24.77,0,0,0,71.34,7.07Z"/><path class="cls-1" d="M51.57,77.54A28.32,28.32,0,1,1,79.89,49.23,28.35,28.35,0,0,1,51.57,77.54Zm0-49.57A21.25,21.25,0,1,0,72.82,49.23,21.27,21.27,0,0,0,51.57,28Z"/><circle class="cls-1" cx="79.46" cy="21.78" r="5.88"/></g></g></svg>