<svg xmlns="http://www.w3.org/2000/svg" viewBox="0 0 62 62"><defs><style>.cls-1{fill:#fff;}</style></defs><title>icon_serv</title><g id="Layer_2" data-name="Layer 2"><g id="Layer_1-2" data-name="Layer 1"><path class="cls-1" d="M62,25.75H59.52V7.35a4.89,4.89,0,0,0-4.88-4.88H36.24V0H25.76V2.47H7.35A4.89,4.89,0,0,0,2.47,7.35v18.4H0v10.5H2.47v18.4a4.89,4.89,0,0,0,4.88,4.88H25.76V62H36.24V59.53h18.4a4.89,4.89,0,0,0,4.88-4.88V36.25H62ZM48.27,36.25a18.16,18.16,0,0,1-12,12V46.54H25.76v1.74a18.17,18.17,0,0,1-12-12H15.5V25.75H13.72a18.17,18.17,0,0,1,12-12v1.74H36.24V13.73a18.16,18.16,0,0,1,12,12h-1.7v10.5Zm-12,14.09A20.11,20.11,0,0,0,50.33,36.25H57A26.32,26.32,0,0,1,36.24,57ZM11.66,36.25a20.09,20.09,0,0,0,14.1,14.09V57A26.72,26.72,0,0,1,5,36.25Zm14.1-24.59a20.09,20.09,0,0,0-14.1,14.09H5A26.72,26.72,0,0,1,25.76,5ZM50.33,25.75A20.11,20.11,0,0,0,36.24,11.66V5A26.31,26.31,0,0,1,57,25.75Zm7.19-18.4V20.49a28.25,28.25,0,0,0-16-16H54.64A2.88,2.88,0,0,1,57.52,7.35ZM27.76,2h6.48V13.46H27.76ZM7.35,4.47H20.5a28.27,28.27,0,0,0-16,16V7.35A2.88,2.88,0,0,1,7.35,4.47ZM2,27.75H13.46v6.5H2Zm2.47,26.9V41.51a28.27,28.27,0,0,0,16,16H7.35A2.88,2.88,0,0,1,4.47,54.65ZM34.24,60H27.76V48.54h6.48Zm20.4-2.47H41.5a28.25,28.25,0,0,0,16-16V54.65A2.88,2.88,0,0,1,54.64,57.53ZM60,34.25H48.54v-6.5H60Z"/></g></g></svg>