<svg xmlns="http://www.w3.org/2000/svg" viewBox="0 0 50.85 47.11"><defs><style>.cls-1{fill:#fff;}</style></defs><title>icon_pnone</title><g id="Layer_2" data-name="Layer 2"><g id="Слой_1" data-name="Слой 1"><path class="cls-1" d="M1.43,5.3S4.22.42,6.49.14s5.2-.28,6,1.21S16.8,11.47,16.8,11.47a3.4,3.4,0,0,1-.32,2.92,29,29,0,0,1-3,3.53,2.58,2.58,0,0,0,0,3.06,55.78,55.78,0,0,0,6.69,8.2C23.86,32.91,31,35.56,31,35.56a2.18,2.18,0,0,0,1.67-.51c.65-.65,4.18-5.06,4.18-5.06a2.47,2.47,0,0,1,3-.6c1.88.86,10,4.92,10,4.92a1.76,1.76,0,0,1,1,1.79c0,1.44-.58,5-1.77,6.15s-4.67,4.86-9.9,4.86S21.49,42.85,14.85,36.21,2.32,22.84.93,16.72-.28,7.82,1.43,5.3Z"/></g></g></svg>