<svg xmlns="http://www.w3.org/2000/svg" viewBox="0 0 54.41 78.2"><defs><style>.cls-1{fill:#fff;}</style></defs><title>icon_adv_platforms</title><g id="Layer_2" data-name="Layer 2"><g id="Слой_1" data-name="Слой 1"><path class="cls-1" d="M52.21,7.1a.55.55,0,0,0,.5.3.78.78,0,0,0,.9-.6l.8-5.1a1.27,1.27,0,0,0-.1-.6.55.55,0,0,0-.5-.3L48.71,0h-.1c-.2,0-.3.1-.4.1a.55.55,0,0,0-.3.5,1.27,1.27,0,0,0,.1.6.55.55,0,0,0,.5.3l3.4.5-47,34.3a.55.55,0,0,0-.3.5,1.27,1.27,0,0,0,.1.6.78.78,0,0,0,1,.2L52.51,3.4,52,6.6C52.11,6.7,52.11,6.9,52.21,7.1Z"/><path class="cls-1" d="M38.81,7.1a.55.55,0,0,0,.5.3.78.78,0,0,0,.9-.6L41,1.7a1.27,1.27,0,0,0-.1-.6.55.55,0,0,0-.5-.3L35.31,0a1.27,1.27,0,0,0-.6.1.55.55,0,0,0-.3.5,1.27,1.27,0,0,0,.1.6.55.55,0,0,0,.5.3l3.3.5L2,28.5l-.2-1.1a22.06,22.06,0,0,1-.3-6.3A20.48,20.48,0,0,1,27.31,3.6a.66.66,0,0,0,.6-.1,1,1,0,0,0,.4-.5.72.72,0,0,0-.5-.9,23.31,23.31,0,0,0-5.9-.8,20.9,20.9,0,0,0-2.5.1A22,22,0,0,0,.11,20.9a22.69,22.69,0,0,0,.9,9,1.21,1.21,0,0,0,.5.5.88.88,0,0,0,.7-.1L39.31,3.2l-.5,3.3C38.61,6.7,38.71,6.9,38.81,7.1Z"/><path class="cls-1" d="M44.71,22.2a.55.55,0,0,0,.5.3.78.78,0,0,0,.9-.6l.8-5.1a1.27,1.27,0,0,0-.1-.6.55.55,0,0,0-.5-.3h0l-5.1-.8h-.1a.67.67,0,0,0-.7.6,1.27,1.27,0,0,0,.1.6.55.55,0,0,0,.5.3l3.7.6L8.61,43.6a.81.81,0,0,0-.3.9,44.15,44.15,0,0,1,2.5,10.6l.1.8a4.32,4.32,0,0,0,1.3,2.6l.6.5-.5.6a5,5,0,0,0-1.4,3.5v5a5.13,5.13,0,0,0,4.8,5.1h.6l.1.5a5.73,5.73,0,0,0,11.2,0l.1-.5.5-.1a5.09,5.09,0,0,0,4.5-5.1V62.9a4.6,4.6,0,0,0-1.3-3.3l-.5-.6.6-.5A4.1,4.1,0,0,0,33,55.8v-.4a42.11,42.11,0,0,1,6.8-19.6,21.25,21.25,0,0,0,3.6-9.1,1.27,1.27,0,0,0-.1-.6.55.55,0,0,0-.5-.3.78.78,0,0,0-.9.6,20.32,20.32,0,0,1-3.4,8.5,42.92,42.92,0,0,0-7.1,20.3v.4A2.4,2.4,0,0,1,29,57.8H14.41A2.47,2.47,0,0,1,12,55.6l-.1-.8a38.25,38.25,0,0,0-2.2-9.9l-.2-.5,35.3-25.8-.4,3C44.51,21.8,44.51,22,44.71,22.2Zm-19.1,52a4.31,4.31,0,0,1-3.9,2.5,4.42,4.42,0,0,1-3.9-2.5l-.5-1.1H26Zm-9.9-14.8h11.8a3.59,3.59,0,0,1,3.6,3.6v5.1a3.59,3.59,0,0,1-3.6,3.6H15.71a3.59,3.59,0,0,1-3.6-3.6V63A3.59,3.59,0,0,1,15.71,59.4Z"/></g></g></svg>