<svg xmlns="http://www.w3.org/2000/svg" viewBox="0 0 322.4 281.4"><defs><style>.cls-1{fill:#fff;}</style></defs><title>icon_telegram</title><g id="Layer_2" data-name="Layer 2"><g id="Layer_1-2" data-name="Layer 1"><path class="cls-1" d="M248.6,281.4a33.78,33.78,0,0,1-13.57-3,10.51,10.51,0,0,1-2.19-1.29L123.7,193.39,85.26,174.82,18.55,152.36l-.16-.06C16.7,151.7,1.9,146.07.15,132-1.36,120,9.09,111.88,18.59,108.55L285.88,3.7c4.38-1.89,18.33-7,28.32-.49,3.06,2,8.19,6.8,8.19,16.53a10.51,10.51,0,0,1-.2,2L274.53,262.12A10.5,10.5,0,0,1,274,264c-.45,1.13-4.71,11.13-15.34,15.49A26.34,26.34,0,0,1,248.6,281.4Zm-4.1-21.85c2.55,1,4.62,1.12,6.17.48a8.28,8.28,0,0,0,3.53-3.35L300.92,21.12a29.31,29.31,0,0,0-6.8,1.9l-.39.16-267.67,105-.44.16a17.93,17.93,0,0,0-3.82,2,13.66,13.66,0,0,0,3.62,2.18l67.16,22.61a10.51,10.51,0,0,1,1.22.5l40,19.33a10.55,10.55,0,0,1,1.82,1.12Z"/><path class="cls-1" d="M171.41,216.74,127.9,256.41c0,1.28-7.12,1.28-7.12,0l8.33-72.72.46-1.28s122-109.67,127-114.33,3.33-5.67,3.33-5.67c.33-5.67-9,0-9,0L89.23,165.07s20.33,66.67,24.33,79.33,6.36,12.44,7.21,12.44"/><path class="cls-1" d="M124.34,267.87a20,20,0,0,1-5.11-.61c-9-1-12.81-10.61-15.68-19.7C99.58,235,80,170.86,79.19,168.14a10.5,10.5,0,0,1,4.41-11.93L245.27,53.54l.18-.11c5.16-3.13,12.64-6.06,19-2.23a12.26,12.26,0,0,1,5.78,8.71,11.38,11.38,0,0,1,.37,1.91c.64,6.06-3.34,10.63-6.87,13.93C259.07,80.1,157.4,171.51,139.2,187.87L133.56,237,164.33,209a10.5,10.5,0,1,1,14.15,15.52l-42.63,38.86C133.77,265.88,130.18,267.87,124.34,267.87Zm-22.73-98.22c3.07,10.05,8.64,28.29,13.49,44.1l3.58-31.26a10.51,10.51,0,0,1,.54-2.33l.46-1.28a10.49,10.49,0,0,1,2.87-4.28c18.76-16.86,45.16-40.6,69-62.08Z"/><path class="cls-1" d="M171.4,227.24a10.45,10.45,0,0,1-6.46-2.23L122.64,192a10.5,10.5,0,1,1,12.93-16.55l42.3,33.05a10.5,10.5,0,0,1-6.47,18.77Z"/></g></g></svg>