<svg xmlns="http://www.w3.org/2000/svg" viewBox="0 0 2323.95 1048.43"><defs><style>.cls-1{isolation:isolate;}.cls-2{mix-blend-mode:soft-light;}.cls-10,.cls-11,.cls-12,.cls-13,.cls-14,.cls-15,.cls-16,.cls-17,.cls-18,.cls-19,.cls-20,.cls-21,.cls-22,.cls-23,.cls-24,.cls-25,.cls-26,.cls-27,.cls-28,.cls-29,.cls-3,.cls-30,.cls-31,.cls-32,.cls-33,.cls-34,.cls-35,.cls-36,.cls-37,.cls-38,.cls-39,.cls-4,.cls-40,.cls-41,.cls-42,.cls-43,.cls-44,.cls-5,.cls-6,.cls-7,.cls-8,.cls-9{fill:none;stroke:#f4f4f4;stroke-miterlimit:10;}.cls-3{stroke-width:0.54px;}.cls-4{stroke-width:0.54px;opacity:0.98;}.cls-5{stroke-width:0.53px;opacity:0.95;}.cls-6{stroke-width:0.52px;opacity:0.93;}.cls-7{stroke-width:0.52px;opacity:0.9;}.cls-8{stroke-width:0.51px;opacity:0.88;}.cls-9{stroke-width:0.5px;opacity:0.85;}.cls-10{stroke-width:0.5px;opacity:0.83;}.cls-11{stroke-width:0.49px;opacity:0.8;}.cls-12{stroke-width:0.48px;opacity:0.78;}.cls-13{stroke-width:0.48px;opacity:0.76;}.cls-14{stroke-width:0.47px;opacity:0.73;}.cls-15{stroke-width:0.46px;opacity:0.71;}.cls-16{stroke-width:0.46px;opacity:0.68;}.cls-17{stroke-width:0.45px;opacity:0.66;}.cls-18{stroke-width:0.44px;opacity:0.63;}.cls-19{stroke-width:0.44px;opacity:0.61;}.cls-20{stroke-width:0.43px;opacity:0.59;}.cls-21{stroke-width:0.42px;opacity:0.56;}.cls-22{stroke-width:0.42px;opacity:0.54;}.cls-23{stroke-width:0.41px;opacity:0.51;}.cls-24{stroke-width:0.4px;opacity:0.49;}.cls-25{stroke-width:0.4px;opacity:0.46;}.cls-26{stroke-width:0.39px;opacity:0.44;}.cls-27{stroke-width:0.38px;opacity:0.41;}.cls-28{stroke-width:0.38px;opacity:0.39;}.cls-29{stroke-width:0.37px;opacity:0.37;}.cls-30{stroke-width:0.36px;opacity:0.34;}.cls-31{stroke-width:0.36px;opacity:0.32;}.cls-32{stroke-width:0.35px;opacity:0.29;}.cls-33{stroke-width:0.34px;opacity:0.27;}.cls-34{stroke-width:0.34px;opacity:0.24;}.cls-35{stroke-width:0.33px;opacity:0.22;}.cls-36{stroke-width:0.32px;opacity:0.2;}.cls-37{stroke-width:0.32px;opacity:0.17;}.cls-38{stroke-width:0.31px;opacity:0.15;}.cls-39{stroke-width:0.3px;opacity:0.12;}.cls-40{stroke-width:0.3px;opacity:0.1;}.cls-41{stroke-width:0.29px;opacity:0.07;}.cls-42{stroke-width:0.28px;opacity:0.05;}.cls-43{stroke-width:0.28px;opacity:0.02;}.cls-44{stroke-width:0.27px;opacity:0;}</style></defs><title>line</title><g class="cls-1"><g id="Layer_2" data-name="Layer 2"><g id="Слой_1" data-name="Слой 1"><g id="_Group_" data-name="&lt;Group&gt;" class="cls-2"><path id="_Path_" data-name="&lt;Path&gt;" class="cls-3" d="M2323.82,281s-196.53-110.14-509.67-110.14-397.37,145.24-792.59,145.24S544.28.27,13,.27"/><path class="cls-4" d="M2305.06,299.74s-186.18-109.4-497.9-123.54C1456.7,160.3,1410.63,332,1015.42,332S544,5.6,12.7,5.6"/><path class="cls-5" d="M2286.29,318.46s-176.21-111.15-486.12-136.94c-388.85-32.36-395.68,166.39-790.89,166.39s-465.63-337-996.9-337"/><path class="cls-6" d="M2267.53,337.17s-166.42-114.78-474.34-150.33c-428-49.41-394.83,177-790,177S543.33,16.27,12.06,16.27"/><path class="cls-7" d="M2248.77,355.89S2092.09,236,1786.2,192.16c-467.57-67.08-394,187.54-789.2,187.54S543,21.6,11.74,21.6"/><path class="cls-8" d="M2230,374.6s-146.94-126-450.79-177.13c-507.47-85.36-393.14,198.12-788.35,198.12S542.7,26.93,11.43,26.93"/><path class="cls-9" d="M2211.24,393.32s-137.17-133-439-190.52C1224.7,98.53,1379.93,411.49,984.72,411.49S542.38,32.26,11.11,32.26"/><path class="cls-10" d="M2192.48,412s-127.34-140.75-427.24-203.92C1177.57,84.34,1373.79,427.38,978.58,427.38S542.06,37.6,10.79,37.6"/><path class="cls-11" d="M2173.72,430.75s-117.45-149-415.46-217.32c-627.83-143.91-390.6,229.84-785.81,229.84S541.74,42.93,10.47,42.93"/><path class="cls-12" d="M2155,449.47s-107.49-157.7-403.69-230.71c-667.93-164.65-389.75,240.42-785,240.42S541.43,48.26,10.16,48.26"/><path class="cls-13" d="M2136.19,468.18s-97.47-166.75-391.91-244.11c-707.93-186-388.91,251-784.12,251S541.11,53.59,9.84,53.59"/><path class="cls-14" d="M2117.43,486.9s-87.38-176.1-380.14-257.51C989.49,21.44,1349.23,491,954,491s-413.23-432-944.5-432"/><path class="cls-15" d="M2098.67,505.61s-77.22-185.69-368.36-270.91C942.79,4.2,1343.09,506.86,947.88,506.86S540.47,64.25,9.2,64.25"/><path class="cls-16" d="M2079.91,524.33s-67-195.49-356.58-284.3C896.27-13.63,1337,522.75,941.74,522.75S540.16,69.59,8.89,69.59"/><path class="cls-17" d="M2061.14,543s-56.72-205.46-344.81-297.7C850-32,1330.81,538.65,935.6,538.65S539.84,74.92,8.57,74.92"/><path class="cls-18" d="M2042.38,561.76s-46.38-215.58-333-311.1C803.87-51.06,1324.67,554.54,929.46,554.54S539.52,80.25,8.25,80.25"/><path class="cls-19" d="M2023.62,580.48s-36-225.82-321.26-324.49C758-70.65,1318.53,570.44,923.32,570.44S539.2,85.58,7.94,85.58"/><path class="cls-20" d="M2004.86,599.19S1979.34,363,1695.38,261.3c-982.94-352.13-383,325-778.2,325S538.89,90.91,7.62,90.91"/><path class="cls-21" d="M1986.09,617.91s-15-246.6-297.7-351.29C667.11-111.57,1306.25,602.23,911,602.23S538.57,96.25,7.3,96.25"/><path class="cls-22" d="M1967.33,636.63s-4.44-257.12-285.93-364.68C622.06-132.88,1300.11,618.12,904.9,618.12S538.25,101.58,7,101.58"/><path class="cls-23" d="M1948.57,655.34s6.18-267.69-274.15-378.08C577.3-154.75,1294,634,898.76,634S537.94,106.91,6.67,106.91"/><path class="cls-24" d="M1929.81,674.06s16.86-278.33-262.38-391.48C532.84-177.17,1287.83,649.91,892.62,649.91S537.62,112.24,6.35,112.24"/><path class="cls-25" d="M1911,692.77s27.58-289-250.6-404.87c-1171.76-488-378.75,377.91-774,377.91S537.3,117.57,6,117.57"/><path class="cls-26" d="M1892.28,711.49s38.35-299.74-238.82-418.27C444.83-223.66,1275.55,681.7,880.34,681.7S537,122.91,5.71,122.91"/><path class="cls-27" d="M1873.52,730.2s49.17-310.49-227-431.67C401.3-247.71,1269.41,697.6,874.2,697.6S536.67,128.24,5.4,128.24"/><path class="cls-28" d="M1854.76,748.92s60-321.28-215.27-445.07C358.1-272.28,1263.27,713.49,868.06,713.49S536.35,133.57,5.08,133.57"/><path class="cls-29" d="M1836,767.64s71-332.09-203.5-458.46C315.23-297.37,1257.13,729.39,861.92,729.39S536,138.9,4.76,138.9"/><path class="cls-30" d="M1817.23,786.35s81.92-342.92-191.72-471.86C272.69-323,1251,745.28,855.78,745.28s-320.07-601-851.34-601"/><path class="cls-31" d="M1798.47,805.07s92.92-353.77-179.94-485.26c-1388-668.88-373.67,441.37-768.89,441.37S535.4,149.57,4.13,149.57"/><path class="cls-32" d="M1779.7,823.78s104-364.63-168.17-498.65c-1422.91-700.78-372.83,451.94-768,451.94S535.08,154.9,3.81,154.9"/><path class="cls-33" d="M1760.94,842.5S1876,467,1604.55,330.45C147.11-402.72,1232.57,793,837.36,793S534.76,160.23,3.49,160.23"/><path class="cls-34" d="M1742.18,861.22s126.2-386.37-144.61-525.45c-1491.62-766-371.13,473.09-766.35,473.09s-296.77-643.3-828-643.3"/><path class="cls-35" d="M1723.42,879.93s137.37-397.25-132.84-538.84C65.13-458.26,1220.29,824.76,825.08,824.76S534.13,170.89,2.86,170.89"/><path class="cls-36" d="M1704.65,898.65s148.59-408.14-121.06-552.24C24.66-486.71,1214.15,840.65,818.94,840.65S533.81,176.23,2.54,176.23"/><path class="cls-37" d="M1685.89,917.36s159.85-419-109.29-565.64C-15.46-515.6,1208,856.55,812.8,856.55s-279.31-675-810.58-675"/><path class="cls-38" d="M1667.13,936.08s171.14-429.9-97.51-579c-1624.84-902-367.75,515.4-763,515.4S533.17,186.89,1.9,186.89"/><path class="cls-39" d="M1648.37,954.8S1830.85,514,1562.63,362.36c-1657.27-937-366.9,526-762.11,526S532.86,192.22,1.59,192.22"/><path class="cls-40" d="M1629.6,973.51s193.85-451.66-74-605.83C-133.7-604.82,1189.59,904.23,794.38,904.23S532.54,197.55,1.27,197.55"/><path class="cls-41" d="M1610.84,992.23S1816.11,529.7,1548.66,373C-172.41-635.37,1183.45,920.13,788.24,920.13S532.22,202.89,1,202.89"/><path class="cls-42" d="M1592.08,1010.94s216.71-473.39-50.41-632.62C-210.77-666.3,1177.31,936,782.1,936S531.9,208.22.63,208.22"/><path class="cls-43" d="M1573.32,1029.66s228.2-484.25-38.63-646C-248.78-697.62,1171.17,951.92,776,951.92S531.59,213.55.32,213.55"/><path id="_Path_2" data-name="&lt;Path&gt;" class="cls-44" d="M1554.55,1048.38S1794.27,553.27,1527.7,389C-286.44-729.3,1165,967.81,769.82,967.81S531.27,218.88,0,218.88"/></g></g></g></g></svg>