<?xml version="1.0" encoding="UTF-8"?>
<!DOCTYPE svg PUBLIC "-//W3C//DTD SVG 1.1//EN" "http://www.w3.org/Graphics/SVG/1.1/DTD/svg11.dtd">
<!-- Creator: CorelDRAW X7 -->
<svg xmlns="http://www.w3.org/2000/svg" xml:space="preserve" width="35mm" height="30mm" version="1.1" style="shape-rendering:geometricPrecision; text-rendering:geometricPrecision; image-rendering:optimizeQuality; fill-rule:evenodd; clip-rule:evenodd"
viewBox="0 0 3500 3000"
 xmlns:xlink="http://www.w3.org/1999/xlink">
 <defs>
  <style type="text/css">
   <![CDATA[
    .str2 {stroke:#000066;stroke-width:8.47;stroke-linecap:round;stroke-linejoin:round}
    .str0 {stroke:#000066;stroke-width:16.93;stroke-linecap:round;stroke-linejoin:round}
    .str3 {stroke:#1A1A1A;stroke-width:16.93;stroke-linecap:round;stroke-linejoin:round}
    .str1 {stroke:#4D4D4D;stroke-width:16.93;stroke-linecap:round;stroke-linejoin:round}
    .fil2 {fill:#00669E}
    .fil0 {fill:#303287}
    .fil3 {fill:#A3E5FF}
    .fil1 {fill:#F8931F}
   ]]>
  </style>
   <clipPath id="id0">
    <rect x="7775" y="-1812" width="6537" height="3387"/>
   </clipPath>
   <clipPath id="id1">
    <path d="M7775 1575l6537 0 0 -3387 -6537 0 0 3387z"/>
   </clipPath>
   <clipPath id="id2">
    <rect x="7775" y="-1812" width="6537" height="3387"/>
   </clipPath>
 </defs>
 <g id="Слой_x0020_1">
  <metadata id="CorelCorpID_0Corel-Layer"/>
  <polygon class="fil0 str0" points="3145,-7239 3300,-7090 2958,-6743 2840,-6922 "/>
  <path class="fil0 str0" d="M2208 -6570c6,0 626,-363 632,-352 7,11 120,178 118,179l-677 360 -73 -187z"/>
  <polygon class="fil0 str0" points="2281,-6383 308,-6380 300,-6575 2208,-6570 "/>
  <polygon class="fil1 str1" points="2208,-6570 300,-6575 1075,-8620 "/>
  <path class="fil1 str1" d="M2840 -6922c-15,6 -632,352 -632,352l-1133 -2050 1377 0 -426 883 814 815z"/>
  <polygon class="fil1 str1" points="2840,-6922 2026,-7737 2452,-8620 2843,-8523 2473,-7816 2540,-7758 3145,-7239 "/>
  <g style="clip-path:url(#id0)">
  </g>
  <g style="clip-path:url(#id1)">
   <image x="7775" y="-1812" width="6537" height="3387" xlink:href="LogoArtPrintCur_var2_Images\LogoArtPrintCur_var2_ImgID1.png"/>
  </g>
  <g style="clip-path:url(#id2)">
  </g>
  <polygon class="fil0 str2" points="10322,-1192 10192,-782 10626,-782 "/>
  <polygon class="fil0 str2" points="10737,-1620 11227,-1618 10994,-1247 "/>
  <polygon class="fil0 str0" points="1092,-8017 962,-7607 1396,-7607 "/>
  <polygon class="fil0 str0" points="1507,-8446 1996,-8443 1764,-8073 "/>
  <polygon class="fil0 str0" points="2843,-8523 2978,-8441 2540,-7758 2473,-7816 "/>
  <polygon class="fil2 str3" points="3145,1761 3300,1910 2958,2257 2840,2078 "/>
  <path class="fil2 str3" d="M2208 2430c6,0 626,-363 632,-352 7,11 120,178 118,179l-677 360 -73 -187z"/>
  <polygon class="fil2 str3" points="2281,2617 308,2620 300,2425 2208,2430 "/>
  <polygon class="fil3 str3" points="2208,2430 300,2425 1075,380 "/>
  <path class="fil3 str3" d="M2840 2078c-15,6 -632,352 -632,352l-1133 -2050 1377 0 -426 883 814 815z"/>
  <polygon class="fil3 str3" points="2840,2078 2026,1263 2452,380 2843,477 2473,1184 2540,1242 3145,1761 "/>
  <polygon class="fil2 str3" points="1092,983 962,1393 1396,1393 "/>
  <polygon class="fil2 str3" points="1507,554 1996,557 1764,927 "/>
  <polygon class="fil2 str3" points="2843,477 2978,559 2540,1242 2473,1184 "/>
 </g>
</svg>
