<svg xmlns="http://www.w3.org/2000/svg" viewBox="0 0 282.59 282.59"><defs><style>.cls-1{fill:none;}.cls-2{fill:#00adc8;}.cls-3{fill:#2f3e43;}.cls-4{fill:#006cc7;}</style></defs><title>main_logo</title><g id="Layer_2" data-name="Layer 2"><g id="Layer_1-2" data-name="Layer 1"><path id="_Path_" data-name="&lt;Path&gt;" class="cls-1" d="M82.8,116.95l.2,0,.2,0Z"/><path id="_Path_2" data-name="&lt;Path&gt;" class="cls-1" d="M183.9,117l.4,0H119.47v0Z"/><polygon id="_Path_3" data-name="&lt;Path&gt;" class="cls-1" points="184.3 162.58 184.31 162.58 184.3 162.58 184.3 162.58"/><path id="_Path_4" data-name="&lt;Path&gt;" class="cls-2" d="M184.3,146.14v0l-.2,0Z"/><path id="_Path_5" data-name="&lt;Path&gt;" class="cls-2" d="M83.41,146.12l-.41,0h64.83v0Z"/><path id="_Path_6" data-name="&lt;Path&gt;" class="cls-2" d="M83,117h36.46v0H83.21Z"/><path id="_Path_7" data-name="&lt;Path&gt;" class="cls-2" d="M82.6,146.12l.41,0v0Z"/><path id="_Path_8" data-name="&lt;Path&gt;" class="cls-2" d="M83,146.12v0l.41,0Z"/><path id="_Path_9" data-name="&lt;Path&gt;" class="cls-2" d="M184.3,146.12H147.84v0H184.1Z"/><path class="cls-3" d="M184.31,71.34c-35.36,0-60.24,27.84-60.24,62.06V242.75l30.12-30.12V191.8h33.08c32.85,0,57.26-26.46,57.26-59.32C244.53,99.18,219.9,71.34,184.31,71.34Zm.21,91.24H154.2V133.4c0-18,13.46-32.85,30.11-32.85s30.11,14.37,30.11,31.94C214.42,149.52,201.42,162.14,184.52,162.58Z"/><path class="cls-4" d="M141.29,0C63.38,0,0,63.38,0,141.29S63.38,282.59,141.29,282.59,282.59,219.2,282.59,141.29,219.2,0,141.29,0Zm0,270.59A129.29,129.29,0,1,1,270.59,141.29,129.44,129.44,0,0,1,141.29,270.59Z"/><polygon class="cls-4" points="46.81 191.77 124.07 191.77 124.07 162.6 75.98 162.6 46.81 191.77"/><path class="cls-4" d="M184.3,116.95l-.4,0H83l-.2,0a8.22,8.22,0,0,1,.2-16.44h49.74c10.2-17.5,28.68-29.17,51.56-29.17H83a37.39,37.39,0,0,0-.41,74.78H184.3a8.23,8.23,0,0,1,0,16.46h.21c16.9-.43,29.9-13.06,29.9-30.09,0-.09,0-.19,0-.28A37.29,37.29,0,0,0,184.3,116.95Z"/></g></g></svg>