<?xml version="1.0" standalone="no"?>
<!DOCTYPE svg PUBLIC "-//W3C//DTD SVG 1.1//EN" "http://www.w3.org/Graphics/SVG/1.1/DTD/svg11.dtd" >
<svg xmlns="http://www.w3.org/2000/svg" xmlns:xlink="http://www.w3.org/1999/xlink" version="1.1">
<metadata>
Created by FontForge 20160405 at Tue Jan 30 06:41:24 2018
 By www-data
Copyright (c) 2014 by Rene' Bieder. All rights reserved.
</metadata>
<defs>
<font id="GalanoGrotesqueAlt-ExtraBold" horiz-adv-x="610" >
  <font-face 
    font-family="GalanoGrotesqueAlt-ExtraBold"
    font-weight="400"
    font-stretch="normal"
    units-per-em="1000"
    panose-1="0 0 9 0 0 0 0 0 0 0"
    ascent="757"
    descent="-243"
    x-height="505"
    cap-height="670"
    bbox="-167 -250.001 1270 992"
    underline-thickness="50"
    underline-position="-50"
    unicode-range="U+0020-FB02"
  />
<missing-glyph horiz-adv-x="774" 
d="M388 684c96 0 178 -33.332 246 -99.999s102 -150 102 -250c0 -100.667 -34 -184 -102 -250s-150 -99 -246 -99c-96.667 0 -179 33.167 -247 99.5s-102 149.5 -102 249.5s34 183.333 102 249.999c68 66.667 150.333 100 247 100zM388 629.001
c-80 0 -148.166 -28 -204.499 -84s-84.5 -126.333 -84.5 -211c0 -84 28.167 -154 84.5 -210s124.5 -84 204.5 -84c79.333 0 147.166 28 203.499 84s84.5 126 84.5 210s-28 154.167 -84 210.5s-124 84.5 -204 84.5zM529.001 401.001c0 -26 -8.66699 -48 -26 -66
s-41.333 -30.667 -72 -38v-25h-102v92h47c14 0 25.333 2.83301 34 8.5s13 13.5 13 23.5s-3.5 18.167 -10.5 24.5s-16.167 9.5 -27.5 9.5s-21 -3.66699 -29 -11s-12.667 -17 -14 -29l-104 20c6 32 22.167 58.5 48.5 79.5s61.5 31.5 105.5 31.5
c40.667 0 73.667 -11.5 99 -34.5s38 -51.5 38 -85.5zM378.001 248.001c16.667 0 30.5 -5.5 41.5 -16.5s16.5 -23.833 16.5 -38.5c0 -16 -5.5 -29.5 -16.5 -40.5s-24.833 -16.5 -41.5 -16.5s-30.334 5.5 -41 16.5c-10.667 11 -16 24.5 -16 40.5c0 14.667 5.5 27.5 16.5 38.5
s24.5 16.5 40.5 16.5z" />
    <glyph glyph-name="fi" unicode="fi" horiz-adv-x="667" 
d="M611 505l-0.000976562 -505h-187v359h-159v-359h-188v359h-67v146h67v78c0 60 19.167 107.833 57.5 143.5s88.5 53.5 150.5 53.5c32.667 0 64 -5.33301 94 -16l-28 -145c-14.668 2.66699 -24.335 4 -29 4c-17.333 0 -31.166 -4.66699 -41.499 -14
s-15.5 -22.333 -15.5 -39v-65h346zM516.999 551c-30 0 -54.833 9.66797 -74.5 29.001s-29.5 43.666 -29.5 72.999c0 28 9.83301 52 29.5 72s44.5 30 74.5 30s55.167 -10.167 75.5 -30.5c20.333 -20.3359 30.5 -44.1689 30.5 -71.5c0 -29.334 -10 -53.667 -30 -73
s-45.333 -29 -76 -29z" />
    <glyph glyph-name="fl" unicode="fl" horiz-adv-x="734" 
d="M321 623c-16.667 0 -30.167 -4.83301 -40.5 -14.5s-15.5 -22.5 -15.5 -38.5v-65h123v-146h-123v-359h-188v359h-67v146h67v78c0 59.333 19 107 57 143s88 54 150 54c39.334 0 75.667 -7.33301 109 -22l-37 -141c-13.333 4 -25 6 -35 6zM708 158l27 -137
c-42.667 -24 -85 -36 -127 -36c-54.667 0 -98.5 16.833 -131.5 50.5s-49.5 78.167 -49.5 133.5v601h188v-586c0 -11.333 3.5 -20.5 10.5 -27.5s16.5 -10.5 28.5 -10.5s30 4 54 12z" />
    <glyph glyph-name=".notdef" horiz-adv-x="774" 
d="M388 684c96 0 178 -33.332 246 -99.999s102 -150 102 -250c0 -100.667 -34 -184 -102 -250s-150 -99 -246 -99c-96.667 0 -179 33.167 -247 99.5s-102 149.5 -102 249.5s34 183.333 102 249.999c68 66.667 150.333 100 247 100zM388 629.001
c-80 0 -148.166 -28 -204.499 -84s-84.5 -126.333 -84.5 -211c0 -84 28.167 -154 84.5 -210s124.5 -84 204.5 -84c79.333 0 147.166 28 203.499 84s84.5 126 84.5 210s-28 154.167 -84 210.5s-124 84.5 -204 84.5zM529.001 401.001c0 -26 -8.66699 -48 -26 -66
s-41.333 -30.667 -72 -38v-25h-102v92h47c14 0 25.333 2.83301 34 8.5s13 13.5 13 23.5s-3.5 18.167 -10.5 24.5s-16.167 9.5 -27.5 9.5s-21 -3.66699 -29 -11s-12.667 -17 -14 -29l-104 20c6 32 22.167 58.5 48.5 79.5s61.5 31.5 105.5 31.5
c40.667 0 73.667 -11.5 99 -34.5s38 -51.5 38 -85.5zM378.001 248.001c16.667 0 30.5 -5.5 41.5 -16.5s16.5 -23.833 16.5 -38.5c0 -16 -5.5 -29.5 -16.5 -40.5s-24.833 -16.5 -41.5 -16.5s-30.334 5.5 -41 16.5c-10.667 11 -16 24.5 -16 40.5c0 14.667 5.5 27.5 16.5 38.5
s24.5 16.5 40.5 16.5z" />
    <glyph glyph-name="space" unicode=" " horiz-adv-x="221" 
 />
    <glyph glyph-name="exclam" unicode="!" horiz-adv-x="306" 
d="M259 670v-31l-15 -400h-182l-15 400v31h212zM157 195c30 0 55 -10 75 -30s30 -43.667 30 -71c0 -28 -10 -51.5 -30 -70.5s-45 -28.5 -75 -28.5s-54.667 9.5 -74 28.5s-29 42.5 -29 70.5c0 27.333 9.83301 51 29.5 71s44.167 30 73.5 30z" />
    <glyph glyph-name="quotedbl" unicode="&#x22;" horiz-adv-x="471" 
d="M43 339v331h168v-331h-168zM260 339v331h168v-331h-168z" />
    <glyph glyph-name="numbersign" unicode="#" horiz-adv-x="730" 
d="M578 383l-26 -108h99l-37 -135h-96l-34 -140h-148l34 140h-104l-35 -140h-148l35 140h-99l37 135h95l27 108h-99l36 135h96l38 152h148l-38 -152h105l37 152h148l-37 -152h98l-36 -135h-96zM430 383h-104l-27 -108h105z" />
    <glyph glyph-name="dollar" unicode="$" horiz-adv-x="612" 
d="M582 217c0 -56.667 -18.1689 -102.001 -54.502 -136.001s-82.5 -56.333 -138.5 -67v-114h-155v117c-54 12.667 -99.667 36.334 -137 71.001s-59.666 75.667 -66.999 123l178 34c12.667 -61.333 49.334 -92 110.001 -92c21.333 0 39 4.5 53 13.5s21 20.5 21 34.5
c0 22 -14.333 36.333 -43 43l-129 32c-116 27.333 -174 87.666 -174 180.999c0 54 17.167 98.167 51.5 132.5s79.833 56.833 136.5 67.5v113h155v-116c52.667 -11.333 95.5 -33.5 128.5 -66.5s52.5 -73.5 58.5 -121.5l-172 -30c-9.33301 58 -42 87 -98 87
c-20 0 -36.167 -4.5 -48.5 -13.5s-18.5 -21.167 -18.5 -36.5c0 -21.333 12.333 -34.666 37 -39.999l126 -30c60 -14.667 105 -37 135 -67s45 -69.667 45 -119z" />
    <glyph glyph-name="percent" unicode="%" horiz-adv-x="896" 
d="M220 685c49.333 0 91.333 -16 126 -48s52 -73.667 52 -125s-17.333 -93 -52 -125s-76.667 -48 -126 -48c-50 0 -92.5 16 -127.5 48s-52.5 73.667 -52.5 125s17.5 93 52.5 125s77.5 48 127.5 48zM157 0l478 670h100l-477 -670h-101zM220 578c-17.333 0 -32.333 -6 -45 -18
s-19 -28 -19 -48c0 -19.333 6.5 -35.166 19.5 -47.499s27.833 -18.5 44.5 -18.5s31.167 6.16699 43.5 18.5c12.333 12.334 18.5 28.167 18.5 47.499c0 20 -6.16699 36 -18.5 48s-26.833 18 -43.5 18zM678 331c49.333 0 91.333 -16 126 -48s52 -73.667 52 -125
s-17.333 -93 -52 -125s-76.667 -48 -126 -48c-50 0 -92.5 16 -127.5 48s-52.5 73.667 -52.5 125s17.5 93 52.5 125s77.5 48 127.5 48zM678 224c-17.333 0 -32.333 -6 -45 -18s-19 -28 -19 -48c0 -19.333 6.5 -35.166 19.5 -47.499s27.833 -18.5 44.5 -18.5
s31.167 6.16699 43.5 18.5s18.5 28.166 18.5 47.499c0 20 -6.16699 36 -18.5 48s-26.833 18 -43.5 18z" />
    <glyph glyph-name="ampersand" unicode="&#x26;" horiz-adv-x="696" 
d="M582 -27l-81 70.002c-58.667 -38.667 -126.667 -58 -204 -58c-78.667 0 -142.834 19 -192.501 57s-74.5 88.333 -74.5 151c0 74 37.667 131.667 113 173c-30.667 42.667 -46 85.667 -46 129c0 56.667 21.333 102.5 64 137.5s97.667 52.5 165 52.5
c69.333 0 123.333 -17.333 162 -52s62 -80 70 -136l-170 -32c-2.66699 27.334 -9 46.667 -19 57.999c-10 11.333 -24 17 -42 17c-15.333 0 -27.666 -4.33301 -36.999 -13s-14 -20.334 -14 -35.001c0 -28 21.667 -61.333 65 -100l124 -107c2.66699 12.667 4 28 4 46v37h172
v-37c0 -62.667 -12 -118.667 -36 -168l84 -72zM309 133.002c22 0 44.333 6 67 18l-128 111c-21.333 -17.333 -32 -36.333 -32 -57c0 -21.334 8.16699 -38.667 24.5 -52c16.334 -13.333 39.167 -20 68.5 -20z" />
    <glyph glyph-name="quotesingle" unicode="'" horiz-adv-x="255" 
d="M43 339v331h168v-331h-168z" />
    <glyph glyph-name="parenleft" unicode="(" horiz-adv-x="393" 
d="M225 336c0 -60.667 11.332 -113.334 33.999 -158.001s57.334 -92.667 104.001 -144l-131 -116c-64 60.667 -113.667 124.5 -149 191.5s-53 142.5 -53 226.5c0 84.667 17.5 160.334 52.5 227.001s84.833 130.667 149.5 192l126 -118c-44.667 -51.333 -78 -99 -100 -143
s-33 -96.667 -33 -158z" />
    <glyph glyph-name="parenright" unicode=")" horiz-adv-x="393" 
d="M35 637l126.999 117.999c64 -62 113.5 -126.167 148.5 -192.5s52.5 -141.833 52.5 -226.5c0 -84 -17.5 -159.333 -52.5 -226s-84.5 -130.667 -148.5 -192l-132 116c46.667 50.667 81.334 98.334 104.001 143.001s34 97.667 34 159c0 61.334 -11 114.167 -33 158.5
s-55.333 91.833 -100 142.5z" />
    <glyph glyph-name="asterisk" unicode="*" horiz-adv-x="447" 
d="M319 536l96 -55l-48 -83l-91 52v-98h-105v99l-91 -52l-48 82l95 55l-95 54l48 84l91 -52v98h105v-98l91 52l48 -83z" />
    <glyph glyph-name="plus" unicode="+" horiz-adv-x="567" 
d="M527 229h-171v-172h-145v172h-171v145h171v172h145v-172h171v-145z" />
    <glyph glyph-name="comma" unicode="," horiz-adv-x="277" 
d="M140 -132h-143l58 308h202v-4z" />
    <glyph glyph-name="hyphen" unicode="-" horiz-adv-x="455" 
d="M395 193h-335v155h335v-155z" />
    <glyph glyph-name="period" unicode="." horiz-adv-x="255" 
d="M127 201c30 0 54.833 -10.333 74.5 -31s29.5 -45 29.5 -73c0 -29.333 -9.83301 -53.666 -29.5 -72.999s-44.5 -29 -74.5 -29s-54.833 9.66699 -74.5 29s-29.5 43.666 -29.5 72.999c0 28 9.83301 52.333 29.5 73s44.5 31 74.5 31z" />
    <glyph glyph-name="slash" unicode="/" horiz-adv-x="451" 
d="M431 741l-288 -813h-123l288 813h123z" />
    <glyph glyph-name="zero" unicode="0" horiz-adv-x="663" 
d="M332 685c90.667 0 163.667 -32.167 219 -96.5c55.333 -64.334 83 -148.834 83 -253.5c0 -104.667 -27.667 -189.167 -83 -253.5s-128.333 -96.5 -219 -96.5c-91.333 0 -164.833 32.167 -220.5 96.5s-83.5 148.833 -83.5 253.5s28 189.167 84 253.5s129.333 96.5 220 96.5
zM332 149c33.334 0 59.666 16.333 78.999 49s29 78.334 29 137.001s-9.66699 104.167 -29 136.5s-45.666 48.5 -78.999 48.5c-34 0 -60.833 -16.167 -80.5 -48.5s-29.5 -77.833 -29.5 -136.5s9.83301 -104.334 29.5 -137.001s46.5 -49 80.5 -49z" />
    <glyph glyph-name="one" unicode="1" horiz-adv-x="408" 
d="M350 670v-670h-189v448l-155 -79v177l220 124h124z" />
    <glyph glyph-name="two" unicode="2" horiz-adv-x="573" 
d="M541 165l-0.000976562 -165h-515h-1v127l238 212c20.667 18.667 35.167 32.334 43.5 41.001s17 20.5 26 35.5s13.5 30.167 13.5 45.5c0 19.334 -6.16699 35.167 -18.5 47.499c-12.333 12.333 -28.166 18.5 -47.499 18.5c-50 0 -77 -31.667 -81 -95l-182 34
c3.33301 68 28.5 121.5 75.5 160.5s108.5 58.5 184.5 58.5s137.333 -20 184 -60s70 -94.667 70 -164c0 -43.333 -10.5 -80.5 -31.5 -111.5s-55.167 -67.5 -102.5 -109.5l-87 -75h231z" />
    <glyph glyph-name="three" unicode="3" horiz-adv-x="584" 
d="M475 342c53.333 -30 79.999 -76 79.999 -138c0 -64 -24.5 -116.5 -73.5 -157.5s-111.833 -61.5 -188.5 -61.5c-72 0 -132.833 19 -182.5 57s-79.167 90 -88.5 156l185 33c10.667 -60.667 40 -91 88 -91c23.333 0 42.5 6.16699 57.5 18.5s22.5 28.5 22.5 48.5
c0 19.333 -7.33301 34.833 -22 46.5s-35 17.5 -61 17.5h-76v136h71c24.667 0 44.334 5.5 59.001 16.5s22 25.5 22 43.5c0 20 -6.83301 36 -20.5 48s-32.167 18 -55.5 18s-42.5 -8 -57.5 -24s-23.833 -40 -26.5 -72l-179 34c10.667 67.333 39.5 119.833 86.5 157.5
s105.5 56.5 175.5 56.5c74 0 134.833 -20 182.5 -60s71.5 -91 71.5 -153c0 -56.667 -23.333 -100 -70 -130z" />
    <glyph glyph-name="four" unicode="4" horiz-adv-x="636" 
d="M614 110h-79v-110h-179v110h-339v173l290 388h228v-406h79v-155zM356 265v216l-153 -216h153z" />
    <glyph glyph-name="five" unicode="5" horiz-adv-x="582" 
d="M228 437h84c78 0 138 -19.333 180 -58s63 -91.667 63 -159c0 -70 -24 -126.667 -72 -170s-111 -65 -189 -65c-74.667 0 -137.334 20.167 -188.001 60.5s-78 96.5 -82 168.5l182 34c0.666992 -36 9.66699 -62.333 27 -79s38.333 -25 63 -25c24 0 43.333 6.66699 58 20
s22 31.333 22 54c0 20.667 -7.66699 37.5 -23 50.5s-35.666 19.5 -60.999 19.5h-237l15 383h457v-164h-296z" />
    <glyph glyph-name="six" unicode="6" 
d="M349 435c70 0 126.331 -20.333 168.998 -61s64 -94 64 -160c0 -67.333 -24.5 -122.333 -73.5 -165s-111.167 -64 -186.5 -64c-90 0 -161.5 29.667 -214.5 89s-79.5 142 -79.5 248c0 122.667 32 217 96 283c54.667 53.333 121.334 80 200.001 80
c63.334 0 116.667 -14.667 160 -44s72 -71 86 -125l-180 -36c-9.33301 33.333 -33.666 50 -72.999 50c-26.667 0 -50 -11 -70 -33c-24.667 -28.667 -37.667 -67.667 -39 -117c38 36.667 85 55 141 55zM315.998 135c23.333 0 43.999 8.16699 61.999 24.5s27 36.5 27 60.5
c0 24.667 -8.83301 45.167 -26.5 61.5s-38.5 24.5 -62.5 24.5c-23.333 0 -43.666 -8.16699 -60.999 -24.5s-26 -36.833 -26 -61.5c0 -24 8.66699 -44.167 26 -60.5c17.334 -16.333 37.667 -24.5 61 -24.5z" />
    <glyph glyph-name="seven" unicode="7" horiz-adv-x="523" 
d="M503 671v-141l-209 -530h-203l205 506h-286v165h493z" />
    <glyph glyph-name="eight" unicode="8" horiz-adv-x="579" 
d="M447 347c77.333 -32 116 -86.001 116 -162.001c0 -58 -25.333 -105.833 -76 -143.5s-116.667 -56.5 -198 -56.5c-80.667 0 -146.167 18.833 -196.5 56.5s-75.5 85.834 -75.5 144.501c0 76 38.667 129.333 116 160c-62 30.667 -93 80 -93 148c0 54 23.667 99.333 71 136
s107 55 179 55c71.334 0 130.667 -18.333 178 -55s71 -82 71 -136c0 -68.667 -30.667 -117.667 -92 -147zM289 544.999c-21.333 0 -39.5 -6.16602 -54.5 -18.499c-15 -12.334 -22.5 -28.834 -22.5 -49.5c0 -20.667 7.5 -37.167 22.5 -49.5s33.167 -18.5 54.5 -18.5
s39.833 6.16699 55.5 18.5s23.5 29.166 23.5 50.499c0 20 -7.83301 36.167 -23.5 48.5s-34.167 18.5 -55.5 18.5zM289 131c22.667 0 42 6.5 58 19.5s24 30.5 24 52.5s-8 39.5 -24 52.5s-35.333 19.5 -58 19.5c-22 0 -40.833 -6.5 -56.5 -19.5s-23.5 -30.5 -23.5 -52.5
s7.66699 -39.5 23 -52.5s34.333 -19.5 57 -19.5z" />
    <glyph glyph-name="nine" unicode="9" 
d="M288 685c90 0 161.498 -29.666 214.498 -88.999c53 -59.334 79.5 -142.001 79.5 -248.001c0 -124 -32 -218.333 -96 -283c-53.333 -53.333 -120 -80 -200 -80c-63.333 0 -116.666 14.667 -159.999 44s-72 71 -86 125l180 36c10 -33.333 34.333 -50 73 -50
c26.667 0 50 11 70 33c26 30 39.333 69.333 40 118c-37.333 -37.333 -84.666 -56 -141.999 -56c-70 0 -126.333 20.333 -169 61s-64 94 -64 160c0 67.333 24.5 122.333 73.5 165s111.167 64 186.5 64zM293.998 364.001c23.334 0 43.666 8.16699 60.999 24.5
s26 36.833 26 61.5c0 24 -8.66699 44.167 -26 60.5s-37.666 24.5 -60.999 24.5s-43.833 -8.16699 -61.5 -24.5s-26.5 -36.5 -26.5 -60.5c0 -24.667 8.66699 -45.167 26 -61.5s38 -24.5 62 -24.5z" />
    <glyph glyph-name="colon" unicode=":" horiz-adv-x="255" 
d="M127 507c30 0 54.833 -10.334 74.5 -31.001s29.5 -45 29.5 -73c0 -29.333 -9.83301 -53.666 -29.5 -72.999s-44.5 -29 -74.5 -29s-54.833 9.66699 -74.5 29c-19.667 19.334 -29.5 43.667 -29.5 73c0 28 9.83301 52.333 29.5 73s44.5 31 74.5 31zM127 200.999
c30 0 54.833 -10.333 74.5 -31s29.5 -45 29.5 -73c0 -29.333 -9.83301 -53.666 -29.5 -72.999s-44.5 -29 -74.5 -29s-54.833 9.66699 -74.5 29s-29.5 43.666 -29.5 72.999c0 28 9.83301 52.333 29.5 73s44.5 31 74.5 31z" />
    <glyph glyph-name="semicolon" unicode=";" horiz-adv-x="290" 
d="M162 507c30 0 55.001 -10.334 75.001 -31.001s30 -45 30 -73c0 -29.333 -9.83301 -53.666 -29.5 -72.999s-44.834 -29 -75.501 -29c-30 0 -54.667 9.66699 -74 29c-19.333 19.334 -29 43.667 -29 73c0 28 9.83301 52.333 29.5 73s44.167 31 73.5 31zM140.001 -132.001
h-143l58 308h202v-4z" />
    <glyph glyph-name="less" unicode="&#x3c;" horiz-adv-x="486" 
d="M447 98l-416 143v170l416 143v-168l-231 -60l231 -61v-167z" />
    <glyph glyph-name="equal" unicode="=" horiz-adv-x="567" 
d="M527 340h-487v138h487v-138zM527 142h-487v138h487v-138z" />
    <glyph glyph-name="greater" unicode="&#x3e;" horiz-adv-x="486" 
d="M271 326l-231 60v168l416 -143v-170l-416 -143v167z" />
    <glyph glyph-name="question" unicode="?" horiz-adv-x="551" 
d="M294 685c70.667 0 128.168 -20.333 172.501 -61s66.5 -91.667 66.5 -153c0 -47.333 -15 -87.333 -45 -120s-71.333 -55.334 -124 -68v-46h-184l1 166h84c24 0 43.333 5.33301 58 16s22 24.667 22 42c0 18.667 -5.83301 33.667 -17.5 45
c-11.668 11.333 -26.835 17 -45.5 17c-19.333 0 -35.333 -6.83301 -48 -20.5s-20.667 -31.5 -24 -53.5l-187 38c11.333 58 40.166 105.5 86.499 142.5s107.833 55.5 184.5 55.5zM269.001 195c30 0 55 -10 75 -30s30 -43.667 30 -71c0 -28 -10 -51.5 -30 -70.5
s-45 -28.5 -75 -28.5s-54.667 9.5 -74 28.5s-29 42.5 -29 70.5c0 27.333 9.83301 51 29.5 71s44.167 30 73.5 30z" />
    <glyph glyph-name="at" unicode="@" horiz-adv-x="928" 
d="M679 466l-0.00292969 -275.002c0 -12.667 4 -22.334 12 -29.001s18.333 -10 31 -10c22.6699 0 40.3369 15.5 53.001 46.5c12.667 31 19 67.5 19 109.5c0 87.333 -30.5 158 -91.5 212s-136.833 81 -227.5 81c-96.667 0 -177.5 -31.167 -242.5 -93.5
s-97.5 -141.166 -97.5 -236.499c0 -94.667 31.833 -172.167 95.5 -232.5s144.167 -90.5 241.5 -90.5c84 0 163 28 237 84l45 -72c-75.333 -64 -169 -96 -281 -96c-125.333 0 -228.333 38 -309 114s-121 172.667 -121 290c0 120 41.5 219.5 124.5 298.5
s185.5 118.5 307.5 118.5c115.333 0 212.5 -35.167 291.5 -105.5s118.5 -160.166 118.5 -269.499c0 -29.333 -3.33301 -57.166 -10 -83.499s-17.167 -52 -31.5 -77c-14.3369 -25 -35.1699 -44.833 -62.5 -59.5c-27.335 -14.667 -59.668 -22 -97 -22
c-62 0 -104 20.333 -126 61c-30 -40 -74 -60 -132 -60c-55.333 0 -101.166 18.333 -137.499 55s-54.5 86 -54.5 148s18.333 111.333 55 148s82.334 55 137.001 55c48.667 0 87.667 -14.667 117 -44v35h136zM465.997 191.998c21.333 0 39.5 7.5 54.5 22.5
s22.5 34.833 22.5 59.5c0 24 -7.5 43.333 -22.5 58s-33.167 22 -54.5 22s-39.666 -7.33301 -54.999 -22s-23 -34 -23 -58c0 -24.667 7.66699 -44.5 23 -59.5c15.334 -15 33.667 -22.5 54.999 -22.5z" />
    <glyph glyph-name="A" unicode="A" horiz-adv-x="752" 
d="M752 0h-207l-37 102h-264l-38 -102h-206l270 670h212zM450 263l-73 201l-74 -201h147z" />
    <glyph glyph-name="B" unicode="B" horiz-adv-x="665" 
d="M496 346l-0.000976562 -4.00098c39.333 -1.33301 72.833 -14.5 100.5 -39.5s41.5 -62.833 41.5 -113.5c0 -57.333 -20.333 -103.166 -61 -137.499s-96 -51.5 -166 -51.5h-364v670h364c62.667 0 112.834 -16.333 150.501 -49s56.5 -76 56.5 -130
c0 -45.333 -12.833 -80.5 -38.5 -105.5s-53.5 -38.167 -83.5 -39.5zM238.999 520.999v-124.001h119c21.334 0 38.667 5.83301 52 17.5s20 26.834 20 45.501c0 18 -6.5 32.667 -19.5 44s-29.5 17 -49.5 17h-122zM238.999 148.998h129c22.667 0 40.5 6.16699 53.5 18.5
s19.5 28.5 19.5 48.5c0 18.667 -6.5 33.667 -19.5 45s-30.167 17 -51.5 17h-131v-129z" />
    <glyph glyph-name="C" unicode="C" horiz-adv-x="765" 
d="M391 158c39.334 0 72.1689 11.334 98.502 34.001s44.166 56 53.499 100l192 -44c-14.667 -81.333 -52.834 -145.5 -114.501 -192.5s-138.167 -70.5 -229.5 -70.5c-101.333 0 -186.833 33.833 -256.5 101.5s-104.5 150.5 -104.5 248.5s34.833 180.833 104.5 248.499
c69.667 67.667 155.167 101.5 256.5 101.5c85.333 0 160.166 -23.333 224.499 -70s104.166 -108.667 119.499 -186l-192 -46c-9.33496 42 -27.168 74 -53.499 96c-26.333 22 -59.166 33 -98.499 33c-47.333 0 -87 -17 -119 -51s-48 -76 -48 -126s16 -92 48 -126
s71.667 -51 119 -51z" />
    <glyph glyph-name="D" unicode="D" horiz-adv-x="725" 
d="M47 670h283c109.333 0 197.5 -30.833 264.5 -92.5s100.5 -142.5 100.5 -242.5s-33.5 -180.833 -100.5 -242.5s-155.167 -92.5 -264.5 -92.5h-283v670zM239 162h77c55.333 0 100 16 134 48s51 73.667 51 125s-17 93 -51 125s-78.667 48 -134 48h-77v-346z" />
    <glyph glyph-name="E" unicode="E" horiz-adv-x="617" 
d="M580 162v-162h-533v670h529v-162h-337v-99h310v-147h-310v-100h341z" />
    <glyph glyph-name="F" unicode="F" horiz-adv-x="600" 
d="M239 504v-118h304v-167h-304v-219h-192v670h535v-166h-343z" />
    <glyph glyph-name="G" unicode="G" horiz-adv-x="780" 
d="M373 400l373.001 0.00195312c2.66699 -36 4 -58 4 -66c0 -102.667 -33.167 -186.5 -99.5 -251.5s-151.5 -97.5 -255.5 -97.5c-102.667 0 -189.167 33.833 -259.5 101.5s-105.5 150.5 -105.5 248.5s35.167 180.833 105.5 248.499c70.333 67.667 156.5 101.5 258.5 101.5
c79.333 0 149 -17.667 209 -53c60 -35.334 101 -84.667 123 -148l-195 -49c-26.667 51.333 -72.334 77 -137 77c-49.333 0 -90 -16.833 -122 -50.5s-48 -75.834 -48 -126.5c0 -50.667 16.333 -92.834 49 -126.501s74 -50.5 124 -50.5c71.333 0 120.666 28 147.999 84h-172
v158z" />
    <glyph glyph-name="H" unicode="H" horiz-adv-x="723" 
d="M677 670v-670h-193v255h-245v-255h-192v670h192v-250h245v250h193z" />
    <glyph glyph-name="I" unicode="I" horiz-adv-x="459" 
d="M326 505v-340h113v-165h-419v165h113v340h-113v165h419v-165h-113z" />
    <glyph glyph-name="J" unicode="J" horiz-adv-x="620" 
d="M572 670l0.000976562 -425c0 -77.333 -25.833 -140 -77.5 -188s-119.5 -72 -203.5 -72c-78 0 -141.333 20.833 -190 62.5s-78 98.167 -88 169.5l190 37c7.33301 -65.333 36.666 -98 87.999 -98c26 0 47.167 8.16699 63.5 24.5s24.5 37.833 24.5 64.5v260h-209v165h402z
" />
    <glyph glyph-name="K" unicode="K" horiz-adv-x="718" 
d="M725 0h-232l-155 231l-99 -119v-112h-192v670h192v-289l244 289h218l-238 -288z" />
    <glyph glyph-name="L" unicode="L" horiz-adv-x="581" 
d="M555 165v-165h-508v670h192v-505h316z" />
    <glyph glyph-name="M" unicode="M" horiz-adv-x="893" 
d="M846 670v-670h-188v303l-149 -303h-125l-149 301v-301h-188v670h203l196 -366l197 366h203z" />
    <glyph glyph-name="N" unicode="N" horiz-adv-x="752" 
d="M706 670v-670h-159l-308 345v-345h-192v670h158l308 -357v357h193z" />
    <glyph glyph-name="O" unicode="O" horiz-adv-x="782" 
d="M391 685c101.333 0 186.833 -33.832 256.5 -101.499s104.5 -150.5 104.5 -248.5s-34.833 -180.833 -104.5 -248.5s-155.167 -101.5 -256.5 -101.5s-186.833 33.833 -256.5 101.5s-104.5 150.5 -104.5 248.5s34.833 180.833 104.5 248.499
c69.667 67.667 155.167 101.5 256.5 101.5zM391 158.001c48 0 87.833 16.833 119.5 50.5s47.5 75.834 47.5 126.501c0 50 -15.833 92 -47.5 126s-71.5 51 -119.5 51s-87.833 -17 -119.5 -51s-47.5 -76 -47.5 -126c0 -50.667 15.833 -92.834 47.5 -126.501
s71.5 -50.5 119.5 -50.5z" />
    <glyph glyph-name="P" unicode="P" horiz-adv-x="664" 
d="M47 670l347.001 -0.000976562c74 0 133.333 -21.667 177.999 -65c44.667 -43.333 67 -100.333 67 -171c0 -73.333 -23.5 -132.166 -70.5 -176.499s-109.833 -66.5 -188.5 -66.5h-141v-191h-192v670zM239.001 342.999h117.999c26.667 0 48.834 8 66.501 24
s26.5 36.667 26.5 62c0 24 -8.83301 43.667 -26.5 59s-39.834 23 -66.5 23h-118v-168z" />
    <glyph glyph-name="Q" unicode="Q" horiz-adv-x="782" 
d="M551 -170l-117 157c-18.667 -1.33301 -33 -2 -43 -2c-101.333 0 -186.833 33.833 -256.5 101.5s-104.5 150.5 -104.5 248.5s34.833 180.833 104.5 248.499c69.667 67.667 155.167 101.5 256.5 101.5s186.833 -33.833 256.5 -101.5s104.5 -150.5 104.5 -248.5
c0 -55.333 -11.667 -106.666 -35 -153.999s-56 -87.333 -98 -120l176 -231h-244zM224 335c0 -50.667 15.833 -92.834 47.5 -126.501s71.5 -50.5 119.5 -50.5s87.833 16.833 119.5 50.5s47.5 75.834 47.5 126.501c0 50 -15.833 92 -47.5 126s-71.5 51 -119.5 51
s-87.833 -17 -119.5 -51s-47.5 -76 -47.5 -126z" />
    <glyph glyph-name="R" unicode="R" horiz-adv-x="683" 
d="M680 0l-231 -0.00195312l-184 214h-26v-214h-192v670h357c72 0 130.167 -20.667 174.5 -62c44.333 -41.334 66.5 -95.667 66.5 -163c0 -53.333 -14.333 -99.166 -43 -137.499s-68 -65.166 -118 -80.499zM239 365.998h129c26.667 0 48 6.83301 64 20.5s24 31.5 24 53.5
c0 21.333 -8 38.5 -24 51.5s-37.333 19.5 -64 19.5h-129v-145z" />
    <glyph glyph-name="S" unicode="S" horiz-adv-x="651" 
d="M326 685c79.333 0 144.333 -16.9971 195 -50.9971s82 -82 94 -144l-188 -38c-6 29.334 -18.667 50.667 -38 63.999c-19.333 13.333 -40.333 20 -63 20c-21.333 0 -38.5 -4.83301 -51.5 -14.5c-13 -9.66797 -19.5 -22.835 -19.5 -39.501c0 -22.667 13 -37 39 -43l136 -32
c127.333 -32 191 -98.333 191 -199c0 -50 -14.5 -92.333 -43.5 -127s-64.167 -59.334 -105.5 -74.001s-86.666 -22 -135.999 -22c-82.667 0 -152 18.667 -208 56s-88.667 87.666 -98 150.999l196 37c15.333 -59.333 53.333 -89 114 -89c23.333 0 42.333 4.66699 57 14
s22 22.666 22 39.999c0 22.667 -15.333 37.667 -46 45l-139 33c-122.667 28.667 -184 93.334 -184 194.001c0 68.668 25.667 122.335 77 161.001c51.333 38.667 117.666 58 198.999 58z" />
    <glyph glyph-name="T" unicode="T" horiz-adv-x="653" 
d="M633 505h-210v-505h-193v505h-210v165h613v-165z" />
    <glyph glyph-name="U" unicode="U" horiz-adv-x="715" 
d="M667 670v-367c0 -96.667 -27.833 -173.834 -83.5 -231.501s-129.5 -86.5 -221.5 -86.5c-94.667 0 -170.667 28.667 -228 86s-86 134.666 -86 231.999v367h193v-367c0 -45.333 11 -80.666 33 -105.999s51.333 -38 88 -38c34 0 61.167 12.833 81.5 38.5
s30.5 60.834 30.5 105.501v367h193z" />
    <glyph glyph-name="V" unicode="V" horiz-adv-x="757" 
d="M754 670l-281 -670h-189l-281 670h214l162 -400l161 400h214z" />
    <glyph glyph-name="W" unicode="W" horiz-adv-x="985" 
d="M981 670l-187 -670h-207l-95 376l-95 -376h-207l-187 670h197l105 -382l96 382h182l96 -382l105 382h197z" />
    <glyph glyph-name="X" unicode="X" horiz-adv-x="704" 
d="M477 0l-125 209l-125 -209h-224l203 335l-197 335h223l120 -206l120 206h223l-198 -335l204 -335h-224z" />
    <glyph glyph-name="Y" unicode="Y" horiz-adv-x="721" 
d="M718 670l-262 -465v-205h-200v205l-253 465h211l146 -272l145 272h213z" />
    <glyph glyph-name="Z" unicode="Z" horiz-adv-x="644" 
d="M612 162v-162h-576v124l318 384h-310v162h557v-149l-289 -359h300z" />
    <glyph glyph-name="bracketleft" unicode="[" horiz-adv-x="415" 
d="M216 592v-526h166v-148h-335v823h335v-149h-166z" />
    <glyph glyph-name="backslash" unicode="\" horiz-adv-x="451" 
d="M431 -72h-123l-288 813h123z" />
    <glyph glyph-name="bracketright" unicode="]" horiz-adv-x="415" 
d="M368 741v-823h-335v148h166v526h-166v149h335z" />
    <glyph glyph-name="asciicircum" unicode="^" horiz-adv-x="484" 
d="M172 411h-159l159 259h140l159 -259h-159l-70 120z" />
    <glyph glyph-name="underscore" unicode="_" horiz-adv-x="540" 
d="M520 -185h-500v129h500v-129z" />
    <glyph glyph-name="grave" unicode="`" horiz-adv-x="600" 
d="M342 727l75 -160h-173l-127 160h225z" />
    <glyph glyph-name="a" unicode="a" horiz-adv-x="565" 
d="M289 520c75.334 0 134.167 -18.166 176.5 -54.499s63.5 -87.833 63.5 -154.5v-311h-181v35c-39.333 -33.333 -88.333 -50 -147 -50c-55.333 0 -99.833 15.167 -133.5 45.5s-50.5 70.166 -50.5 119.499c0 51.333 19.167 91.333 57.5 120s92.5 43 162.5 43h111v13
c0 16.667 -5.16699 30.167 -15.5 40.5s-23.833 15.5 -40.5 15.5c-36.667 0 -58.334 -17.333 -65.001 -52l-177 36c12.667 48.667 39.834 86.5 81.501 113.5s94.167 40.5 157.5 40.5zM268 119.001c22 0 40.833 6.66699 56.5 20s23.5 31.333 23.5 54v16h-75
c-18 0 -32.5 -4.16699 -43.5 -12.5c-11 -8.33398 -16.5 -19.167 -16.5 -32.5c0 -14 5.16699 -25 15.5 -33s23.5 -12 39.5 -12z" />
    <glyph glyph-name="b" unicode="b" horiz-adv-x="646" 
d="M382 520c70 0 128.167 -24.832 174.5 -74.499s69.5 -114.167 69.5 -193.5c0 -78.667 -23.167 -142.834 -69.5 -192.501s-104.5 -74.5 -174.5 -74.5c-61.333 0 -110.666 19.333 -147.999 58v-43h-187v770h187v-308c37.333 38.667 86.666 58 147.999 58zM337 141.001
c30.667 0 55.333 10.499 74 31.499s28 47.5 28 79.5c0 32.667 -9.33301 59.5 -28 80.5s-43.334 31.5 -74 31.5c-28.667 0 -53 -10.667 -73 -32s-30 -48 -30 -80c0 -31.333 10 -57.666 30 -78.999s44.333 -32 73 -32z" />
    <glyph glyph-name="c" unicode="c" horiz-adv-x="583" 
d="M392 223l171 -33c-10.667 -61.333 -40.5 -110.833 -89.5 -148.5s-106.833 -56.5 -173.5 -56.5c-78 0 -144.167 25 -198.5 75s-81.5 114 -81.5 192c0 78.667 27.167 143 81.5 193s120.5 75 198.5 75c66 0 123.333 -18.5 172 -55.5s78.667 -85.833 90 -146.5l-172 -36
c-5.33301 26 -16 45.833 -32 59.5s-35.333 20.5 -58 20.5c-29.333 0 -53.333 -10.5 -72 -31.5s-28 -47.167 -28 -78.5s9.33301 -57.333 28 -78s42.667 -31 72 -31c48 0 78.667 26.667 92 80z" />
    <glyph glyph-name="d" unicode="d" horiz-adv-x="646" 
d="M599 770l-0.000976562 -770.001h-187v43c-37.333 -38.667 -86.666 -58 -147.999 -58c-70 0 -128.167 24.833 -174.5 74.5s-69.5 113.834 -69.5 192.501c0 79.333 23.167 143.833 69.5 193.5s104.5 74.5 174.5 74.5c61.334 0 110.667 -19.333 148 -58v308h187z
M308.999 140.999c28.667 0 53 10.668 73 32.001s30 47.666 30 78.999c0 32 -10 58.667 -30 80s-44.333 32 -73 32c-30.667 0 -55.334 -10.5 -74.001 -31.5s-28 -47.833 -28 -80.5c0 -32 9.33301 -58.5 28 -79.5s43.334 -31.5 74.001 -31.5z" />
    <glyph glyph-name="e" unicode="e" horiz-adv-x="578" 
d="M558 242l0.000976562 -34.999h-355c6 -24.667 17 -43.834 33 -57.501s35.667 -20.5 59 -20.5c42.667 0 72.334 16.333 89.001 49l167 -33c-20.667 -52.667 -53.334 -92.5 -98.001 -119.5s-97.334 -40.5 -158.001 -40.5c-77.333 0 -142.5 25 -195.5 75
s-79.5 114 -79.5 192c0 78.667 26.5 143 79.5 193s118.167 75 195.5 75s140.333 -24.667 189 -74s73.334 -117.333 74 -204zM295.001 374.001c-21.333 0 -40 -5.66699 -56 -17s-27.333 -27 -34 -47h172c-12.667 42.667 -40 64 -82 64z" />
    <glyph glyph-name="f" unicode="f" horiz-adv-x="385" 
d="M265 505h123v-146h-123v-359h-188v359h-67v146h67v78c0 59.333 19 107 57 143s88 54 150 54c39.334 0 75.667 -7.33301 109 -22l-37 -141c-13.333 4 -25 6 -35 6c-16.667 0 -30.167 -4.83301 -40.5 -14.5s-15.5 -22.5 -15.5 -38.5v-65z" />
    <glyph glyph-name="g" unicode="g" horiz-adv-x="646" 
d="M599 505l-0.000976562 -514.001c0 -74.667 -29.5 -133.5 -88.5 -176.5s-131.833 -64.5 -218.5 -64.5c-122 0 -208.667 44.333 -260 133l158 72c18 -20 34.167 -33.5 48.5 -40.5s31.5 -10.5 51.5 -10.5c34 0 62.833 8.33301 86.5 25s35.5 42 35.5 76v38
c-37.333 -38.667 -86.666 -58 -147.999 -58c-70 0 -128.167 24.833 -174.5 74.5s-69.5 113.834 -69.5 192.501c0 79.333 23.167 143.833 69.5 193.5s104.5 74.5 174.5 74.5c61.334 0 110.667 -19.333 148 -58v43h187zM308.999 140.999c28.667 0 53 10.668 73 32.001
s30 47.666 30 78.999c0 32 -10 58.667 -30 80s-44.333 32 -73 32c-30.667 0 -55.334 -10.5 -74.001 -31.5s-28 -47.833 -28 -80.5c0 -32 9.33301 -58.5 28 -79.5s43.334 -31.5 74.001 -31.5z" />
    <glyph glyph-name="h" unicode="h" horiz-adv-x="620" 
d="M386 520c57.333 0 103.332 -18.668 137.999 -56.001s52 -87.666 52 -150.999v-313h-188v273c0 24 -6.5 43.333 -19.5 58s-30.167 22 -51.5 22c-25.333 0 -45.5 -9.33301 -60.5 -28s-22.5 -45.334 -22.5 -80v-245h-187v770h187v-316c40.667 44 91.334 66 152.001 66z" />
    <glyph glyph-name="i" unicode="i" horiz-adv-x="299" 
d="M149 755c30 0 55.002 -10.166 75.002 -30.499c20 -20.3359 30 -44.1689 30 -71.5c0 -29.334 -9.83301 -53.667 -29.5 -73s-44.834 -29 -75.501 -29s-55.834 9.66699 -75.501 29s-29.5 43.666 -29.5 72.999c0 28 10 52 30 72s45 30 75 30zM243.002 0.000976562h-187v505
h187v-505z" />
    <glyph glyph-name="j" unicode="j" horiz-adv-x="310" 
d="M160 755c30 0 55.002 -10.166 75.002 -30.499c20 -20.3359 30 -44.1689 30 -71.5c0 -29.334 -9.83301 -53.667 -29.5 -73s-44.834 -29 -75.501 -29s-55.834 9.66699 -75.501 29s-29.5 43.666 -29.5 72.999c0 28 10 52 30 72s45 30 75 30zM-28.998 -225.999
l25.999 135.001c16.667 -3.33301 28 -5 34 -5c10.667 0 19.334 3.66699 26.001 11s10 17 10 29v561h188v-578c0 -52.667 -16 -95.334 -48 -128.001s-74 -49 -126 -49c-37.333 0 -74 8 -110 24z" />
    <glyph glyph-name="k" unicode="k" horiz-adv-x="626" 
d="M633 0h-229l-103 149l-67 -79v-70h-187v770h187v-438l151 173h220l-177 -207z" />
    <glyph glyph-name="l" unicode="l" horiz-adv-x="348" 
d="M229 770l-0.00292969 -586c0 -11.333 3.66699 -20.5 11 -27.5s17 -10.5 29 -10.5c12.667 0 30.334 4 53.001 12l28 -137c-15.333 -8 -26.666 -13.833 -33.999 -17.5s-19.666 -7.66699 -36.999 -12s-36 -6.5 -56 -6.5c-54.667 0 -98.5 16.833 -131.5 50.5
s-49.5 78.167 -49.5 133.5v601h187z" />
    <glyph glyph-name="m" unicode="m" horiz-adv-x="954" 
d="M720 520c55.333 0 100.668 -18.834 136.001 -56.501s53 -87.167 53 -148.5v-315h-187v276c0 23.333 -6.66699 42 -20 56s-30 21 -50 21c-24.667 0 -44.334 -9.16699 -59.001 -27.5s-22 -43.166 -22 -74.499v-251h-187v276c0 23.333 -6.66699 42 -20 56s-30.333 21 -51 21
c-24 0 -43.167 -9 -57.5 -27s-21.5 -43 -21.5 -75v-251h-187v505h187v-50c36.667 43.333 86 65 148 65c35.334 0 67.167 -7.66699 95.5 -23s50.5 -37 66.5 -65c42.667 58.667 101.334 88 176 88z" />
    <glyph glyph-name="n" unicode="n" horiz-adv-x="620" 
d="M386 520c57.333 0 103.332 -18.668 137.999 -56.001s52 -87.666 52 -150.999v-313h-188v273c0 24 -6.5 43.333 -19.5 58s-30.167 22 -51.5 22c-25.333 0 -45.5 -9.33301 -60.5 -28s-22.5 -45.334 -22.5 -80v-245h-187v505h187v-51c40.667 44 91.334 66 152.001 66z" />
    <glyph glyph-name="o" unicode="o" horiz-adv-x="606" 
d="M303 519c78.667 0 145.5 -25 200.5 -75s82.5 -114 82.5 -192s-27.5 -141.833 -82.5 -191.5s-121.833 -74.5 -200.5 -74.5s-145.5 24.833 -200.5 74.5s-82.5 113.5 -82.5 191.5s27.5 142 82.5 192s121.833 75 200.5 75zM303 141c28 0 52.167 10.666 72.5 31.999
s30.5 47.666 30.5 78.999c0 31.334 -10 57.667 -30 79s-44.333 32 -73 32s-53 -10.667 -73 -32s-30 -47.666 -30 -78.999s10.167 -57.666 30.5 -78.999s44.5 -32 72.5 -32z" />
    <glyph glyph-name="p" unicode="p" horiz-adv-x="646" 
d="M382 520c70 0 128.167 -24.832 174.5 -74.499s69.5 -114.167 69.5 -193.5c0 -78.667 -23.167 -142.834 -69.5 -192.501s-104.5 -74.5 -174.5 -74.5c-61.333 0 -110.666 19.333 -147.999 58v-283h-187v745h187v-43c37.333 38.667 86.666 58 147.999 58zM337 141.001
c30.667 0 55.333 10.499 74 31.499s28 47.5 28 79.5c0 32.667 -9.33301 59.5 -28 80.5s-43.334 31.5 -74 31.5c-28.667 0 -53 -10.667 -73 -32s-30 -48 -30 -80c0 -31.333 10 -57.666 30 -78.999s44.333 -32 73 -32z" />
    <glyph glyph-name="q" unicode="q" horiz-adv-x="646" 
d="M599 505l-0.000976562 -745.001h-187v283c-37.333 -38.667 -86.666 -58 -147.999 -58c-70 0 -128.167 24.833 -174.5 74.5s-69.5 113.834 -69.5 192.501c0 79.333 23.167 143.833 69.5 193.5s104.5 74.5 174.5 74.5c61.334 0 110.667 -19.333 148 -58v43h187z
M308.999 140.999c28.667 0 53 10.668 73 32.001s30 47.666 30 78.999c0 32 -10 58.667 -30 80s-44.333 32 -73 32c-30.667 0 -55.334 -10.5 -74.001 -31.5s-28 -47.833 -28 -80.5c0 -32 9.33301 -58.5 28 -79.5s43.334 -31.5 74.001 -31.5z" />
    <glyph glyph-name="r" unicode="r" horiz-adv-x="444" 
d="M402 511c15.333 0 27.333 -1 36 -3l-7 -193h-30c-54 0 -95.333 -12.5 -124 -37.5s-43 -66.5 -43 -124.5v-153h-187v505h187v-100c37.333 70.667 93.333 106 168 106z" />
    <glyph glyph-name="s" unicode="s" horiz-adv-x="526" 
d="M19 131l179.001 35c8.66699 -32.667 33.667 -49 75 -49c16.667 0 29.667 2.83301 39 8.5s14 12.834 14 21.5c0 15.333 -15.333 25.333 -46 30l-101 17c-100 18 -150 68 -150 150c0 54 21.333 96.833 64 128.5s96.667 47.5 162 47.5c66 0 119.667 -12.333 161 -37
s68 -59.334 80 -104l-168 -33c-2 12.667 -9.5 24.167 -22.5 34.5s-29.5 15.5 -49.5 15.5c-31.333 0 -47 -10 -47 -30c0 -13.333 11 -22.333 33 -27l115 -23c50 -9.33301 87.333 -27.833 112 -55.5s37 -62.5 37 -104.5c0 -54 -22.167 -96 -66.5 -126
s-101.166 -45 -170.499 -45c-66.667 0 -122.334 12.167 -167.001 36.5s-72.334 60.833 -83.001 109.5z" />
    <glyph glyph-name="t" unicode="t" horiz-adv-x="431" 
d="M391 163l36.999 -141c-46 -24.667 -94 -37 -144 -37c-65.333 0 -115.666 17.667 -150.999 53s-53 85 -53 149v172h-77v146h77v165h187v-165h134v-146h-134v-151c0 -40.667 20 -61 60 -61c22.667 0 44 5.33301 64 16z" />
    <glyph glyph-name="u" unicode="u" horiz-adv-x="620" 
d="M573 505l0.000976562 -505h-187v51c-40.667 -44 -91.334 -66 -152.001 -66c-57.333 0 -103.333 18.667 -138 56s-52 87.666 -52 150.999v313h188v-273c0 -24 6.5 -43.333 19.5 -58s30.167 -22 51.5 -22c25.333 0 45.5 9.33301 60.5 28s22.5 45.334 22.5 80.001v245h187z
" />
    <glyph glyph-name="v" unicode="v" 
d="M607 505l-208 -505h-188l-208 505h196l106 -278l106 278h196z" />
    <glyph glyph-name="w" unicode="w" horiz-adv-x="803" 
d="M800 505l-158 -505h-159l-81 249l-82 -249h-159l-158 505h184l67 -232l86 232h123l86 -232l67 232h184z" />
    <glyph glyph-name="x" unicode="x" horiz-adv-x="616" 
d="M440 243l163 -243h-210l-85 130l-84 -130h-211l164 243l-164 262h211l84 -141l85 141h210z" />
    <glyph glyph-name="y" unicode="y" horiz-adv-x="624" 
d="M621 505l-322 -745h-197l111 258l-210 487h198l107 -267l115 267h198z" />
    <glyph glyph-name="z" unicode="z" horiz-adv-x="553" 
d="M520 146v-146h-487v120l233 239h-227v146h474v-123l-232 -236h239z" />
    <glyph glyph-name="braceleft" unicode="{" horiz-adv-x="417" 
d="M276 567v-132.999c0 -52 -19 -87 -57 -105c38 -18 57 -53 57 -105v-133c0 -7.33301 2.16699 -13.333 6.5 -18c4.33594 -4.66699 10.1689 -7 17.5 -7h84v-148h-144c-40 0 -72.167 12 -96.5 36s-36.5 55.667 -36.5 95v150c0 24 -17 40.667 -51 50l-36 10v140l36 10
c34 9.33301 51 26 51 50v150c0 39.333 12.167 71.166 36.5 95.499s56.5 36.5 96.5 36.5h144v-148h-84c-6.66895 0 -12.3359 -2.5 -17 -7.5c-4.66699 -5 -7 -11.167 -7 -18.5z" />
    <glyph glyph-name="bar" unicode="|" horiz-adv-x="263" 
d="M216 -72h-169v813h169v-813z" />
    <glyph glyph-name="braceright" unicode="}" horiz-adv-x="417" 
d="M397 399v-140l-36 -10c-33.333 -9.33301 -50 -26 -50 -50v-150c0 -39.333 -12.333 -71 -37 -95s-57 -36 -97 -36h-144v148h85c15.333 0 23 8.33301 23 25v133c0 52 19.333 87 58 105c-38.667 18 -58 53 -58 105v133c0 17.333 -7.66699 26 -23 26h-85v148h144
c40 0 72.333 -12.167 97 -36.5c24.667 -24.335 37 -56.168 37 -95.5v-150c0 -24 16.667 -40.667 50 -50z" />
    <glyph glyph-name="asciitilde" unicode="~" horiz-adv-x="513" 
d="M169 226h-134c0 62 14.167 107.833 42.5 137.5s59.5 44.5 93.5 44.5c27.333 0 55 -7 83 -21s46 -21 54 -21c10 0 18.167 3.33301 24.5 10s9.5 15 9.5 25h137c0 -62 -14.667 -108 -44 -138s-61.333 -45 -96 -45c-27.333 0 -54.666 6.5 -81.999 19.5s-45 19.5 -53 19.5
c-18.667 0 -30.334 -10.333 -35.001 -31z" />
    <glyph glyph-name="exclamdown" unicode="&#xa1;" horiz-adv-x="306" 
d="M157 319c-29.333 0 -53.833 10 -73.5 30s-29.5 43.667 -29.5 71c0 28 9.66699 51.5 29 70.5s44 28.5 74 28.5s55 -9.5 75 -28.5s30 -42.5 30 -70.5c0 -27.333 -10 -51 -30 -71s-45 -30 -75 -30zM47 -125l15 400h182l15 -400v-31h-212v31z" />
    <glyph glyph-name="cent" unicode="&#xa2;" horiz-adv-x="583" 
d="M392 223l171 -33.001c-8.66699 -49.333 -29.667 -91.166 -63 -125.499s-74.333 -57.5 -123 -69.5v-125h-154v125c-59.333 14.667 -108 45.167 -146 91.5s-57 101.5 -57 165.5c0 64.667 19 120.167 57 166.5s86.667 76.833 146 91.5v120h154v-120
c48 -12 88.667 -35 122 -69s54.333 -75 63 -123l-172 -36c-5.33301 26 -16 45.833 -32 59.5s-35.333 20.5 -58 20.5c-29.333 0 -53.333 -10.5 -72 -31.5s-28 -47.167 -28 -78.5s9.33301 -57.333 28 -78s42.667 -31 72 -31c48 0 78.667 26.667 92 80z" />
    <glyph glyph-name="sterling" unicode="&#xa3;" horiz-adv-x="598" 
d="M577 162v-162.001h-544v122l63 20v85h-63v152h63v82c0 67.333 22 121.5 66 162.5s102 61.5 174 61.5c67.333 0 122.833 -19.833 166.5 -59.5s68.167 -91.5 73.5 -155.5l-180 -32c-6 53.333 -26 80 -60 80c-16 0 -28.833 -5.16699 -38.5 -15.5
s-14.5 -24.166 -14.5 -41.499v-82h161v-152h-161v-65h294z" />
    <glyph glyph-name="yen" unicode="&#xa5;" horiz-adv-x="704" 
d="M497 325h118v-107h-171v-37h171v-106h-171v-75h-192v75h-162v106h162v37h-162v107h110l-187 345h201l134 -261l134 261h209z" />
    <glyph glyph-name="section" unicode="&#xa7;" horiz-adv-x="562" 
d="M539 262c0 -62 -27 -109.999 -81 -143.999c16.667 -25.333 25 -55 25 -89c0 -56.667 -19.5 -99.5 -58.5 -128.5s-88.833 -43.5 -149.5 -43.5c-68.667 0 -122.167 16.167 -160.5 48.5s-59.5 76.166 -63.5 131.499l155 29c3.33301 -49.333 23.333 -74 60 -74
c12.667 0 23.334 3.83301 32.001 11.5s13 17.5 13 29.5c0 18 -14.667 33 -44 45l-118 45c-86 30.667 -129 83.334 -129 158.001c0 62 27 109.667 81 143c-16.667 26 -25 56 -25 90c0 56.668 19.333 99.335 58 128c38.667 28.667 88.667 43 150 43c66 0 118 -16 156 -48
s58.667 -74 62 -126l-156 -28c-2.66699 44.667 -20.334 67 -53 67c-12.668 0 -23.335 -3.66699 -32.001 -11c-8.66699 -7.33301 -13 -17.333 -13 -30c0 -18.668 14.667 -33.335 44 -44.001l118 -45c86 -31.333 129 -84 129 -158zM344 202.001l9 -4
c16.667 12.667 25 26.667 25 42c0 19.333 -13.333 35.333 -40 48l-123 52l-10 4c-16 -12 -24 -25.667 -24 -41c0 -20.667 13.333 -36.667 40 -48z" />
    <glyph glyph-name="dieresis" unicode="&#xa8;" horiz-adv-x="600" 
d="M181 743c28.667 0 52.5 -9.5 71.5 -28.5s28.5 -41.5 28.5 -67.5c0 -28.667 -9.33301 -52.167 -28 -70.5s-42.667 -27.5 -72 -27.5c-28.667 0 -52.334 9.16699 -71.001 27.5s-28 41.833 -28 70.5c0 26 9.33301 48.5 28 67.5s42.334 28.5 71.001 28.5zM419 743
c28.667 0 52.499 -9.5 71.499 -28.5s28.5 -41.5 28.5 -67.5c0 -28.667 -9.33301 -52.167 -28 -70.5s-42.667 -27.5 -72 -27.5c-28.667 0 -52.334 9.16699 -71 27.5c-18.667 18.333 -28 41.833 -28 70.5c0 26 9.33301 48.5 28 67.5s42.334 28.5 71.001 28.5z" />
    <glyph glyph-name="copyright" unicode="&#xa9;" horiz-adv-x="757" 
d="M378 685c96.667 0 179.167 -33.332 247.5 -99.999s102.5 -150.334 102.5 -251.001s-34 -184 -102 -250s-150.667 -99 -248 -99s-180.166 33 -248.499 99s-102.5 149.333 -102.5 250c0 100 34.167 183.5 102.5 250.5s151.166 100.5 248.499 100.5zM378 629.001
c-80 0 -148.167 -28 -204.5 -84s-84.5 -126.333 -84.5 -211c0 -84 28.167 -153.667 84.5 -209s124.5 -83 204.5 -83s148 27.667 204 83s84 125 84 209s-28 154.167 -84 210.5s-124 84.5 -204 84.5zM384 522.001c49.333 0 90.499 -13.833 123.499 -41.5
s50.833 -61.834 53.5 -102.5l-105 -20c-3.33301 18 -11.833 32.167 -25.5 42.5s-30.167 15.5 -49.5 15.5c-22 0 -40.5 -7.66699 -55.5 -23s-22.5 -35 -22.5 -59s7.5 -43.667 22.5 -59s33.5 -23 55.5 -23c20 0 36.833 5.5 50.5 16.5s21.834 26.5 24.501 46.5l107 -18
c-3.33301 -43.333 -21.5 -79.333 -54.5 -108s-74.5 -43 -124.5 -43c-53.333 0 -98.833 17.5 -136.5 52.5s-56.5 80.167 -56.5 135.5s18.833 100.5 56.5 135.5s83.167 52.5 136.5 52.5z" />
    <glyph glyph-name="ordfeminine" unicode="&#xaa;" horiz-adv-x="390" 
d="M202 675c50.667 0 91.499 -11.999 122.499 -35.999s46.5 -59.667 46.5 -107v-203h-131v20c-24.667 -20 -55.667 -30 -93 -30s-67.5 10.167 -90.5 30.5s-34.5 47.166 -34.5 80.499s13.5 59.5 40.5 78.5s64.5 28.5 112.5 28.5h65v10c0 10 -3.16699 18 -9.5 24
s-14.833 9 -25.5 9c-19.333 0 -32.333 -9 -39 -27l-122 21c18.667 67.333 71.334 101 158.001 101zM190.999 405.001c14.667 0 26.5 4.16602 35.5 12.499s13.5 19.833 13.5 34.5v14h-45c-12 0 -21.5 -2.66699 -28.5 -8s-10.5 -12.666 -10.5 -21.999
s3.16699 -16.833 9.5 -22.5s14.833 -8.5 25.5 -8.5z" />
    <glyph glyph-name="guillemotleft" unicode="&#xab;" horiz-adv-x="539" 
d="M25 262l99 178h170l-99 -178l99 -178h-170zM245 262l99 178h170l-99 -178l99 -178h-170z" />
    <glyph glyph-name="registered" unicode="&#xae;" horiz-adv-x="473" 
d="M237 685c56 0 103.333 -19 142 -57s58 -86 58 -144c0 -57.333 -19.333 -105 -58 -143s-86 -57 -142 -57s-103.333 19 -142 57s-58 85.667 -58 143c0 58 19.333 106 58 144s86 57 142 57zM237 329c42.667 0 79 14.833 109 44.5s45 66.5 45 110.5c0 44.667 -15 82 -45 112
s-66.333 45 -109 45s-78.834 -15 -108.501 -45s-44.5 -67.333 -44.5 -112c0 -44 14.833 -80.833 44.5 -110.5s65.834 -44.5 108.501 -44.5zM324 518c0 -27.333 -12.667 -46.667 -38 -58l48 -59h-61l-40 52h-20v-52h-51v179h91c22.667 0 40.167 -5.66699 52.5 -17
s18.5 -26.333 18.5 -45zM213 494.999h36c8 0 14.5 2.16699 19.5 6.5s7.5 9.5 7.5 15.5c0 14 -9 21 -27 21h-36v-43z" />
    <glyph glyph-name="macron" unicode="&#xaf;" horiz-adv-x="600" 
d="M472 569h-344v140h344v-140z" />
    <glyph glyph-name="degree" unicode="&#xb0;" horiz-adv-x="440" 
d="M220 685c45.333 0 83.833 -14.667 115.5 -44s47.5 -67.333 47.5 -114c0 -46 -15.833 -83.667 -47.5 -113s-70.167 -44 -115.5 -44s-83.833 14.667 -115.5 44s-47.5 67 -47.5 113c0 46.667 15.833 84.667 47.5 114s70.167 44 115.5 44zM220 468
c15.333 0 28.668 5.33301 40.001 16s17 25 17 43s-5.66699 32.5 -17 43.5c-11.334 11 -24.667 16.5 -40 16.5c-15.334 0 -28.667 -5.5 -40 -16.5s-17 -25.5 -17 -43.5s5.66699 -32.333 17 -43s24.666 -16 39.999 -16z" />
    <glyph glyph-name="plusminus" unicode="&#xb1;" horiz-adv-x="567" 
d="M527 482v-145h-171v-135h-145v135h-171v145h171v156h145v-156h171zM40 145h487v-145h-487v145z" />
    <glyph glyph-name="acute" unicode="&#xb4;" horiz-adv-x="600" 
d="M346 567h-173l75 160h225z" />
    <glyph glyph-name="paragraph" unicode="&#xb6;" horiz-adv-x="615" 
d="M400 0h-121v299h-50c-60.667 0 -110.667 17.167 -150 51.5c-39.333 34.334 -59 80.167 -59 137.5c0 58.667 17.5 103.667 52.5 135s82.5 47 142.5 47h185v-670zM569 0h-122v670h122v-670z" />
    <glyph glyph-name="periodcentered" unicode="&#xb7;" horiz-adv-x="255" 
d="M127 367c30 0 54.833 -10.333 74.5 -31s29.5 -45 29.5 -73c0 -29.333 -9.83301 -53.666 -29.5 -72.999s-44.5 -29 -74.5 -29s-54.833 9.66699 -74.5 29s-29.5 43.666 -29.5 72.999c0 28 9.83301 52.333 29.5 73s44.5 31 74.5 31z" />
    <glyph glyph-name="cedilla" unicode="&#xb8;" horiz-adv-x="600" 
d="M266 0h133l-43 -160h-193z" />
    <glyph glyph-name="ordmasculine" unicode="&#xba;" horiz-adv-x="418" 
d="M208 675c53.333 0 98.5 -16.667 135.5 -50s55.5 -76 55.5 -128s-18.5 -94.667 -55.5 -128s-82.167 -50 -135.5 -50c-52 0 -96.5 16.667 -133.5 50s-55.5 76 -55.5 128s18.5 94.667 55.5 128s81.5 50 133.5 50zM208 434c18 0 32.667 5.99805 44 17.998s17 27 17 45
s-5.66699 33 -17 45s-26 18 -44 18c-16.667 0 -30.667 -6.16699 -42 -18.5c-11.333 -12.335 -17 -27.168 -17 -44.499c0 -17.333 5.66699 -32.166 17 -44.499s25.333 -18.5 42 -18.5z" />
    <glyph glyph-name="guillemotright" unicode="&#xbb;" horiz-adv-x="539" 
d="M25 84l99 178l-99 178h170l99 -178l-99 -178h-170zM245 84l99 178l-99 178h170l99 -178l-99 -178h-170z" />
    <glyph glyph-name="onequarter" unicode="&#xbc;" horiz-adv-x="761" 
d="M97 520l-83 -45v119l124 76h81v-387h-122v237zM665 670l-478 -670h-100l478 670h100zM746 59h-47v-59h-114v59h-196v110l167 218h143v-229h47v-99zM585 158v108l-80 -108h80z" />
    <glyph glyph-name="onehalf" unicode="&#xbd;" horiz-adv-x="801" 
d="M97 520l-83 -45v119l124 76h81v-387h-122v237zM652 670l-478 -670h-100l477 670h101zM630 103h118.002v-103h-300v75l138 125c12.667 12 21.167 20.167 25.5 24.5s8.66602 10 12.999 17s6.5 13.833 6.5 20.5c0 9.33301 -3 16.833 -9 22.5s-13.667 8.5 -23 8.5
c-26 0 -39.333 -17.333 -40 -52l-112 21c0 40 13.833 72.333 41.5 97s64.5 37 110.5 37c45.333 0 81.833 -11.833 109.5 -35.5s41.5 -56.167 41.5 -97.5c0 -25.333 -6.33301 -47 -19 -65s-32.334 -38 -59.001 -60z" />
    <glyph glyph-name="threequarters" unicode="&#xbe;" horiz-adv-x="829" 
d="M332 404c0 -36 -14.998 -66.333 -44.998 -91s-67.667 -37 -113 -37c-43.333 0 -79.333 11.5 -108 34.5s-45 53.5 -49 91.5l110 21c7.33301 -31.333 23.666 -47 48.999 -47c26 0 39 10.333 39 31c0 9.33301 -4 17 -12 23s-18.333 9 -31 9h-44v84h40c29.333 0 44 10 44 30
c0 9.33301 -3.5 16.833 -10.5 22.5s-16.5 8.5 -28.5 8.5c-25.334 0 -39.667 -15.333 -43 -46l-110 21c3.33301 34 19.166 62.667 47.499 86s63.166 35 104.499 35c44.667 0 81.334 -11.667 110.001 -35s43 -53 43 -89c0 -30.667 -15 -55 -45 -73
c34.667 -18 52 -44.333 52 -79zM730.002 670l-478 -670h-100l477 670h101zM814.002 59h-47v-59h-114v59h-196v110l167 218h143v-229h47v-99zM653.002 158v108l-80 -108h80z" />
    <glyph glyph-name="questiondown" unicode="&#xbf;" horiz-adv-x="551" 
d="M282 320c-30 0 -54.833 9.83301 -74.5 29.5s-29.5 43.167 -29.5 70.5c0 28.667 9.83301 52.5 29.5 71.5s44.5 28.5 74.5 28.5s54.833 -9.5 74.5 -28.5s29.5 -42.833 29.5 -71.5c0 -27.333 -9.83301 -50.833 -29.5 -70.5s-44.5 -29.5 -74.5 -29.5zM342 66l186 -38.001
c-11.334 -58 -40.001 -105.5 -86.001 -142.5s-107.333 -55.5 -184 -55.5c-71.333 0 -129.166 20.333 -173.499 61s-66.5 91.667 -66.5 153c0 47.333 15 87.333 45 120s71.333 55.334 124 68.001v46h184l-1 -166h-84c-24 0 -43.333 -5.33301 -58 -16s-22 -24.667 -22 -42
c0 -18.667 5.83301 -33.667 17.5 -45s26.834 -17 45.5 -17c20 0 36.333 6.66699 49 20s20.667 31.333 24 54z" />
    <glyph glyph-name="Agrave" unicode="&#xc0;" horiz-adv-x="752" 
d="M296 732l-127 160h225l75 -160h-173zM752 0h-207l-37 102h-264l-38 -102h-206l270 670h212zM450 263l-73 201l-74 -201h147z" />
    <glyph glyph-name="Aacute" unicode="&#xc1;" horiz-adv-x="752" 
d="M462 732h-173l75 160h225zM752 0h-207l-37 102h-264l-38 -102h-206l270 670h212zM450 263l-73 201l-74 -201h147z" />
    <glyph glyph-name="Acircumflex" unicode="&#xc2;" horiz-adv-x="752" 
d="M341 729h-177l117 162h191l118 -162h-178l-35 50zM752 0h-207l-37 102h-264l-38 -102h-206l270 670h212zM450 263l-73 201l-74 -201h147z" />
    <glyph glyph-name="Atilde" unicode="&#xc3;" horiz-adv-x="752" 
d="M332 768c-9.33301 0 -16.333 -2.16699 -21 -6.5c-4.66699 -4.33887 -9 -12.1719 -13 -23.499h-105c0 54.668 11.667 97.335 35 128c23.333 30.667 52.666 46 87.999 46c22.667 0 45.5 -6.16699 68.5 -18.5s40.167 -18.5 51.5 -18.5c9.33301 0 16.333 2.5 21 7.5
s9 13.5 13 25.5h105c0 -54.667 -11.667 -97.334 -35 -128.001s-52.666 -46 -87.999 -46c-22.667 0 -45.5 5.66699 -68.5 17s-40.167 17 -51.5 17zM752 0h-207l-37 102h-264l-38 -102h-206l270 670h212zM450 263l-73 201l-74 -201h147z" />
    <glyph glyph-name="Adieresis" unicode="&#xc4;" horiz-adv-x="752" 
d="M258 714c-28.667 0 -52.333 9.16699 -71 27.5s-28 41.833 -28 70.5c0 26 9.33301 48.5 28 67.5s42.334 28.5 71 28.5c28.667 0 52.5 -9.5 71.5 -28.5s28.5 -41.5 28.5 -67.5c0 -28.667 -9.33301 -52.167 -28 -70.5s-42.667 -27.5 -72 -27.5zM496.001 714
c-28.668 0 -52.335 9.16699 -71.001 27.5c-18.667 18.333 -28 41.833 -28 70.5c0 26 9.33301 48.5 28 67.5s42.334 28.5 71.001 28.5s52.5 -9.5 71.5 -28.5s28.5 -41.5 28.5 -67.5c0 -28.667 -9.33301 -52.167 -28 -70.5s-42.667 -27.5 -72 -27.5zM752.001 0h-207l-37 102
h-264l-38 -102h-206l270 670h212zM450.001 263l-73 201l-74 -201h147z" />
    <glyph glyph-name="Aring" unicode="&#xc5;" horiz-adv-x="752" 
d="M377 708c-37.333 0 -69 12.5 -95 37.5s-39 55.5 -39 91.5s13 66.5 39 91.5s57.667 37.5 95 37.5s69 -12.5 95 -37.5s39 -55.5 39 -91.5s-13 -66.5 -39 -91.5s-57.667 -37.5 -95 -37.5zM377 876c-11.333 0 -21 -3.83105 -29 -11.498s-12 -16.834 -12 -27.501
s4 -19.834 12 -27.501s17.667 -11.5 29 -11.5s21 3.83301 29 11.5c8 7.67285 12 16.8398 12 27.5c0 10.6729 -4 19.8398 -12 27.5c-8 7.66699 -17.667 11.5 -29 11.5zM752 0.00195312h-207l-37 102h-264l-38 -102h-206l270 670h212zM450 263.002l-73 201l-74 -201h147z" />
    <glyph glyph-name="AE" unicode="&#xc6;" horiz-adv-x="1051" 
d="M1018 162v-162h-534v95h-206l-52 -95h-226l409 670h605v-162h-337v-99h309v-147h-309v-100h341zM484 255v214l-118 -214h118z" />
    <glyph glyph-name="Ccedilla" unicode="&#xc7;" horiz-adv-x="765" 
d="M391 158c39.334 0 72.168 11.3359 98.501 34.0029s44.166 56 53.499 100l192 -44c-12.667 -72.667 -44.5 -131.834 -95.5 -177.501s-115.167 -73.167 -192.5 -82.5l-40 -148h-193l98 153c-82 17.333 -149.5 57.666 -202.5 120.999s-79.5 137 -79.5 221
c0 98 34.833 180.833 104.5 248.499c69.667 67.667 155.167 101.5 256.5 101.5c85.333 0 160.166 -23.333 224.499 -70s104.166 -108.667 119.499 -186l-192 -46c-9.33496 42 -27.168 74 -53.499 96c-26.333 22 -59.166 33 -98.499 33c-47.333 0 -87 -17 -119 -51
s-48 -76 -48 -126s16 -92 48 -126s71.667 -51 119 -51z" />
    <glyph glyph-name="Egrave" unicode="&#xc8;" horiz-adv-x="617" 
d="M235 732l-127 160h225l75 -160h-173zM580 162v-162h-533v670h529v-162h-337v-99h310v-147h-310v-100h341z" />
    <glyph glyph-name="Eacute" unicode="&#xc9;" horiz-adv-x="617" 
d="M402 732h-173l75 160h225zM580 162v-162h-533v670h529v-162h-337v-99h310v-147h-310v-100h341z" />
    <glyph glyph-name="Ecircumflex" unicode="&#xca;" horiz-adv-x="617" 
d="M280 729h-177l117 162h191l118 -162h-178l-35 50zM580 162v-162h-533v670h529v-162h-337v-99h310v-147h-310v-100h341z" />
    <glyph glyph-name="Edieresis" unicode="&#xcb;" horiz-adv-x="617" 
d="M197 714c-28.667 0 -52.334 9.16699 -71.001 27.5s-28 41.833 -28 70.5c0 26 9.33301 48.5 28 67.5s42.334 28.5 71.001 28.5s52.5 -9.5 71.5 -28.5s28.5 -41.5 28.5 -67.5c0 -28.667 -9.33301 -52.167 -28 -70.5s-42.667 -27.5 -72 -27.5zM435 714
c-28.667 0 -52.335 9.16699 -71.001 27.5c-18.667 18.333 -28 41.833 -28 70.5c0 26 9.33301 48.5 28 67.5s42.334 28.5 71.001 28.5s52.5 -9.5 71.5 -28.5s28.5 -41.5 28.5 -67.5c0 -28.667 -9.33301 -52.167 -28 -70.5s-42.667 -27.5 -72 -27.5zM579.999 162v-162h-533
v670h529v-162h-337v-99h310v-147h-310v-100h341z" />
    <glyph glyph-name="Igrave" unicode="&#xcc;" horiz-adv-x="459" 
d="M149 732l-127 160h225l75 -160h-173zM326 505v-340h113v-165h-419v165h113v340h-113v165h419v-165h-113z" />
    <glyph glyph-name="Iacute" unicode="&#xcd;" horiz-adv-x="459" 
d="M316 732h-173l75 160h225zM439 670v-165h-113v-340h113v-165h-419v165h113v340h-113v165h419z" />
    <glyph glyph-name="Icircumflex" unicode="&#xce;" horiz-adv-x="459" 
d="M194 729h-177l117 162h191l118 -162h-178l-35 50zM439 670v-165h-113v-340h113v-165h-419v165h113v340h-113v165h419z" />
    <glyph glyph-name="Idieresis" unicode="&#xcf;" horiz-adv-x="459" 
d="M111 714c-28.667 0 -52.334 9.16699 -71.001 27.5s-28 41.833 -28 70.5c0 26 9.33301 48.5 28 67.5s42.334 28.5 71.001 28.5s52.5 -9.5 71.5 -28.5s28.5 -41.5 28.5 -67.5c0 -28.667 -9.33301 -52.167 -28 -70.5s-42.667 -27.5 -72 -27.5zM349 714
c-28.667 0 -52.335 9.16699 -71.001 27.5c-18.667 18.333 -28 41.833 -28 70.5c0 26 9.33301 48.5 28 67.5s42.334 28.5 71.001 28.5s52.5 -9.5 71.5 -28.5s28.5 -41.5 28.5 -67.5c0 -28.667 -9.33301 -52.167 -28 -70.5s-42.667 -27.5 -72 -27.5zM438.999 670v-165h-113
v-340h113v-165h-419v165h113v340h-113v165h419z" />
    <glyph glyph-name="Eth" unicode="&#xd0;" horiz-adv-x="732" 
d="M63 670h283c110 0 198.5 -30.833 265.5 -92.5s100.5 -142.5 100.5 -242.5s-33.5 -180.833 -100.5 -242.5s-155.5 -92.5 -265.5 -92.5h-283v252h-46v165h46v253zM256 162h77c55.333 0 99.833 16 133.5 48s50.5 73.667 50.5 125s-16.833 93 -50.5 125s-78.167 48 -133.5 48
h-77v-91h93v-165h-93v-90z" />
    <glyph glyph-name="Ntilde" unicode="&#xd1;" horiz-adv-x="752" 
d="M334 768c-9.33301 0 -16.333 -2.16699 -21 -6.5c-4.66699 -4.33887 -9 -12.1719 -13 -23.499h-105c0 54.668 11.667 97.335 35 128c23.333 30.667 52.666 46 87.999 46c22.667 0 45.5 -6.16699 68.5 -18.5s40.167 -18.5 51.5 -18.5c9.33301 0 16.333 2.5 21 7.5
s9 13.5 13 25.5h105c0 -54.667 -11.667 -97.334 -35 -128.001s-52.666 -46 -87.999 -46c-22.667 0 -45.5 5.66699 -68.5 17s-40.167 17 -51.5 17zM706 670v-670h-159l-308 345v-345h-192v670h158l308 -357v357h193z" />
    <glyph glyph-name="Ograve" unicode="&#xd2;" horiz-adv-x="782" 
d="M310 732l-127 160h225l75 -160h-173zM391 685c101.333 0 186.833 -33.832 256.5 -101.499s104.5 -150.5 104.5 -248.5s-34.833 -180.833 -104.5 -248.5s-155.167 -101.5 -256.5 -101.5s-186.833 33.833 -256.5 101.5s-104.5 150.5 -104.5 248.5
s34.833 180.833 104.5 248.499c69.667 67.667 155.167 101.5 256.5 101.5zM391 158.001c48 0 87.833 16.833 119.5 50.5s47.5 75.834 47.5 126.501c0 50 -15.833 92 -47.5 126s-71.5 51 -119.5 51s-87.833 -17 -119.5 -51s-47.5 -76 -47.5 -126
c0 -50.667 15.833 -92.834 47.5 -126.501s71.5 -50.5 119.5 -50.5z" />
    <glyph glyph-name="Oacute" unicode="&#xd3;" horiz-adv-x="782" 
d="M477 732h-173l75 160h225zM391 685c101.333 0 186.833 -33.832 256.5 -101.499s104.5 -150.5 104.5 -248.5s-34.833 -180.833 -104.5 -248.5s-155.167 -101.5 -256.5 -101.5s-186.833 33.833 -256.5 101.5s-104.5 150.5 -104.5 248.5s34.833 180.833 104.5 248.499
c69.667 67.667 155.167 101.5 256.5 101.5zM391 158.001c48 0 87.833 16.833 119.5 50.5s47.5 75.834 47.5 126.501c0 50 -15.833 92 -47.5 126s-71.5 51 -119.5 51s-87.833 -17 -119.5 -51s-47.5 -76 -47.5 -126c0 -50.667 15.833 -92.834 47.5 -126.501
s71.5 -50.5 119.5 -50.5z" />
    <glyph glyph-name="Ocircumflex" unicode="&#xd4;" horiz-adv-x="782" 
d="M355 729h-177l117 162h191l118 -162h-178l-35 50zM391 685c101.333 0 186.833 -33.832 256.5 -101.499s104.5 -150.5 104.5 -248.5s-34.833 -180.833 -104.5 -248.5s-155.167 -101.5 -256.5 -101.5s-186.833 33.833 -256.5 101.5s-104.5 150.5 -104.5 248.5
s34.833 180.833 104.5 248.499c69.667 67.667 155.167 101.5 256.5 101.5zM391 158.001c48 0 87.833 16.833 119.5 50.5s47.5 75.834 47.5 126.501c0 50 -15.833 92 -47.5 126s-71.5 51 -119.5 51s-87.833 -17 -119.5 -51s-47.5 -76 -47.5 -126
c0 -50.667 15.833 -92.834 47.5 -126.501s71.5 -50.5 119.5 -50.5z" />
    <glyph glyph-name="Otilde" unicode="&#xd5;" horiz-adv-x="782" 
d="M347 768c-9.33301 0 -16.334 -2.16699 -21.001 -6.5c-4.66699 -4.33887 -9 -12.1719 -13 -23.499h-105c0 54.668 11.667 97.335 35 128c23.334 30.667 52.667 46 88 46c22.667 0 45.5 -6.16699 68.5 -18.5s40.167 -18.5 51.5 -18.5c9.33301 0 16.333 2.5 21 7.5
s9 13.5 13 25.5h105c0 -54.667 -11.667 -97.334 -35 -128.001s-52.666 -46 -87.999 -46c-22.667 0 -45.5 5.66699 -68.5 17s-40.167 17 -51.5 17zM390.999 685c101.333 0 186.833 -33.832 256.5 -101.499s104.5 -150.5 104.5 -248.5s-34.833 -180.833 -104.5 -248.5
s-155.167 -101.5 -256.5 -101.5s-186.833 33.833 -256.5 101.5s-104.5 150.5 -104.5 248.5s34.833 180.833 104.5 248.499c69.667 67.667 155.167 101.5 256.5 101.5zM390.999 158.001c48 0 87.833 16.833 119.5 50.5s47.5 75.834 47.5 126.501c0 50 -15.833 92 -47.5 126
s-71.5 51 -119.5 51s-87.833 -17 -119.5 -51s-47.5 -76 -47.5 -126c0 -50.667 15.833 -92.834 47.5 -126.501s71.5 -50.5 119.5 -50.5z" />
    <glyph glyph-name="Odieresis" unicode="&#xd6;" horiz-adv-x="782" 
d="M272 714c-28.667 0 -52.333 9.16699 -71 27.5s-28 41.833 -28 70.5c0 26 9.33301 48.5 28 67.5s42.334 28.5 71 28.5c28.667 0 52.5 -9.5 71.5 -28.5s28.5 -41.5 28.5 -67.5c0 -28.667 -9.33301 -52.167 -28 -70.5s-42.667 -27.5 -72 -27.5zM510.001 714
c-28.668 0 -52.335 9.16699 -71.001 27.5c-18.667 18.333 -28 41.833 -28 70.5c0 26 9.33301 48.5 28 67.5s42.334 28.5 71.001 28.5s52.5 -9.5 71.5 -28.5s28.5 -41.5 28.5 -67.5c0 -28.667 -9.33301 -52.167 -28 -70.5s-42.667 -27.5 -72 -27.5zM391.001 685
c101.333 0 186.833 -33.832 256.5 -101.499s104.5 -150.5 104.5 -248.5s-34.833 -180.833 -104.5 -248.5s-155.167 -101.5 -256.5 -101.5s-186.833 33.833 -256.5 101.5s-104.5 150.5 -104.5 248.5s34.833 180.833 104.5 248.499c69.667 67.667 155.167 101.5 256.5 101.5z
M391.001 158.001c48 0 87.833 16.833 119.5 50.5s47.5 75.834 47.5 126.501c0 50 -15.833 92 -47.5 126s-71.5 51 -119.5 51s-87.833 -17 -119.5 -51s-47.5 -76 -47.5 -126c0 -50.667 15.833 -92.834 47.5 -126.501s71.5 -50.5 119.5 -50.5z" />
    <glyph glyph-name="multiply" unicode="&#xd7;" horiz-adv-x="535" 
d="M369 302l130 -130l-101 -102l-131 130l-130 -130l-102 102l130 130l-130 129l102 102l130 -130l131 130l101 -102z" />
    <glyph glyph-name="Oslash" unicode="&#xd8;" horiz-adv-x="782" 
d="M741 592l-54.001 -53.999c43.333 -60 65 -127.667 65 -203c0 -98 -34.833 -180.833 -104.5 -248.5s-155.167 -101.5 -256.5 -101.5c-73.333 0 -140 19 -200 57l-67 -67l-83 83l63 63c-49.333 60.667 -74 132 -74 214c0 98 34.833 180.833 104.5 248.499
c69.667 67.667 155.167 101.5 256.5 101.5c78.667 0 149.334 -21.667 212.001 -65l55 55zM223.999 335.001c0 -27.333 5.33301 -53.333 16 -78l234 234c-26 14 -53.667 21 -83 21c-48 0 -87.833 -17 -119.5 -51s-47.5 -76 -47.5 -126zM390.999 158.001
c48 0 87.833 16.832 119.5 50.499s47.5 75.834 47.5 126.501c0 23.334 -3.33301 44.667 -10 64l-226 -226c21.333 -10 44.333 -15 69 -15z" />
    <glyph glyph-name="Ugrave" unicode="&#xd9;" horiz-adv-x="715" 
d="M276 732l-127 160h225l75 -160h-173zM667 670v-367c0 -96.667 -27.833 -173.834 -83.5 -231.501s-129.5 -86.5 -221.5 -86.5c-94.667 0 -170.667 28.667 -228 86s-86 134.666 -86 231.999v367h193v-367c0 -45.333 11 -80.666 33 -105.999s51.333 -38 88 -38
c34 0 61.167 12.833 81.5 38.5s30.5 60.834 30.5 105.501v367h193z" />
    <glyph glyph-name="Uacute" unicode="&#xda;" horiz-adv-x="715" 
d="M443 732h-173l75 160h225zM667 670v-367c0 -96.667 -27.833 -173.834 -83.5 -231.501s-129.5 -86.5 -221.5 -86.5c-94.667 0 -170.667 28.667 -228 86s-86 134.666 -86 231.999v367h193v-367c0 -45.333 11 -80.666 33 -105.999s51.333 -38 88 -38
c34 0 61.167 12.833 81.5 38.5s30.5 60.834 30.5 105.501v367h193z" />
    <glyph glyph-name="Ucircumflex" unicode="&#xdb;" horiz-adv-x="715" 
d="M321 729h-177l117 162h191l118 -162h-178l-35 50zM667 670v-367c0 -96.667 -27.833 -173.834 -83.5 -231.501s-129.5 -86.5 -221.5 -86.5c-94.667 0 -170.667 28.667 -228 86s-86 134.666 -86 231.999v367h193v-367c0 -45.333 11 -80.666 33 -105.999s51.333 -38 88 -38
c34 0 61.167 12.833 81.5 38.5s30.5 60.834 30.5 105.501v367h193z" />
    <glyph glyph-name="Udieresis" unicode="&#xdc;" horiz-adv-x="715" 
d="M238 714c-28.667 0 -52.333 9.16699 -71 27.5s-28 41.833 -28 70.5c0 26 9.33301 48.5 28 67.5s42.334 28.5 71 28.5c28.667 0 52.5 -9.5 71.5 -28.5s28.5 -41.5 28.5 -67.5c0 -28.667 -9.33301 -52.167 -28 -70.5s-42.667 -27.5 -72 -27.5zM476.001 714
c-28.667 0 -52.335 9.16699 -71.001 27.5c-18.667 18.333 -28 41.833 -28 70.5c0 26 9.33301 48.5 28 67.5s42.334 28.5 71.001 28.5s52.5 -9.5 71.5 -28.5s28.5 -41.5 28.5 -67.5c0 -28.667 -9.33301 -52.167 -28 -70.5s-42.667 -27.5 -72 -27.5zM667 670v-367
c0 -96.667 -27.833 -173.834 -83.5 -231.501s-129.5 -86.5 -221.5 -86.5c-94.667 0 -170.667 28.667 -228 86s-86 134.666 -86 231.999v367h193v-367c0 -45.333 11 -80.666 33 -105.999s51.333 -38 88 -38c34 0 61.167 12.833 81.5 38.5s30.5 60.834 30.5 105.501v367h193z
" />
    <glyph glyph-name="Yacute" unicode="&#xdd;" horiz-adv-x="721" 
d="M446 732h-173l75 160h225zM718 670l-262 -465v-205h-200v205l-253 465h211l146 -272l145 272h213z" />
    <glyph glyph-name="Thorn" unicode="&#xde;" horiz-adv-x="652" 
d="M239 568h138c74.667 0 134.667 -21 180 -63s68 -97.667 68 -167c0 -71.333 -24 -128.5 -72 -171.5s-111.333 -64.5 -190 -64.5h-124v-102h-192v670h192v-102zM239 254h112c26 0 46.667 7.33301 62 22s23 33.667 23 57c0 22.667 -7.66699 41 -23 55s-36 21 -62 21h-112
v-155z" />
    <glyph glyph-name="germandbls" unicode="&#xdf;" horiz-adv-x="669" 
d="M509 381c42 -10.667 75.501 -31.667 100.501 -63s37.5 -70 37.5 -116c0 -62 -20.833 -113.167 -62.5 -153.5s-96.167 -60.5 -163.5 -60.5c-47.333 0 -93.333 4 -138 12l18 153c33.333 -6 60 -9 80 -9c24 0 43.833 7 59.5 21s23.5 31 23.5 51c0 24 -9.16699 43 -27.5 57
s-43.5 21 -75.5 21h-45v150h25c23.334 0 42.167 6.33301 56.5 19s21.5 28.667 21.5 48c0 22.667 -7.5 40.5 -22.5 53.5s-34.833 19.5 -59.5 19.5c-30.667 0 -55.5 -10 -74.5 -30s-28.5 -46.667 -28.5 -80v-474h-187v460c0 83.333 26.667 150.333 80 201s123.333 76 210 76
c78 0 142.167 -19.167 192.5 -57.5s75.5 -87.833 75.5 -148.5c0 -36.667 -8.83301 -68.334 -26.5 -95c-17.667 -26.667 -40.834 -45 -69.501 -55z" />
    <glyph glyph-name="agrave" unicode="&#xe0;" horiz-adv-x="565" 
d="M207 567l-127 160h225l75 -160h-173zM289 520c75.334 0 134.167 -18.166 176.5 -54.499s63.5 -87.833 63.5 -154.5v-311h-181v35c-39.333 -33.333 -88.333 -50 -147 -50c-55.333 0 -99.833 15.167 -133.5 45.5s-50.5 70.166 -50.5 119.499
c0 51.333 19.167 91.333 57.5 120s92.5 43 162.5 43h111v13c0 16.667 -5.16699 30.167 -15.5 40.5s-23.833 15.5 -40.5 15.5c-36.667 0 -58.334 -17.333 -65.001 -52l-177 36c12.667 48.667 39.834 86.5 81.501 113.5s94.167 40.5 157.5 40.5zM268 119.001
c22 0 40.833 6.66699 56.5 20s23.5 31.333 23.5 54v16h-75c-18 0 -32.5 -4.16699 -43.5 -12.5c-11 -8.33398 -16.5 -19.167 -16.5 -32.5c0 -14 5.16699 -25 15.5 -33s23.5 -12 39.5 -12z" />
    <glyph glyph-name="aacute" unicode="&#xe1;" horiz-adv-x="565" 
d="M374 567h-173l75 160h225zM289 520c75.334 0 134.167 -18.166 176.5 -54.499s63.5 -87.833 63.5 -154.5v-311h-181v35c-39.333 -33.333 -88.333 -50 -147 -50c-55.333 0 -99.833 15.167 -133.5 45.5s-50.5 70.166 -50.5 119.499c0 51.333 19.167 91.333 57.5 120
s92.5 43 162.5 43h111v13c0 16.667 -5.16699 30.167 -15.5 40.5s-23.833 15.5 -40.5 15.5c-36.667 0 -58.334 -17.333 -65.001 -52l-177 36c12.667 48.667 39.834 86.5 81.501 113.5s94.167 40.5 157.5 40.5zM268 119.001c22 0 40.833 6.66699 56.5 20s23.5 31.333 23.5 54
v16h-75c-18 0 -32.5 -4.16699 -43.5 -12.5c-11 -8.33398 -16.5 -19.167 -16.5 -32.5c0 -14 5.16699 -25 15.5 -33s23.5 -12 39.5 -12z" />
    <glyph glyph-name="acircumflex" unicode="&#xe2;" horiz-adv-x="565" 
d="M252 564h-177l117 162h191l118 -162h-178l-35 50zM289 520c75.334 0 134.167 -18.166 176.5 -54.499s63.5 -87.833 63.5 -154.5v-311h-181v35c-39.333 -33.333 -88.333 -50 -147 -50c-55.333 0 -99.833 15.167 -133.5 45.5s-50.5 70.166 -50.5 119.499
c0 51.333 19.167 91.333 57.5 120s92.5 43 162.5 43h111v13c0 16.667 -5.16699 30.167 -15.5 40.5s-23.833 15.5 -40.5 15.5c-36.667 0 -58.334 -17.333 -65.001 -52l-177 36c12.667 48.667 39.834 86.5 81.501 113.5s94.167 40.5 157.5 40.5zM268 119.001
c22 0 40.833 6.66699 56.5 20s23.5 31.333 23.5 54v16h-75c-18 0 -32.5 -4.16699 -43.5 -12.5c-11 -8.33398 -16.5 -19.167 -16.5 -32.5c0 -14 5.16699 -25 15.5 -33s23.5 -12 39.5 -12z" />
    <glyph glyph-name="atilde" unicode="&#xe3;" horiz-adv-x="565" 
d="M244 603c-9.33301 0 -16.333 -2.16602 -21 -6.49902c-4.66699 -4.33789 -9 -12.1709 -13 -23.5h-105c0 54.668 11.667 97.335 35 128c23.333 30.667 52.666 46 87.999 46c22.667 0 45.5 -6.16699 68.5 -18.5s40.167 -18.5 51.5 -18.5c9.33301 0 16.333 2.5 21 7.5
s9 13.5 13 25.5h105c0 -54.667 -11.667 -97.334 -35 -128.001s-52.666 -46 -87.999 -46c-22.667 0 -45.5 5.66699 -68.5 17s-40.167 17 -51.5 17zM289 520.001c75.334 0 134.167 -18.166 176.5 -54.499s63.5 -87.833 63.5 -154.5v-311h-181v35
c-39.333 -33.333 -88.333 -50 -147 -50c-55.333 0 -99.833 15.167 -133.5 45.5s-50.5 70.166 -50.5 119.499c0 51.333 19.167 91.333 57.5 120s92.5 43 162.5 43h111v13c0 16.667 -5.16699 30.167 -15.5 40.5s-23.833 15.5 -40.5 15.5
c-36.667 0 -58.334 -17.333 -65.001 -52l-177 36c12.667 48.667 39.834 86.5 81.501 113.5s94.167 40.5 157.5 40.5zM268 119.002c22 0 40.833 6.66699 56.5 20s23.5 31.333 23.5 54v16h-75c-18 0 -32.5 -4.16699 -43.5 -12.5c-11 -8.33398 -16.5 -19.167 -16.5 -32.5
c0 -14 5.16699 -25 15.5 -33s23.5 -12 39.5 -12z" />
    <glyph glyph-name="adieresis" unicode="&#xe4;" horiz-adv-x="565" 
d="M169 549c-28.667 0 -52.334 9.16699 -71.001 27.5s-28 41.833 -28 70.5c0 26 9.33301 48.5 28 67.5s42.334 28.5 71.001 28.5s52.5 -9.5 71.5 -28.5s28.5 -41.5 28.5 -67.5c0 -28.667 -9.33301 -52.167 -28 -70.5s-42.667 -27.5 -72 -27.5zM407 549
c-28.667 0 -52.335 9.16699 -71.001 27.5c-18.667 18.333 -28 41.833 -28 70.5c0 26 9.33301 48.5 28 67.5s42.334 28.5 71.001 28.5s52.5 -9.5 71.5 -28.5s28.5 -41.5 28.5 -67.5c0 -28.667 -9.33301 -52.167 -28 -70.5s-42.667 -27.5 -72 -27.5zM288.999 520
c75.334 0 134.167 -18.166 176.5 -54.499s63.5 -87.833 63.5 -154.5v-311h-181v35c-39.333 -33.333 -88.333 -50 -147 -50c-55.333 0 -99.833 15.167 -133.5 45.5s-50.5 70.166 -50.5 119.499c0 51.333 19.167 91.333 57.5 120s92.5 43 162.5 43h111v13
c0 16.667 -5.16699 30.167 -15.5 40.5s-23.833 15.5 -40.5 15.5c-36.667 0 -58.334 -17.333 -65.001 -52l-177 36c12.667 48.667 39.834 86.5 81.501 113.5s94.167 40.5 157.5 40.5zM267.999 119.001c22 0 40.833 6.66699 56.5 20s23.5 31.333 23.5 54v16h-75
c-18 0 -32.5 -4.16699 -43.5 -12.5c-11 -8.33398 -16.5 -19.167 -16.5 -32.5c0 -14 5.16699 -25 15.5 -33s23.5 -12 39.5 -12z" />
    <glyph glyph-name="aring" unicode="&#xe5;" horiz-adv-x="565" 
d="M288 543c-37.333 0 -69 12.5 -95 37.5s-39 55.5 -39 91.5s13 66.5 39 91.5s57.667 37.5 95 37.5s69 -12.5 95 -37.5s39 -55.5 39 -91.5s-13 -66.5 -39 -91.5s-57.667 -37.5 -95 -37.5zM288 711c-11.333 0 -21 -3.83203 -29 -11.499s-12 -16.834 -12 -27.501
s4 -19.834 12 -27.501s17.667 -11.5 29 -11.5s21 3.83301 29 11.5c8 7.67188 12 16.8389 12 27.501c0 10.6719 -4 19.8389 -12 27.5c-8 7.66699 -17.667 11.5 -29 11.5zM289 520.001c75.334 0 134.167 -18.166 176.5 -54.499s63.5 -87.833 63.5 -154.5v-311h-181v35
c-39.333 -33.333 -88.333 -50 -147 -50c-55.333 0 -99.833 15.167 -133.5 45.5s-50.5 70.166 -50.5 119.499c0 51.333 19.167 91.333 57.5 120s92.5 43 162.5 43h111v13c0 16.667 -5.16699 30.167 -15.5 40.5s-23.833 15.5 -40.5 15.5
c-36.667 0 -58.334 -17.333 -65.001 -52l-177 36c12.667 48.667 39.834 86.5 81.501 113.5s94.167 40.5 157.5 40.5zM268 119.002c22 0 40.833 6.66699 56.5 20s23.5 31.333 23.5 54v16h-75c-18 0 -32.5 -4.16699 -43.5 -12.5c-11 -8.33398 -16.5 -19.167 -16.5 -32.5
c0 -14 5.16699 -25 15.5 -33s23.5 -12 39.5 -12z" />
    <glyph glyph-name="ae" unicode="&#xe6;" horiz-adv-x="890" 
d="M870 203l-353.999 -0.000976562c12.667 -49.333 43.667 -74 93 -74c40.667 0 69 16.667 85 50l162 -34c-13.333 -47.333 -42.833 -85.833 -88.5 -115.5s-98.834 -44.5 -159.501 -44.5c-69.334 0 -129.001 20.333 -179.001 61c-50 -40.667 -115.667 -61 -197 -61
c-68.667 0 -121.667 14.333 -159 43s-56 68.334 -56 119.001c0 49.333 18.5 87.166 55.5 113.499s90.5 39.5 160.5 39.5h115v26c0 16.667 -5.66699 30.334 -17 41.001s-25.666 16 -42.999 16c-36 0 -57 -17.667 -63 -53l-173 36c8.66699 45.333 33.5 82.333 74.5 111
s95.167 43 162.5 43s121.333 -15 162 -45c47.333 30 99.333 45 156 45c77.333 0 140.5 -24.833 189.5 -74.5s73.5 -118.5 73.5 -206.5v-36zM515.001 299.999h174.001c-10.667 50 -38.334 75 -83.001 75c-48.667 0 -79 -25 -91 -75zM347.002 200.999h-79
c-41.333 0 -62 -14 -62 -42c0 -13.333 5.33301 -24 16 -32s24.667 -12 42 -12c22 0 41.333 6.33301 58 19s25 29 25 49v18z" />
    <glyph glyph-name="ccedilla" unicode="&#xe7;" horiz-adv-x="583" 
d="M392 223l171.001 -33.001c-8.66699 -51.333 -31.334 -94.666 -68.001 -129.999s-81.334 -58.333 -134 -69l-41 -151h-193l99 154c-60.667 14.667 -110.167 45.167 -148.5 91.5s-57.5 101.833 -57.5 166.5c0 78.667 27.167 143 81.5 193s120.5 75 198.5 75
c66 0 123.333 -18.5 172 -55.5s78.667 -85.833 90 -146.5l-172 -36c-5.33301 26 -16 45.833 -32 59.5s-35.333 20.5 -58 20.5c-29.333 0 -53.333 -10.5 -72 -31.5s-28 -47.167 -28 -78.5s9.33301 -57.333 28 -78s42.667 -31 72 -31c48 0 78.667 26.667 92 80z" />
    <glyph glyph-name="egrave" unicode="&#xe8;" horiz-adv-x="578" 
d="M215 567l-127 160h225l75 -160h-173zM558 242l0.000976562 -34.999h-355c6 -24.667 17 -43.834 33 -57.501s35.667 -20.5 59 -20.5c42.667 0 72.334 16.333 89.001 49l167 -33c-20.667 -52.667 -53.334 -92.5 -98.001 -119.5s-97.334 -40.5 -158.001 -40.5
c-77.333 0 -142.5 25 -195.5 75s-79.5 114 -79.5 192c0 78.667 26.5 143 79.5 193s118.167 75 195.5 75s140.333 -24.667 189 -74s73.334 -117.333 74 -204zM295.001 374.001c-21.333 0 -40 -5.66699 -56 -17s-27.333 -27 -34 -47h172c-12.667 42.667 -40 64 -82 64z" />
    <glyph glyph-name="eacute" unicode="&#xe9;" horiz-adv-x="578" 
d="M382 567h-173l75 160h225zM558 242l0.000976562 -34.999h-355c6 -24.667 17 -43.834 33 -57.501s35.667 -20.5 59 -20.5c42.667 0 72.334 16.333 89.001 49l167 -33c-20.667 -52.667 -53.334 -92.5 -98.001 -119.5s-97.334 -40.5 -158.001 -40.5
c-77.333 0 -142.5 25 -195.5 75s-79.5 114 -79.5 192c0 78.667 26.5 143 79.5 193s118.167 75 195.5 75s140.333 -24.667 189 -74s73.334 -117.333 74 -204zM295.001 374.001c-21.333 0 -40 -5.66699 -56 -17s-27.333 -27 -34 -47h172c-12.667 42.667 -40 64 -82 64z" />
    <glyph glyph-name="ecircumflex" unicode="&#xea;" horiz-adv-x="578" 
d="M260 564h-177l117 162h191l118 -162h-178l-35 50zM558 242l0.000976562 -34.999h-355c6 -24.667 17 -43.834 33 -57.501s35.667 -20.5 59 -20.5c42.667 0 72.334 16.333 89.001 49l167 -33c-20.667 -52.667 -53.334 -92.5 -98.001 -119.5s-97.334 -40.5 -158.001 -40.5
c-77.333 0 -142.5 25 -195.5 75s-79.5 114 -79.5 192c0 78.667 26.5 143 79.5 193s118.167 75 195.5 75s140.333 -24.667 189 -74s73.334 -117.333 74 -204zM295.001 374.001c-21.333 0 -40 -5.66699 -56 -17s-27.333 -27 -34 -47h172c-12.667 42.667 -40 64 -82 64z" />
    <glyph glyph-name="edieresis" unicode="&#xeb;" horiz-adv-x="578" 
d="M177 549c-28.667 0 -52.334 9.16699 -71.001 27.5s-28 41.833 -28 70.5c0 26 9.33301 48.5 28 67.5s42.334 28.5 71.001 28.5s52.5 -9.5 71.5 -28.5s28.5 -41.5 28.5 -67.5c0 -28.667 -9.33301 -52.167 -28 -70.5s-42.667 -27.5 -72 -27.5zM415 549
c-28.667 0 -52.335 9.16699 -71.001 27.5c-18.667 18.333 -28 41.833 -28 70.5c0 26 9.33301 48.5 28 67.5s42.334 28.5 71.001 28.5s52.5 -9.5 71.5 -28.5s28.5 -41.5 28.5 -67.5c0 -28.667 -9.33301 -52.167 -28 -70.5s-42.667 -27.5 -72 -27.5zM557.999 242
l0.000976562 -34.999h-355c6 -24.667 17 -43.834 33 -57.501s35.667 -20.5 59 -20.5c42.667 0 72.334 16.333 89.001 49l167 -33c-20.667 -52.667 -53.334 -92.5 -98.001 -119.5s-97.334 -40.5 -158.001 -40.5c-77.333 0 -142.5 25 -195.5 75s-79.5 114 -79.5 192
c0 78.667 26.5 143 79.5 193s118.167 75 195.5 75s140.333 -24.667 189 -74s73.334 -117.333 74 -204zM295 374.001c-21.333 0 -40 -5.66699 -56 -17s-27.333 -27 -34 -47h172c-12.667 42.667 -40 64 -82 64z" />
    <glyph glyph-name="igrave" unicode="&#xec;" horiz-adv-x="298" 
d="M166 727l75 -160h-173l-127 160h225zM243 0h-188v505h188v-505z" />
    <glyph glyph-name="iacute" unicode="&#xed;" horiz-adv-x="298" 
d="M235 567h-173l75 160h225zM243 0h-188v505h188v-505z" />
    <glyph glyph-name="icircumflex" unicode="&#xee;" horiz-adv-x="298" 
d="M114 564h-177l117 162h191l118 -162h-178l-35 50zM55 505h188v-505h-188v505z" />
    <glyph glyph-name="idieresis" unicode="&#xef;" horiz-adv-x="298" 
d="M30 743c28.667 0 52.5 -9.5 71.5 -28.5s28.5 -41.5 28.5 -67.5c0 -28.667 -9.33301 -52.167 -28 -70.5s-42.667 -27.5 -72 -27.5c-28.667 0 -52.334 9.16699 -71.001 27.5s-28 41.833 -28 70.5c0 26 9.33301 48.5 28 67.5s42.334 28.5 71.001 28.5zM268 743
c28.667 0 52.5 -9.5 71.5 -28.5s28.5 -41.5 28.5 -67.5c0 -28.667 -9.33301 -52.167 -28 -70.5s-42.667 -27.5 -72 -27.5c-28.667 0 -52.334 9.16699 -71.001 27.5s-28 41.833 -28 70.5c0 26 9.33301 48.5 28 67.5s42.334 28.5 71.001 28.5zM243 0h-188v505h188v-505z" />
    <glyph glyph-name="eth" unicode="&#xf0;" horiz-adv-x="606" 
d="M488 647l-62.999 -24c107.333 -121.333 161 -244 161 -368c0 -46 -8.33301 -87 -25 -123s-38.834 -64.333 -66.501 -85s-57.5 -36.167 -89.5 -46.5s-65 -15.5 -99 -15.5c-79.333 0 -146.833 24.833 -202.5 74.5s-83.5 113.834 -83.5 192.501s24 143.167 72 193.5
s108.333 75.166 181 74.499c18.667 0 36 -2.66699 52 -8c-20.667 20.667 -39.334 37.667 -56 51l-131 -51l-36 84l71 28c-28 14.667 -72.333 34.667 -133 60v36h278c9.33301 -6 21 -15 35 -27l99 39zM304.001 141c30 0 54.5 11.333 73.5 34s28.5 49 28.5 79
c0 30.667 -9.83301 56.5 -29.5 77.5s-43.834 31.5 -72.5 31.5c-30 0 -54.833 -10.667 -74.5 -32s-29.5 -47.666 -29.5 -78.999c0 -30.667 10 -56.834 30 -78.501s44.667 -32.5 74 -32.5z" />
    <glyph glyph-name="ntilde" unicode="&#xf1;" horiz-adv-x="620" 
d="M267 603c-9.33301 0 -16.333 -2.16602 -21 -6.49902c-4.66699 -4.33789 -9 -12.1709 -13 -23.5h-105c0 54.668 11.667 97.335 35 128c23.333 30.667 52.666 46 87.999 46c22.667 0 45.5 -6.16699 68.5 -18.5s40.167 -18.5 51.5 -18.5c9.33301 0 16.333 2.5 21 7.5
s9 13.5 13 25.5h105c0 -54.667 -11.667 -97.334 -35 -128.001s-52.666 -46 -87.999 -46c-22.667 0 -45.5 5.66699 -68.5 17s-40.167 17 -51.5 17zM386 520.001c57.333 0 103.332 -18.668 137.999 -56.001s52 -87.666 52 -150.999v-313h-188v273c0 24 -6.5 43.333 -19.5 58
s-30.167 22 -51.5 22c-25.333 0 -45.5 -9.33301 -60.5 -28s-22.5 -45.334 -22.5 -80v-245h-187v505h187v-51c40.667 44 91.334 66 152.001 66z" />
    <glyph glyph-name="ograve" unicode="&#xf2;" horiz-adv-x="606" 
d="M222 567l-127 160h225l75 -160h-173zM303 519c78.667 0 145.5 -25 200.5 -75s82.5 -114 82.5 -192s-27.5 -141.833 -82.5 -191.5s-121.833 -74.5 -200.5 -74.5s-145.5 24.833 -200.5 74.5s-82.5 113.5 -82.5 191.5s27.5 142 82.5 192s121.833 75 200.5 75zM303 141
c28 0 52.167 10.666 72.5 31.999s30.5 47.666 30.5 78.999c0 31.334 -10 57.667 -30 79s-44.333 32 -73 32s-53 -10.667 -73 -32s-30 -47.666 -30 -78.999s10.167 -57.666 30.5 -78.999s44.5 -32 72.5 -32z" />
    <glyph glyph-name="oacute" unicode="&#xf3;" horiz-adv-x="606" 
d="M389 567h-173l75 160h225zM303 519c78.667 0 145.5 -25 200.5 -75s82.5 -114 82.5 -192s-27.5 -141.833 -82.5 -191.5s-121.833 -74.5 -200.5 -74.5s-145.5 24.833 -200.5 74.5s-82.5 113.5 -82.5 191.5s27.5 142 82.5 192s121.833 75 200.5 75zM303 141
c28 0 52.167 10.666 72.5 31.999s30.5 47.666 30.5 78.999c0 31.334 -10 57.667 -30 79s-44.333 32 -73 32s-53 -10.667 -73 -32s-30 -47.666 -30 -78.999s10.167 -57.666 30.5 -78.999s44.5 -32 72.5 -32z" />
    <glyph glyph-name="ocircumflex" unicode="&#xf4;" horiz-adv-x="606" 
d="M268 564h-177l117 162h191l118 -162h-178l-35 50zM303 519c78.667 0 145.5 -25 200.5 -75s82.5 -114 82.5 -192s-27.5 -141.833 -82.5 -191.5s-121.833 -74.5 -200.5 -74.5s-145.5 24.833 -200.5 74.5s-82.5 113.5 -82.5 191.5s27.5 142 82.5 192s121.833 75 200.5 75z
M303 141c28 0 52.167 10.666 72.5 31.999s30.5 47.666 30.5 78.999c0 31.334 -10 57.667 -30 79s-44.333 32 -73 32s-53 -10.667 -73 -32s-30 -47.666 -30 -78.999s10.167 -57.666 30.5 -78.999s44.5 -32 72.5 -32z" />
    <glyph glyph-name="otilde" unicode="&#xf5;" horiz-adv-x="606" 
d="M259 603c-9.33301 0 -16.333 -2.16602 -21 -6.49902c-4.66699 -4.33789 -9 -12.1709 -13 -23.5h-105c0 54.668 11.667 97.335 35 128c23.333 30.667 52.666 46 87.999 46c22.667 0 45.5 -6.16699 68.5 -18.5s40.167 -18.5 51.5 -18.5c9.33301 0 16.333 2.5 21 7.5
s9 13.5 13 25.5h105c0 -54.667 -11.667 -97.334 -35 -128.001s-52.666 -46 -87.999 -46c-22.667 0 -45.5 5.66699 -68.5 17s-40.167 17 -51.5 17zM303 519.001c78.667 0 145.5 -25 200.5 -75s82.5 -114 82.5 -192s-27.5 -141.833 -82.5 -191.5s-121.833 -74.5 -200.5 -74.5
s-145.5 24.833 -200.5 74.5s-82.5 113.5 -82.5 191.5s27.5 142 82.5 192s121.833 75 200.5 75zM303 141.001c28 0 52.167 10.666 72.5 31.999s30.5 47.666 30.5 78.999c0 31.334 -10 57.667 -30 79s-44.333 32 -73 32s-53 -10.667 -73 -32s-30 -47.666 -30 -78.999
s10.167 -57.666 30.5 -78.999s44.5 -32 72.5 -32z" />
    <glyph glyph-name="odieresis" unicode="&#xf6;" horiz-adv-x="606" 
d="M184 549c-28.667 0 -52.334 9.16699 -71.001 27.5s-28 41.833 -28 70.5c0 26 9.33301 48.5 28 67.5s42.334 28.5 71.001 28.5s52.5 -9.5 71.5 -28.5s28.5 -41.5 28.5 -67.5c0 -28.667 -9.33301 -52.167 -28 -70.5s-42.667 -27.5 -72 -27.5zM422 549
c-28.667 0 -52.334 9.16699 -71.001 27.5s-28 41.833 -28 70.5c0 26 9.33301 48.5 28 67.5s42.334 28.5 71.001 28.5s52.5 -9.5 71.5 -28.5s28.5 -41.5 28.5 -67.5c0 -28.667 -9.33301 -52.167 -28 -70.5s-42.667 -27.5 -72 -27.5zM303 519c78.667 0 145.5 -25 200.5 -75
s82.5 -114 82.5 -192s-27.5 -141.833 -82.5 -191.5s-121.833 -74.5 -200.5 -74.5s-145.5 24.833 -200.5 74.5s-82.5 113.5 -82.5 191.5s27.5 142 82.5 192s121.833 75 200.5 75zM303 141c28 0 52.167 10.666 72.5 31.999s30.5 47.666 30.5 78.999
c0 31.334 -10 57.667 -30 79s-44.333 32 -73 32s-53 -10.667 -73 -32s-30 -47.666 -30 -78.999s10.167 -57.666 30.5 -78.999s44.5 -32 72.5 -32z" />
    <glyph glyph-name="divide" unicode="&#xf7;" horiz-adv-x="567" 
d="M282 606c26 0 47.667 -9 65 -27s26 -39.333 26 -64c0 -25.333 -8.66699 -46.5 -26 -63.5s-39 -25.5 -65 -25.5s-47.5 8.5 -64.5 25.5s-25.5 38.167 -25.5 63.5c0 24.667 8.5 46 25.5 64s38.5 27 64.5 27zM527 249h-487v145h487v-145zM282 220c26 0 47.667 -9 65 -27
s26 -39.333 26 -64c0 -25.333 -8.66699 -46.5 -26 -63.5s-39 -25.5 -65 -25.5s-47.5 8.5 -64.5 25.5s-25.5 38.167 -25.5 63.5c0 24.667 8.5 46 25.5 64s38.5 27 64.5 27z" />
    <glyph glyph-name="oslash" unicode="&#xf8;" horiz-adv-x="606" 
d="M577 462l-47 -47c37.333 -46 56 -100.333 56 -163c0 -78 -27.5 -141.833 -82.5 -191.5s-121.833 -74.5 -200.5 -74.5c-58.667 0 -111.667 14.333 -159 43l-55 -55l-64 64l51 51c-37.333 46 -56 100.333 -56 163c0 78 27.5 142 82.5 192s121.833 75 200.5 75
c58.667 0 111.667 -14.667 159 -44l51 51zM200 252c0 -10.667 1.66699 -22.001 5 -34.001l137 137c-12.667 5.33301 -25.667 8 -39 8c-28.667 0 -53 -10.667 -73 -32s-30 -47.666 -30 -78.999zM303 140.999c28 0 52.167 10.6689 72.5 32.002s30.5 47.666 30.5 78.999
c0 11.334 -1.66699 22.667 -5 33.999l-137 -137c12.667 -5.33301 25.667 -8 39 -8z" />
    <glyph glyph-name="ugrave" unicode="&#xf9;" horiz-adv-x="620" 
d="M229 567l-127 160h225l75 -160h-173zM573 505l0.000976562 -505h-187v51c-40.667 -44 -91.334 -66 -152.001 -66c-57.333 0 -103.333 18.667 -138 56s-52 87.666 -52 150.999v313h188v-273c0 -24 6.5 -43.333 19.5 -58s30.167 -22 51.5 -22
c25.333 0 45.5 9.33301 60.5 28s22.5 45.334 22.5 80.001v245h187z" />
    <glyph glyph-name="uacute" unicode="&#xfa;" horiz-adv-x="620" 
d="M395 567h-173l75 160h225zM573 505l0.000976562 -505h-187v51c-40.667 -44 -91.334 -66 -152.001 -66c-57.333 0 -103.333 18.667 -138 56s-52 87.666 -52 150.999v313h188v-273c0 -24 6.5 -43.333 19.5 -58s30.167 -22 51.5 -22c25.333 0 45.5 9.33301 60.5 28
s22.5 45.334 22.5 80.001v245h187z" />
    <glyph glyph-name="ucircumflex" unicode="&#xfb;" horiz-adv-x="620" 
d="M274 564h-177l117 162h191l118 -162h-178l-35 50zM573 505l0.000976562 -505h-187v51c-40.667 -44 -91.334 -66 -152.001 -66c-57.333 0 -103.333 18.667 -138 56s-52 87.666 -52 150.999v313h188v-273c0 -24 6.5 -43.333 19.5 -58s30.167 -22 51.5 -22
c25.333 0 45.5 9.33301 60.5 28s22.5 45.334 22.5 80.001v245h187z" />
    <glyph glyph-name="udieresis" unicode="&#xfc;" horiz-adv-x="620" 
d="M191 549c-28.667 0 -52.334 9.16699 -71.001 27.5s-28 41.833 -28 70.5c0 26 9.33301 48.5 28 67.5s42.334 28.5 71.001 28.5s52.5 -9.5 71.5 -28.5s28.5 -41.5 28.5 -67.5c0 -28.667 -9.33301 -52.167 -28 -70.5s-42.667 -27.5 -72 -27.5zM429 549
c-28.667 0 -52.335 9.16699 -71.001 27.5c-18.667 18.333 -28 41.833 -28 70.5c0 26 9.33301 48.5 28 67.5s42.334 28.5 71.001 28.5s52.5 -9.5 71.5 -28.5s28.5 -41.5 28.5 -67.5c0 -28.667 -9.33301 -52.167 -28 -70.5s-42.667 -27.5 -72 -27.5zM572.999 505
l0.000976562 -505h-187v51c-40.667 -44 -91.334 -66 -152.001 -66c-57.333 0 -103.333 18.667 -138 56s-52 87.666 -52 150.999v313h188v-273c0 -24 6.5 -43.333 19.5 -58s30.167 -22 51.5 -22c25.333 0 45.5 9.33301 60.5 28s22.5 45.334 22.5 80.001v245h187z" />
    <glyph glyph-name="yacute" unicode="&#xfd;" horiz-adv-x="624" 
d="M403 567h-173l75 160h225zM621 505l-322 -745h-197l111 258l-210 487h198l107 -267l115 267h198z" />
    <glyph glyph-name="thorn" unicode="&#xfe;" horiz-adv-x="646" 
d="M382 520c70 0 128.167 -24.832 174.5 -74.499s69.5 -114.167 69.5 -193.5c0 -78.667 -23.167 -142.834 -69.5 -192.501s-104.5 -74.5 -174.5 -74.5c-61.333 0 -110.666 19.333 -147.999 58v-283h-187v960h187v-258c37.333 38.667 86.666 58 147.999 58zM337 141.001
c30.667 0 55.333 10.499 74 31.499s28 47.5 28 79.5c0 32.667 -9.33301 59.5 -28 80.5s-43.334 31.5 -74 31.5c-28.667 0 -53 -10.667 -73 -32s-30 -48 -30 -80c0 -31.333 10 -57.666 30 -78.999s44.333 -32 73 -32z" />
    <glyph glyph-name="ydieresis" unicode="&#xff;" horiz-adv-x="624" 
d="M198 549c-28.667 0 -52.334 9.16699 -71.001 27.5s-28 41.833 -28 70.5c0 26 9.33301 48.5 28 67.5s42.334 28.5 71.001 28.5s52.5 -9.5 71.5 -28.5s28.5 -41.5 28.5 -67.5c0 -28.667 -9.33301 -52.167 -28 -70.5s-42.667 -27.5 -72 -27.5zM436 549
c-28.667 0 -52.335 9.16699 -71.001 27.5c-18.667 18.333 -28 41.833 -28 70.5c0 26 9.33301 48.5 28 67.5s42.334 28.5 71.001 28.5s52.5 -9.5 71.5 -28.5s28.5 -41.5 28.5 -67.5c0 -28.667 -9.33301 -52.167 -28 -70.5s-42.667 -27.5 -72 -27.5zM620.999 505l-322 -745
h-197l111 258l-210 487h198l107 -267l115 267h198z" />
    <glyph glyph-name="Amacron" unicode="&#x100;" horiz-adv-x="752" 
d="M549 734h-344v140h344v-140zM752 0h-207l-37 102h-264l-38 -102h-206l270 670h212zM450 263l-73 201l-74 -201h147z" />
    <glyph glyph-name="amacron" unicode="&#x101;" horiz-adv-x="565" 
d="M460 569h-344v140h344v-140zM289 520c75.334 0 134.167 -18.166 176.5 -54.499s63.5 -87.833 63.5 -154.5v-311h-181v35c-39.333 -33.333 -88.333 -50 -147 -50c-55.333 0 -99.833 15.167 -133.5 45.5s-50.5 70.166 -50.5 119.499c0 51.333 19.167 91.333 57.5 120
s92.5 43 162.5 43h111v13c0 16.667 -5.16699 30.167 -15.5 40.5s-23.833 15.5 -40.5 15.5c-36.667 0 -58.334 -17.333 -65.001 -52l-177 36c12.667 48.667 39.834 86.5 81.501 113.5s94.167 40.5 157.5 40.5zM268 119.001c22 0 40.833 6.66699 56.5 20s23.5 31.333 23.5 54
v16h-75c-18 0 -32.5 -4.16699 -43.5 -12.5c-11 -8.33398 -16.5 -19.167 -16.5 -32.5c0 -14 5.16699 -25 15.5 -33s23.5 -12 39.5 -12z" />
    <glyph glyph-name="Abreve" unicode="&#x102;" horiz-adv-x="752" 
d="M377 715c-56 0 -101.333 15.334 -136 46.001c-34.667 30.668 -52 71.335 -52 122h142c0 -12 4.16699 -22.167 12.5 -30.5s19.5 -12.5 33.5 -12.5s25.333 4.16699 34 12.5s13 18.5 13 30.5h141c0 -50.667 -17.333 -91.334 -52 -122.001s-80 -46 -136 -46zM752 0.000976562
h-207l-37 102h-264l-38 -102h-206l270 670h212zM450 263.001l-73 201l-74 -201h147z" />
    <glyph glyph-name="abreve" unicode="&#x103;" horiz-adv-x="565" 
d="M288 550c-56 0 -101.333 15.334 -136 46.001c-34.667 30.668 -52 71.335 -52 122h142c0 -12 4.16699 -22.167 12.5 -30.5s19.5 -12.5 33.5 -12.5s25.333 4.16699 34 12.5s13 18.5 13 30.5h141c0 -50.667 -17.333 -91.334 -52 -122.001s-80 -46 -136 -46zM289 520.001
c75.334 0 134.167 -18.166 176.5 -54.499s63.5 -87.833 63.5 -154.5v-311h-181v35c-39.333 -33.333 -88.333 -50 -147 -50c-55.333 0 -99.833 15.167 -133.5 45.5s-50.5 70.166 -50.5 119.499c0 51.333 19.167 91.333 57.5 120s92.5 43 162.5 43h111v13
c0 16.667 -5.16699 30.167 -15.5 40.5s-23.833 15.5 -40.5 15.5c-36.667 0 -58.334 -17.333 -65.001 -52l-177 36c12.667 48.667 39.834 86.5 81.501 113.5s94.167 40.5 157.5 40.5zM268 119.002c22 0 40.833 6.66699 56.5 20s23.5 31.333 23.5 54v16h-75
c-18 0 -32.5 -4.16699 -43.5 -12.5c-11 -8.33398 -16.5 -19.167 -16.5 -32.5c0 -14 5.16699 -25 15.5 -33s23.5 -12 39.5 -12z" />
    <glyph glyph-name="Aogonek" unicode="&#x104;" horiz-adv-x="752" 
d="M775 -90l7.00098 -103.001c-32 -15.333 -66 -23 -102 -23c-32.667 0 -59.334 8.66699 -80.001 26s-31 41 -31 71c0 42.667 21.333 82.334 64 119.001h-88l-37 102h-264l-38 -102h-206l270 670h212l270 -670c-32 -33.333 -49.667 -54.333 -53 -63
c-2 -4 -3 -8.33301 -3 -13c0 -16 9.33301 -24 28 -24c11.333 0 28.333 3.33301 51 10zM450.001 262.999l-73 201l-74 -201h147z" />
    <glyph glyph-name="aogonek" unicode="&#x105;" horiz-adv-x="565" 
d="M553 -90l7 -103c-32 -15.333 -66 -23 -102 -23c-32.667 0 -59.334 8.66699 -80 26c-20.667 17.333 -31 41 -31 71c0 42.667 21.333 82.334 64 119.001h-63v35c-39.333 -33.333 -88.333 -50 -147 -50c-55.333 0 -99.833 15.167 -133.5 45.5s-50.5 70.166 -50.5 119.499
c0 51.333 19.167 91.333 57.5 120s92.5 43 162.5 43h111v13c0 16.667 -5.16699 30.167 -15.5 40.5s-23.833 15.5 -40.5 15.5c-36.667 0 -58.334 -17.333 -65.001 -52l-177 36c12.667 48.667 39.834 86.5 81.501 113.5s94.167 40.5 157.5 40.5
c75.334 0 134.167 -18.167 176.5 -54.5s63.5 -87.833 63.5 -154.5v-311h1c-32 -33.333 -49.667 -54.333 -53 -63c-2 -4 -3 -8.33301 -3 -13c0 -16 9.33301 -24 28 -24c11.333 0 28.333 3.33301 51 10zM268 119c22 0 40.833 6.66699 56.5 20s23.5 31.333 23.5 54v16h-75
c-18 0 -32.5 -4.16699 -43.5 -12.5c-11 -8.33398 -16.5 -19.167 -16.5 -32.5c0 -14 5.16699 -25 15.5 -33s23.5 -12 39.5 -12z" />
    <glyph glyph-name="Cacute" unicode="&#x106;" horiz-adv-x="765" 
d="M476 732h-173l75 160h225zM391 158c39.334 0 72.1689 11.334 98.502 34.001s44.166 56 53.499 100l192 -44c-14.667 -81.333 -52.834 -145.5 -114.501 -192.5s-138.167 -70.5 -229.5 -70.5c-101.333 0 -186.833 33.833 -256.5 101.5s-104.5 150.5 -104.5 248.5
s34.833 180.833 104.5 248.499c69.667 67.667 155.167 101.5 256.5 101.5c85.333 0 160.166 -23.333 224.499 -70s104.166 -108.667 119.499 -186l-192 -46c-9.33496 42 -27.168 74 -53.499 96c-26.333 22 -59.166 33 -98.499 33c-47.333 0 -87 -17 -119 -51
s-48 -76 -48 -126s16 -92 48 -126s71.667 -51 119 -51z" />
    <glyph glyph-name="cacute" unicode="&#x107;" horiz-adv-x="583" 
d="M386 567h-173l75 160h225zM392 223l171 -33c-10.667 -61.333 -40.5 -110.833 -89.5 -148.5s-106.833 -56.5 -173.5 -56.5c-78 0 -144.167 25 -198.5 75s-81.5 114 -81.5 192c0 78.667 27.167 143 81.5 193s120.5 75 198.5 75c66 0 123.333 -18.5 172 -55.5
s78.667 -85.833 90 -146.5l-172 -36c-5.33301 26 -16 45.833 -32 59.5s-35.333 20.5 -58 20.5c-29.333 0 -53.333 -10.5 -72 -31.5s-28 -47.167 -28 -78.5s9.33301 -57.333 28 -78s42.667 -31 72 -31c48 0 78.667 26.667 92 80z" />
    <glyph glyph-name="Cdotaccent" unicode="&#x10a;" horiz-adv-x="765" 
d="M389 721c-30 0 -54.5 9.33301 -73.5 28s-28.5 42.667 -28.5 72c0 27.333 9.66699 50.833 29 70.5c19.334 19.667 43.667 29.5 73 29.5s53.833 -9.83301 73.5 -29.5s29.5 -43.167 29.5 -70.5c0 -29.333 -9.66699 -53.333 -29 -72s-44 -28 -74 -28zM391 158
c39.334 0 72.1689 11.334 98.502 34.001s44.166 56 53.499 100l192 -44c-14.667 -81.333 -52.834 -145.5 -114.501 -192.5s-138.167 -70.5 -229.5 -70.5c-101.333 0 -186.833 33.833 -256.5 101.5s-104.5 150.5 -104.5 248.5s34.833 180.833 104.5 248.499
c69.667 67.667 155.167 101.5 256.5 101.5c85.333 0 160.166 -23.333 224.499 -70s104.166 -108.667 119.499 -186l-192 -46c-9.33496 42 -27.168 74 -53.499 96c-26.333 22 -59.166 33 -98.499 33c-47.333 0 -87 -17 -119 -51s-48 -76 -48 -126s16 -92 48 -126
s71.667 -51 119 -51z" />
    <glyph glyph-name="cdotaccent" unicode="&#x10b;" horiz-adv-x="583" 
d="M299 556c-30 0 -54.499 9.33301 -73.499 28s-28.5 42.667 -28.5 72c0 27.333 9.66699 50.833 29 70.5s43.666 29.5 72.999 29.5s53.833 -9.83301 73.5 -29.5s29.5 -43.167 29.5 -70.5c0 -29.333 -9.66699 -53.333 -29 -72s-44 -28 -74 -28zM392.001 223l171 -33
c-10.667 -61.333 -40.5 -110.833 -89.5 -148.5s-106.833 -56.5 -173.5 -56.5c-78 0 -144.167 25 -198.5 75s-81.5 114 -81.5 192c0 78.667 27.167 143 81.5 193s120.5 75 198.5 75c66 0 123.333 -18.5 172 -55.5s78.667 -85.833 90 -146.5l-172 -36
c-5.33301 26 -16 45.833 -32 59.5s-35.333 20.5 -58 20.5c-29.333 0 -53.333 -10.5 -72 -31.5s-28 -47.167 -28 -78.5s9.33301 -57.333 28 -78s42.667 -31 72 -31c48 0 78.667 26.667 92 80z" />
    <glyph glyph-name="Ccaron" unicode="&#x10c;" horiz-adv-x="765" 
d="M295 729l-117 162h177l36 -50l35 50h178l-118 -162h-191zM391 158c39.334 0 72.1689 11.334 98.502 34.001s44.166 56 53.499 100l192 -44c-14.667 -81.333 -52.834 -145.5 -114.501 -192.5s-138.167 -70.5 -229.5 -70.5c-101.333 0 -186.833 33.833 -256.5 101.5
s-104.5 150.5 -104.5 248.5s34.833 180.833 104.5 248.499c69.667 67.667 155.167 101.5 256.5 101.5c85.333 0 160.166 -23.333 224.499 -70s104.166 -108.667 119.499 -186l-192 -46c-9.33496 42 -27.168 74 -53.499 96c-26.333 22 -59.166 33 -98.499 33
c-47.333 0 -87 -17 -119 -51s-48 -76 -48 -126s16 -92 48 -126s71.667 -51 119 -51z" />
    <glyph glyph-name="ccaron" unicode="&#x10d;" horiz-adv-x="583" 
d="M205 564l-117 162h177l36 -50l35 50h178l-118 -162h-191zM392 223l171 -33c-10.667 -61.333 -40.5 -110.833 -89.5 -148.5s-106.833 -56.5 -173.5 -56.5c-78 0 -144.167 25 -198.5 75s-81.5 114 -81.5 192c0 78.667 27.167 143 81.5 193s120.5 75 198.5 75
c66 0 123.333 -18.5 172 -55.5s78.667 -85.833 90 -146.5l-172 -36c-5.33301 26 -16 45.833 -32 59.5s-35.333 20.5 -58 20.5c-29.333 0 -53.333 -10.5 -72 -31.5s-28 -47.167 -28 -78.5s9.33301 -57.333 28 -78s42.667 -31 72 -31c48 0 78.667 26.667 92 80z" />
    <glyph glyph-name="Dcaron" unicode="&#x10e;" horiz-adv-x="725" 
d="M257 729l-117 162h177l36 -50l35 50h178l-118 -162h-191zM47 670h283c109.333 0 197.5 -30.833 264.5 -92.5s100.5 -142.5 100.5 -242.5s-33.5 -180.833 -100.5 -242.5s-155.167 -92.5 -264.5 -92.5h-283v670zM239 162h77c55.333 0 100 16 134 48s51 73.667 51 125
s-17 93 -51 125s-78.667 48 -134 48h-77v-346z" />
    <glyph glyph-name="dcaron" unicode="&#x10f;" horiz-adv-x="646" 
d="M412 770l186.999 -0.000976562v-770h-187v43c-37.333 -38.667 -86.666 -58 -147.999 -58c-70 0 -128.167 24.833 -174.5 74.5s-69.5 113.834 -69.5 192.501c0 79.333 23.167 143.833 69.5 193.5s104.5 74.5 174.5 74.5c61.334 0 110.667 -19.333 148 -58v308z
M814.999 769.999l-41 -200h-126v200h167zM308.999 140.999c28.667 0 53 10.668 73 32.001s30 47.666 30 78.999c0 32 -10 58.667 -30 80s-44.333 32 -73 32c-30.667 0 -55.334 -10.5 -74.001 -31.5s-28 -47.833 -28 -80.5c0 -32 9.33301 -58.5 28 -79.5
s43.334 -31.5 74.001 -31.5z" />
    <glyph glyph-name="Dcroat" unicode="&#x110;" horiz-adv-x="732" 
d="M63 670h283c110 0 198.5 -30.833 265.5 -92.5s100.5 -142.5 100.5 -242.5s-33.5 -180.833 -100.5 -242.5s-155.5 -92.5 -265.5 -92.5h-283v252h-46v165h46v253zM256 162h77c55.333 0 99.833 16 133.5 48s50.5 73.667 50.5 125s-16.833 93 -50.5 125s-78.167 48 -133.5 48
h-77v-91h93v-165h-93v-90z" />
    <glyph glyph-name="dcroat" unicode="&#x111;" horiz-adv-x="661" 
d="M643 543l-44.001 -0.000976562v-543h-187v43c-37.333 -38.667 -86.666 -58 -147.999 -58c-70 0 -128.167 24.833 -174.5 74.5s-69.5 113.834 -69.5 192.501c0 79.333 23.167 143.833 69.5 193.5s104.5 74.5 174.5 74.5c61.334 0 110.667 -19.333 148 -58v81h-121v133h121
v94h187v-94h44v-133zM308.999 140.999c28.667 0 53 10.668 73 32.001s30 47.666 30 78.999c0 32 -10 58.667 -30 80s-44.333 32 -73 32c-30.667 0 -55.334 -10.5 -74.001 -31.5s-28 -47.833 -28 -80.5c0 -32 9.33301 -58.5 28 -79.5s43.334 -31.5 74.001 -31.5z" />
    <glyph glyph-name="Emacron" unicode="&#x112;" horiz-adv-x="617" 
d="M488 734h-344v140h344v-140zM580 162v-162h-533v670h529v-162h-337v-99h310v-147h-310v-100h341z" />
    <glyph glyph-name="emacron" unicode="&#x113;" horiz-adv-x="578" 
d="M468 569h-344v140h344v-140zM558 242l0.000976562 -34.999h-355c6 -24.667 17 -43.834 33 -57.501s35.667 -20.5 59 -20.5c42.667 0 72.334 16.333 89.001 49l167 -33c-20.667 -52.667 -53.334 -92.5 -98.001 -119.5s-97.334 -40.5 -158.001 -40.5
c-77.333 0 -142.5 25 -195.5 75s-79.5 114 -79.5 192c0 78.667 26.5 143 79.5 193s118.167 75 195.5 75s140.333 -24.667 189 -74s73.334 -117.333 74 -204zM295.001 374.001c-21.333 0 -40 -5.66699 -56 -17s-27.333 -27 -34 -47h172c-12.667 42.667 -40 64 -82 64z" />
    <glyph glyph-name="Edotaccent" unicode="&#x116;" horiz-adv-x="617" 
d="M315 721c-30 0 -54.5 9.33301 -73.5 28s-28.5 42.667 -28.5 72c0 27.333 9.66699 50.833 29 70.5c19.334 19.667 43.667 29.5 73 29.5s53.833 -9.83301 73.5 -29.5s29.5 -43.167 29.5 -70.5c0 -29.333 -9.66699 -53.333 -29 -72s-44 -28 -74 -28zM580 162v-162h-533v670
h529v-162h-337v-99h310v-147h-310v-100h341z" />
    <glyph glyph-name="edotaccent" unicode="&#x117;" horiz-adv-x="578" 
d="M295 556c-30 0 -54.499 9.33301 -73.499 28s-28.5 42.667 -28.5 72c0 27.333 9.66699 50.833 29 70.5s43.666 29.5 72.999 29.5s53.833 -9.83301 73.5 -29.5s29.5 -43.167 29.5 -70.5c0 -29.333 -9.66699 -53.333 -29 -72s-44 -28 -74 -28zM558.001 242
l0.000976562 -34.999h-355c6 -24.667 17 -43.834 33 -57.501s35.667 -20.5 59 -20.5c42.667 0 72.334 16.333 89.001 49l167 -33c-20.667 -52.667 -53.334 -92.5 -98.001 -119.5s-97.334 -40.5 -158.001 -40.5c-77.333 0 -142.5 25 -195.5 75s-79.5 114 -79.5 192
c0 78.667 26.5 143 79.5 193s118.167 75 195.5 75s140.333 -24.667 189 -74s73.334 -117.333 74 -204zM295.002 374.001c-21.333 0 -40 -5.66699 -56 -17s-27.333 -27 -34 -47h172c-12.667 42.667 -40 64 -82 64z" />
    <glyph glyph-name="Eogonek" unicode="&#x118;" horiz-adv-x="617" 
d="M580 0l-34 -0.000976562c-32 -33.333 -49.667 -54.333 -53 -63c-2 -4 -3 -8.33301 -3 -13c0 -16 9.33301 -24 28 -24c11.333 0 28.333 3.33301 51 10l7 -103c-32 -15.333 -66 -23 -102 -23c-32.667 0 -59.334 8.66699 -80 26c-20.667 17.333 -31 41 -31 71
c0 42.667 21.333 82.334 64 119.001h-380v670h529v-162h-337v-99h310v-147h-310v-100h341v-162z" />
    <glyph glyph-name="eogonek" unicode="&#x119;" horiz-adv-x="578" 
d="M558 207l-355.001 0.000976562c12 -52 42.333 -78 91 -78c42.667 0 72.667 16.333 90 49l167 -33c-14 -28 -38.667 -59.667 -74 -95c-17.333 -17.333 -29.833 -30.5 -37.5 -39.5s-15.5 -21 -23.5 -36s-12 -29.5 -12 -43.5c0 -20.667 10.333 -31 31 -31
c10.667 0 27.334 3.33301 50.001 10l7 -99c-31.333 -18.667 -65.333 -28 -102 -28c-34.667 0 -62.667 8.66699 -84 26s-32 40.666 -32 69.999c0 35.333 14.667 71 44 107l-23 -1c-77.333 0 -142.5 25 -195.5 75s-79.5 114 -79.5 192c0 78.667 26.5 143 79.5 193
s118.167 75 195.5 75s140.5 -24.833 189.5 -74.5s73.5 -118.5 73.5 -206.5v-32zM202.999 310.001h173.001c-10 42.667 -38 64 -84 64c-19.333 0 -37.333 -5.83301 -54 -17.5s-28.334 -27.167 -35.001 -46.5z" />
    <glyph glyph-name="Ecaron" unicode="&#x11a;" horiz-adv-x="617" 
d="M220 729l-117 162h177l36 -50l35 50h178l-118 -162h-191zM580 162v-162h-533v670h529v-162h-337v-99h310v-147h-310v-100h341z" />
    <glyph glyph-name="ecaron" unicode="&#x11b;" horiz-adv-x="578" 
d="M200 564l-117 162h177l36 -50l35 50h178l-118 -162h-191zM558 242l0.000976562 -34.999h-355c6 -24.667 17 -43.834 33 -57.501s35.667 -20.5 59 -20.5c42.667 0 72.334 16.333 89.001 49l167 -33c-20.667 -52.667 -53.334 -92.5 -98.001 -119.5
s-97.334 -40.5 -158.001 -40.5c-77.333 0 -142.5 25 -195.5 75s-79.5 114 -79.5 192c0 78.667 26.5 143 79.5 193s118.167 75 195.5 75s140.333 -24.667 189 -74s73.334 -117.333 74 -204zM295.001 374.001c-21.333 0 -40 -5.66699 -56 -17s-27.333 -27 -34 -47h172
c-12.667 42.667 -40 64 -82 64z" />
    <glyph glyph-name="Gbreve" unicode="&#x11e;" horiz-adv-x="780" 
d="M396 715c-56 0 -101.333 15.334 -136 46.001c-34.667 30.668 -52 71.335 -52 122h142c0 -12 4.16699 -22.167 12.5 -30.5s19.5 -12.5 33.5 -12.5s25.333 4.16699 34 12.5s13 18.5 13 30.5h141c0 -50.667 -17.333 -91.334 -52 -122.001s-80 -46 -136 -46zM373 400.001
l373.001 0.00195312c2.66699 -36 4 -58 4 -66c0 -102.667 -33.167 -186.5 -99.5 -251.5s-151.5 -97.5 -255.5 -97.5c-102.667 0 -189.167 33.833 -259.5 101.5s-105.5 150.5 -105.5 248.5s35.167 180.833 105.5 248.499c70.333 67.667 156.5 101.5 258.5 101.5
c79.333 0 149 -17.667 209 -53c60 -35.334 101 -84.667 123 -148l-195 -49c-26.667 51.333 -72.334 77 -137 77c-49.333 0 -90 -16.833 -122 -50.5s-48 -75.834 -48 -126.5c0 -50.667 16.333 -92.834 49 -126.501s74 -50.5 124 -50.5c71.333 0 120.666 28 147.999 84h-172
v158z" />
    <glyph glyph-name="gbreve" unicode="&#x11f;" horiz-adv-x="646" 
d="M324 550c-56 0 -101.333 15.334 -136 46.001c-34.667 30.668 -52 71.335 -52 122h142c0 -12 4.16699 -22.167 12.5 -30.5s19.5 -12.5 33.5 -12.5s25.333 4.16699 34 12.5s13 18.5 13 30.5h141c0 -50.667 -17.333 -91.334 -52 -122.001s-80 -46 -136 -46zM599 505.001
l-0.000976562 -514.001c0 -74.667 -29.5 -133.5 -88.5 -176.5s-131.833 -64.5 -218.5 -64.5c-122 0 -208.667 44.333 -260 133l158 72c18 -20 34.167 -33.5 48.5 -40.5s31.5 -10.5 51.5 -10.5c34 0 62.833 8.33301 86.5 25s35.5 42 35.5 76v38
c-37.333 -38.667 -86.666 -58 -147.999 -58c-70 0 -128.167 24.833 -174.5 74.5s-69.5 113.834 -69.5 192.501c0 79.333 23.167 143.833 69.5 193.5s104.5 74.5 174.5 74.5c61.334 0 110.667 -19.333 148 -58v43h187zM308.999 141c28.667 0 53 10.668 73 32.001
s30 47.666 30 78.999c0 32 -10 58.667 -30 80s-44.333 32 -73 32c-30.667 0 -55.334 -10.5 -74.001 -31.5s-28 -47.833 -28 -80.5c0 -32 9.33301 -58.5 28 -79.5s43.334 -31.5 74.001 -31.5z" />
    <glyph glyph-name="Gdotaccent" unicode="&#x120;" horiz-adv-x="780" 
d="M395 721c-30 0 -54.5 9.33301 -73.5 28s-28.5 42.667 -28.5 72c0 27.333 9.66699 50.833 29 70.5c19.334 19.667 43.667 29.5 73 29.5s53.833 -9.83301 73.5 -29.5s29.5 -43.167 29.5 -70.5c0 -29.333 -9.66699 -53.333 -29 -72s-44 -28 -74 -28zM373 400
l373.001 0.00195312c2.66699 -36 4 -58 4 -66c0 -102.667 -33.167 -186.5 -99.5 -251.5s-151.5 -97.5 -255.5 -97.5c-102.667 0 -189.167 33.833 -259.5 101.5s-105.5 150.5 -105.5 248.5s35.167 180.833 105.5 248.499c70.333 67.667 156.5 101.5 258.5 101.5
c79.333 0 149 -17.667 209 -53c60 -35.334 101 -84.667 123 -148l-195 -49c-26.667 51.333 -72.334 77 -137 77c-49.333 0 -90 -16.833 -122 -50.5s-48 -75.834 -48 -126.5c0 -50.667 16.333 -92.834 49 -126.501s74 -50.5 124 -50.5c71.333 0 120.666 28 147.999 84h-172
v158z" />
    <glyph glyph-name="gdotaccent" unicode="&#x121;" horiz-adv-x="646" 
d="M323 556c-30 0 -54.5 9.33301 -73.5 28s-28.5 42.667 -28.5 72c0 27.333 9.66699 50.833 29 70.5c19.334 19.667 43.667 29.5 73 29.5s53.833 -9.83301 73.5 -29.5s29.5 -43.167 29.5 -70.5c0 -29.333 -9.66699 -53.333 -29 -72s-44 -28 -74 -28zM599 505
l-0.000976562 -514.001c0 -74.667 -29.5 -133.5 -88.5 -176.5s-131.833 -64.5 -218.5 -64.5c-122 0 -208.667 44.333 -260 133l158 72c18 -20 34.167 -33.5 48.5 -40.5s31.5 -10.5 51.5 -10.5c34 0 62.833 8.33301 86.5 25s35.5 42 35.5 76v38
c-37.333 -38.667 -86.666 -58 -147.999 -58c-70 0 -128.167 24.833 -174.5 74.5s-69.5 113.834 -69.5 192.501c0 79.333 23.167 143.833 69.5 193.5s104.5 74.5 174.5 74.5c61.334 0 110.667 -19.333 148 -58v43h187zM308.999 140.999c28.667 0 53 10.668 73 32.001
s30 47.666 30 78.999c0 32 -10 58.667 -30 80s-44.333 32 -73 32c-30.667 0 -55.334 -10.5 -74.001 -31.5s-28 -47.833 -28 -80.5c0 -32 9.33301 -58.5 28 -79.5s43.334 -31.5 74.001 -31.5z" />
    <glyph glyph-name="Gcommaaccent" unicode="&#x122;" horiz-adv-x="780" 
d="M373 400l373.001 0.00195312c2.66699 -36 4 -58 4 -66c0 -102.667 -33.167 -186.5 -99.5 -251.5s-151.5 -97.5 -255.5 -97.5c-102.667 0 -189.167 33.833 -259.5 101.5s-105.5 150.5 -105.5 248.5s35.167 180.833 105.5 248.499c70.333 67.667 156.5 101.5 258.5 101.5
c79.333 0 149 -17.667 209 -53c60 -35.334 101 -84.667 123 -148l-195 -49c-26.667 51.333 -72.334 77 -137 77c-49.333 0 -90 -16.833 -122 -50.5s-48 -75.834 -48 -126.5c0 -50.667 16.333 -92.834 49 -126.501s74 -50.5 124 -50.5c71.333 0 120.666 28 147.999 84h-172
v158zM300.001 -44.998h182l-101 -163h-130z" />
    <glyph glyph-name="gcommaaccent" unicode="&#x123;" horiz-adv-x="634" 
d="M414 564h-181l101 163h129zM599 505l-0.000976562 -514.001c0 -74.667 -29.5 -133.5 -88.5 -176.5s-131.833 -64.5 -218.5 -64.5c-122 0 -208.667 44.333 -260 133l158 72c18 -20 34.167 -33.5 48.5 -40.5s31.5 -10.5 51.5 -10.5c34 0 62.833 8.33301 86.5 25
s35.5 42 35.5 76v38c-37.333 -38.667 -86.666 -58 -147.999 -58c-70 0 -128.167 24.833 -174.5 74.5s-69.5 113.834 -69.5 192.501c0 79.333 23.167 143.833 69.5 193.5s104.5 74.5 174.5 74.5c61.334 0 110.667 -19.333 148 -58v43h187zM308.999 140.999
c28.667 0 53 10.668 73 32.001s30 47.666 30 78.999c0 32 -10 58.667 -30 80s-44.333 32 -73 32c-30.667 0 -55.334 -10.5 -74.001 -31.5s-28 -47.833 -28 -80.5c0 -32 9.33301 -58.5 28 -79.5s43.334 -31.5 74.001 -31.5z" />
    <glyph glyph-name="Hbar" unicode="&#x126;" horiz-adv-x="757" 
d="M739 433h-48v-433h-192v206h-242v-206h-193v433h-47v142h47v95h193v-95h242v95h192v-95h48v-142zM499 433h-242v-75h242v75z" />
    <glyph glyph-name="hbar" unicode="&#x127;" horiz-adv-x="637" 
d="M403 520c56.667 0 102.331 -18.668 136.998 -56.001s52 -87.666 52 -150.999v-313h-187v273c0 24 -6.66699 43.333 -20 58s-30.666 22 -51.999 22c-25.333 0 -45.333 -9.33301 -60 -28c-14.668 -18.667 -22.001 -45.334 -22 -80v-245h-188v549h-46v123h46v98h188v-98h117
v-123h-117v-95c40.667 44 91.334 66 152.001 66z" />
    <glyph glyph-name="Imacron" unicode="&#x12a;" horiz-adv-x="459" 
d="M402 734h-344v140h344v-140zM326 505v-340h113v-165h-419v165h113v340h-113v165h419v-165h-113z" />
    <glyph glyph-name="imacron" unicode="&#x12b;" horiz-adv-x="298" 
d="M321 569h-344v140h344v-140zM243 0h-188v505h188v-505z" />
    <glyph glyph-name="Iogonek" unicode="&#x12e;" horiz-adv-x="459" 
d="M326 505l0.000976562 -340.001h113v-165h-113c-32 -33.333 -49.667 -54.333 -53 -63c-2 -4 -3 -8.33301 -3 -13c0 -16 9.33301 -24 28 -24c11.333 0 28.333 3.33301 51 10l7 -103c-32 -15.333 -66 -23 -102 -23c-32.667 0 -59.334 8.66699 -80.001 26s-31 41 -31 71
c0 42.667 21.333 82.334 64 119.001h-187v165h113v340h-113v165h419v-165h-113z" />
    <glyph glyph-name="iogonek" unicode="&#x12f;" horiz-adv-x="298" 
d="M148 556c-30 0 -54.499 9.33301 -73.499 28s-28.5 42.667 -28.5 72c0 27.333 9.66699 50.833 29 70.5s43.666 29.5 72.999 29.5s53.833 -9.83301 73.5 -29.5s29.5 -43.167 29.5 -70.5c0 -29.333 -9.66699 -53.333 -29 -72s-44 -28 -74 -28zM266.001 -90l7.00098 -103.001
c-32 -15.333 -66 -23 -102 -23c-32.667 0 -59.334 8.66699 -80.001 26s-31 41 -31 71c0 42.667 21.333 82.334 64 119.001h-69v505h188v-505c-2 -2.66699 -5.33301 -6 -10 -10c-27.333 -28.667 -42.333 -47.667 -45 -57c-0.666992 -3.33301 -1 -6.33301 -1 -9
c0 -16 9.33301 -24 28 -24c11.333 0 28.333 3.33301 51 10z" />
    <glyph glyph-name="Idotaccent" unicode="&#x130;" horiz-adv-x="459" 
d="M229 721c-30 0 -54.499 9.33301 -73.499 28s-28.5 42.667 -28.5 72c0 27.333 9.66699 50.833 29 70.5s43.666 29.5 72.999 29.5s53.833 -9.83301 73.5 -29.5s29.5 -43.167 29.5 -70.5c0 -29.333 -9.66699 -53.333 -29 -72s-44 -28 -74 -28zM326.001 505v-340h113v-165
h-419v165h113v340h-113v165h419v-165h-113z" />
    <glyph glyph-name="dotlessi" unicode="&#x131;" horiz-adv-x="298" 
d="M243 0h-188v505h188v-505z" />
    <glyph glyph-name="IJ" unicode="&#x132;" horiz-adv-x="1079" 
d="M439 670v-165h-113v-340h113v-165h-419v165h113v340h-113v165h419zM1031 670l0.000976562 -425c0 -77.333 -25.833 -140 -77.5 -188s-119.5 -72 -203.5 -72c-78 0 -141.333 20.833 -190 62.5s-78 98.167 -88 169.5l190 37c7.33301 -65.333 36.666 -98 87.999 -98
c26 0 47.167 8.16699 63.5 24.5s24.5 37.833 24.5 64.5v260h-209v165h402z" />
    <glyph glyph-name="ij" unicode="&#x133;" horiz-adv-x="608" 
d="M149 755c30 0 55.002 -10.166 75.002 -30.499c20 -20.3359 30 -44.1689 30 -71.5c0 -29.334 -9.83301 -53.667 -29.5 -73s-44.834 -29 -75.501 -29s-55.834 9.66699 -75.501 29s-29.5 43.666 -29.5 72.999c0 28 10 52 30 72s45 30 75 30zM459.002 755.001
c30 0 55.001 -10.166 75.001 -30.499c20 -20.3359 30 -44.1689 30 -71.5c0 -29.334 -9.83301 -53.667 -29.5 -73s-44.834 -29 -75.501 -29s-55.834 9.66699 -75.5 29c-19.667 19.333 -29.5 43.666 -29.5 72.999c0 28 10 52 30 72s45 30 75 30zM243.003 0.00195312h-187v505
h187v-505zM270.003 -225.998l25.999 135.001c16.667 -3.33301 28 -5 34 -5c10.667 0 19.334 3.66699 26.001 11s10 17 10 29v561h188v-578c0 -52.667 -16 -95.334 -48 -128.001s-74 -49 -126 -49c-37.333 0 -74 8 -110 24z" />
    <glyph glyph-name="Kcommaaccent" unicode="&#x136;" horiz-adv-x="718" 
d="M725 0h-232l-155 231l-99 -119v-112h-192v670h192v-289l244 289h218l-238 -288zM275 -45h182l-101 -163h-130z" />
    <glyph glyph-name="kcommaaccent" unicode="&#x137;" horiz-adv-x="626" 
d="M633 0h-229l-103 149l-67 -79v-70h-187v770h187v-438l151 173h220l-177 -207zM233 -45h182l-101 -163h-130z" />
    <glyph glyph-name="Lacute" unicode="&#x139;" horiz-adv-x="581" 
d="M233 732h-173l75 160h225zM555 165v-165h-508v670h192v-505h316z" />
    <glyph glyph-name="lacute" unicode="&#x13a;" horiz-adv-x="348" 
d="M226 832h-173l75 160h225zM229 770l-0.00292969 -586c0 -11.333 3.66699 -20.5 11 -27.5s17 -10.5 29 -10.5c12.667 0 30.334 4 53.001 12l28 -137c-15.333 -8 -26.666 -13.833 -33.999 -17.5s-19.666 -7.66699 -36.999 -12s-36 -6.5 -56 -6.5
c-54.667 0 -98.5 16.833 -131.5 50.5s-49.5 78.167 -49.5 133.5v601h187z" />
    <glyph glyph-name="Lcommaaccent" unicode="&#x13b;" horiz-adv-x="581" 
d="M555 165v-165h-508v670h192v-505h316zM214 -45h182l-101 -163h-130z" />
    <glyph glyph-name="lcommaaccent" unicode="&#x13c;" horiz-adv-x="348" 
d="M229 770l-0.00292969 -586c0 -11.333 3.66699 -20.5 11 -27.5s17 -10.5 29 -10.5c12.667 0 30.334 4 53.001 12l28 -137c-15.333 -8 -26.666 -13.833 -33.999 -17.5s-19.666 -7.66699 -36.999 -12s-36 -6.5 -56 -6.5c-54.667 0 -98.5 16.833 -131.5 50.5
s-49.5 78.167 -49.5 133.5v601h187zM55.9971 -208l49 163h182l-101 -163h-130z" />
    <glyph glyph-name="Lcaron" unicode="&#x13d;" horiz-adv-x="581" 
d="M555 165v-165h-508v670h192v-505h316zM444 470h-127v200h168z" />
    <glyph glyph-name="lcaron" unicode="&#x13e;" horiz-adv-x="348" 
d="M229 770l-0.00292969 -586c0 -11.333 3.66699 -20.5 11 -27.5s17 -10.5 29 -10.5c12.667 0 30.334 4 53.001 12l28 -137c-15.333 -8 -26.666 -13.833 -33.999 -17.5s-19.666 -7.66699 -36.999 -12s-36 -6.5 -56 -6.5c-54.667 0 -98.5 16.833 -131.5 50.5
s-49.5 78.167 -49.5 133.5v601h187zM400.997 570h-127v200h168z" />
    <glyph glyph-name="Ldot" unicode="&#x13f;" horiz-adv-x="598" 
d="M555 165v-165h-508v670h192v-505h316zM421 267c-29.333 0 -53.5 9.33203 -72.5 27.999s-28.5 42.667 -28.5 72c0 27.334 9.66699 50.667 29 70s43.333 29 72 29c29.333 0 53.833 -9.66699 73.5 -29s29.5 -42.666 29.5 -69.999c0 -29.333 -9.66699 -53.333 -29 -72
s-44 -28 -74 -28z" />
    <glyph glyph-name="ldot" unicode="&#x140;" horiz-adv-x="472" 
d="M233 770v-586c0 -11.333 3.5 -20.5 10.5 -27.5s16.5 -10.5 28.5 -10.5s30 4 54 12l27 -137c-42.667 -24 -85 -36 -127 -36c-54.667 0 -98.5 16.833 -131.5 50.5s-49.5 78.167 -49.5 133.5v601h188zM368 466c29.333 0 53.833 -9.66797 73.5 -29.001
s29.5 -42.666 29.5 -69.999c0 -29.333 -9.66699 -53.333 -29 -72s-44 -28 -74 -28s-54.5 9.33301 -73.5 28s-28.5 42.667 -28.5 72c0 27.334 9.66699 50.667 29 70c19.334 19.333 43.667 29 73 29z" />
    <glyph glyph-name="Lslash" unicode="&#x141;" horiz-adv-x="608" 
d="M575 165v-165h-508v221l-50 -22v161l50 22v288h192v-202l94 42v-161l-94 -42v-142h316z" />
    <glyph glyph-name="lslash" unicode="&#x142;" horiz-adv-x="370" 
d="M344 158l27 -137c-42.667 -24 -85 -36 -127 -36c-54.667 0 -98.5 16.833 -131.5 50.5s-49.5 78.167 -49.5 133.5v61l-46 -24v174l46 24v366h188v-269l56 29v-174l-56 -29v-143c0 -11.333 3.5 -20.5 10.5 -27.5s16.5 -10.5 28.5 -10.5s30 4 54 12z" />
    <glyph glyph-name="Nacute" unicode="&#x143;" horiz-adv-x="752" 
d="M464 732h-173l75 160h225zM706 670v-670h-159l-308 345v-345h-192v670h158l308 -357v357h193z" />
    <glyph glyph-name="nacute" unicode="&#x144;" horiz-adv-x="620" 
d="M397 567h-173l75 160h225zM386 520c57.333 0 103.332 -18.668 137.999 -56.001s52 -87.666 52 -150.999v-313h-188v273c0 24 -6.5 43.333 -19.5 58s-30.167 22 -51.5 22c-25.333 0 -45.5 -9.33301 -60.5 -28s-22.5 -45.334 -22.5 -80v-245h-187v505h187v-51
c40.667 44 91.334 66 152.001 66z" />
    <glyph glyph-name="Ncommaaccent" unicode="&#x145;" horiz-adv-x="752" 
d="M706 670v-670h-159l-308 345v-345h-192v670h158l308 -357v357h193zM303 -45h182l-101 -163h-130z" />
    <glyph glyph-name="ncommaaccent" unicode="&#x146;" horiz-adv-x="620" 
d="M386 520c57.333 0 103.332 -18.668 137.999 -56.001s52 -87.666 52 -150.999v-313h-188v273c0 24 -6.5 43.333 -19.5 58s-30.167 22 -51.5 22c-25.333 0 -45.5 -9.33301 -60.5 -28s-22.5 -45.334 -22.5 -80v-245h-187v505h187v-51c40.667 44 91.334 66 152.001 66z
M218.999 -45.001h182l-101 -163h-130z" />
    <glyph glyph-name="Ncaron" unicode="&#x147;" horiz-adv-x="752" 
d="M282 729l-117 162h177l36 -50l35 50h178l-118 -162h-191zM706 670v-670h-159l-308 345v-345h-192v670h158l308 -357v357h193z" />
    <glyph glyph-name="ncaron" unicode="&#x148;" horiz-adv-x="620" 
d="M216 564l-117 162h177l36 -50l35 50h178l-118 -162h-191zM386 520c57.333 0 103.332 -18.668 137.999 -56.001s52 -87.666 52 -150.999v-313h-188v273c0 24 -6.5 43.333 -19.5 58s-30.167 22 -51.5 22c-25.333 0 -45.5 -9.33301 -60.5 -28s-22.5 -45.334 -22.5 -80v-245
h-187v505h187v-51c40.667 44 91.334 66 152.001 66z" />
    <glyph glyph-name="Eng" unicode="&#x14a;" horiz-adv-x="732" 
d="M706 670l0.000976562 -762c0 -48.667 -15.833 -87.167 -47.5 -115.5s-73.834 -42.5 -126.501 -42.5c-39.333 0 -83 7 -131 21l21 145c30 -6 50 -9 60 -9c24 0 36 11.333 36 34v91l-279 313v-345h-192v670h158l308 -357v357h193z" />
    <glyph glyph-name="eng" unicode="&#x14b;" horiz-adv-x="620" 
d="M386 520c57.333 0 103.332 -18.668 137.999 -56.001s52 -87.666 52 -150.999v-405c0 -48.667 -15.833 -87.167 -47.5 -115.5s-73.834 -42.5 -126.5 -42.5c-42 0 -85.667 7.33301 -131 22l21 138c30 -6 50 -9 60 -9c24 0 36 11.333 36 34v338c0 24 -6.5 43.333 -19.5 58
s-30.167 22 -51.5 22c-25.333 0 -45.5 -9.33301 -60.5 -28s-22.5 -45.334 -22.5 -80v-245h-187v505h187v-51c40.667 44 91.334 66 152.001 66z" />
    <glyph glyph-name="Omacron" unicode="&#x14c;" horiz-adv-x="782" 
d="M563 734h-344v140h344v-140zM391 685c101.333 0 186.833 -33.832 256.5 -101.499s104.5 -150.5 104.5 -248.5s-34.833 -180.833 -104.5 -248.5s-155.167 -101.5 -256.5 -101.5s-186.833 33.833 -256.5 101.5s-104.5 150.5 -104.5 248.5s34.833 180.833 104.5 248.499
c69.667 67.667 155.167 101.5 256.5 101.5zM391 158.001c48 0 87.833 16.833 119.5 50.5s47.5 75.834 47.5 126.501c0 50 -15.833 92 -47.5 126s-71.5 51 -119.5 51s-87.833 -17 -119.5 -51s-47.5 -76 -47.5 -126c0 -50.667 15.833 -92.834 47.5 -126.501
s71.5 -50.5 119.5 -50.5z" />
    <glyph glyph-name="omacron" unicode="&#x14d;" horiz-adv-x="606" 
d="M475 569h-344v140h344v-140zM303 519c78.667 0 145.5 -25 200.5 -75s82.5 -114 82.5 -192s-27.5 -141.833 -82.5 -191.5s-121.833 -74.5 -200.5 -74.5s-145.5 24.833 -200.5 74.5s-82.5 113.5 -82.5 191.5s27.5 142 82.5 192s121.833 75 200.5 75zM303 141
c28 0 52.167 10.666 72.5 31.999s30.5 47.666 30.5 78.999c0 31.334 -10 57.667 -30 79s-44.333 32 -73 32s-53 -10.667 -73 -32s-30 -47.666 -30 -78.999s10.167 -57.666 30.5 -78.999s44.5 -32 72.5 -32z" />
    <glyph glyph-name="Ohungarumlaut" unicode="&#x150;" horiz-adv-x="782" 
d="M355 732h-154l82 160h197zM416 732l82 160h204l-131 -160h-155zM391 685c101.333 0 186.833 -33.832 256.5 -101.499s104.5 -150.5 104.5 -248.5s-34.833 -180.833 -104.5 -248.5s-155.167 -101.5 -256.5 -101.5s-186.833 33.833 -256.5 101.5s-104.5 150.5 -104.5 248.5
s34.833 180.833 104.5 248.499c69.667 67.667 155.167 101.5 256.5 101.5zM391 158.001c48 0 87.833 16.833 119.5 50.5s47.5 75.834 47.5 126.501c0 50 -15.833 92 -47.5 126s-71.5 51 -119.5 51s-87.833 -17 -119.5 -51s-47.5 -76 -47.5 -126
c0 -50.667 15.833 -92.834 47.5 -126.501s71.5 -50.5 119.5 -50.5z" />
    <glyph glyph-name="ohungarumlaut" unicode="&#x151;" horiz-adv-x="606" 
d="M267 567h-154l82 160h197zM328 567l82 160h204l-131 -160h-155zM303 519c78.667 0 145.5 -25 200.5 -75s82.5 -114 82.5 -192s-27.5 -141.833 -82.5 -191.5s-121.833 -74.5 -200.5 -74.5s-145.5 24.833 -200.5 74.5s-82.5 113.5 -82.5 191.5s27.5 142 82.5 192
s121.833 75 200.5 75zM303 141c28 0 52.167 10.666 72.5 31.999s30.5 47.666 30.5 78.999c0 31.334 -10 57.667 -30 79s-44.333 32 -73 32s-53 -10.667 -73 -32s-30 -47.666 -30 -78.999s10.167 -57.666 30.5 -78.999s44.5 -32 72.5 -32z" />
    <glyph glyph-name="OE" unicode="&#x152;" horiz-adv-x="1029" 
d="M992 162v-162h-573c-116 0 -209.833 31.167 -281.5 93.5s-107.5 142.833 -107.5 241.5s35.833 179.167 107.5 241.5s165.5 93.5 281.5 93.5h569v-162h-337v-99h310v-147h-310v-100h341zM459 162l-0.000976562 346h-40c-62.667 0 -110.834 -15.833 -144.5 -47.5
c-33.667 -31.667 -50.5 -73.5 -50.5 -125.5s16.833 -93.833 50.5 -125.5s81.834 -47.5 144.501 -47.5h40z" />
    <glyph glyph-name="oe" unicode="&#x153;" horiz-adv-x="964" 
d="M944 242l-0.000976562 -35h-355c12.667 -52 43 -78 91 -78c43.333 0 73.333 16.333 90 49l166 -33c-20.667 -52.667 -53.167 -92.5 -97.5 -119.5s-97.166 -40.5 -158.499 -40.5c-73.333 0 -135.333 22.333 -186 67c-53.333 -44 -117 -66 -191 -66
c-78.667 0 -145.5 24.833 -200.5 74.5s-82.5 113.5 -82.5 191.5s27.5 142 82.5 192s121.833 75 200.5 75c74 0 137.667 -22 191 -66c50.667 44.667 112.667 67 186 67c77.333 0 140.5 -24.667 189.5 -74s73.833 -117.333 74.5 -204zM679.999 374
c-20.667 0 -39 -5.66699 -55 -17s-27.333 -27 -34 -47h172c-6 20.667 -16.5 36.5 -31.5 47.5s-32.167 16.5 -51.5 16.5zM302.999 141c28 0 52.167 10.666 72.5 31.999s30.5 47.666 30.5 78.999c0 31.334 -10 57.667 -30 79s-44.333 32 -73 32s-53 -10.667 -73 -32
s-30 -47.666 -30 -78.999s10.167 -57.666 30.5 -78.999s44.5 -32 72.5 -32z" />
    <glyph glyph-name="Racute" unicode="&#x154;" horiz-adv-x="683" 
d="M413 732h-173l75 160h225zM680 0l-231 -0.00195312l-184 214h-26v-214h-192v670h357c72 0 130.167 -20.667 174.5 -62c44.333 -41.334 66.5 -95.667 66.5 -163c0 -53.333 -14.333 -99.166 -43 -137.499s-68 -65.166 -118 -80.499zM239 365.998h129
c26.667 0 48 6.83301 64 20.5s24 31.5 24 53.5c0 21.333 -8 38.5 -24 51.5s-37.333 19.5 -64 19.5h-129v-145z" />
    <glyph glyph-name="racute" unicode="&#x155;" horiz-adv-x="444" 
d="M325 567h-173l75 160h225zM234 505v-100c37.333 70.667 93.333 106 168 106c15.333 0 27.333 -1 36 -3l-7 -193h-30c-54 0 -95.333 -12.5 -124 -37.5s-43 -66.5 -43 -124.5v-153h-187v505h187z" />
    <glyph glyph-name="Rcommaaccent" unicode="&#x156;" horiz-adv-x="683" 
d="M680 0l-231 -0.00195312l-184 214h-26v-214h-192v670h357c72 0 130.167 -20.667 174.5 -62c44.333 -41.334 66.5 -95.667 66.5 -163c0 -53.333 -14.333 -99.166 -43 -137.499s-68 -65.166 -118 -80.499zM239 365.998h129c26.667 0 48 6.83301 64 20.5s24 31.5 24 53.5
c0 21.333 -8 38.5 -24 51.5s-37.333 19.5 -64 19.5h-129v-145zM255 -45.002h182l-101 -163h-130z" />
    <glyph glyph-name="rcommaaccent" unicode="&#x157;" horiz-adv-x="444" 
d="M402 511c15.333 0 27.333 -1 36 -3l-7 -193h-30c-54 0 -95.333 -12.5 -124 -37.5s-43 -66.5 -43 -124.5v-153h-187v505h187v-100c37.333 70.667 93.333 106 168 106zM52 -45h182l-101 -163h-130z" />
    <glyph glyph-name="Rcaron" unicode="&#x158;" horiz-adv-x="683" 
d="M231 729l-117 162h177l36 -50l35 50h178l-118 -162h-191zM680 0l-231 -0.00195312l-184 214h-26v-214h-192v670h357c72 0 130.167 -20.667 174.5 -62c44.333 -41.334 66.5 -95.667 66.5 -163c0 -53.333 -14.333 -99.166 -43 -137.499s-68 -65.166 -118 -80.499z
M239 365.998h129c26.667 0 48 6.83301 64 20.5s24 31.5 24 53.5c0 21.333 -8 38.5 -24 51.5s-37.333 19.5 -64 19.5h-129v-145z" />
    <glyph glyph-name="rcaron" unicode="&#x159;" horiz-adv-x="444" 
d="M144 564l-117 162h177l36 -50l35 50h178l-118 -162h-191zM234 505v-100c37.333 70.667 93.333 106 168 106c15.333 0 27.333 -1 36 -3l-7 -193h-30c-54 0 -95.333 -12.5 -124 -37.5s-43 -66.5 -43 -124.5v-153h-187v505h187z" />
    <glyph glyph-name="Sacute" unicode="&#x15a;" horiz-adv-x="651" 
d="M415 732h-173l75 160h225zM326 685c79.333 0 144.333 -16.9971 195 -50.9971s82 -82 94 -144l-188 -38c-6 29.334 -18.667 50.667 -38 63.999c-19.333 13.333 -40.333 20 -63 20c-21.333 0 -38.5 -4.83301 -51.5 -14.5c-13 -9.66797 -19.5 -22.835 -19.5 -39.501
c0 -22.667 13 -37 39 -43l136 -32c127.333 -32 191 -98.333 191 -199c0 -50 -14.5 -92.333 -43.5 -127s-64.167 -59.334 -105.5 -74.001s-86.666 -22 -135.999 -22c-82.667 0 -152 18.667 -208 56s-88.667 87.666 -98 150.999l196 37c15.333 -59.333 53.333 -89 114 -89
c23.333 0 42.333 4.66699 57 14s22 22.666 22 39.999c0 22.667 -15.333 37.667 -46 45l-139 33c-122.667 28.667 -184 93.334 -184 194.001c0 68.668 25.667 122.335 77 161.001c51.333 38.667 117.666 58 198.999 58z" />
    <glyph glyph-name="sacute" unicode="&#x15b;" horiz-adv-x="526" 
d="M360 567h-173l75 160h225zM19 131l179.001 35c8.66699 -32.667 33.667 -49 75 -49c16.667 0 29.667 2.83301 39 8.5s14 12.834 14 21.5c0 15.333 -15.333 25.333 -46 30l-101 17c-100 18 -150 68 -150 150c0 54 21.333 96.833 64 128.5s96.667 47.5 162 47.5
c66 0 119.667 -12.333 161 -37s68 -59.334 80 -104l-168 -33c-2 12.667 -9.5 24.167 -22.5 34.5s-29.5 15.5 -49.5 15.5c-31.333 0 -47 -10 -47 -30c0 -13.333 11 -22.333 33 -27l115 -23c50 -9.33301 87.333 -27.833 112 -55.5s37 -62.5 37 -104.5
c0 -54 -22.167 -96 -66.5 -126s-101.166 -45 -170.499 -45c-66.667 0 -122.334 12.167 -167.001 36.5s-72.334 60.833 -83.001 109.5z" />
    <glyph glyph-name="Scedilla" unicode="&#x15e;" horiz-adv-x="651" 
d="M621 208c0 -62.667 -21.167 -112.498 -63.5 -149.498c-42.334 -37 -95.834 -60.167 -160.5 -69.5l-40 -149h-193l97 151c-63.333 10 -115.666 32.667 -156.999 68s-66 79.666 -74 132.999l196 37c15.333 -59.333 53.333 -89 114 -89c23.333 0 42.333 4.66699 57 14
s22 22.666 22 39.999c0 22.667 -15.333 37.667 -46 45l-139 33c-122.667 28.667 -184 93.334 -184 194.001c0 68.668 25.667 122.335 77 161.001c51.333 38.667 117.666 58 198.999 58c79.333 0 144.333 -17 195 -51s82 -82 94 -144l-188 -38
c-6 29.334 -18.667 50.667 -38 63.999c-19.333 13.333 -40.333 20 -63 20c-21.333 0 -38.5 -4.83301 -51.5 -14.5c-13 -9.66797 -19.5 -22.835 -19.5 -39.501c0 -22.667 13 -37 39 -43l136 -32c127.333 -32 191 -98.333 191 -199z" />
    <glyph glyph-name="scedilla" unicode="&#x15f;" horiz-adv-x="526" 
d="M506 156c0 -44 -15 -80.168 -45 -108.501s-70.333 -47.166 -121 -56.499l-41 -151h-193l96 150c-104.667 14.667 -165.667 61.667 -183 141l179 35c8.66699 -32.667 33.667 -49 75 -49c16.667 0 29.667 2.83301 39 8.5s14 12.834 14 21.5c0 15.333 -15.333 25.333 -46 30
l-101 17c-100 18 -150 68 -150 150c0 54 21.333 96.833 64 128.5s96.667 47.5 162 47.5c66 0 119.667 -12.333 161 -37s68 -59.334 80 -104l-168 -33c-2 12.667 -9.5 24.167 -22.5 34.5s-29.5 15.5 -49.5 15.5c-31.333 0 -47 -10 -47 -30c0 -13.333 11 -22.333 33 -27
l115 -23c50 -9.33301 87.333 -27.833 112 -55.5s37 -62.5 37 -104.5z" />
    <glyph glyph-name="Scaron" unicode="&#x160;" horiz-adv-x="651" 
d="M234 729l-117 162h177l36 -50l35 50h178l-118 -162h-191zM294 439l136 -31.9971c127.333 -32 191 -98.333 191 -199c0 -50 -14.5 -92.333 -43.5 -127s-64.167 -59.334 -105.5 -74.001s-86.666 -22 -135.999 -22c-82.667 0 -152 18.667 -208 56
s-88.667 87.666 -98 150.999l196 37c15.333 -59.333 53.333 -89 114 -89c23.333 0 42.333 4.66699 57 14s22 22.666 22 39.999c0 22.667 -15.333 37.667 -46 45l-139 33c-122.667 28.667 -184 93.334 -184 194.001c0 68.668 25.667 122.335 77 161.001
c51.333 38.667 117.666 58 198.999 58c79.333 0 144.333 -17 195 -51s82 -82 94 -144l-188 -38c-6 29.334 -18.667 50.667 -38 63.999c-19.333 13.333 -40.333 20 -63 20c-21.333 0 -38.5 -4.83301 -51.5 -14.5c-13 -9.66797 -19.5 -22.835 -19.5 -39.501
c0 -22.667 13 -37 39 -43z" />
    <glyph glyph-name="scaron" unicode="&#x161;" horiz-adv-x="526" 
d="M179 564l-117 162h177l36 -50l35 50h178l-118 -162h-191zM242 339l115.001 -23c50 -9.33301 87.333 -27.833 112 -55.5s37 -62.5 37 -104.5c0 -54 -22.167 -96 -66.5 -126s-101.166 -45 -170.499 -45c-66.667 0 -122.334 12.167 -167.001 36.5
s-72.334 60.833 -83.001 109.5l179 35c8.66699 -32.667 33.667 -49 75 -49c16.667 0 29.667 2.83301 39 8.5s14 12.834 14 21.5c0 15.333 -15.333 25.333 -46 30l-101 17c-100 18 -150 68 -150 150c0 54 21.333 96.833 64 128.5s96.667 47.5 162 47.5
c66 0 119.667 -12.333 161 -37s68 -59.334 80 -104l-168 -33c-2 12.667 -9.5 24.167 -22.5 34.5s-29.5 15.5 -49.5 15.5c-31.333 0 -47 -10 -47 -30c0 -13.333 11 -22.333 33 -27z" />
    <glyph glyph-name="tcedilla" unicode="&#x163;" horiz-adv-x="431" 
d="M391 163l37 -141.001c-31.333 -17.333 -65.333 -28.666 -102 -33.999l-39 -147h-193l102 158c-77.333 27.333 -116 90 -116 188v172h-77v146h77v165h187v-165h134v-146h-134v-151c0 -40.667 20 -61 60 -61c22.667 0 44 5.33301 64 16z" />
    <glyph glyph-name="Tcaron" unicode="&#x164;" horiz-adv-x="653" 
d="M231 729l-117 162h177l36 -50l35 50h178l-118 -162h-191zM633 505h-210v-505h-193v505h-210v165h613v-165z" />
    <glyph glyph-name="tcaron" unicode="&#x165;" horiz-adv-x="431" 
d="M472 752l-41 -200h-127v200h168zM327 147c22.667 0 43.999 5.33301 63.999 16l37 -141c-46 -24.667 -94 -37 -144 -37c-65.333 0 -115.666 17.667 -150.999 53s-53 85 -53 149v172h-77v146h77v165h187v-165h134v-146h-134v-151c0 -40.667 20 -61 60 -61z" />
    <glyph glyph-name="Tbar" unicode="&#x166;" horiz-adv-x="653" 
d="M423 505v-115h106v-148h-106v-242h-193v242h-105v148h105v115h-210v165h613v-165h-210z" />
    <glyph glyph-name="tbar" unicode="&#x167;" horiz-adv-x="431" 
d="M399 171l22 -151c-46.667 -23.333 -93.334 -35 -140.001 -35c-65.333 0 -115.666 17.667 -150.999 53s-53 85 -53 149v34h-49v119h49v39h-73v126h73v165h188v-165h133v-126h-133v-39h83v-119h-83v-13c0 -40.667 20 -61 60 -61c21.333 0 46 8 74 24z" />
    <glyph glyph-name="Umacron" unicode="&#x16a;" horiz-adv-x="715" 
d="M529 734h-344v140h344v-140zM667 670v-367c0 -96.667 -27.833 -173.834 -83.5 -231.501s-129.5 -86.5 -221.5 -86.5c-94.667 0 -170.667 28.667 -228 86s-86 134.666 -86 231.999v367h193v-367c0 -45.333 11 -80.666 33 -105.999s51.333 -38 88 -38
c34 0 61.167 12.833 81.5 38.5s30.5 60.834 30.5 105.501v367h193z" />
    <glyph glyph-name="umacron" unicode="&#x16b;" horiz-adv-x="620" 
d="M482 569h-344v140h344v-140zM573 505l0.000976562 -505h-187v51c-40.667 -44 -91.334 -66 -152.001 -66c-57.333 0 -103.333 18.667 -138 56s-52 87.666 -52 150.999v313h188v-273c0 -24 6.5 -43.333 19.5 -58s30.167 -22 51.5 -22c25.333 0 45.5 9.33301 60.5 28
s22.5 45.334 22.5 80.001v245h187z" />
    <glyph glyph-name="Uring" unicode="&#x16e;" horiz-adv-x="715" 
d="M357 708c-37.333 0 -69 12.5 -95 37.5s-39 55.5 -39 91.5s13 66.5 39 91.5s57.667 37.5 95 37.5s69 -12.5 95 -37.5s39 -55.5 39 -91.5s-13 -66.5 -39 -91.5s-57.667 -37.5 -95 -37.5zM357 876c-11.333 0 -21 -3.83105 -29 -11.498s-12 -16.834 -12 -27.501
s4 -19.834 12 -27.501s17.667 -11.5 29 -11.5s21 3.83301 29 11.5c8 7.67285 12 16.8398 12 27.5c0 10.6729 -4 19.8398 -12 27.5c-8 7.66699 -17.667 11.5 -29 11.5zM667 670.002v-367c0 -96.667 -27.833 -173.834 -83.5 -231.501s-129.5 -86.5 -221.5 -86.5
c-94.667 0 -170.667 28.667 -228 86s-86 134.666 -86 231.999v367h193v-367c0 -45.333 11 -80.666 33 -105.999s51.333 -38 88 -38c34 0 61.167 12.833 81.5 38.5s30.5 60.834 30.5 105.501v367h193z" />
    <glyph glyph-name="uring" unicode="&#x16f;" horiz-adv-x="620" 
d="M310 543c-37.333 0 -69 12.5 -95 37.5s-39 55.5 -39 91.5s13 66.5 39 91.5s57.667 37.5 95 37.5s69 -12.5 95 -37.5s39 -55.5 39 -91.5s-13 -66.5 -39 -91.5s-57.667 -37.5 -95 -37.5zM310 711c-11.333 0 -21 -3.83203 -29 -11.499s-12 -16.834 -12 -27.501
s4 -19.834 12 -27.501s17.667 -11.5 29 -11.5s21 3.83301 29 11.5c8 7.67188 12 16.8389 12 27.501c0 10.6719 -4 19.8389 -12 27.5c-8 7.66699 -17.667 11.5 -29 11.5zM573 505.001l0.000976562 -505h-187v51c-40.667 -44 -91.334 -66 -152.001 -66
c-57.333 0 -103.333 18.667 -138 56s-52 87.666 -52 150.999v313h188v-273c0 -24 6.5 -43.333 19.5 -58s30.167 -22 51.5 -22c25.333 0 45.5 9.33301 60.5 28s22.5 45.334 22.5 80.001v245h187z" />
    <glyph glyph-name="Uhungarumlaut" unicode="&#x170;" horiz-adv-x="715" 
d="M321 732h-154l82 160h197zM382 732l82 160h204l-131 -160h-155zM474 670h193v-367c0 -96.667 -27.833 -173.834 -83.5 -231.501s-129.5 -86.5 -221.5 -86.5c-94.667 0 -170.667 28.667 -228 86s-86 134.666 -86 231.999v367h193v-367c0 -45.333 11 -80.666 33 -105.999
s51.333 -38 88 -38c34 0 61.167 12.833 81.5 38.5s30.5 60.834 30.5 105.501v367z" />
    <glyph glyph-name="uhungarumlaut" unicode="&#x171;" horiz-adv-x="620" 
d="M274 567h-154l82 160h197zM335 567l82 160h204l-131 -160h-155zM386 505h187.001v-505h-187v51c-40.667 -44 -91.334 -66 -152.001 -66c-57.333 0 -103.333 18.667 -138 56s-52 87.666 -52 150.999v313h188v-273c0 -24 6.5 -43.333 19.5 -58s30.167 -22 51.5 -22
c25.333 0 45.5 9.33301 60.5 28s22.5 45.334 22.5 80.001v245z" />
    <glyph glyph-name="Uogonek" unicode="&#x172;" horiz-adv-x="715" 
d="M566 54c-17.333 -16 -30.5 -28.6689 -39.5 -38.002s-17.5 -21.666 -25.5 -36.999s-12 -30.666 -12 -45.999c0 -20.667 10 -31 30 -31c10 0 28 4.33301 54 13l26 -105c-47.333 -22 -91 -33 -131 -33c-34 0 -62 9.5 -84 28.5s-33 43.5 -33 73.5c0 36 15.667 72 47 108
c-16 -1.33301 -28 -2 -36 -2c-94.667 0 -170.667 28 -228 84s-86 131 -86 225v376h193v-376c0 -42 11 -75 33 -99s51.333 -36 88 -36c34 0 61.167 12 81.5 36s30.5 57 30.5 99v376h193v-376c0 -102 -33.667 -182 -101 -240z" />
    <glyph glyph-name="uogonek" unicode="&#x173;" horiz-adv-x="620" 
d="M597 -90l7.00195 -103.001c-32 -15.333 -66 -23 -102 -23c-32.668 0 -59.335 8.66699 -80.001 26c-20.667 17.333 -31 41 -31 71c0 42.667 21.333 82.334 64 119.001h-69v51c-40.667 -44 -91.334 -66 -152.001 -66c-57.333 0 -103.333 18.667 -138 56
s-52 87.666 -52 150.999v313h188v-273c0 -24 6.5 -43.333 19.5 -58s30.167 -22 51.5 -22c25.333 0 45.5 9.33301 60.5 28s22.5 45.334 22.5 80.001v245h187v-505h1c-32 -33.333 -49.667 -54.333 -53 -63c-2 -4 -3 -8.33301 -3 -13c0 -16 9.33301 -24 28 -24
c11.333 0 28.333 3.33301 51 10z" />
    <glyph glyph-name="Wcircumflex" unicode="&#x174;" horiz-adv-x="985" 
d="M457 729h-177l117 162h191l118 -162h-178l-35 50zM981 670l-187 -670h-207l-95 376l-95 -376h-207l-187 670h197l105 -382l96 382h182l96 -382l105 382h197z" />
    <glyph glyph-name="wcircumflex" unicode="&#x175;" horiz-adv-x="803" 
d="M366 564h-177l117 162h191l118 -162h-178l-35 50zM800 505l-158 -505h-159l-81 249l-82 -249h-159l-158 505h184l67 -232l86 232h123l86 -232l67 232h184z" />
    <glyph glyph-name="Ycircumflex" unicode="&#x176;" horiz-adv-x="721" 
d="M325 729h-177l117 162h191l118 -162h-178l-35 50zM718 670l-262 -465v-205h-200v205l-253 465h211l146 -272l145 272h213z" />
    <glyph glyph-name="ycircumflex" unicode="&#x177;" horiz-adv-x="624" 
d="M282 564h-177l117 162h191l118 -162h-178l-35 50zM621 505l-322 -745h-197l111 258l-210 487h198l107 -267l115 267h198z" />
    <glyph glyph-name="Ydieresis" unicode="&#x178;" horiz-adv-x="721" 
d="M241 714c-28.667 0 -52.333 9.16699 -71 27.5s-28 41.833 -28 70.5c0 26 9.33301 48.5 28 67.5s42.334 28.5 71 28.5c28.667 0 52.5 -9.5 71.5 -28.5s28.5 -41.5 28.5 -67.5c0 -28.667 -9.33301 -52.167 -28 -70.5s-42.667 -27.5 -72 -27.5zM479.001 714
c-28.668 0 -52.335 9.16699 -71.001 27.5c-18.667 18.333 -28 41.833 -28 70.5c0 26 9.33301 48.5 28 67.5s42.334 28.5 71.001 28.5s52.5 -9.5 71.5 -28.5s28.5 -41.5 28.5 -67.5c0 -28.667 -9.33301 -52.167 -28 -70.5s-42.667 -27.5 -72 -27.5zM718.001 670l-262 -465
v-205h-200v205l-253 465h211l146 -272l145 272h213z" />
    <glyph glyph-name="Zacute" unicode="&#x179;" horiz-adv-x="644" 
d="M410 732h-173l75 160h225zM612 162v-162h-576v124l318 384h-310v162h557v-149l-289 -359h300z" />
    <glyph glyph-name="zacute" unicode="&#x17a;" horiz-adv-x="553" 
d="M364 567h-173l75 160h225zM520 146v-146h-487v120l233 239h-227v146h474v-123l-232 -236h239z" />
    <glyph glyph-name="Zdotaccent" unicode="&#x17b;" horiz-adv-x="644" 
d="M323 721c-30 0 -54.5 9.33301 -73.5 28s-28.5 42.667 -28.5 72c0 27.333 9.66699 50.833 29 70.5c19.334 19.667 43.667 29.5 73 29.5s53.833 -9.83301 73.5 -29.5s29.5 -43.167 29.5 -70.5c0 -29.333 -9.66699 -53.333 -29 -72s-44 -28 -74 -28zM612 162v-162h-576v124
l318 384h-310v162h557v-149l-289 -359h300z" />
    <glyph glyph-name="zdotaccent" unicode="&#x17c;" horiz-adv-x="553" 
d="M277 556c-30 0 -54.499 9.33301 -73.499 28s-28.5 42.667 -28.5 72c0 27.333 9.66699 50.833 29 70.5s43.666 29.5 72.999 29.5s53.833 -9.83301 73.5 -29.5s29.5 -43.167 29.5 -70.5c0 -29.333 -9.66699 -53.333 -29 -72s-44 -28 -74 -28zM520.001 146v-146h-487v120
l233 239h-227v146h474v-123l-232 -236h239z" />
    <glyph glyph-name="Zcaron" unicode="&#x17d;" horiz-adv-x="644" 
d="M228 729l-117 162h177l36 -50l35 50h178l-118 -162h-191zM612 162v-162h-576v124l318 384h-310v162h557v-149l-289 -359h300z" />
    <glyph glyph-name="zcaron" unicode="&#x17e;" horiz-adv-x="553" 
d="M183 564l-117 162h177l36 -50l35 50h178l-118 -162h-191zM520 146v-146h-487v120l233 239h-227v146h474v-123l-232 -236h239z" />
    <glyph glyph-name="florin" unicode="&#x192;" horiz-adv-x="591" 
d="M459 528c-17.333 0 -32.166 -5.16699 -44.499 -15.5s-19.833 -24.833 -22.5 -43.5l-13 -69h121v-146h-147l-42 -231c-10.667 -57.333 -35.334 -103 -74.001 -137s-86 -51 -142 -51c-40 0 -79.333 12.333 -118 37l52 136c22 -8 39 -12 51 -12s22.167 3.66699 30.5 11
s13.5 17 15.5 29l40 218h-88v146h114l15 82c10.667 61.333 38 110.5 82 147.5s96.667 55.5 158 55.5c48 0 92 -11.333 132 -34l-57 -142c-22.667 12.667 -43.667 19 -63 19z" />
    <glyph glyph-name="AEacute" unicode="&#x1fc;" horiz-adv-x="1051" 
d="M749 732h-173l75 160h225zM1018 162v-162h-534v95h-206l-52 -95h-226l409 670h605v-162h-337v-99h309v-147h-309v-100h341zM484 255v214l-118 -214h118z" />
    <glyph glyph-name="aeacute" unicode="&#x1fd;" horiz-adv-x="890" 
d="M529 567h-173l75 160h225zM870 203l-353.999 -0.000976562c12.667 -49.333 43.667 -74 93 -74c40.667 0 69 16.667 85 50l162 -34c-13.333 -47.333 -42.833 -85.833 -88.5 -115.5s-98.834 -44.5 -159.501 -44.5c-69.334 0 -129.001 20.333 -179.001 61
c-50 -40.667 -115.667 -61 -197 -61c-68.667 0 -121.667 14.333 -159 43s-56 68.334 -56 119.001c0 49.333 18.5 87.166 55.5 113.499s90.5 39.5 160.5 39.5h115v26c0 16.667 -5.66699 30.334 -17 41.001s-25.666 16 -42.999 16c-36 0 -57 -17.667 -63 -53l-173 36
c8.66699 45.333 33.5 82.333 74.5 111s95.167 43 162.5 43s121.333 -15 162 -45c47.333 30 99.333 45 156 45c77.333 0 140.5 -24.833 189.5 -74.5s73.5 -118.5 73.5 -206.5v-36zM515.001 299.999h174.001c-10.667 50 -38.334 75 -83.001 75c-48.667 0 -79 -25 -91 -75z
M347.002 200.999h-79c-41.333 0 -62 -14 -62 -42c0 -13.333 5.33301 -24 16 -32s24.667 -12 42 -12c22 0 41.333 6.33301 58 19s25 29 25 49v18z" />
    <glyph glyph-name="Scommaaccent" unicode="&#x218;" horiz-adv-x="651" 
d="M326 685c79.333 0 144.333 -16.9971 195 -50.9971s82 -82 94 -144l-188 -38c-6 29.334 -18.667 50.667 -38 63.999c-19.333 13.333 -40.333 20 -63 20c-21.333 0 -38.5 -4.83301 -51.5 -14.5c-13 -9.66797 -19.5 -22.835 -19.5 -39.501c0 -22.667 13 -37 39 -43l136 -32
c127.333 -32 191 -98.333 191 -199c0 -50 -14.5 -92.333 -43.5 -127s-64.167 -59.334 -105.5 -74.001s-86.666 -22 -135.999 -22c-82.667 0 -152 18.667 -208 56s-88.667 87.666 -98 150.999l196 37c15.333 -59.333 53.333 -89 114 -89c23.333 0 42.333 4.66699 57 14
s22 22.666 22 39.999c0 22.667 -15.333 37.667 -46 45l-139 33c-122.667 28.667 -184 93.334 -184 194.001c0 68.668 25.667 122.335 77 161.001c51.333 38.667 117.666 58 198.999 58zM193 -207.997l49 163h182l-101 -163h-130z" />
    <glyph glyph-name="scommaaccent" unicode="&#x219;" horiz-adv-x="526" 
d="M19 131l179.001 35c8.66699 -32.667 33.667 -49 75 -49c16.667 0 29.667 2.83301 39 8.5s14 12.834 14 21.5c0 15.333 -15.333 25.333 -46 30l-101 17c-100 18 -150 68 -150 150c0 54 21.333 96.833 64 128.5s96.667 47.5 162 47.5c66 0 119.667 -12.333 161 -37
s68 -59.334 80 -104l-168 -33c-2 12.667 -9.5 24.167 -22.5 34.5s-29.5 15.5 -49.5 15.5c-31.333 0 -47 -10 -47 -30c0 -13.333 11 -22.333 33 -27l115 -23c50 -9.33301 87.333 -27.833 112 -55.5s37 -62.5 37 -104.5c0 -54 -22.167 -96 -66.5 -126
s-101.166 -45 -170.499 -45c-66.667 0 -122.334 12.167 -167.001 36.5s-72.334 60.833 -83.001 109.5zM135.001 -208l49 163h182l-101 -163h-130z" />
    <glyph glyph-name="uni021A" unicode="&#x21a;" horiz-adv-x="653" 
d="M633 505h-210v-505h-193v505h-210v165h613v-165zM239 -45h182l-101 -163h-130z" />
    <glyph glyph-name="uni021B" unicode="&#x21b;" horiz-adv-x="431" 
d="M284 -15c-65.333 0 -115.667 17.667 -151 53s-53 85 -53 149v172h-77v146h77v165h187v-165h134v-146h-134v-151c0 -40.667 20 -61 60 -61c22.667 0 44 5.33301 64 16l37 -141c-46 -24.667 -94 -37 -144 -37zM171.999 -44h182l-101 -163h-130z" />
    <glyph glyph-name="circumflex" unicode="&#x2c6;" horiz-adv-x="600" 
d="M336 564l-35 50l-36 -50h-177l117 162h191l118 -162h-178z" />
    <glyph glyph-name="caron" unicode="&#x2c7;" horiz-adv-x="600" 
d="M514 726l-118 -162h-191l-117 162h177l36 -50l35 50h178z" />
    <glyph glyph-name="breve" unicode="&#x2d8;" horiz-adv-x="600" 
d="M300 550c-56 0 -101.333 15.334 -136 46.001c-34.667 30.668 -52 71.335 -52 122h142c0 -12 4.16699 -22.167 12.5 -30.5s19.5 -12.5 33.5 -12.5s25.333 4.16699 34 12.5s13 18.5 13 30.5h141c0 -50.667 -17.333 -91.334 -52 -122.001s-80 -46 -136 -46z" />
    <glyph glyph-name="dotaccent" unicode="&#x2d9;" horiz-adv-x="600" 
d="M300 756c29.333 0 53.834 -9.83301 73.501 -29.5s29.5 -43.167 29.5 -70.5c0 -29.333 -9.66699 -53.333 -29 -72s-44 -28 -74 -28s-54.5 9.33301 -73.5 28s-28.5 42.667 -28.5 72c0 27.333 9.66699 50.833 29 70.5s43.666 29.5 72.999 29.5z" />
    <glyph glyph-name="ring" unicode="&#x2da;" horiz-adv-x="600" 
d="M434 672c0 -36 -13 -66.5 -39 -91.5s-57.667 -37.5 -95 -37.5s-69 12.5 -95 37.5s-39 55.5 -39 91.5s13 66.5 39 91.5s57.667 37.5 95 37.5s69 -12.5 95 -37.5s39 -55.5 39 -91.5zM341 672c0 10.6719 -4 19.8398 -12 27.501c-8 7.66699 -17.667 11.5 -29 11.5
s-21 -3.83301 -29 -11.5s-12 -16.834 -12 -27.501s4 -19.834 12 -27.501s17.667 -11.5 29 -11.5s21 3.83301 29 11.5c8 7.67188 12 16.8389 12 27.501z" />
    <glyph glyph-name="ogonek" unicode="&#x2db;" horiz-adv-x="600" 
d="M217 7l110.001 -7c-32 -33.333 -49.667 -54.333 -53 -63c-2 -4 -3 -8.33301 -3 -13c0 -16 9.33301 -24 28 -24c11.333 0 28.333 3.33301 51 10l7 -103c-32 -15.333 -66 -23 -102 -23c-32.667 0 -59.334 8.66699 -80.001 26s-31 41 -31 71c0 46.667 24.333 88.667 73 126z
" />
    <glyph glyph-name="tilde" unicode="&#x2dc;" horiz-adv-x="600" 
d="M222 573l-105 0.000976562c0 54.668 11.667 97.335 35 128c23.333 30.667 52.666 46 87.999 46c22.667 0 45.5 -6.16699 68.5 -18.5s40.167 -18.5 51.5 -18.5c9.33301 0 16.333 2.5 21 7.5s9 13.5 13 25.5h105c0 -54.667 -11.667 -97.334 -35 -128.001
s-52.666 -46 -87.999 -46c-22.667 0 -45.5 5.66699 -68.5 17s-40.167 17 -51.5 17c-9.33301 0 -16.333 -2.16699 -21 -6.5c-4.66699 -4.33789 -9 -12.1709 -13 -23.5z" />
    <glyph glyph-name="hungarumlaut" unicode="&#x2dd;" horiz-adv-x="600" 
d="M204 567h-154l82 160h197zM420 567h-155l82 160h204z" />
    <glyph glyph-name="uni0326" unicode="&#x326;" horiz-adv-x="0" 
d="M170 -208l49 163h182l-101 -163h-130z" />
    <glyph glyph-name="Wgrave" unicode="&#x1e80;" horiz-adv-x="985" 
d="M411 732l-127 160h225l75 -160h-173zM981 670l-187 -670h-207l-95 376l-95 -376h-207l-187 670h197l105 -382l96 382h182l96 -382l105 382h197z" />
    <glyph glyph-name="wgrave" unicode="&#x1e81;" horiz-adv-x="803" 
d="M321 567l-127 160h225l75 -160h-173zM800 505l-158 -505h-159l-81 249l-82 -249h-159l-158 505h184l67 -232l86 232h123l86 -232l67 232h184z" />
    <glyph glyph-name="Wacute" unicode="&#x1e82;" horiz-adv-x="985" 
d="M578 732h-173l75 160h225zM981 670l-187 -670h-207l-95 376l-95 -376h-207l-187 670h197l105 -382l96 382h182l96 -382l105 382h197z" />
    <glyph glyph-name="wacute" unicode="&#x1e83;" horiz-adv-x="803" 
d="M488 567h-173l75 160h225zM800 505l-158 -505h-159l-81 249l-82 -249h-159l-158 505h184l67 -232l86 232h123l86 -232l67 232h184z" />
    <glyph glyph-name="Wdieresis" unicode="&#x1e84;" horiz-adv-x="985" 
d="M373 714c-28.667 0 -52.335 9.16699 -71.001 27.5c-18.667 18.333 -28 41.833 -28 70.5c0 26 9.33301 48.5 28 67.5s42.334 28.5 71.001 28.5s52.5 -9.5 71.5 -28.5s28.5 -41.5 28.5 -67.5c0 -28.667 -9.33301 -52.167 -28 -70.5s-42.667 -27.5 -72 -27.5zM610.999 714
c-28.667 0 -52.333 9.16699 -71 27.5s-28 41.833 -28 70.5c0 26 9.33301 48.5 28 67.5c18.6689 19 42.3359 28.5 71 28.5c28.667 0 52.5 -9.5 71.5 -28.5s28.5 -41.5 28.5 -67.5c0 -28.667 -9.33301 -52.167 -28 -70.5s-42.667 -27.5 -72 -27.5zM981 670l-187 -670h-207
l-95 376l-95 -376h-207l-187 670h197l105 -382l96 382h182l96 -382l105 382h197z" />
    <glyph glyph-name="wdieresis" unicode="&#x1e85;" horiz-adv-x="803" 
d="M283 549c-28.667 0 -52.334 9.16699 -71.001 27.5s-28 41.833 -28 70.5c0 26 9.33301 48.5 28 67.5s42.334 28.5 71.001 28.5s52.5 -9.5 71.5 -28.5s28.5 -41.5 28.5 -67.5c0 -28.667 -9.33301 -52.167 -28 -70.5s-42.667 -27.5 -72 -27.5zM521 549
c-28.667 0 -52.335 9.16699 -71.001 27.5c-18.667 18.333 -28 41.833 -28 70.5c0 26 9.33301 48.5 28 67.5s42.334 28.5 71.001 28.5s52.5 -9.5 71.5 -28.5s28.5 -41.5 28.5 -67.5c0 -28.667 -9.33301 -52.167 -28 -70.5s-42.667 -27.5 -72 -27.5zM799.999 505l-158 -505
h-159l-81 249l-82 -249h-159l-158 505h184l67 -232l86 232h123l86 -232l67 232h184z" />
    <glyph glyph-name="Ygrave" unicode="&#x1ef2;" horiz-adv-x="721" 
d="M279 732l-127 160h225l75 -160h-173zM718 670l-262 -465v-205h-200v205l-253 465h211l146 -272l145 272h213z" />
    <glyph glyph-name="ygrave" unicode="&#x1ef3;" horiz-adv-x="624" 
d="M236 567l-127 160h225l75 -160h-173zM621 505l-322 -745h-197l111 258l-210 487h198l107 -267l115 267h198z" />
    <glyph glyph-name="endash" unicode="&#x2013;" horiz-adv-x="620" 
d="M560 197h-500v147h500v-147z" />
    <glyph glyph-name="emdash" unicode="&#x2014;" horiz-adv-x="1040" 
d="M980 197h-920v147h920v-147z" />
    <glyph glyph-name="quoteleft" unicode="&#x2018;" horiz-adv-x="317" 
d="M145 670h143l-58 -308h-202v4z" />
    <glyph glyph-name="quoteright" unicode="&#x2019;" horiz-adv-x="317" 
d="M171 362h-143l58 308h202v-4z" />
    <glyph glyph-name="quotesinglbase" unicode="&#x201a;" horiz-adv-x="317" 
d="M171 -132h-143l58 308h202v-4z" />
    <glyph glyph-name="quotedblleft" unicode="&#x201c;" horiz-adv-x="553" 
d="M145 670h143l-58 -308h-202v4zM382 670h143l-58 -308h-202v4z" />
    <glyph glyph-name="quotedblright" unicode="&#x201d;" horiz-adv-x="553" 
d="M171 362h-143l58 308h202v-4zM408 362h-143l58 308h202v-4z" />
    <glyph glyph-name="quotedblbase" unicode="&#x201e;" horiz-adv-x="553" 
d="M171 -132h-143l58 308h202v-4zM408 -132h-143l58 308h202v-4z" />
    <glyph glyph-name="dagger" unicode="&#x2020;" horiz-adv-x="395" 
d="M363 650v-102h-110v-249h-111v249h-110v102h110v90h111v-90h110z" />
    <glyph glyph-name="daggerdbl" unicode="&#x2021;" horiz-adv-x="395" 
d="M253 548v-57h110v-102h-110v-90h-111v90h-110v102h110v57h-110v102h110v90h111v-90h110v-102h-110z" />
    <glyph glyph-name="bullet" unicode="&#x2022;" horiz-adv-x="407" 
d="M204 442c50.667 0 93.334 -17.833 128.001 -53.5s52 -77.5 52 -125.5c0 -50.667 -17 -93 -51 -127s-77 -51 -129 -51s-95 17 -129 51s-51 76.333 -51 127c0 48 17.167 89.833 51.5 125.5s77.166 53.5 128.499 53.5z" />
    <glyph glyph-name="ellipsis" unicode="&#x2026;" horiz-adv-x="821" 
d="M127 201c30 0 54.833 -10.333 74.5 -31s29.5 -45 29.5 -73c0 -29.333 -9.83301 -53.666 -29.5 -72.999s-44.5 -29 -74.5 -29s-54.833 9.66699 -74.5 29s-29.5 43.666 -29.5 72.999c0 28 9.83301 52.333 29.5 73s44.5 31 74.5 31zM410 201c30 0 55.001 -10.333 75.001 -31
s30 -45 30 -73c0 -29.333 -9.83301 -53.666 -29.5 -72.999c-19.668 -19.333 -44.835 -29 -75.501 -29c-30 0 -54.667 9.66699 -74 29s-29 43.666 -29 72.999c0 28 9.83301 52.333 29.5 73s44.167 31 73.5 31zM694.001 201c29.333 0 54 -10.333 74 -31s30 -45 30 -73
c0 -29.333 -9.83301 -53.666 -29.5 -72.999s-44.5 -29 -74.5 -29s-54.833 9.66699 -74.5 29s-29.5 43.666 -29.5 72.999c0 28 9.83301 52.333 29.5 73s44.5 31 74.5 31z" />
    <glyph glyph-name="perthousand" unicode="&#x2030;" horiz-adv-x="1310" 
d="M220 685c49.333 0 91.333 -16 126 -48s52 -73.667 52 -125s-17.333 -93 -52 -125s-76.667 -48 -126 -48c-50 0 -92.5 16 -127.5 48s-52.5 73.667 -52.5 125s17.5 93 52.5 125s77.5 48 127.5 48zM160 0l478 670h100l-477 -670h-101zM220 578c-17.333 0 -32.333 -6 -45 -18
s-19 -28 -19 -48c0 -19.333 6.5 -35.166 19.5 -47.499s27.833 -18.5 44.5 -18.5s31.167 6.16699 43.5 18.5c12.333 12.334 18.5 28.167 18.5 47.499c0 20 -6.16699 36 -18.5 48s-26.833 18 -43.5 18zM678 331c49.333 0 91.333 -16 126 -48s52 -73.667 52 -125
s-17.333 -93 -52 -125s-76.667 -48 -126 -48c-50 0 -92.5 16 -127.5 48s-52.5 73.667 -52.5 125s17.5 93 52.5 125s77.5 48 127.5 48zM1091 331c49.333 0 91.5 -16 126.5 -48s52.5 -73.667 52.5 -125s-17.5 -93 -52.5 -125s-77.167 -48 -126.5 -48c-50 0 -92.5 16 -127.5 48
s-52.5 73.667 -52.5 125s17.5 93 52.5 125s77.5 48 127.5 48zM678 224c-17.333 0 -32.333 -6 -45 -18s-19 -28 -19 -48c0 -19.333 6.5 -35.166 19.5 -47.499s27.833 -18.5 44.5 -18.5s31.167 6.16699 43.5 18.5s18.5 28.166 18.5 47.499c0 20 -6.16699 36 -18.5 48
s-26.833 18 -43.5 18zM1091 224c-16.6748 0 -31.3428 -6 -44.001 -18c-12.667 -12 -19 -28 -19 -48c0 -19.333 6.33301 -35.166 19 -47.499s27.334 -18.5 44.001 -18.5s31.167 6.16699 43.5 18.5s18.5 28.166 18.5 47.499c0 20 -6.16699 36 -18.5 48s-26.833 18 -43.5 18z
" />
    <glyph glyph-name="guilsinglleft" unicode="&#x2039;" horiz-adv-x="319" 
d="M25 262l99 178h170l-99 -178l99 -178h-170z" />
    <glyph glyph-name="guilsinglright" unicode="&#x203a;" horiz-adv-x="319" 
d="M25 84l99 178l-99 178h170l99 -178l-99 -178h-170z" />
    <glyph glyph-name="fraction" unicode="&#x2044;" horiz-adv-x="251" 
d="M-167 0l478 670h100l-477 -670h-101z" />
    <glyph glyph-name="Euro" unicode="&#x20ac;" horiz-adv-x="743" 
d="M527 286l185.999 -36.999c-11.333 -78.667 -43.833 -142.334 -97.5 -191.001s-120.167 -73 -199.5 -73c-72 0 -133.5 20.667 -184.5 62s-86.167 98 -105.5 170h-86v96h72v22v22h-72v95h86c18.667 72 53.667 128.833 105 170.5s113 62.5 185 62.5
c78.667 0 144.334 -24 197.001 -72s85.667 -111 99 -189l-185 -35c-15.333 89.333 -52.333 134 -111 134c-42 0 -73.333 -23.667 -94 -71h147l-19 -95h-147l-1 -22c0 -10 0.333008 -17.333 1 -22h140l-19 -96h-102c20.667 -46.667 52 -70 94 -70
c57.333 0 94.333 46.333 111 139z" />
    <glyph glyph-name="uni2116" unicode="&#x2116;" horiz-adv-x="1196" 
d="M959 324c-52 0 -96.5 16.667 -133.5 50s-55.5 76 -55.5 128s18.5 94.667 55.5 128s81.5 50 133.5 50c53.333 0 98.5 -16.667 135.5 -50s55.5 -76 55.5 -128s-18.5 -94.667 -55.5 -128s-82.167 -50 -135.5 -50zM513 670h193v-670h-159l-308 345v-345h-192v670h158
l308 -357v357zM959 563c-16.667 0 -30.333 -5.83301 -41 -17.5s-16 -26.167 -16 -43.5s5.33301 -31.833 16 -43.5c10.6699 -11.667 24.3369 -17.5 41 -17.5c16.667 0 30.667 5.83301 42 17.5s17 26.167 17 43.5s-5.66699 31.833 -17 43.5s-25.333 17.5 -42 17.5z
M776.001 284h368v-134h-368v134z" />
    <glyph glyph-name="uni2117" unicode="&#x2117;" horiz-adv-x="757" 
d="M378 685c96.667 0 179.167 -33.332 247.5 -99.999s102.5 -150.334 102.5 -251.001s-34 -184 -102 -250s-150.667 -99 -248 -99s-180.166 33 -248.499 99s-102.5 149.333 -102.5 250c0 100 34.167 183.5 102.5 250.5s151.166 100.5 248.499 100.5zM378 42.001
c80 0 148 27.667 204 83s84 125 84 209s-28 154.167 -84 210.5s-124 84.5 -204 84.5s-148.167 -28 -204.5 -84s-84.5 -126.333 -84.5 -211c0 -84 28.167 -153.667 84.5 -209s124.5 -83 204.5 -83zM242 517.001h177c45.333 0 80.5 -11.833 105.5 -35.5
s37.5 -54.167 37.5 -91.5c0 -40.667 -13.667 -73 -41 -97s-64 -36 -110 -36h-61v-104h-108v364zM350 344.001h56c16 0 28.5 4 37.5 12s13.5 18.333 13.5 31c0 12 -4.5 21.667 -13.5 29s-21.5 11 -37.5 11h-56v-83z" />
    <glyph glyph-name="trademark" unicode="&#x2122;" horiz-adv-x="710" 
d="M303 587h-85v-200h-98v200h-84v83h267v-83zM665 387h-95v128l-51 -125h-43l-51 125v-128h-94v283h103l63 -149l64 149h104v-283z" />
    <glyph glyph-name="oneeighth" unicode="&#x215b;" horiz-adv-x="819" 
d="M97 520l-83 -45v119l124 76h81v-387h-122v237zM672 670l-478 -670h-100l477 670h101zM734 201c43.333 -17.334 65 -48.667 65 -94c0 -34 -15.333 -62 -46 -84s-71 -33 -121 -33c-49.333 0 -89.333 11 -120 33s-46 50 -46 84c0 44.667 21.333 76 64 94
c-32.667 17.333 -49 44.666 -49 81.999c0 30.667 14.667 56.834 44 78.501s65.333 32.5 108 32.5s78.5 -10.833 107.5 -32.5s43.5 -47.834 43.5 -78.5c0 -37.334 -16.667 -64.667 -50 -82zM633 306c-12.667 0 -23 -3.16602 -31 -9.49902s-12 -14.833 -12 -25.5
s4.16699 -19.334 12.5 -26.001s18.5 -10 30.5 -10c11.333 0 21.333 3.5 30 10.5s13 15.5 13 25.5c0 10.667 -4.16699 19.167 -12.5 25.5s-18.5 9.5 -30.5 9.5zM633 83.001c12.667 0 23.1689 3.5 31.502 10.5s12.5 15.833 12.5 26.5c0 11.333 -4.16699 20.333 -12.5 27
s-18.833 10 -31.5 10s-23.334 -3.33301 -32.001 -10s-13 -15.667 -13 -27c0 -10.667 4.16699 -19.5 12.5 -26.5s19.166 -10.5 32.499 -10.5z" />
    <glyph glyph-name="threeeighths" unicode="&#x215c;" horiz-adv-x="860" 
d="M332 404c0 -36 -14.998 -66.333 -44.998 -91s-67.667 -37 -113 -37c-43.333 0 -79.333 11.5 -108 34.5s-45 53.5 -49 91.5l110 21c7.33301 -31.333 23.666 -47 48.999 -47c26 0 39 10.333 39 31c0 9.33301 -4 17 -12 23s-18.333 9 -31 9h-44v84h40c29.333 0 44 10 44 30
c0 9.33301 -3.5 16.833 -10.5 22.5s-16.5 8.5 -28.5 8.5c-25.334 0 -39.667 -15.333 -43 -46l-110 21c3.33301 34 19.166 62.667 47.499 86s63.166 35 104.499 35c44.667 0 81.334 -11.667 110.001 -35s43 -53 43 -89c0 -30.667 -15 -55 -45 -73
c34.667 -18 52 -44.333 52 -79zM713.002 670l-478 -670h-100l478 670h100zM768.002 201c43.333 -17.334 65 -48.667 65 -94c0 -34 -15.333 -62 -46 -84s-71 -33 -121 -33c-49.333 0 -89.333 11 -120 33s-46 50 -46 84c0.000976562 44.667 21.334 76 64 94
c-32.667 17.333 -49 44.666 -49 81.999c0 30.667 14.667 56.834 44 78.501s65.333 32.5 108 32.5s78.5 -10.833 107.5 -32.5s43.5 -47.834 43.5 -78.5c0 -37.334 -16.667 -64.667 -50 -82zM667.002 306c-12.667 0 -23 -3.16602 -31 -9.49902s-12 -14.833 -12 -25.5
s4.16699 -19.334 12.5 -26.001s18.5 -10 30.5 -10c11.333 0 21.333 3.5 30 10.5s13 15.5 13 25.5c0 10.667 -4.16699 19.167 -12.5 25.5s-18.5 9.5 -30.5 9.5zM667.002 83.001c12.667 0 23.1689 3.5 31.502 10.5s12.5 15.833 12.5 26.5c0 11.333 -4.16699 20.333 -12.5 27
s-18.833 10 -31.5 10s-23.334 -3.33301 -32.001 -10s-13 -15.667 -13 -27c0 -10.667 4.16699 -19.5 12.5 -26.5s19.166 -10.5 32.499 -10.5z" />
    <glyph glyph-name="fiveeighths" unicode="&#x215d;" horiz-adv-x="851" 
d="M339 412c0 -41.333 -14.1689 -74.5 -42.502 -99.5s-66.166 -37.5 -113.499 -37.5c-45.333 0 -83 11.833 -113 35.5s-47 53.5 -51 89.5l114 19c6 -28.667 22.333 -43 49 -43c12 0 21.833 3.16699 29.5 9.5s11.5 14.833 11.5 25.5c0 22.667 -14.667 34 -44 34h-147l11 225
h276v-105h-173l-1 -28h53c44.667 0 79.334 -11.167 104.001 -33.5s37 -52.833 37 -91.5zM714.998 670l-478 -670h-100l478 670h100zM764.998 201c43.333 -17.334 65 -48.667 65 -94c0 -34 -15.333 -62 -46 -84s-71 -33 -121 -33c-49.333 0 -89.333 11 -120 33s-46 50 -46 84
c0.000976562 44.667 21.334 76 64 94c-32.667 17.333 -49 44.666 -49 81.999c0 30.667 14.667 56.834 44 78.501s65.333 32.5 108 32.5s78.5 -10.833 107.5 -32.5s43.5 -47.834 43.5 -78.5c0 -37.334 -16.667 -64.667 -50 -82zM663.998 306
c-12.667 0 -23 -3.16602 -31 -9.49902s-12 -14.833 -12 -25.5s4.16699 -19.334 12.5 -26.001s18.5 -10 30.5 -10c11.333 0 21.333 3.5 30 10.5s13 15.5 13 25.5c0 10.667 -4.16699 19.167 -12.5 25.5s-18.5 9.5 -30.5 9.5zM663.998 83.001c12.667 0 23.1689 3.5 31.502 10.5
s12.5 15.833 12.5 26.5c0 11.333 -4.16699 20.333 -12.5 27s-18.833 10 -31.5 10s-23.334 -3.33301 -32.001 -10s-13 -15.667 -13 -27c0 -10.667 4.16699 -19.5 12.5 -26.5s19.166 -10.5 32.499 -10.5z" />
    <glyph glyph-name="seveneighths" unicode="&#x215e;" horiz-adv-x="782" 
d="M45 283l131 282h-168v105h298v-93l-130 -294h-131zM641 670l-478 -670h-100l478 670h100zM696 201c43.333 -17.334 65 -48.667 65 -94c0 -34 -15.333 -62 -46 -84s-71 -33 -121 -33c-49.333 0 -89.333 11 -120 33s-46 50 -46 84c0 44.667 21.333 76 64 94
c-32.667 17.333 -49 44.666 -49 81.999c0 30.667 14.667 56.834 44 78.501s65.333 32.5 108 32.5s78.5 -10.833 107.5 -32.5s43.5 -47.834 43.5 -78.5c0 -37.334 -16.667 -64.667 -50 -82zM595 306c-12.667 0 -23 -3.16602 -31 -9.49902s-12 -14.833 -12 -25.5
s4.16699 -19.334 12.5 -26.001s18.5 -10 30.5 -10c11.333 0 21.333 3.5 30 10.5s13 15.5 13 25.5c0 10.667 -4.16699 19.167 -12.5 25.5s-18.5 9.5 -30.5 9.5zM595 83.001c12.667 0 23.1689 3.5 31.502 10.5s12.5 15.833 12.5 26.5c0 11.333 -4.16699 20.333 -12.5 27
s-18.833 10 -31.5 10s-23.334 -3.33301 -32.001 -10s-13 -15.667 -13 -27c0 -10.667 4.16699 -19.5 12.5 -26.5s19.166 -10.5 32.499 -10.5z" />
    <glyph glyph-name="arrowleft" unicode="&#x2190;" horiz-adv-x="727" 
d="M687 245h-373l142 -142l-112 -113l-334 334l334 334l112 -112l-142 -143h373v-158z" />
    <glyph glyph-name="arrowup" unicode="&#x2191;" horiz-adv-x="748" 
d="M595 231l-142 142v-373h-158v373l-143 -142l-112 112l334 334l334 -334z" />
    <glyph glyph-name="arrowright" unicode="&#x2192;" horiz-adv-x="727" 
d="M717 324l-334 -334l-112 113l142 142h-373v158h373l-142 143l112 112z" />
    <glyph glyph-name="arrowdown" unicode="&#x2193;" horiz-adv-x="748" 
d="M708 327l-334 -334l-334 334l112 112l143 -142v373h158v-373l142 142z" />
    <glyph glyph-name="uni2196" unicode="&#x2196;" horiz-adv-x="749" 
d="M588 -10l-397 398v-210h-161v492h492l-1 -160h-210l398 -399z" />
    <glyph glyph-name="uni2197" unicode="&#x2197;" horiz-adv-x="748" 
d="M718 670v-492h-161v210l-397 -398l-121 121l398 399h-210l-1 160h492z" />
    <glyph glyph-name="uni2198" unicode="&#x2198;" horiz-adv-x="750" 
d="M720 492v-492h-492l1 160h210l-398 399l121 121l397 -398v210h161z" />
    <glyph glyph-name="uni2199" unicode="&#x2199;" horiz-adv-x="750" 
d="M521 160l1 -160h-492v492h161v-210l397 398l121 -121l-398 -399h210z" />
    <glyph glyph-name="minus" unicode="&#x2212;" horiz-adv-x="567" 
d="M527 229h-487v145h487v-145z" />
    <glyph glyph-name="approxequal" unicode="&#x2248;" horiz-adv-x="564" 
d="M524 464l0.000976562 -133c-30.667 -14.667 -67 -22 -109 -22c-37.333 0 -80 8.5 -128 25.5s-89 25.5 -123 25.5c-54.667 0 -96 -9.66699 -124 -29v129c29.333 22 70.666 33 123.999 33c34.667 0 76.667 -8.5 126 -25.5c49.334 -17 91.667 -25.5 127 -25.5
c44 0 79.667 7.33301 107 22zM524.001 295v-133c-30.667 -14.667 -67 -22 -109 -22c-37.333 0 -80 8.5 -128 25.5s-89 25.5 -123 25.5c-54.667 0 -96 -9.66699 -124 -29v130c28.667 21.333 70 32 124 32c34.667 0 76.667 -8.5 126 -25.5c49.334 -17 91.667 -25.5 127 -25.5
c44 0 79.667 7.33301 107 22z" />
    <glyph glyph-name="notequal" unicode="&#x2260;" horiz-adv-x="567" 
d="M368 340l-32 -60h191v-138h-266l-47 -87h-130l47 87h-91v138h166l32 60h-198v138h273l41 76h130l-41 -76h84v-138h-159z" />
    <glyph glyph-name="lessequal" unicode="&#x2264;" horiz-adv-x="486" 
d="M447 221l-415 106v172l415 108v-152l-247 -42l247 -44v-148zM447 203v-145h-416v145h416z" />
    <glyph glyph-name="greaterequal" unicode="&#x2265;" horiz-adv-x="486" 
d="M287 413l-247 42v152l415 -108v-172l-415 -106v148zM456 58h-416v145h416v-145z" />
    <glyph glyph-name=".null" horiz-adv-x="0" 
 />
    <glyph glyph-name="nonmarkingreturn" horiz-adv-x="333" 
 />
    <glyph glyph-name="K.ss03" horiz-adv-x="701" 
d="M708 0h-248l-187 236h-34v-236h-192v670h192v-253h24l199 253h227l-261 -337z" />
    <glyph glyph-name="Kcommaaccent.ss03" horiz-adv-x="701" 
d="M708 0h-248l-187 236h-34v-236h-192v670h192v-253h24l199 253h227l-261 -337zM253 -45h182l-101 -163h-130z" />
    <glyph glyph-name="Q.ss04" horiz-adv-x="782" 
d="M752 335c0 -104 -38.667 -190.332 -116 -258.999l102 -125l-143 -123l-134 163c-22.667 -4 -46 -6 -70 -6c-101.333 0 -186.833 33.833 -256.5 101.5s-104.5 150.5 -104.5 248.5s34.833 180.833 104.5 248.499c69.667 67.667 155.167 101.5 256.5 101.5
s186.833 -33.833 256.5 -101.5s104.5 -150.5 104.5 -248.5zM224 335.001c0 -50.667 15.833 -92.834 47.5 -126.501s71.5 -50.5 119.5 -50.5s87.833 16.833 119.5 50.5s47.5 75.834 47.5 126.501c0 50 -15.833 92 -47.5 126s-71.5 51 -119.5 51s-87.833 -17 -119.5 -51
s-47.5 -76 -47.5 -126z" />
    <glyph glyph-name="I.ss05" horiz-adv-x="286" 
d="M239 0h-192v670h192v-670z" />
    <glyph glyph-name="IJ.ss05" horiz-adv-x="906" 
d="M47 670h192v-670h-192v670zM858 670l0.000976562 -425c0 -77.333 -25.833 -140 -77.5 -188s-119.5 -72 -203.5 -72c-78 0 -141.333 20.833 -190 62.5s-78 98.167 -88 169.5l190 37c7.33301 -65.333 36.666 -98 87.999 -98c26 0 47.167 8.16699 63.5 24.5
s24.5 37.833 24.5 64.5v425h193z" />
    <glyph glyph-name="Iacute.ss05" horiz-adv-x="286" 
d="M229 732h-173l75 160h225zM239 0h-192v670h192v-670z" />
    <glyph glyph-name="Icircumflex.ss05" horiz-adv-x="286" 
d="M108 729h-177l117 162h191l118 -162h-178l-35 50zM47 670h192v-670h-192v670z" />
    <glyph glyph-name="Idieresis.ss05" horiz-adv-x="286" 
d="M24 908c28.667 0 52.5 -9.5 71.5 -28.5s28.5 -41.5 28.5 -67.5c0 -28.667 -9.33301 -52.167 -28 -70.5s-42.667 -27.5 -72 -27.5c-28.667 0 -52.334 9.16699 -71.001 27.5s-28 41.833 -28 70.5c0 26 9.33301 48.5 28 67.5s42.334 28.5 71.001 28.5zM262 908
c28.667 0 52.5 -9.5 71.5 -28.5s28.5 -41.5 28.5 -67.5c0 -28.667 -9.33301 -52.167 -28 -70.5s-42.667 -27.5 -72 -27.5c-28.667 0 -52.334 9.16699 -71.001 27.5s-28 41.833 -28 70.5c0 26 9.33301 48.5 28 67.5s42.334 28.5 71.001 28.5zM239 0h-192v670h192v-670z" />
    <glyph glyph-name="Idotaccent.ss05" horiz-adv-x="286" 
d="M142 921c29.333 0 53.834 -9.83301 73.501 -29.5s29.5 -43.167 29.5 -70.5c0 -29.333 -9.66699 -53.333 -29 -72s-44 -28 -74 -28s-54.5 9.33301 -73.5 28s-28.5 42.667 -28.5 72c0 27.333 9.66699 50.833 29 70.5s43.666 29.5 72.999 29.5zM239.001 0h-192v670h192v-670
z" />
    <glyph glyph-name="Igrave.ss05" horiz-adv-x="286" 
d="M160 892l75 -160h-173l-127 160h225zM239 0h-192v670h192v-670z" />
    <glyph glyph-name="Imacron.ss05" horiz-adv-x="286" 
d="M315 734h-344v140h344v-140zM239 0h-192v670h192v-670z" />
    <glyph glyph-name="Iogonek.ss05" horiz-adv-x="286" 
d="M263 -90l7.00098 -103.001c-32 -15.333 -66 -23 -102 -23c-32.667 0 -59.334 8.66699 -80.001 26s-31 41 -31 71c0 42.667 21.333 82.334 64 119.001h-74v670h192v-670h1c-2 -2.66699 -5.33301 -6 -10 -10c-27.333 -28.667 -42.333 -47.667 -45 -57
c-0.666992 -3.33301 -1 -6.33301 -1 -9c0 -16 9.33301 -24 28 -24c11.333 0 28.333 3.33301 51 10z" />
    <glyph glyph-name="J.ss05" horiz-adv-x="620" 
d="M572 670l0.000976562 -425c0 -77.333 -25.833 -140 -77.5 -188s-119.5 -72 -203.5 -72c-78 0 -141.333 20.833 -190 62.5s-78 98.167 -88 169.5l190 37c7.33301 -65.333 36.666 -98 87.999 -98c26 0 47.167 8.16699 63.5 24.5s24.5 37.833 24.5 64.5v425h193z" />
    <glyph glyph-name="i.loclTRK" horiz-adv-x="298" 
d="M148 756c29.333 0 53.834 -9.83301 73.501 -29.5s29.5 -43.167 29.5 -70.5c0 -29.333 -9.66699 -53.333 -29 -72s-44 -28 -74 -28s-54.5 9.33301 -73.5 28s-28.5 42.667 -28.5 72c0 27.333 9.66699 50.833 29 70.5s43.666 29.5 72.999 29.5zM243.001 0h-188v505h188v-505
z" />
    <glyph glyph-name="germandbls.case" horiz-adv-x="1288" 
d="M326 685c79.333 0 144.333 -16.9971 195 -50.9971s82 -82 94 -144l-188 -38c-6 29.334 -18.667 50.667 -38 63.999c-19.333 13.333 -40.333 20 -63 20c-21.333 0 -38.5 -4.83301 -51.5 -14.5c-13 -9.66797 -19.5 -22.835 -19.5 -39.501c0 -22.667 13 -37 39 -43l136 -32
c127.333 -32 191 -98.333 191 -199c0 -50 -14.5 -92.333 -43.5 -127s-64.167 -59.334 -105.5 -74.001s-86.666 -22 -135.999 -22c-82.667 0 -152 18.667 -208 56s-88.667 87.666 -98 150.999l196 37c15.333 -59.333 53.333 -89 114 -89c23.333 0 42.333 4.66699 57 14
s22 22.666 22 39.999c0 22.667 -15.333 37.667 -46 45l-139 33c-122.667 28.667 -184 93.334 -184 194.001c0 68.668 25.667 122.335 77 161.001c51.333 38.667 117.666 58 198.999 58zM963 685.003c79.333 0 144.333 -16.9971 195 -50.9971s82 -82 94 -144l-188 -38
c-6 29.334 -18.667 50.667 -38 63.999c-19.333 13.333 -40.333 20 -63 20c-21.333 0 -38.5 -4.83301 -51.5 -14.5c-13 -9.66797 -19.5 -22.835 -19.5 -39.501c0 -22.667 13 -37 39 -43l136 -32c127.333 -32 191 -98.333 191 -199c0 -50 -14.5 -92.333 -43.5 -127
s-64.167 -59.334 -105.5 -74.001s-86.666 -22 -135.999 -22c-82.667 0 -152 18.667 -208 56s-88.667 87.666 -98 150.999l196 37c15.333 -59.333 53.333 -89 114 -89c23.333 0 42.333 4.66699 57 14s22 22.666 22 39.999c0 22.667 -15.333 37.667 -46 45l-139 33
c-122.667 28.667 -184 93.334 -184 194.001c0 68.668 25.667 122.335 77 161.001c51.333 38.667 117.666 58 198.999 58z" />
    <glyph glyph-name="a.ss01" horiz-adv-x="646" 
d="M599 505l-0.000976562 -505.001h-187v43c-37.333 -38.667 -86.666 -58 -147.999 -58c-70 0 -128.167 24.833 -174.5 74.5s-69.5 113.834 -69.5 192.501c0 79.333 23.167 143.833 69.5 193.5s104.5 74.5 174.5 74.5c61.334 0 110.667 -19.333 148 -58v43h187z
M308.999 140.999c28.667 0 53 10.668 73 32.001s30 47.666 30 78.999c0 32 -10 58.667 -30 80s-44.333 32 -73 32c-30.667 0 -55.334 -10.5 -74.001 -31.5s-28 -47.833 -28 -80.5c0 -32 9.33301 -58.5 28 -79.5s43.334 -31.5 74.001 -31.5z" />
    <glyph glyph-name="aacute.ss01" horiz-adv-x="646" 
d="M417 567h-173l75 160h225zM599 505l-0.000976562 -505.001h-187v43c-37.333 -38.667 -86.666 -58 -147.999 -58c-70 0 -128.167 24.833 -174.5 74.5s-69.5 113.834 -69.5 192.501c0 79.333 23.167 143.833 69.5 193.5s104.5 74.5 174.5 74.5
c61.334 0 110.667 -19.333 148 -58v43h187zM308.999 140.999c28.667 0 53 10.668 73 32.001s30 47.666 30 78.999c0 32 -10 58.667 -30 80s-44.333 32 -73 32c-30.667 0 -55.334 -10.5 -74.001 -31.5s-28 -47.833 -28 -80.5c0 -32 9.33301 -58.5 28 -79.5
s43.334 -31.5 74.001 -31.5z" />
    <glyph glyph-name="abreve.ss01" horiz-adv-x="646" 
d="M332 550c-56 0 -101.333 15.334 -136 46.001c-34.667 30.668 -52 71.335 -52 122h142c0 -12 4.16699 -22.167 12.5 -30.5s19.5 -12.5 33.5 -12.5s25.333 4.16699 34 12.5s13 18.5 13 30.5h141c0 -50.667 -17.333 -91.334 -52 -122.001s-80 -46 -136 -46zM599 505.001
l-0.000976562 -505.001h-187v43c-37.333 -38.667 -86.666 -58 -147.999 -58c-70 0 -128.167 24.833 -174.5 74.5s-69.5 113.834 -69.5 192.501c0 79.333 23.167 143.833 69.5 193.5s104.5 74.5 174.5 74.5c61.334 0 110.667 -19.333 148 -58v43h187zM308.999 141
c28.667 0 53 10.668 73 32.001s30 47.666 30 78.999c0 32 -10 58.667 -30 80s-44.333 32 -73 32c-30.667 0 -55.334 -10.5 -74.001 -31.5s-28 -47.833 -28 -80.5c0 -32 9.33301 -58.5 28 -79.5s43.334 -31.5 74.001 -31.5z" />
    <glyph glyph-name="acircumflex.ss01" horiz-adv-x="646" 
d="M296 564h-177l117 162h191l118 -162h-178l-35 50zM599 505l-0.000976562 -505.001h-187v43c-37.333 -38.667 -86.666 -58 -147.999 -58c-70 0 -128.167 24.833 -174.5 74.5s-69.5 113.834 -69.5 192.501c0 79.333 23.167 143.833 69.5 193.5s104.5 74.5 174.5 74.5
c61.334 0 110.667 -19.333 148 -58v43h187zM308.999 140.999c28.667 0 53 10.668 73 32.001s30 47.666 30 78.999c0 32 -10 58.667 -30 80s-44.333 32 -73 32c-30.667 0 -55.334 -10.5 -74.001 -31.5s-28 -47.833 -28 -80.5c0 -32 9.33301 -58.5 28 -79.5
s43.334 -31.5 74.001 -31.5z" />
    <glyph glyph-name="adieresis.ss01" horiz-adv-x="646" 
d="M213 549c-28.667 0 -52.334 9.16699 -71.001 27.5s-28 41.833 -28 70.5c0 26 9.33301 48.5 28 67.5s42.334 28.5 71.001 28.5s52.5 -9.5 71.5 -28.5s28.5 -41.5 28.5 -67.5c0 -28.667 -9.33301 -52.167 -28 -70.5s-42.667 -27.5 -72 -27.5zM451 549
c-28.667 0 -52.335 9.16699 -71.001 27.5c-18.667 18.333 -28 41.833 -28 70.5c0 26 9.33301 48.5 28 67.5s42.334 28.5 71.001 28.5s52.5 -9.5 71.5 -28.5s28.5 -41.5 28.5 -67.5c0 -28.667 -9.33301 -52.167 -28 -70.5s-42.667 -27.5 -72 -27.5zM598.999 505v-505.001
h-187v43c-37.333 -38.667 -86.666 -58 -147.999 -58c-70 0 -128.167 24.833 -174.5 74.5s-69.5 113.834 -69.5 192.501c0 79.333 23.167 143.833 69.5 193.5s104.5 74.5 174.5 74.5c61.333 0 110.666 -19.333 147.999 -58v43h187zM308.999 140.999
c28.667 0 53 10.668 73 32.001s30 47.666 30 78.999c0 32 -10 58.667 -30 80s-44.333 32 -73 32c-30.667 0 -55.334 -10.5 -74.001 -31.5s-28 -47.833 -28 -80.5c0 -32 9.33301 -58.5 28 -79.5s43.334 -31.5 74.001 -31.5z" />
    <glyph glyph-name="agrave.ss01" horiz-adv-x="646" 
d="M251 567l-127 160h225l75 -160h-173zM599 505l-0.000976562 -505.001h-187v43c-37.333 -38.667 -86.666 -58 -147.999 -58c-70 0 -128.167 24.833 -174.5 74.5s-69.5 113.834 -69.5 192.501c0 79.333 23.167 143.833 69.5 193.5s104.5 74.5 174.5 74.5
c61.334 0 110.667 -19.333 148 -58v43h187zM308.999 140.999c28.667 0 53 10.668 73 32.001s30 47.666 30 78.999c0 32 -10 58.667 -30 80s-44.333 32 -73 32c-30.667 0 -55.334 -10.5 -74.001 -31.5s-28 -47.833 -28 -80.5c0 -32 9.33301 -58.5 28 -79.5
s43.334 -31.5 74.001 -31.5z" />
    <glyph glyph-name="amacron.ss01" horiz-adv-x="646" 
d="M504 569h-344v140h344v-140zM599 505l-0.000976562 -505.001h-187v43c-37.333 -38.667 -86.666 -58 -147.999 -58c-70 0 -128.167 24.833 -174.5 74.5s-69.5 113.834 -69.5 192.501c0 79.333 23.167 143.833 69.5 193.5s104.5 74.5 174.5 74.5
c61.334 0 110.667 -19.333 148 -58v43h187zM308.999 140.999c28.667 0 53 10.668 73 32.001s30 47.666 30 78.999c0 32 -10 58.667 -30 80s-44.333 32 -73 32c-30.667 0 -55.334 -10.5 -74.001 -31.5s-28 -47.833 -28 -80.5c0 -32 9.33301 -58.5 28 -79.5
s43.334 -31.5 74.001 -31.5z" />
    <glyph glyph-name="aogonek.ss01" horiz-adv-x="646" 
d="M623 -90l6.99902 -103.002c-32 -15.333 -66 -23 -102 -23c-32.667 0 -59.334 8.66699 -80 26c-20.667 17.333 -31 41 -31 71c0 42.667 21.333 82.334 64 119.001h-69v43c-37.333 -38.667 -86.666 -58 -147.999 -58c-70 0 -128.167 24.833 -174.5 74.5
s-69.5 113.834 -69.5 192.501c0 79.333 23.167 143.833 69.5 193.5s104.5 74.5 174.5 74.5c61.334 0 110.667 -19.333 148 -58v43h187v-505h1c-32 -33.333 -49.667 -54.333 -53 -63c-2 -4 -3 -8.33301 -3 -13c0 -16 9.33301 -24 28 -24c11.333 0 28.333 3.33301 51 10z
M308.999 140.998c28.667 0 53 10.668 73 32.001s30 47.666 30 78.999c0 32 -10 58.667 -30 80s-44.333 32 -73 32c-30.667 0 -55.334 -10.5 -74.001 -31.5s-28 -47.833 -28 -80.5c0 -32 9.33301 -58.5 28 -79.5s43.334 -31.5 74.001 -31.5z" />
    <glyph glyph-name="aring.ss01" horiz-adv-x="646" 
d="M332 543c-37.333 0 -69 12.5 -95 37.5s-39 55.5 -39 91.5s13 66.5 39 91.5s57.667 37.5 95 37.5s69 -12.5 95 -37.5s39 -55.5 39 -91.5s-13 -66.5 -39 -91.5s-57.667 -37.5 -95 -37.5zM332 711c-11.333 0 -21 -3.83203 -29 -11.499s-12 -16.834 -12 -27.501
s4 -19.834 12 -27.501s17.667 -11.5 29 -11.5s21 3.83301 29 11.5c8 7.67188 12 16.8389 12 27.501c0 10.6719 -4 19.8389 -12 27.5c-8 7.66699 -17.667 11.5 -29 11.5zM599 505.001l-0.000976562 -505.001h-187v43c-37.333 -38.667 -86.666 -58 -147.999 -58
c-70 0 -128.167 24.833 -174.5 74.5s-69.5 113.834 -69.5 192.501c0 79.333 23.167 143.833 69.5 193.5s104.5 74.5 174.5 74.5c61.334 0 110.667 -19.333 148 -58v43h187zM308.999 141c28.667 0 53 10.668 73 32.001s30 47.666 30 78.999c0 32 -10 58.667 -30 80
s-44.333 32 -73 32c-30.667 0 -55.334 -10.5 -74.001 -31.5s-28 -47.833 -28 -80.5c0 -32 9.33301 -58.5 28 -79.5s43.334 -31.5 74.001 -31.5z" />
    <glyph glyph-name="atilde.ss01" horiz-adv-x="646" 
d="M287 603c-9.33301 0 -16.333 -2.16602 -21 -6.49902c-4.66699 -4.33789 -9 -12.1709 -13 -23.5h-105c0 54.668 11.667 97.335 35 128c23.333 30.667 52.666 46 87.999 46c22.667 0 45.5 -6.16699 68.5 -18.5s40.167 -18.5 51.5 -18.5c9.33301 0 16.333 2.5 21 7.5
s9 13.5 13 25.5h105c0 -54.667 -11.667 -97.334 -35 -128.001s-52.666 -46 -87.999 -46c-22.667 0 -45.5 5.66699 -68.5 17s-40.167 17 -51.5 17zM599 505.001l-0.000976562 -505.001h-187v43c-37.333 -38.667 -86.666 -58 -147.999 -58c-70 0 -128.167 24.833 -174.5 74.5
s-69.5 113.834 -69.5 192.501c0 79.333 23.167 143.833 69.5 193.5s104.5 74.5 174.5 74.5c61.334 0 110.667 -19.333 148 -58v43h187zM308.999 141c28.667 0 53 10.668 73 32.001s30 47.666 30 78.999c0 32 -10 58.667 -30 80s-44.333 32 -73 32
c-30.667 0 -55.334 -10.5 -74.001 -31.5s-28 -47.833 -28 -80.5c0 -32 9.33301 -58.5 28 -79.5s43.334 -31.5 74.001 -31.5z" />
    <glyph glyph-name="l.ss02" horiz-adv-x="281" 
d="M234 0h-187v770h187v-770z" />
    <glyph glyph-name="lacute.ss02" horiz-adv-x="281" 
d="M230 832h-173l75 160h225zM234 0h-187v770h187v-770z" />
    <glyph glyph-name="lcaron.ss02" horiz-adv-x="281" 
d="M234 0h-187v770h187v-770zM413 570h-127v200h168z" />
    <glyph glyph-name="lcommaaccent.ss02" horiz-adv-x="281" 
d="M234 0h-187v770h187v-770zM3 -208l49 163h182l-101 -163h-130z" />
    <glyph glyph-name="ldot.ss02" horiz-adv-x="472" 
d="M234 0h-187v770h187v-770zM365 466c28.667 0 52.833 -9.66797 72.5 -29.001s29.5 -42.666 29.5 -69.999c0 -28.667 -9.66699 -52.5 -29 -71.5s-43.666 -28.5 -72.999 -28.5c-30 0 -54.5 9.33301 -73.5 28s-28.5 42.667 -28.5 72c0 27.334 9.66699 50.667 29 70
s43.666 29 72.999 29z" />
    <glyph glyph-name="lslash.ss02" horiz-adv-x="324" 
d="M307 356l-51 -26v-330h-188v232l-51 -26v174l51 26v364h188v-266l51 26v-174z" />
    <glyph glyph-name="k.ss03" horiz-adv-x="626" 
d="M633 0h-233l-135 168h-31v-168h-187v770h187v-432h22l137 167h221l-201 -240z" />
    <glyph glyph-name="kcommaaccent.ss03" horiz-adv-x="626" 
d="M633 0h-233l-135 168h-31v-168h-187v770h187v-432h22l137 167h221l-201 -240zM230 -45h182l-101 -163h-130z" />
    <glyph glyph-name="f_j" horiz-adv-x="692" 
d="M637 505l-0.00195312 -577.999c0 -52.667 -16 -95.334 -48 -128.001s-74 -49 -126 -49c-37.333 0 -74 8 -110 24l26 135c16.667 -3.33301 28 -5 34 -5c10.667 0 19.334 3.66699 26.001 11s10 17 10 29v415h-184v-359h-188v359h-67v146h67v78
c0 60 19.167 107.833 57.5 143.5s88.5 53.5 150.5 53.5c32.667 0 64 -5.33301 94 -16l-28 -145c-14.668 2.66699 -24.335 4 -29 4c-17.333 0 -31.166 -4.66699 -41.499 -14s-15.5 -22.333 -15.5 -39v-65h372zM541.998 551.001c-30.667 0 -55.833 9.66797 -75.499 29.001
c-19.667 19.333 -29.5 43.666 -29.5 72.999c0 28 10 52 30 72s45 30 75 30s55 -10.167 75 -30.5c20 -20.3359 30 -44.1689 30 -71.5c0 -29.334 -9.83301 -53.667 -29.5 -73s-44.834 -29 -75.501 -29z" />
    <glyph glyph-name="f_t" horiz-adv-x="800" 
d="M759 163l36.998 -141c-46 -24.667 -94 -37 -144 -37c-65.334 0 -115.667 17.667 -150.999 53c-35.333 35.333 -53 85 -53 149v172h-183v-359h-188v359h-67v146h67v78c0 60 19.167 107.833 57.5 143.5s88.5 53.5 150.5 53.5c32.667 0 64 -5.33301 94 -16l-28 -145
c-14.668 2.66699 -24.335 4 -29 4c-17.333 0 -31.166 -4.66699 -41.499 -14s-15.5 -22.333 -15.5 -39v-65h183v165h187v-165h134v-146h-134v-151c0 -40.667 20.333 -61 61 -61c23.333 0 44.333 5.33301 63 16z" />
    <glyph glyph-name="fl.ss02" horiz-adv-x="666" 
d="M321 623c-16.667 0 -30.167 -4.83301 -40.5 -14.5s-15.5 -22.5 -15.5 -38.5v-65h123v-146h-123v-359h-188v359h-67v146h67v78c0 59.333 19 107 57 143s88 54 150 54c39.334 0 75.667 -7.33301 109 -22l-37 -141c-13.333 4 -25 6 -35 6zM619 770v-770h-187v770h187z" />
    <glyph glyph-name="zero.tf" 
d="M305 685c84.667 0 153.167 -32.167 205.5 -96.5c52.333 -64.334 78.5 -148.834 78.5 -253.5c0 -104.667 -26 -189.167 -78 -253.5s-120.667 -96.5 -206 -96.5s-154.166 32.167 -206.499 96.5s-78.5 148.833 -78.5 253.5s26.167 189.167 78.5 253.5
s121.166 96.5 206.499 96.5zM305 149c28 0 50 15.667 66 47s24 77.666 24 138.999c0 60.667 -8 106.667 -24 138s-38 47 -66 47c-28.667 0 -51 -15.667 -67 -47s-24 -77.333 -24 -138c0 -61.333 8 -107.666 24 -138.999s38.333 -47 67 -47z" />
    <glyph glyph-name="one.tf" 
d="M558 169v-169h-502v169h175v275l-162 -71v177l227 120h124v-501h138z" />
    <glyph glyph-name="two.tf" 
d="M569 165l-0.00195312 -164.999h-516v127l237 212c20.667 18 35.334 31.5 44.001 40.5s17.5 21 26.5 36s13.5 30.167 13.5 45.5c0 19.334 -6.16699 35.167 -18.5 47.499c-12.333 12.333 -28.166 18.5 -47.499 18.5c-50 0 -77.333 -31.667 -82 -95l-182 34
c4 68 29.5 121.5 76.5 160.5s108.167 58.5 183.5 58.5c76 0 137.5 -20 184.5 -60s70.5 -94.667 70.5 -164c0 -43.333 -10.5 -80.333 -31.5 -111s-55.5 -67.334 -103.5 -110l-87 -75h232z" />
    <glyph glyph-name="three.tf" 
d="M488 342c54 -30 80.999 -76.002 80.999 -138.002c0 -63.333 -24.5 -115.666 -73.5 -156.999s-111.833 -62 -188.5 -62c-72 0 -132.833 19 -182.5 57s-79.167 90 -88.5 156l185 33c4.66699 -28.667 14.667 -51 30 -67c15.334 -16 34.667 -24 58 -24
s42.333 6.16699 57 18.5s22 28.5 22 48.5c0 19.333 -7.33301 34.833 -22 46.5s-34.667 17.5 -60 17.5h-76v136h71c24.667 0 44.334 5.5 59.001 16.5s22 25.5 22 43.5c0 20 -6.83301 36 -20.5 48s-32.167 18 -55.5 18c-50 0 -78 -32 -84 -96l-179 34
c10 67.333 38.667 119.833 86 157.5s106 56.5 176 56.5c74 0 134.667 -20 182 -60s71 -91 71 -153c0 -57.333 -23.333 -100.666 -70 -129.999z" />
    <glyph glyph-name="four.tf" 
d="M592 110h-73v-110h-178v110h-320v173l270 387h228v-405h73v-155zM341 265v215l-140 -215h140z" />
    <glyph glyph-name="five.tf" 
d="M247 437h84.001c78 0 138 -19.333 180 -58s63 -91.667 63 -159c0 -70 -24 -126.667 -72 -170s-111 -65 -189 -65c-74.667 0 -137.334 20.167 -188.001 60.5s-78 96.5 -82 168.5l182 34c0.666992 -36 9.66699 -62.333 27 -79s38.333 -25 63 -25
c23.333 0 42.333 6.66699 57 20s22 31.333 22 54c0 21.333 -7.66699 38.333 -23 51s-35.333 19 -60 19h-237l14 383h458v-164h-296z" />
    <glyph glyph-name="six.tf" 
d="M356 435c70 0 126.334 -20.332 169.001 -60.999s64 -94 64 -160c0 -67.333 -24.5 -122.333 -73.5 -165s-111.167 -64 -186.5 -64c-90 0 -161.5 29.667 -214.5 89s-79.5 142 -79.5 248c0 124 32 218.333 96 282.999c53.333 53.333 120 80 200 80
c63.334 0 116.667 -14.667 160 -44s72 -71 86 -125l-180 -36c-10 33.333 -34.333 50 -73 50c-26.667 0 -50 -11 -70 -33c-26 -30 -39.333 -69.333 -40 -118c37.333 37.333 84.666 56 141.999 56zM323.001 135.001c23.333 0 43.833 8.16699 61.5 24.5s26.5 36.5 26.5 60.5
c0 24.667 -8.66699 45.167 -26 61.5s-38 24.5 -62 24.5c-23.333 0 -43.666 -8.16699 -60.999 -24.5s-26 -36.833 -26 -61.5c0 -24 8.66699 -44.167 26 -60.5s37.666 -24.5 60.999 -24.5z" />
    <glyph glyph-name="seven.tf" 
d="M564 670v-141l-248 -529h-205l245 505h-321v165h529z" />
    <glyph glyph-name="eight.tf" 
d="M461 346c76.667 -30.667 115 -84.334 115 -161.001c0 -58 -25.167 -105.833 -75.5 -143.5s-116.166 -56.5 -197.499 -56.5c-80.667 0 -146.334 18.833 -197.001 56.5s-76 85.834 -76 144.501c0 75.333 38.667 129 116 161c-61.333 29.333 -92 78.333 -92 147
c0 54 23.667 99.333 71 136s107 55 179 55c71.334 0 130.667 -18.333 178 -55s71 -82 71 -136c0 -68 -30.667 -117.333 -92 -148zM303 545c-21.333 0 -39.501 -6.16602 -54.501 -18.499c-15 -12.334 -22.5 -28.834 -22.5 -49.5c0 -20.667 7.5 -37.167 22.5 -49.5
s33.167 -18.5 54.5 -18.5c21.334 0 39.667 6.16699 55 18.5s23 29.166 23 50.499c0 20 -7.66699 36.167 -23 48.5s-33.666 18.5 -54.999 18.5zM302.999 131.001c22.667 0 41.833 6.5 57.5 19.5s23.5 30.5 23.5 52.5s-7.83301 39.5 -23.5 52.5s-34.834 19.5 -57.5 19.5
c-22.667 0 -41.667 -6.5 -57 -19.5s-23 -30.5 -23 -52.5s7.66699 -39.5 23 -52.5s34.333 -19.5 57 -19.5z" />
    <glyph glyph-name="nine.tf" 
d="M280 684c90 0 161.5 -29.666 214.5 -88.999c53 -59.334 79.5 -142.001 79.5 -248.001c0 -122.667 -32 -217 -96 -283c-54.667 -53.333 -121.334 -80 -200 -80c-63.333 0 -116.666 14.667 -159.999 44s-72 71 -86 125l180 36c9.33301 -33.333 33.666 -50 72.999 -50
c26.667 0 50 11 70 33c24.667 28.667 37.667 67.667 39 117c-38 -36.667 -85 -55 -141 -55c-70 0 -126.333 20.333 -169 61s-64 94 -64 160c0 67.333 24.5 122.333 73.5 165s111.167 64 186.5 64zM286 363.001c23.333 0 43.666 8.16699 60.999 24.5s26 36.833 26 61.5
c0 24 -8.66699 44.167 -26 60.5s-37.666 24.5 -60.999 24.5s-44 -8.16699 -62 -24.5s-27 -36.5 -27 -60.5c0 -24.667 8.83301 -45.167 26.5 -61.5s38.5 -24.5 62.5 -24.5z" />
    <glyph glyph-name="zero.zero.tf" 
d="M305 685c84.667 0 153.167 -32.167 205.5 -96.5c52.333 -64.334 78.5 -148.834 78.5 -253.5c0 -104.667 -26 -189.167 -78 -253.5s-120.667 -96.5 -206 -96.5s-154.166 32.167 -206.499 96.5s-78.5 148.833 -78.5 253.5s26.167 189.167 78.5 253.5
s121.166 96.5 206.499 96.5zM305 520c-28.667 0 -51 -15.667 -67 -47s-24 -77.333 -24 -138c0 -12 0.666992 -27.333 2 -46l146 199c-14.667 21.333 -33.667 32 -57 32zM305 149c28 0 50 15.668 66 47.001s24 77.666 24 138.999c0 19.333 -0.333008 33.333 -1 42l-146 -197
c14.667 -20.667 33.667 -31 57 -31z" />
    <glyph glyph-name="zero.zero" horiz-adv-x="657" 
d="M332 685c90.667 0 163.667 -32.167 219 -96.5c55.333 -64.334 83 -148.834 83 -253.5c0 -104.667 -27.667 -189.167 -83 -253.5s-128.333 -96.5 -219 -96.5c-91.333 0 -164.833 32.167 -220.5 96.5s-83.5 148.833 -83.5 253.5s28 189.167 84 253.5s129.333 96.5 220 96.5
zM332 520c-34 0 -60.833 -16.167 -80.5 -48.5s-29.5 -77.833 -29.5 -136.5c0 -20.667 1.66699 -41.667 5 -63l165 224c-17.333 16 -37.333 24 -60 24zM332 149c33.334 0 59.667 16.332 79 48.999s29 78.334 29 137.001c0 22.667 -1.66699 45 -5 67l-166 -226
c16.667 -18 37.667 -27 63 -27z" />
    <glyph glyph-name="zero.dnom" horiz-adv-x="412" 
d="M207 394c54 0 97.5 -18.5 130.5 -55.5s49.5 -85.833 49.5 -146.5s-16.5 -109.5 -49.5 -146.5s-76.5 -55.5 -130.5 -55.5c-54.667 0 -98.5 18.5 -131.5 55.5s-49.5 85.833 -49.5 146.5s16.5 109.5 49.5 146.5s76.833 55.5 131.5 55.5zM207 95c35.333 0 53 32.333 53 97
c0 64 -17.667 96 -53 96c-36 0 -54 -32 -54 -96c0 -64.667 18 -97 54 -97z" />
    <glyph glyph-name="one.dnom" horiz-adv-x="263" 
d="M219 0h-122v237l-83 -45v119l124 76h81v-387z" />
    <glyph glyph-name="two.dnom" horiz-adv-x="362" 
d="M212 103h118.001v-103h-300v75l138 125c12.667 12 21.167 20.167 25.5 24.5s8.66602 10 12.999 17s6.5 13.833 6.5 20.5c0 9.33301 -3 16.833 -9 22.5s-13.667 8.5 -23 8.5c-26 0 -39.333 -17.333 -40 -52l-112 21c0 40 13.833 72.333 41.5 97s64.5 37 110.5 37
c45.333 0 81.833 -11.833 109.5 -35.5s41.5 -56.167 41.5 -97.5c0 -25.333 -6.33301 -47 -19 -65s-32.334 -38 -59 -60z" />
    <glyph glyph-name="three.dnom" horiz-adv-x="354" 
d="M280 197c34.667 -18 52.002 -44.333 52.002 -79c0 -36 -15 -66.333 -45 -91s-67.667 -37 -113 -37c-43.333 0 -79.333 11.5 -108 34.5s-45 53.5 -49 91.5l110 21c7.33301 -31.333 23.666 -47 48.999 -47c26 0 39 10.333 39 31c0 9.33301 -4 17 -12 23s-18.333 9 -31 9
h-44v84h40c29.333 0 44 10 44 30c0 9.33301 -3.5 16.833 -10.5 22.5s-16.5 8.5 -28.5 8.5c-25.334 0 -39.667 -15.333 -43 -46l-110 21c3.33301 34 19.166 62.667 47.499 86s63.166 35 104.499 35c44.667 0 81.334 -11.667 110.001 -35s43 -53 43 -89
c0 -30.667 -15 -55 -45 -73z" />
    <glyph glyph-name="four.dnom" horiz-adv-x="389" 
d="M374 59h-47v-59h-114v59h-196v110l167 218h143v-229h47v-99zM213 158v108l-80 -108h80z" />
    <glyph glyph-name="five.dnom" horiz-adv-x="357" 
d="M145 252h52.998c44.667 0 79.334 -11.167 104.001 -33.5s37 -52.833 37 -91.5c0 -41.333 -14.167 -74.5 -42.5 -99.5s-66.166 -37.5 -113.499 -37.5c-45.333 0 -83 11.833 -113 35.5s-47 53.5 -51 89.5l114 19c6 -28.667 22.333 -43 49 -43c12 0 21.833 3.16699 29.5 9.5
s11.5 14.833 11.5 25.5c0 22.667 -14.667 34 -44 34h-147l11 225h276v-105h-173z" />
    <glyph glyph-name="six.dnom" horiz-adv-x="368" 
d="M214 252c40 0 72.333 -11.834 97 -35.501s37 -54.5 37 -92.5c0 -39.333 -14.333 -71.5 -43 -96.5s-65.334 -37.5 -110.001 -37.5c-54 0 -96.667 17 -128 51s-47 81.333 -47 142c0 72 19 127 57 165c30.667 30.667 70.334 46 119.001 46c40 0 73 -9.66699 99 -29
s42 -46.333 48 -81l-113 -18c-4 20 -17 30 -39 30c-13.334 0 -24.667 -5.66699 -34 -17s-15.666 -27.666 -18.999 -48.999c23.333 14.667 48.666 22 75.999 22zM191 83.999c13.333 0 24.333 4.16699 33 12.5s13 18.833 13 31.5s-4.33301 23.167 -13 31.5
s-19.667 12.5 -33 12.5s-24.333 -4.16699 -33 -12.5s-13 -18.833 -13 -31.5s4.33301 -23.167 13 -31.5s19.667 -12.5 33 -12.5z" />
    <glyph glyph-name="seven.dnom" horiz-adv-x="314" 
d="M306 386v-93l-130 -294h-131l131 282h-168v105h298z" />
    <glyph glyph-name="eight.dnom" horiz-adv-x="381" 
d="M292 201c43.333 -17.334 65 -48.667 65 -94c0 -34 -15.333 -62 -46 -84s-71 -33 -121 -33c-49.333 0 -89.333 11 -120 33s-46 50 -46 84c0 44.667 21.333 76 64 94c-32.667 17.333 -49 44.666 -49 81.999c0 30.667 14.667 56.834 44 78.501s65.333 32.5 108 32.5
s78.5 -10.833 107.5 -32.5s43.5 -47.834 43.5 -78.5c0 -37.334 -16.667 -64.667 -50 -82zM191 306c-12.667 0 -23 -3.16602 -31 -9.49902s-12 -14.833 -12 -25.5s4.16699 -19.334 12.5 -26.001s18.5 -10 30.5 -10c11.333 0 21.333 3.5 30 10.5s13 15.5 13 25.5
c0 10.667 -4.16699 19.167 -12.5 25.5s-18.5 9.5 -30.5 9.5zM191 83.001c12.667 0 23.1689 3.5 31.502 10.5s12.5 15.833 12.5 26.5c0 11.333 -4.16699 20.333 -12.5 27s-18.833 10 -31.5 10s-23.334 -3.33301 -32.001 -10s-13 -15.667 -13 -27
c0 -10.667 4.16699 -19.5 12.5 -26.5s19.166 -10.5 32.499 -10.5z" />
    <glyph glyph-name="nine.dnom" horiz-adv-x="368" 
d="M173 394c54 0 96.668 -16.999 128.001 -50.999s47 -81.333 47 -142c0 -72 -19 -126.667 -57 -164c-31.333 -31.333 -70.666 -47 -117.999 -47c-40.667 0 -73.834 9.66699 -99.501 29s-41.834 46.666 -48.501 81.999l114 18c4 -20.667 16.667 -31 38 -31
c12.667 0 24 5.66699 34 17c10.667 11.333 17 28.333 19 51c-22 -15.333 -47.333 -23 -76 -23c-40 0 -72.333 11.667 -97 35s-37 54.333 -37 93c0 39.333 14.5 71.333 43.5 96s65.5 37 109.5 37zM177.001 212.001c13.333 0 24.333 4.16699 33 12.5s13 18.833 13 31.5
c0 13.334 -4.33301 24.167 -13 32.499c-8.66699 8.33301 -19.667 12.5 -33 12.5c-12.667 0 -23.334 -4.16699 -32.001 -12.5s-13 -19.166 -13 -32.499c0 -12.667 4.33301 -23.167 13 -31.5s19.334 -12.5 32.001 -12.5z" />
    <glyph glyph-name="zero.numr" horiz-adv-x="412" 
d="M207 680c54 0 97.5 -18.5 130.5 -55.5s49.5 -85.833 49.5 -146.5s-16.5 -109.5 -49.5 -146.5s-76.5 -55.5 -130.5 -55.5c-54.667 0 -98.5 18.5 -131.5 55.5s-49.5 85.833 -49.5 146.5s16.5 109.5 49.5 146.5s76.833 55.5 131.5 55.5zM207 381c35.333 0 53 32.333 53 97
c0 64 -17.667 96 -53 96c-36 0 -54 -32 -54 -96c0 -64.667 18 -97 54 -97z" />
    <glyph glyph-name="one.numr" horiz-adv-x="263" 
d="M219 283h-122v237l-83 -45v119l124 76h81v-387z" />
    <glyph glyph-name="two.numr" horiz-adv-x="362" 
d="M212 387h118.001v-103h-300v75l138 125c12.667 12 21.167 20.167 25.5 24.5s8.66602 10 12.999 17s6.5 13.833 6.5 20.5c0 9.33301 -3 16.833 -9 22.5s-13.667 8.5 -23 8.5c-26 0 -39.333 -17.333 -40 -52l-112 21c0 40 13.833 72.333 41.5 97s64.5 37 110.5 37
c45.333 0 81.833 -11.833 109.5 -35.5s41.5 -56.167 41.5 -97.5c0 -25.334 -6.33301 -47.001 -19 -65c-12.667 -18 -32.334 -38 -59 -60z" />
    <glyph glyph-name="three.numr" horiz-adv-x="354" 
d="M280 483c34.667 -18 52.002 -44.333 52.002 -79c0 -36 -15 -66.333 -45 -91s-67.667 -37 -113 -37c-43.333 0 -79.333 11.5 -108 34.5s-45 53.5 -49 91.5l110 21c7.33301 -31.333 23.666 -47 48.999 -47c26 0 39 10.333 39 31c0 9.33301 -4 17 -12 23s-18.333 9 -31 9
h-44v84h40c29.333 0 44 10 44 30c0 9.33301 -3.5 16.833 -10.5 22.5s-16.5 8.5 -28.5 8.5c-25.334 0 -39.667 -15.333 -43 -46l-110 21c3.33301 34 19.166 62.667 47.499 86s63.166 35 104.499 35c44.667 0 81.334 -11.667 110.001 -35s43 -53 43 -89
c0 -30.667 -15 -55 -45 -73z" />
    <glyph glyph-name="four.numr" horiz-adv-x="389" 
d="M374 342h-47v-59h-114v59h-196v110l167 218h143v-229h47v-99zM213 441v108l-80 -108h80z" />
    <glyph glyph-name="five.numr" horiz-adv-x="357" 
d="M145 537h52.998c44.667 0 79.334 -11.167 104.001 -33.5s37 -52.833 37 -91.5c0 -41.333 -14.167 -74.5 -42.5 -99.5s-66.166 -37.5 -113.499 -37.5c-45.333 0 -83 11.833 -113 35.5s-47 53.5 -51 89.5l114 19c6 -28.667 22.333 -43 49 -43c12 0 21.833 3.16699 29.5 9.5
s11.5 14.833 11.5 25.5c0 22.667 -14.667 34 -44 34h-147l11 225h276v-105h-173z" />
    <glyph glyph-name="six.numr" horiz-adv-x="368" 
d="M214 538c40 0 72.333 -11.833 97 -35.5s37 -54.5 37 -92.5c0 -39.333 -14.333 -71.5 -43 -96.5s-65.334 -37.5 -110.001 -37.5c-54 0 -96.667 17 -128 51s-47 81.333 -47 142c0 72 19 127 57 165c30.667 30.667 70.334 46 119.001 46c40 0 73 -9.66699 99 -29
s42 -46.333 48 -81l-113 -18c-4 20 -17 30 -39 30c-13.334 0 -24.667 -5.66699 -34 -17c-9.33301 -11.3359 -15.666 -27.6689 -18.999 -49c23.333 14.667 48.666 22 75.999 22zM191 370c13.333 0 24.333 4.16699 33 12.5s13 18.833 13 31.5s-4.33301 23.167 -13 31.5
s-19.667 12.5 -33 12.5s-24.333 -4.16699 -33 -12.5s-13 -18.833 -13 -31.5s4.33301 -23.167 13 -31.5s19.667 -12.5 33 -12.5z" />
    <glyph glyph-name="seven.numr" horiz-adv-x="314" 
d="M306 670v-93l-130 -294h-131l131 282h-168v105h298z" />
    <glyph glyph-name="eight.numr" horiz-adv-x="381" 
d="M292 487c43.333 -17.333 65 -48.666 65 -93.999c0 -34 -15.333 -62 -46 -84s-71 -33 -121 -33c-49.333 0 -89.333 11 -120 33s-46 50 -46 84c0 44.667 21.333 76 64 94c-32.667 17.333 -49 44.666 -49 81.999c0 30.668 14.667 56.835 44 78.5
c29.333 21.667 65.333 32.5 108 32.5s78.5 -10.833 107.5 -32.5s43.5 -47.834 43.5 -78.501c0 -37.333 -16.667 -64.666 -50 -81.999zM191 592c-12.667 0 -23 -3.16602 -31 -9.49902s-12 -14.833 -12 -25.5s4.16699 -19.334 12.5 -26.001s18.5 -10 30.5 -10
c11.333 0 21.333 3.5 30 10.5s13 15.5 13 25.5c0 10.667 -4.16699 19.167 -12.5 25.5s-18.5 9.5 -30.5 9.5zM191 369.001c12.667 0 23.1689 3.5 31.502 10.5s12.5 15.833 12.5 26.5c0 11.333 -4.16699 20.333 -12.5 27s-18.833 10 -31.5 10s-23.334 -3.33301 -32.001 -10
s-13 -15.667 -13 -27c0 -10.667 4.16699 -19.5 12.5 -26.5s19.166 -10.5 32.499 -10.5z" />
    <glyph glyph-name="nine.numr" horiz-adv-x="368" 
d="M173 680c54 0 96.668 -17 128.001 -51s47 -81.333 47 -142c0 -72 -19 -126.667 -57 -164c-31.333 -31.333 -70.666 -47 -117.999 -47c-40.667 0 -73.834 9.66699 -99.501 29c-25.667 19.334 -41.834 46.667 -48.501 82l114 18c4 -20.667 16.667 -31 38 -31
c12.667 0 24 5.66699 34 17c10.667 11.333 17 28.333 19 51c-22 -15.333 -47.333 -23 -76 -23c-40 0 -72.333 11.667 -97 35s-37 54.333 -37 93c0 39.333 14.5 71.333 43.5 96s65.5 37 109.5 37zM177.001 498c13.333 0 24.333 4.16699 33 12.5s13 18.833 13 31.5
c0 13.333 -4.33301 24.166 -13 32.499s-19.667 12.5 -33 12.5c-12.667 0 -23.334 -4.16699 -32.001 -12.5c-8.66699 -8.33398 -13 -19.167 -13 -32.499c0 -12.667 4.33301 -23.167 13 -31.5s19.334 -12.5 32.001 -12.5z" />
    <glyph glyph-name="backslash.case" horiz-adv-x="451" 
d="M430 0h-170l-238 670h170z" />
    <glyph glyph-name="periodcentered.case" horiz-adv-x="255" 
d="M127 432c30 0 54.833 -10.333 74.5 -31s29.5 -45 29.5 -73c0 -29.333 -9.83301 -53.666 -29.5 -72.999s-44.5 -29 -74.5 -29s-54.833 9.66699 -74.5 29s-29.5 43.666 -29.5 72.999c0 28 9.83301 52.333 29.5 73s44.5 31 74.5 31z" />
    <glyph glyph-name="bullet.case" horiz-adv-x="407" 
d="M204 502c50.667 0 93.334 -17.833 128.001 -53.5s52 -77.5 52 -125.5c0 -50.667 -17 -93 -51 -127s-77 -51 -129 -51s-95 17 -129 51s-51 76.333 -51 127c0 48 17.167 89.833 51.5 125.5s77.166 53.5 128.499 53.5z" />
    <glyph glyph-name="colon.case" horiz-adv-x="255" 
d="M127 570c30 0 54.833 -10.167 74.5 -30.5c19.667 -20.334 29.5 -44.501 29.5 -72.5c0 -30 -9.83301 -54.667 -29.5 -74s-44.5 -29 -74.5 -29s-54.833 9.66699 -74.5 29s-29.5 44 -29.5 74c0 28 9.83301 52.167 29.5 72.5s44.5 30.5 74.5 30.5zM127 271
c30 0 54.833 -10.333 74.5 -31s29.5 -45 29.5 -73c0 -29.333 -9.83301 -53.666 -29.5 -72.999s-44.5 -29 -74.5 -29s-54.833 9.66699 -74.5 29s-29.5 43.666 -29.5 72.999c0 28 9.83301 52.333 29.5 73s44.5 31 74.5 31z" />
    <glyph glyph-name="exclamdown.case" horiz-adv-x="306" 
d="M157 475c-29.333 0 -53.833 10 -73.5 30s-29.5 43.667 -29.5 71c0 28 9.66699 51.5 29 70.5s44 28.5 74 28.5s55 -9.5 75 -28.5s30 -42.5 30 -70.5c0 -27.333 -10 -51 -30 -71s-45 -30 -75 -30zM47 31l15 400h182l15 -400v-31h-212v31z" />
    <glyph glyph-name="questiondown.case" horiz-adv-x="551" 
d="M282 482c-30 0 -54.833 9.83398 -74.5 29.501s-29.5 43.167 -29.5 70.5c0 28.668 9.66699 52.335 29 71c19.333 18.667 44.333 28 75 28s55.667 -9.33301 75 -28s29 -42.334 29 -71.001c0 -27.333 -9.83301 -50.833 -29.5 -70.5s-44.5 -29.5 -74.5 -29.5zM342 227.001
l186.002 -37.0029c-11.334 -58 -40.001 -105.667 -86.001 -143s-107.333 -56 -184 -56c-70.667 0 -128.334 20.5 -173.001 61.5s-67 92.167 -67 153.5c0 46.667 15 86.334 45 119.001s71.333 55.334 124 68.001v46h184l-1 -166h-84c-24 0 -43.333 -5.16699 -58 -15.5
s-22 -24.166 -22 -41.499c0 -18.667 5.83301 -33.667 17.5 -45s26.834 -17 45.5 -17c20 0 36.333 6.66699 49 20s20.667 31 24 53z" />
    <glyph glyph-name="semicolon.case" horiz-adv-x="290" 
d="M162 570c30 0 55.001 -10.167 75.001 -30.5c20 -20.334 30 -44.501 30 -72.5c0 -29.333 -9.83301 -53.833 -29.5 -73.5s-44.834 -29.5 -75.501 -29.5c-30 0 -54.667 9.83301 -74 29.5s-29 44.167 -29 73.5c0 28 9.83301 52.167 29.5 72.5s44.167 30.5 73.5 30.5z
M140.001 -132h-143l58 308h202v-4z" />
    <glyph glyph-name="slash.case" horiz-adv-x="485" 
d="M192 0h-153l253 670h153z" />
    <glyph glyph-name="braceleft.case" horiz-adv-x="417" 
d="M276 496l-0.000976562 -59.999c0 -52 -18.667 -87 -56 -105c37.333 -18 56 -53 56 -105v-52c0 -17.333 8 -26 24 -26h84v-148h-144c-40 0 -72.167 12 -96.5 36s-36.5 56 -36.5 96v69c0 24.667 -17 41.667 -51 51l-36 10v139l36 10
c16.667 5.33496 29.334 11.668 38.001 19c8.66699 7.33301 13 18 13 32v76c0 39.333 12.167 71.166 36.5 95.499s56.5 36.5 96.5 36.5h144v-148h-84c-6.66895 0 -12.3359 -2.5 -17 -7.5c-4.66699 -5 -7 -11.167 -7 -18.5z" />
    <glyph glyph-name="braceright.case" horiz-adv-x="417" 
d="M397 401v-139.002l-36 -10c-33.333 -9.33301 -50 -26.333 -50 -51v-69c0 -40 -12.333 -72 -37 -96s-57 -36 -97 -36h-144v148h85c15.333 0 23 8.66699 23 26v52c0 52 19 87 57 105c-38 18 -57 53 -57 105v60c0 17.333 -7.66699 26 -23 26h-85v148h144
c40 0 72.333 -12.167 97 -36.5c24.667 -24.334 37 -56.167 37 -95.499v-76c0 -14 4.16699 -24.667 12.5 -32s20.833 -13.666 37.5 -18.999z" />
    <glyph glyph-name="bracketleft.case" horiz-adv-x="415" 
d="M216 522v-374h166v-148h-335v670h335v-148h-166z" />
    <glyph glyph-name="bracketright.case" horiz-adv-x="415" 
d="M368 670v-670h-335v148h166v374h-166v148h335z" />
    <glyph glyph-name="parenleft.case" horiz-adv-x="363" 
d="M225 335c0 -50 8.66699 -91.667 26 -125c17.334 -33.333 44.667 -72 82 -116l-121 -111c-57.333 52 -102 106 -134 162s-48 119.333 -48 190s16 134 48 190s76.667 110 134 162l116 -111c-24.667 -30.667 -42.667 -54.5 -54 -71.5s-22.333 -40.833 -33 -71.5
s-16 -63.334 -16 -98z" />
    <glyph glyph-name="parenright.case" horiz-adv-x="363" 
d="M35 576l117.001 111c56.667 -52.667 101 -106.834 133 -162.501s48 -118.834 48 -189.5c0 -70 -16 -133.167 -48 -189.5s-76.333 -110.5 -133 -162.5l-122 111c37.333 44 64.666 82.667 81.999 116s26 75 26 125c0 34.667 -5.33301 67.334 -16 98.001
s-21.667 54.5 -33 71.5s-29.333 40.833 -54 71.5z" />
    <glyph glyph-name="emdash.case" horiz-adv-x="1040" 
d="M980 253h-920v147h920v-147z" />
    <glyph glyph-name="endash.case" horiz-adv-x="620" 
d="M560 253h-500v147h500v-147z" />
    <glyph glyph-name="hyphen.case" horiz-adv-x="455" 
d="M395 249h-335v155h335v-155z" />
    <glyph glyph-name="guillemotleft.case" horiz-adv-x="539" 
d="M25 322l99 178h170l-99 -178l99 -178h-170zM245 322l99 178h170l-99 -178l99 -178h-170z" />
    <glyph glyph-name="guillemotright.case" horiz-adv-x="539" 
d="M25 144l99 178l-99 178h170l99 -178l-99 -178h-170zM245 144l99 178l-99 178h170l99 -178l-99 -178h-170z" />
    <glyph glyph-name="guilsinglleft.case" horiz-adv-x="319" 
d="M25 322l99 178h170l-99 -178l99 -178h-170z" />
    <glyph glyph-name="guilsinglright.case" horiz-adv-x="319" 
d="M25 144l99 178l-99 178h170l99 -178l-99 -178h-170z" />
    <glyph glyph-name="cent.tf" 
d="M398 223l172 -32.999c-8.66699 -48.667 -29.667 -90.167 -63 -124.5s-74.333 -57.833 -123 -70.5v-125h-154v125c-59.333 14.667 -108 45.167 -146 91.5s-57 101.5 -57 165.5c0 64.667 19 120.167 57 166.5s86.667 76.833 146 91.5v120h154v-120
c48 -12.668 88.667 -35.835 122 -69.501c33.333 -33.667 54.333 -74.5 63 -122.5l-172 -36c-5.33301 26 -16 45.833 -32 59.5s-35.333 20.5 -58 20.5c-29.333 0 -53.333 -10.5 -72 -31.5s-28 -47.167 -28 -78.5s9.33301 -57.333 28 -78s42.667 -31 72 -31
c22.667 0 42 6.83301 58 20.5s27 33.5 33 59.5z" />
    <glyph glyph-name="dollar.tf" 
d="M577 217c0 -56.667 -18.1689 -102.001 -54.502 -136.001s-82.5 -56.333 -138.5 -67v-114h-155v117c-54 12.667 -99.667 36.334 -137 71.001s-59.666 75.667 -66.999 123l178 34c12.667 -61.333 49.334 -92 110.001 -92c21.333 0 39 4.5 53 13.5s21 20.5 21 34.5
c0 22 -14.333 36.333 -43 43l-128 32c-116.667 27.333 -175 87.666 -175 180.999c0 54 17.167 98.167 51.5 132.5s79.833 56.833 136.5 67.5v113h155v-116c52.667 -11.333 95.5 -33.5 128.5 -66.5s52.833 -73.5 59.5 -121.5l-172 -30c-10 58 -43 87 -99 87
c-20 0 -36 -4.5 -48 -13.5s-18 -21.167 -18 -36.5c0 -21.333 12 -34.666 36 -39.999l127 -30c59.333 -14.667 104 -37 134 -67s45 -69.667 45 -119z" />
    <glyph glyph-name="Euro.tf" 
d="M403 277l188.002 -34c-10 -76 -39.167 -138 -87.5 -186s-108.5 -72 -180.5 -72c-66.667 0 -123.334 20.667 -170.001 62s-78.334 99 -95.001 173h-46v96h34v19v19h-34v95h46c16 74 47.333 131.833 94 173.5s103.667 62.5 171 62.5c72 0 132.333 -24.167 181 -72.5
c48.6689 -48.333 77.3359 -110.833 86 -187.5l-184 -33c-12.667 87.333 -40.334 131 -83 131c-36.667 0 -61.667 -24.667 -75 -74h116l-18 -95h-110v-19v-19h107l-18 -96h-77c14 -48.667 39 -73 75 -73c41.333 0 68 43.333 80 130z" />
    <glyph glyph-name="florin.tf" 
d="M487 528c-17.333 0 -32.167 -5.16699 -44.5 -15.5s-19.833 -24.833 -22.5 -43.5l-13 -69h121v-146h-147l-42 -231c-10.667 -57.333 -35.334 -103 -74 -137c-38.667 -34 -86 -51 -142 -51c-40 0 -79.333 12.333 -118 37l52 136c22 -8 39 -12 51 -12
s22.167 3.66699 30.5 11s13.5 17 15.5 29l40 218h-88v146h114l15 82c10.667 61.333 38 110.5 82 147.5s96.667 55.5 158 55.5c48 0 92 -11.333 132 -34l-57 -142c-22.667 12.667 -43.667 19 -63 19z" />
    <glyph glyph-name="sterling.tf" 
d="M574 162l0.000976562 -161.999h-537v122l62 20v85h-62v152h62v86c0 66 21.667 119.167 65 159.5s100.666 60.5 171.999 60.5c66.667 0 121.5 -19.333 164.5 -58s66.5 -89.334 70.5 -152.001l-176 -33c-4 29.333 -10.833 49.333 -20.5 60s-22.5 16 -38.5 16
c-15.333 0 -27.5 -4.83301 -36.5 -14.5s-13.5 -22.5 -13.5 -38.5v-86h157v-152h-157v-65h288z" />
    <glyph glyph-name="yen.tf" 
d="M440 325h94v-107h-137v-37h137v-106h-137v-75h-193v75h-128v106h128v37h-128v107h86l-153 345h201l91 -261l90 261h209z" />
    <glyph glyph-name="approxequal.tf" 
d="M547 464l0.00195312 -133c-30.667 -14.667 -67 -22 -109 -22c-37.333 0 -80 8.5 -128 25.5s-89 25.5 -123 25.5c-54.667 0 -96 -9.66699 -124 -29v129c29.333 22 70.666 33 123.999 33c35.333 0 77.666 -8.5 126.999 -25.5s91.333 -25.5 126 -25.5
c44 0 79.667 7.33301 107 22zM547.002 295l0.000976562 -133c-30.667 -14.667 -67 -22 -109 -22c-37.333 0 -80 8.5 -128 25.5s-89 25.5 -123 25.5c-54.667 0 -96 -9.66699 -124 -29v130c28.667 21.333 70 32 124 32c35.333 0 77.666 -8.5 126.999 -25.5
s91.333 -25.5 126 -25.5c44 0 79.667 7.33301 107 22z" />
    <glyph glyph-name="divide.tf" 
d="M304 570c23.333 0 43 -8.16699 59 -24.5s24 -35.833 24 -58.5c0 -23.333 -7.83301 -42.833 -23.5 -58.5s-35.5 -23.5 -59.5 -23.5s-43.833 7.83301 -59.5 23.5s-23.5 35.167 -23.5 58.5c0 22.667 7.83301 42.167 23.5 58.5s35.5 24.5 59.5 24.5zM548 229h-486v145h486
v-145zM304 197c23.333 0 43 -8 59 -24s24 -35.333 24 -58c0 -23.333 -7.83301 -43 -23.5 -59s-35.5 -24 -59.5 -24s-43.833 7.83301 -59.5 23.5s-23.5 35.5 -23.5 59.5c0 22.667 7.83301 42 23.5 58s35.5 24 59.5 24z" />
    <glyph glyph-name="equal.tf" 
d="M548 340h-486v138h486v-138zM548 142h-486v138h486v-138z" />
    <glyph glyph-name="greater.tf" 
d="M340 326l-230 60v168l415 -143v-170l-415 -143v167z" />
    <glyph glyph-name="greaterequal.tf" 
d="M348 413l-247 42v152l415 -108v-172l-415 -106v148zM516 58h-415v145h415v-145z" />
    <glyph glyph-name="less.tf" 
d="M500 98l-415 143v170l415 143v-168l-230 -60l230 -61v-167z" />
    <glyph glyph-name="lessequal.tf" 
d="M510 221l-415 106v172l415 108v-152l-247 -42l247 -44v-148zM510 203v-145h-416v145h416z" />
    <glyph glyph-name="minus.tf" 
d="M548 229h-486v145h486v-145z" />
    <glyph glyph-name="multiply.tf" 
d="M407 302l130 -130l-102 -102l-130 130l-131 -130l-101 102l130 130l-130 129l101 102l131 -130l130 130l102 -102z" />
    <glyph glyph-name="notequal.tf" 
d="M389 340l-32 -60h191v-138h-266l-47 -87h-129l47 87h-91v138h166l32 60h-198v138h273l41 76h129l-41 -76h84v-138h-159z" />
    <glyph glyph-name="plus.tf" 
d="M548 229h-170v-172h-146v172h-170v145h170v172h146v-172h170v-145z" />
    <glyph glyph-name="plusminus.tf" 
d="M548 482v-145h-170v-135h-146v135h-170v145h170v156h146v-156h170zM62 145h486v-145h-486v145z" />
    <glyph glyph-name="bar.case" horiz-adv-x="263" 
d="M216 -41h-169v752h169v-752z" />
    <glyph glyph-name="at.case" horiz-adv-x="928" 
d="M679 506l-0.00292969 -275.002c0 -12.667 4 -22.334 12 -29.001s18.333 -10 31 -10c22.6699 0 40.3369 15.5 53.001 46.5c12.667 31 19 67.5 19 109.5c0 87.333 -30.5 158 -91.5 212s-136.833 81 -227.5 81c-96.667 0 -177.5 -31.167 -242.5 -93.5
s-97.5 -141.166 -97.5 -236.499c0 -94.667 31.833 -172.167 95.5 -232.5s144.167 -90.5 241.5 -90.5c84 0 163 28 237 84l45 -72c-75.333 -64 -169 -96 -281 -96c-125.333 0 -228.333 38 -309 114s-121 172.667 -121 290c0 120 41.5 219.5 124.5 298.5
s185.5 118.5 307.5 118.5c115.333 0 212.5 -35.167 291.5 -105.5s118.5 -160.166 118.5 -269.499c0 -29.333 -3.33301 -57.166 -10 -83.499s-17.167 -52 -31.5 -77c-14.3369 -25 -35.1699 -44.833 -62.5 -59.5c-27.335 -14.667 -59.668 -22 -97 -22
c-62 0 -104 20.333 -126 61c-30 -40 -74 -60 -132 -60c-55.333 0 -101.166 18.333 -137.499 55s-54.5 86 -54.5 148s18.333 111.333 55 148s82.334 55 137.001 55c48.667 0 87.667 -14.667 117 -44v35h136zM465.997 231.998c21.333 0 39.5 7.5 54.5 22.5
s22.5 34.833 22.5 59.5c0 24 -7.5 43.333 -22.5 58s-33.167 22 -54.5 22s-39.666 -7.33301 -54.999 -22s-23 -34 -23 -58c0 -24.667 7.66699 -44.5 23 -59.5c15.334 -15 33.667 -22.5 54.999 -22.5z" />
    <glyph glyph-name="caron.alt" horiz-adv-x="600" 
d="M352 450h-127v200h168z" />
    </font>
</defs>
</svg>
