<svg width="90" height="92" viewBox="0 0 90 92" fill="none" xmlns="http://www.w3.org/2000/svg">
<path d="M63.9135 56.1839C63.1074 55.4502 61.8689 55.5218 61.1509 56.339C57.0696 60.9741 51.1844 63.6307 44.9998 63.6307C38.8172 63.6307 32.93 60.9741 28.8487 56.339C28.1268 55.5218 26.8922 55.4502 26.0861 56.1839C25.28 56.9157 25.2135 58.1724 25.9335 58.9916C30.7563 64.4679 37.7059 67.6077 44.9998 67.6077C52.2957 67.6077 59.2452 64.4659 64.0661 58.9916C64.7861 58.1724 64.7176 56.9157 63.9135 56.1839Z" fill="#FAB900"/>
<path d="M45 0C20.1874 0 0 20.5169 0 45.7346C0 70.9523 20.1874 91.4692 45 91.4692C69.8126 91.4692 90 70.9523 90 45.7346C90 20.5169 69.8126 0 45 0ZM45 87.4923C22.3435 87.4923 3.91304 68.761 3.91304 45.7346C3.91304 22.7082 22.3435 3.97692 45 3.97692C67.6565 3.97692 86.087 22.7082 86.087 45.7346C86.087 68.761 67.6565 87.4923 45 87.4923Z" fill="white"/>
<path d="M60.6522 31.8154C55.2581 31.8154 50.8696 36.2755 50.8696 41.7576C50.8696 42.8553 51.7462 43.7461 52.8262 43.7461C53.9062 43.7461 54.7827 42.8553 54.7827 41.7576C54.7827 38.4688 57.4162 35.7923 60.6522 35.7923C63.8883 35.7923 66.5218 38.4688 66.5218 41.7576C66.5218 42.8553 67.3983 43.7461 68.4783 43.7461C69.5583 43.7461 70.4348 42.8553 70.4348 41.7576C70.4348 36.2755 66.0464 31.8154 60.6522 31.8154Z" fill="#FAB900"/>
<path d="M35.2176 41.7576C35.2176 42.8553 36.0941 43.7461 37.1741 43.7461C38.2541 43.7461 39.1306 42.8553 39.1306 41.7576C39.1306 36.2755 34.7422 31.8154 29.348 31.8154C23.9539 31.8154 19.5654 36.2755 19.5654 41.7576C19.5654 42.8553 20.442 43.7461 21.522 43.7461C22.602 43.7461 23.4785 42.8553 23.4785 41.7576C23.4785 38.4688 26.112 35.7923 29.348 35.7923C32.5841 35.7923 35.2176 38.4688 35.2176 41.7576Z" fill="#FAB900"/>
</svg>
