<svg width="80" height="82" viewBox="0 0 80 82" fill="none" xmlns="http://www.w3.org/2000/svg">
<path d="M28.9653 19.862H22.0687V12.853C22.0687 12.0778 21.4508 11.4512 20.6894 11.4512C19.928 11.4512 19.3101 12.0778 19.3101 12.853V19.862H12.4135C11.6521 19.862 11.0342 20.4886 11.0342 21.2638C11.0342 22.039 11.6521 22.6656 12.4135 22.6656H19.3101V29.6746C19.3101 30.4498 19.928 31.0764 20.6894 31.0764C21.4508 31.0764 22.0687 30.4498 22.0687 29.6746V22.6656H28.9653C29.7267 22.6656 30.3446 22.039 30.3446 21.2638C30.3446 20.4886 29.7267 19.862 28.9653 19.862Z" fill="#FAB900"/>
<path d="M67.5864 19.8613H51.0346C50.2732 19.8613 49.6553 20.4877 49.6553 21.2627C49.6553 22.0377 50.2732 22.6641 51.0346 22.6641H67.5864C68.3478 22.6641 68.9657 22.0377 68.9657 21.2627C68.9657 20.4877 68.3478 19.8613 67.5864 19.8613Z" fill="#FAB900"/>
<path d="M41.3793 0.236328H38.6207H0V39.4875V42.2911V81.5422H38.6207H41.3793H80V42.2911V39.4875V0.236328H41.3793ZM2.75862 3.03998H38.6207V39.4875H2.75862V3.03998ZM2.75862 78.7386V42.2911H38.6207V78.7386H2.75862ZM77.2414 78.7386H41.3793V42.2911H77.2414V78.7386ZM41.3793 39.4875V3.03998H77.2414V39.4875H41.3793Z" fill="white"/>
<path d="M51.0346 66.1211H67.5864C68.3478 66.1211 68.9657 65.4947 68.9657 64.7197C68.9657 63.9448 68.3478 63.3184 67.5864 63.3184H51.0346C50.2732 63.3184 49.6553 63.9448 49.6553 64.7197C49.6553 65.4947 50.2732 66.1211 51.0346 66.1211Z" fill="#FAB900"/>
<path d="M51.0346 57.71H67.5864C68.3478 57.71 68.9657 57.0835 68.9657 56.3086C68.9657 55.5336 68.3478 54.9072 67.5864 54.9072H51.0346C50.2732 54.9072 49.6553 55.5336 49.6553 56.3086C49.6553 57.0835 50.2732 57.71 51.0346 57.71Z" fill="#FAB900"/>
<path d="M28.5615 52.5146C28.0222 51.9665 27.1504 51.9665 26.6111 52.5146L20.6898 58.5326L14.7684 52.5146C14.2291 51.9665 13.3574 51.9665 12.8181 52.5146C12.2787 53.0627 12.2787 53.9487 12.8181 54.4968L18.7394 60.5148L12.8181 66.5329C12.2787 67.081 12.2787 67.9669 12.8181 68.515C13.087 68.7884 13.4401 68.9258 13.7932 68.9258C14.1463 68.9258 14.4994 68.7884 14.7684 68.515L20.6898 62.497L26.6111 68.515C26.8801 68.7884 27.2332 68.9258 27.5863 68.9258C27.9394 68.9258 28.2925 68.7884 28.5615 68.515C29.1008 67.9669 29.1008 67.081 28.5615 66.5329L22.6401 60.5148L28.5615 54.4968C29.1008 53.9487 29.1008 53.0627 28.5615 52.5146Z" fill="#FAB900"/>
</svg>
