<svg width="90" height="90" viewBox="0 0 90 90" fill="none" xmlns="http://www.w3.org/2000/svg">
<path d="M27.3983 62.6989L27.3466 62.6474C26.6588 61.963 25.5462 61.9654 24.8614 62.6534C24.1767 63.3414 24.1793 64.454 24.8674 65.1387L24.9248 65.1958C25.2675 65.5353 25.7146 65.7047 26.1615 65.7047C26.614 65.7047 27.0665 65.5309 27.4101 65.1842C28.0931 64.4946 28.0879 63.382 27.3983 62.6989Z" fill="#FAB900"/>
<path d="M65.1364 24.8644C54.0333 13.7613 35.9672 13.7613 24.8642 24.8644C15.7749 33.9537 13.9016 48.0728 20.3084 59.1994C20.7929 60.0407 21.8678 60.3298 22.7089 59.8456C23.5502 59.3611 23.8395 58.2864 23.3551 57.4451C17.7398 47.6933 19.3826 35.3179 27.3501 27.3503C37.0824 17.618 52.9181 17.618 62.6503 27.3503C72.3826 37.0826 72.3826 52.9182 62.6503 62.6505C54.6343 70.6665 42.2073 72.2793 32.4301 66.5727C31.5915 66.0831 30.5152 66.3662 30.0258 67.2048C29.5364 68.0433 29.8194 69.1198 30.6579 69.6091C35.1191 72.213 40.0627 73.4811 44.9755 73.4811C52.3474 73.4811 59.6486 70.6241 65.1364 65.1364C76.2392 54.0334 76.2392 35.9674 65.1364 24.8644Z" fill="#FAB900"/>
<path d="M89.9939 37.2765C89.9935 36.4122 89.3647 35.6762 88.5111 35.541L82.0225 34.5129L78.5802 26.2113L82.4374 20.8932C82.9448 20.1936 82.8684 19.2287 82.257 18.6179L71.3549 7.72312C70.7433 7.11211 69.7785 7.03617 69.0792 7.54436L63.7662 11.404L55.4588 7.96658L54.4263 1.48131C54.2902 0.628066 53.5544 0 52.6903 0C52.6901 0 52.6897 0 52.6895 0L37.2765 0.00632812C36.4122 0.00667969 35.6764 0.635449 35.541 1.48904L34.5131 7.97766L26.2114 11.42L20.8934 7.56281C20.1939 7.05533 19.2291 7.1318 18.618 7.74316L7.7233 18.6453C7.11229 19.2568 7.03652 20.2217 7.54453 20.921L11.4042 26.2339L7.96676 34.5414L1.48148 35.5739C0.627891 35.7098 -0.000351415 36.4461 1.47476e-07 37.3105L0.00632827 52.7233C0.00667983 53.5876 0.635449 54.3236 1.48904 54.4588L7.97766 55.4869L11.42 63.7886L7.56281 69.1066C7.05533 69.8063 7.1318 70.7711 7.74316 71.382L18.6453 82.2767C19.2568 82.8877 20.2219 82.9637 20.921 82.4555L26.2339 78.5958L34.5414 82.0332L35.5739 88.5185C35.7098 89.3719 36.4456 90 37.3097 90C37.3099 90 37.3103 90 37.3105 90L52.7233 89.9935C53.5876 89.9931 54.3234 89.3644 54.4588 88.5108L55.4869 82.0222L63.7886 78.5798L69.1066 82.437C69.8063 82.9447 70.7711 82.868 71.382 82.2567L82.2767 71.3545C82.8877 70.743 82.9635 69.7781 82.4555 69.0789L78.5958 63.7659L82.0332 55.4585L88.5185 54.4259C89.3721 54.29 90.0004 53.5537 90 52.6894L89.9939 37.2765ZM80.509 52.1413C79.9052 52.2374 79.3949 52.6402 79.1611 53.2051L74.9714 63.3308C74.7376 63.8956 74.8143 64.5414 75.1736 65.0361L78.7294 69.9309L69.9562 78.7101L65.0563 75.1563C64.5616 74.7974 63.9158 74.7216 63.3509 74.9554L53.2315 79.1517C52.6669 79.3858 52.2643 79.8964 52.1687 80.5003L51.2214 86.4784L38.81 86.4837L37.8587 80.5089C37.7626 79.9051 37.3598 79.3948 36.7949 79.161L26.6692 74.9712C26.4528 74.8816 26.2245 74.8376 25.9973 74.8376C25.6317 74.8376 25.2691 74.9517 24.9641 75.1734L20.0693 78.7293L11.2901 69.956L14.8438 65.0561C15.2028 64.5613 15.2787 63.9155 15.0446 63.3507L10.8485 53.2313C10.6144 52.6667 10.1037 52.2642 9.49992 52.1685L3.5216 51.2212L3.5165 38.8099L9.49131 37.8585C10.0951 37.7624 10.6054 37.3597 10.8392 36.7947L15.0289 26.669C15.2627 26.1042 15.1861 25.4584 14.8268 24.9638L11.2709 20.0689L20.0442 11.2897L24.9441 14.8435C25.4391 15.2024 26.0847 15.2787 26.6495 15.0444L36.7689 10.8482C37.3335 10.614 37.736 10.1032 37.8316 9.49957L38.7788 3.52125L51.1903 3.51615L52.1416 9.49096C52.2378 10.0948 52.6405 10.6051 53.2055 10.8388L63.3312 15.0286C63.896 15.262 64.5418 15.1857 65.0364 14.8264L69.9312 11.2706L78.7104 20.0438L75.1567 24.9437C74.7977 25.4385 74.7218 26.0844 74.9559 26.6491L79.152 36.7685C79.3861 37.3331 79.8968 37.7357 80.5006 37.8313L86.4789 38.7786L86.484 51.19L80.509 52.1413Z" fill="white"/>
<path d="M61.014 47.1896C58.8155 45.1922 55.8609 44.3248 52.9444 44.7786L45.2246 37.0589C45.6941 34.001 44.6857 30.8541 42.4752 28.6435C39.7038 25.8721 35.5603 25.0233 31.9192 26.4807C31.3706 26.7002 30.9691 27.1807 30.8505 27.7593C30.7316 28.338 30.9116 28.9378 31.3295 29.3556L33.8783 31.9044C34.4178 32.4439 34.4178 33.3217 33.8783 33.8614C33.3388 34.401 32.461 34.401 31.9213 33.8614L29.3637 31.3036C28.9467 30.8866 28.3491 30.7063 27.7709 30.8239C27.1932 30.9411 26.7126 31.3403 26.4914 31.8868C24.9588 35.6718 25.9616 40.0612 28.9866 42.8095C31.1874 44.8094 34.1442 45.6767 37.064 45.2197L44.7767 52.9326C44.3042 55.9929 45.3121 59.1428 47.5251 61.3559C49.3976 63.2285 51.8927 64.223 54.4373 64.2228C55.6715 64.2228 56.9177 63.9887 58.1095 63.5072C58.6564 63.2865 59.0561 62.8059 59.1737 62.2279C59.2913 61.6499 59.1113 61.0516 58.6942 60.6344L56.157 58.097C55.6175 57.5576 55.6175 56.6797 56.157 56.1401C56.6964 55.6004 57.5743 55.6004 58.1139 56.1401L60.6461 58.6722C61.0635 59.0897 61.663 59.27 62.2416 59.1514C62.8203 59.0329 63.3005 58.6319 63.5204 58.0839C65.036 54.3067 64.0288 49.9287 61.014 47.1896ZM60.5997 53.6544C58.6893 51.7441 55.5809 51.744 53.6707 53.6544C51.7605 55.5647 51.7605 58.6729 53.6707 60.5831L53.7565 60.6691C52.3685 60.5168 51.0421 59.9013 50.0108 58.87C48.4338 57.293 47.8121 54.9725 48.3885 52.8139C48.5504 52.2077 48.3769 51.5613 47.9332 51.1177L38.8784 42.0628C38.5444 41.7288 38.0955 41.548 37.6353 41.548C37.4851 41.548 37.3336 41.5671 37.1847 41.6067C35.103 42.1595 32.9219 41.636 31.3502 40.208C30.1958 39.1587 29.5006 37.737 29.3342 36.2464L29.4352 36.3475C31.3456 38.2577 34.4538 38.2579 36.3642 36.3475C38.2744 34.4371 38.2744 31.3289 36.3642 29.4187L36.281 29.3356C37.6556 29.4948 38.9682 30.1085 39.9891 31.1298C41.5643 32.7049 42.1864 35.0233 41.6128 37.1801C41.4516 37.7859 41.6253 38.4317 42.0686 38.875L51.1287 47.9351C51.5714 48.3776 52.2154 48.5516 52.8208 48.3916C54.9005 47.8421 57.0796 48.3656 58.6497 49.7919C59.7935 50.8311 60.4868 52.2383 60.6608 53.7155L60.5997 53.6544Z" fill="white"/>
<path d="M61.0563 32.4476C58.1593 28.7469 54.0523 26.1437 49.4917 25.1175C48.5449 24.9043 47.6039 25.4993 47.3909 26.4466C47.1779 27.3939 47.7727 28.3343 48.72 28.5474C52.4917 29.396 55.8897 31.5508 58.2881 34.6148C58.6349 35.0578 59.1515 35.2891 59.6734 35.2891C60.0524 35.2891 60.4342 35.1671 60.7557 34.9154C61.5202 34.317 61.6548 33.2121 61.0563 32.4476Z" fill="#FAB900"/>
<path d="M64.4138 38.7853L64.3882 38.7059C64.09 37.7823 63.0997 37.2758 62.1758 37.5737C61.2522 37.8719 60.7452 38.8623 61.0436 39.786L61.0659 39.8549C61.3044 40.6016 61.9955 41.078 62.7394 41.078C62.9166 41.078 63.0969 41.0509 63.2745 40.9942C64.1991 40.6988 64.7093 39.7099 64.4138 38.7853Z" fill="#FAB900"/>
</svg>
