<svg width="100" height="84" viewBox="0 0 100 84" fill="none" xmlns="http://www.w3.org/2000/svg">
<path d="M63.6715 69.9751C62.7478 69.7586 61.8255 70.3448 61.6126 71.284L59.6251 80.0541H3.87494L9.13116 56.8601H51.6036C52.552 56.8601 53.3209 56.0787 53.3209 55.1148C53.3209 54.151 52.552 53.3695 51.6036 53.3695H9.13116L3.87494 30.1756H59.6253L62.1566 41.3456C62.3695 42.285 63.2914 42.8712 64.2155 42.6545C65.1398 42.4381 65.7164 41.5012 65.5034 40.562L62.7542 28.4301L68.7127 2.13718C68.8301 1.61894 68.7085 1.07488 68.383 0.658562C68.0574 0.242249 67.5626 0 67.0394 0H7.76444C6.96442 0 6.27065 0.56129 6.09091 1.35366L0.0438227 28.0387C-0.0145645 28.2963 -0.0145645 28.5643 0.0438227 28.822L6.00229 55.1148L0.0438227 81.4077C-0.0736387 81.926 0.0479441 82.47 0.373539 82.8864C0.699133 83.3027 1.19394 83.5449 1.71713 83.5449H60.9918C61.7918 83.5449 62.4856 82.9836 62.6654 82.1913L64.9596 72.0678C65.1723 71.1284 64.5958 70.1915 63.6715 69.9751ZM9.13116 3.49107H64.8816L59.6253 26.685H3.87494L9.13116 3.49107Z" fill="white"/>
<path d="M14.4243 12.645H43.96C44.9084 12.645 45.6772 11.8636 45.6772 10.8997C45.6772 9.93575 44.9084 9.1543 43.96 9.1543H14.4243C13.4759 9.1543 12.707 9.93575 12.707 10.8997C12.707 11.8636 13.4759 12.645 14.4243 12.645Z" fill="white"/>
<path d="M11.3335 21.0222H40.8692C41.8176 21.0222 42.5865 20.2407 42.5865 19.2767C42.5865 18.3128 41.8176 17.5312 40.8692 17.5312H11.3335C10.3851 17.5312 9.61621 18.3128 9.61621 19.2767C9.61621 20.2407 10.3851 21.0222 11.3335 21.0222Z" fill="white"/>
<path d="M45.6772 64.2681C45.6772 63.3046 44.9084 62.5234 43.96 62.5234H14.4243C13.4759 62.5234 12.707 63.3046 12.707 64.2681C12.707 65.2316 13.4759 66.0127 14.4243 66.0127H43.96C44.9084 66.0127 45.6772 65.2316 45.6772 64.2681Z" fill="white"/>
<path d="M11.3335 70.9004C10.3851 70.9004 9.61621 71.6818 9.61621 72.6456C9.61621 73.6095 10.3851 74.3909 11.3335 74.3909H40.8692C41.8176 74.3909 42.5865 73.6095 42.5865 72.6456C42.5865 71.6818 41.8176 70.9004 40.8692 70.9004H11.3335Z" fill="white"/>
<path d="M42.5862 37.5834C42.5862 36.6194 41.8173 35.8379 40.8689 35.8379H11.3335C10.3851 35.8379 9.61621 36.6194 9.61621 37.5834C9.61621 38.5473 10.3851 39.3289 11.3335 39.3289H40.8692C41.8173 39.3289 42.5862 38.5473 42.5862 37.5834Z" fill="white"/>
<path d="M14.4243 47.7068H43.96C44.9084 47.7068 45.6772 46.9253 45.6772 45.9613C45.6772 44.9973 44.9084 44.2158 43.96 44.2158H14.4243C13.4759 44.2158 12.707 44.9973 12.707 45.9613C12.707 46.9253 13.4759 47.7068 14.4243 47.7068Z" fill="white"/>
<path d="M49.4882 14.3043C49.6086 14.9163 50.0416 15.4164 50.6234 15.6158C50.8029 15.6773 50.9879 15.7073 51.1718 15.7073C51.5841 15.7073 51.9896 15.5563 52.3081 15.2707L58.1466 10.0353C58.8578 9.39766 58.9256 8.29467 58.298 7.57191C57.6706 6.84938 56.5855 6.78027 55.8741 7.41809L52.2713 10.6489L52.1692 10.1295C51.983 9.18451 51.0795 8.57135 50.1483 8.76053C49.2182 8.94971 48.6153 9.86911 48.8012 10.8143L49.4882 14.3043Z" fill="#FAB900"/>
<path d="M51.2585 42.7927C51.3432 42.7927 51.4284 42.7864 51.5136 42.7734C52.1208 42.6808 52.6334 42.2654 52.8574 41.6843L55.6991 34.3166C56.0453 33.4193 55.61 32.4065 54.7271 32.0547C53.844 31.7023 52.8478 32.1452 52.5016 33.0425L50.7479 37.5893L50.4234 37.1746C49.8334 36.4201 48.7531 36.2945 48.0106 36.8944C47.2682 37.4941 47.1446 38.592 47.7349 39.3467L49.9142 42.1335C50.2428 42.5535 50.7396 42.7927 51.2585 42.7927Z" fill="#FAB900"/>
<path d="M51.4462 51.1344C51.7747 51.5545 52.2714 51.7937 52.7902 51.7937C52.8749 51.7937 52.9601 51.7874 53.0453 51.7744C53.6525 51.6818 54.1652 51.2664 54.3891 50.6853L57.2309 43.3176C57.5771 42.4203 57.1418 41.4075 56.2589 41.0556C55.3755 40.7033 54.3795 41.1462 54.0333 42.0435L52.2796 46.5902L51.9552 46.1756C51.3651 45.4211 50.2851 45.2954 49.5423 45.8954C48.8 46.4951 48.6763 47.593 49.2666 48.3477L51.4462 51.1344Z" fill="#FAB900"/>
<path d="M99.535 32.5412L90.779 23.055C90.4674 22.7173 90.0367 22.5195 89.5815 22.5046C89.124 22.4916 88.684 22.6596 88.3517 22.9761L55.5392 54.2595C55.3288 54.4601 55.1715 54.7112 55.082 54.99L50.9441 67.8522C50.749 68.4581 50.8946 69.1237 51.3239 69.5886C51.6529 69.9449 52.1081 70.1399 52.5764 70.1399C52.719 70.1399 52.8628 70.1217 53.0048 70.0847L65.8987 66.7086C66.1781 66.6356 66.4348 66.492 66.6452 66.2914L99.4577 35.0079C100.149 34.3487 100.184 33.2443 99.535 32.5412ZM55.1823 65.91L57.4454 58.8755L62.2341 64.0635L55.1823 65.91ZM65.5477 62.5516L59.1416 55.6111L89.4492 26.7159L95.8555 33.6564L65.5477 62.5516Z" fill="#FAB900"/>
</svg>
