<svg width="90" height="90" viewBox="0 0 90 90" fill="none" xmlns="http://www.w3.org/2000/svg">
<path d="M45 39C50.79 39 55.5 34.2885 55.5 28.5C55.5 22.7115 50.79 18 45 18C39.21 18 34.5 22.7115 34.5 28.5C34.5 34.2885 39.21 39 45 39ZM45 21C49.1355 21 52.5 24.3645 52.5 28.5C52.5 32.6355 49.1355 36 45 36C40.8645 36 37.5 32.6355 37.5 28.5C37.5 24.3645 40.8645 21 45 21Z" fill="#FAB900"/>
<path d="M44.7343 82.1355L67.7458 48.9C76.3768 37.3935 75.1288 18.48 65.0743 8.427C59.6413 2.9925 52.4173 0 44.7343 0C37.0513 0 29.8273 2.9925 24.3943 8.4255C14.3398 18.4785 13.0918 37.392 21.6883 48.8535L44.7343 82.1355ZM26.5153 10.5465C31.3828 5.6805 37.8523 3 44.7343 3C51.6163 3 58.0858 5.6805 62.9533 10.5465C72.0283 19.62 73.1458 36.702 65.3128 47.145L44.7343 76.8645L24.1228 47.1C16.3228 36.702 17.4418 19.62 26.5153 10.5465Z" fill="white"/>
<path d="M63.1755 64.5107C62.3505 64.4102 61.6065 65.0012 61.5105 65.8247C61.4145 66.6482 62.0025 67.3937 62.8245 67.4897C78.5985 69.3467 87 74.3507 87 77.2503C87 81.3213 71.022 87.0003 45 87.0003C18.978 87.0003 3 81.3213 3 77.2503C3 74.3507 11.4015 69.3467 27.1755 67.4897C27.9975 67.3937 28.5855 66.6467 28.4895 65.8247C28.392 65.0012 27.648 64.4072 26.8245 64.5107C11.031 66.3707 0 71.6087 0 77.2503C0 83.5863 15.4575 90.0003 45 90.0003C74.5425 90.0003 90 83.5863 90 77.2503C90 71.6087 78.969 66.3707 63.1755 64.5107Z" fill="#FAB900"/>
</svg>
