<svg width="100" height="90" viewBox="0 0 100 90" fill="none" xmlns="http://www.w3.org/2000/svg">
<path d="M96.5873 25.5428H80.9634L90.2928 14.9577C90.8108 14.3692 91.0736 13.6115 91.0325 12.8227C90.9906 12.0331 90.6501 11.308 90.0734 10.7801L86.0611 7.10784C84.8705 6.01781 83.0316 6.11796 81.9628 7.33143L65.9115 25.5428H37.9758C37.1683 25.5428 36.5132 26.2097 36.5132 27.0334C36.5132 27.8572 37.1683 28.5241 37.9758 28.5241H63.2842L56.7588 35.9275C56.2408 36.5153 55.9788 37.2738 56.0199 38.0626C56.0252 38.1557 56.0344 38.2473 56.0473 38.3389L53.8047 44.5196C53.4718 45.4373 53.7178 46.4528 54.4324 47.1065C54.8704 47.5079 55.4234 47.716 55.9833 47.716C56.3353 47.716 56.6903 47.6337 57.0224 47.466L62.8172 44.5297C62.8538 44.5313 62.8896 44.5352 62.9269 44.5352C62.9794 44.5352 63.032 44.5336 63.0853 44.5305C63.8593 44.4878 64.5708 44.1416 65.0896 43.5531L78.336 28.5241H96.5873C96.8562 28.5241 97.0749 28.7469 97.0749 29.0209V86.4523C97.0749 86.7263 96.8562 86.9492 96.5873 86.9492H85.9469C85.1394 86.9492 84.4843 87.6161 84.4843 88.4398C84.4843 89.2627 85.1394 89.9304 85.9469 89.9304H96.5873C98.4689 89.9304 100 88.3699 100 86.4523V29.0209C100 27.1025 98.4689 25.5428 96.5873 25.5428ZM88.1019 12.9826L86.3643 14.9531L82.3864 11.3119L84.124 9.34068L88.1019 12.9826ZM80.4317 13.53L81.3328 14.3545L59.8516 38.7271L58.9504 37.9019L80.4317 13.53ZM58.1399 41.1673L59.8295 42.7146L57.0719 44.1113L58.1399 41.1673ZM62.9284 41.5438L62.0272 40.7193L83.5092 16.3467L84.4096 17.1712L62.9284 41.5438Z" fill="white"/>
<path d="M79.4578 86.9518H13.646C7.73522 86.9518 2.92643 82.0567 2.92643 76.0399V75.2525C2.92643 69.2357 7.73445 64.3415 13.6452 64.3415H16.6524C18.5356 64.3415 20.0666 62.7822 20.0666 60.8661V28.5728H31.4667C32.2753 28.5728 32.9299 27.9056 32.9299 27.0833C32.9299 26.2602 32.2753 25.5938 31.4667 25.5938H20.0666V20.4219C20.0666 19.5996 19.412 18.9324 18.6034 18.9324C17.7956 18.9324 17.1402 19.5996 17.1402 20.4219V60.8661C17.1402 61.1399 16.9214 61.3626 16.6524 61.3626H13.6452C9.30283 61.3626 5.42684 63.4385 2.92643 66.6664V13.8907C2.92643 7.87396 7.73522 2.97892 13.646 2.97892H16.6524C16.9214 2.97892 17.1402 3.20156 17.1402 3.4754V13.9357C17.1402 14.7588 17.7956 15.4252 18.6034 15.4252C19.412 15.4252 20.0666 14.7588 20.0666 13.9357V3.4754C20.0666 1.55928 18.5356 0 16.6524 0H13.646C6.12187 0 0 6.2309 0 13.8907V76.0399C0 83.699 6.12187 89.9307 13.646 89.9307H79.4578C80.2664 89.9307 80.921 89.2635 80.921 88.4412C80.921 87.6181 80.2664 86.9518 79.4578 86.9518Z" fill="white"/>
<path d="M78.1337 41.4551C72.1096 41.4551 67.17 46.1724 66.8166 52.1028H60.0275C59.2133 52.1028 58.5527 52.7627 58.5527 53.576V70.4042C58.5527 71.2183 59.2133 71.8774 60.0275 71.8774H76.8733C77.6882 71.8774 78.348 71.2183 78.348 70.4042V64.1063C84.5027 63.9912 89.4738 58.9578 89.4738 52.7834C89.4738 46.5369 84.3867 41.4551 78.1337 41.4551ZM75.3993 60.7057C72.8162 59.8133 70.8023 57.6948 70.058 55.0492H75.3993V60.7057ZM61.5022 68.931V55.0492H67.0225C67.895 59.3245 71.1855 62.7298 75.3993 63.7764V68.931H61.5022ZM78.3488 61.1599V53.576C78.3488 52.7627 77.6882 52.1028 76.874 52.1028H69.7738C70.1217 47.7983 73.7371 44.4015 78.1345 44.4015C82.7607 44.4015 86.5251 48.1612 86.5251 52.7834C86.5243 57.3334 82.8759 61.0456 78.3488 61.1599Z" fill="#FAB900"/>
<path d="M83.6384 65.1914C82.8639 65.1914 82.2368 65.8642 82.2368 66.6953C82.2368 67.5256 82.8639 68.1992 83.6384 68.1992H86.7563C87.5308 68.1992 88.1579 67.5256 88.1579 66.6953C88.1579 65.8642 87.5308 65.1914 86.7563 65.1914H83.6384Z" fill="#FAB900"/>
<path d="M88.1579 70.54C88.1579 69.802 87.5308 69.2031 86.7563 69.2031H83.6384C82.8639 69.2031 82.2368 69.802 82.2368 70.54C82.2368 71.2788 82.8639 71.877 83.6384 71.877H86.7563C87.5308 71.877 88.1579 71.2788 88.1579 70.54Z" fill="#FAB900"/>
<path d="M26.7911 40.7852H29.1303C29.9374 40.7852 30.5923 40.1123 30.5923 39.2812C30.5923 38.451 29.9374 37.7773 29.1303 37.7773H26.7911C25.984 37.7773 25.3291 38.451 25.3291 39.2812C25.3291 40.1123 25.984 40.7852 26.7911 40.7852Z" fill="#FAB900"/>
<path d="M26.7844 45.1323H38.0185C38.8228 45.1323 39.4739 44.4584 39.4739 43.6277C39.4739 42.7962 38.8228 42.123 38.0185 42.123H26.7844C25.981 42.123 25.3291 42.7962 25.3291 43.6277C25.3291 44.4584 25.981 45.1323 26.7844 45.1323Z" fill="#FAB900"/>
<path d="M35.6724 40.7852H38.0116C38.8195 40.7852 39.4736 40.1123 39.4736 39.2812C39.4736 38.451 38.8195 37.7773 38.0116 37.7773H35.6724C34.8653 37.7773 34.2104 38.451 34.2104 39.2812C34.2104 40.1123 34.8653 40.7852 35.6724 40.7852Z" fill="#FAB900"/>
<path d="M46.893 37.7773H44.5538C43.7466 37.7773 43.0918 38.451 43.0918 39.2812C43.0918 40.1123 43.7466 40.7852 44.5538 40.7852H46.893C47.7009 40.7852 48.355 40.1123 48.355 39.2812C48.355 38.451 47.7009 37.7773 46.893 37.7773Z" fill="#FAB900"/>
<path d="M26.7844 49.4773H38.0185C38.8228 49.4773 39.4739 48.8037 39.4739 47.9735C39.4739 47.1425 38.8228 46.4697 38.0185 46.4697H26.7844C25.981 46.4697 25.3291 47.1425 25.3291 47.9735C25.3291 48.8037 25.981 49.4773 26.7844 49.4773Z" fill="#FAB900"/>
<path d="M25.3291 52.1532C25.3291 52.8919 25.981 53.49 26.7846 53.49H44.5973C45.4016 53.49 46.0528 52.8919 46.0528 52.1532C46.0528 51.4152 45.4016 50.8164 44.5973 50.8164H26.7846C25.981 50.8164 25.3291 51.4152 25.3291 52.1532Z" fill="#FAB900"/>
<path d="M48.3554 56.3319C48.3554 55.5017 47.705 54.8281 46.9016 54.8281H26.7829C25.9803 54.8281 25.3291 55.5017 25.3291 56.3319C25.3291 57.1629 25.9803 57.8357 26.7829 57.8357H46.9016C47.705 57.8357 48.3554 57.1629 48.3554 56.3319Z" fill="#FAB900"/>
<path d="M32.237 63.325C32.237 62.5092 31.5864 61.8486 30.7845 61.8486H26.7816C25.9797 61.8486 25.3291 62.5092 25.3291 63.325V67.3928C25.3291 68.2086 25.9797 68.8691 26.7816 68.8691H30.7845C31.5864 68.8691 32.237 68.2086 32.237 67.3928V63.325ZM29.3319 65.9171H28.2342V64.8014H29.3319V65.9171Z" fill="white"/>
<path d="M41.7761 63.325C41.7761 62.5092 41.1254 61.8486 40.3235 61.8486H36.3207C35.5188 61.8486 34.8682 62.5092 34.8682 63.325V67.3928C34.8682 68.2086 35.5188 68.8691 36.3207 68.8691H40.3235C41.1254 68.8691 41.7761 68.2086 41.7761 67.3928V63.325ZM38.871 65.9171H37.7732V64.8014H38.871V65.9171Z" fill="white"/>
<path d="M51.6447 63.325C51.6447 62.5092 50.9941 61.8486 50.1922 61.8486H46.1894C45.3867 61.8486 44.7368 62.5092 44.7368 63.325V67.3928C44.7368 68.2086 45.3867 68.8691 46.1894 68.8691H50.1922C50.9941 68.8691 51.6447 68.2086 51.6447 67.3928V63.325ZM48.7396 65.9171H47.6419V64.8014H48.7396V65.9171Z" fill="white"/>
<path d="M30.7845 72.2119H26.7816C25.9797 72.2119 25.3291 72.9039 25.3291 73.7586V78.0202C25.3291 78.8749 25.9797 79.5669 26.7816 79.5669H30.7845C31.5864 79.5669 32.237 78.8749 32.237 78.0202V73.7586C32.237 72.9039 31.5864 72.2119 30.7845 72.2119ZM29.3319 76.4735H28.2342V75.3046H29.3319V76.4735Z" fill="white"/>
<path d="M40.3235 72.2119H36.3207C35.5188 72.2119 34.8682 72.9039 34.8682 73.7586V78.0202C34.8682 78.8749 35.5188 79.5669 36.3207 79.5669H40.3235C41.1254 79.5669 41.7761 78.8749 41.7761 78.0202V73.7586C41.7761 72.9039 41.1254 72.2119 40.3235 72.2119ZM38.871 76.4735H37.7732V75.3046H38.871V76.4735Z" fill="white"/>
<path d="M46.1894 79.5669H50.1922C50.9941 79.5669 51.6447 78.875 51.6447 78.0203V73.7585C51.6447 72.9046 50.9941 72.2119 50.1922 72.2119H46.1894C45.3867 72.2119 44.7368 72.9046 44.7368 73.7585V78.0203C44.7368 78.875 45.3867 79.5669 46.1894 79.5669ZM47.6419 75.3058H48.7396V76.4738H47.6419V75.3058Z" fill="white"/>
</svg>
