<svg width="90" height="80" viewBox="0 0 90 80" fill="none" xmlns="http://www.w3.org/2000/svg">
<path d="M86.0451 33.4068H84.7275V29.4511V15.3886C84.7275 10.7845 80.9817 7.03881 76.3779 7.03881H40.1707L15.7436 0.0596083C15.7366 0.0576747 15.7294 0.0566197 15.7224 0.0546861C15.7152 0.0527525 15.7083 0.0499402 15.7011 0.0481824C15.6863 0.044491 15.6717 0.0427332 15.6572 0.0395692C15.6345 0.0348231 15.6118 0.0299012 15.5891 0.0262098C15.5686 0.02287 15.5483 0.0207606 15.5278 0.0182997C15.5039 0.0154872 15.4801 0.0130262 15.4564 0.01162C15.4371 0.0105653 15.4179 0.0103894 15.3986 0.0100378C15.374 0.00968623 15.3495 0.0095105 15.3251 0.0105652C15.307 0.0112683 15.2889 0.013026 15.271 0.0144323C15.2458 0.0165416 15.2207 0.018827 15.1959 0.0225184C15.179 0.0249794 15.1623 0.0281434 15.1456 0.0311316C15.12 0.035702 15.0947 0.0406236 15.0695 0.0467759C15.0539 0.0506431 15.0386 0.0550377 15.0231 0.0594322C14.9975 0.066815 14.9721 0.0743737 14.9468 0.0831627C14.9326 0.0882604 14.9185 0.0937097 14.9043 0.0993347C14.8788 0.109178 14.8535 0.119549 14.8287 0.130975C14.8155 0.137127 14.8027 0.143807 14.7897 0.150311C14.7649 0.162791 14.7405 0.175448 14.7166 0.189686C14.7041 0.196893 14.6921 0.204627 14.6798 0.212362C14.6563 0.227127 14.6331 0.242245 14.6106 0.258592C14.5988 0.26703 14.5874 0.27617 14.5758 0.285135C14.5541 0.301834 14.5327 0.318885 14.5121 0.33699C14.5005 0.347186 14.4894 0.357908 14.4782 0.368455C14.4589 0.386736 14.4397 0.405018 14.4214 0.424353C14.41 0.436482 14.3993 0.449138 14.3882 0.461795C14.3715 0.480955 14.355 0.500291 14.3393 0.520506C14.3281 0.535096 14.3175 0.550037 14.3068 0.564978C14.2929 0.58449 14.2792 0.604177 14.2666 0.624392C14.2557 0.641619 14.2456 0.659548 14.2356 0.677302C14.2245 0.696814 14.2135 0.716501 14.2035 0.736716C14.1936 0.756403 14.1848 0.776619 14.1759 0.796833C14.1671 0.816697 14.1585 0.83656 14.1507 0.85695C14.1426 0.878396 14.1356 0.900368 14.1284 0.922517C14.1238 0.936755 14.1182 0.950114 14.114 0.964528C14.1119 0.971735 14.111 0.978766 14.1091 0.985797C14.1071 0.993004 14.1043 0.99986 14.1026 1.00707L12.5951 7.03846H8.35047C3.75574 7.03846 0.0165234 10.7691 0.00140625 15.3605C0.00123047 15.3699 0 15.3789 0 15.3882V61.0913C0 61.819 0.592382 62.4096 1.31836 62.4096C2.04609 62.4096 2.63671 61.819 2.63671 61.0913V21.469C4.13155 22.8746 6.14143 23.7383 8.35047 23.7383H76.3779C76.3794 23.7383 76.3809 23.7382 76.3824 23.7382C79.5303 23.7406 82.0907 26.3025 82.0907 29.4512V38.6804H67.5867C67.5858 38.6804 67.5851 38.6806 67.5843 38.6806C67.5461 38.6806 67.5081 38.6829 67.4703 38.6862C67.4283 38.6899 67.3868 38.6959 67.3461 38.7035C67.3399 38.7045 67.3339 38.705 67.3278 38.7063C67.2933 38.7131 67.2596 38.7223 67.226 38.7318C67.2186 38.7339 67.2111 38.7353 67.2039 38.7376C67.174 38.7467 67.145 38.7576 67.116 38.7687C67.1049 38.7729 67.0936 38.7764 67.0826 38.781C67.0583 38.791 67.0349 38.8028 67.0116 38.8142C66.9961 38.8216 66.9804 38.8284 66.9653 38.8363C66.947 38.846 66.9298 38.8571 66.9122 38.8676C66.8927 38.8792 66.8729 38.8905 66.8539 38.9031C66.841 38.9116 66.8293 38.9212 66.817 38.9302C66.7945 38.9464 66.7718 38.9624 66.7503 38.9801C66.741 38.9879 66.7324 38.9965 66.7234 39.0044C66.7004 39.0244 66.6774 39.0443 66.6556 39.0661C66.6428 39.0789 66.6312 39.093 66.619 39.1063C66.602 39.1248 66.5844 39.1429 66.5682 39.1626C66.541 39.1958 66.5155 39.2303 66.4916 39.266C66.4911 39.2665 66.4905 39.2672 66.4902 39.2679L59.4593 49.8149C59.4103 49.8884 59.3688 49.9663 59.3359 50.0473C59.3234 50.0775 59.3134 50.1083 59.3034 50.1389C59.3004 50.1482 59.2965 50.1572 59.2937 50.1665C59.2839 50.199 59.2763 50.2319 59.2691 50.2646C59.2672 50.2732 59.2647 50.2816 59.263 50.2902C59.2572 50.3198 59.2533 50.3495 59.2496 50.3792C59.248 50.3918 59.2456 50.4045 59.2443 50.4173C59.2419 50.4418 59.2413 50.466 59.2405 50.4904C59.2396 50.5091 59.238 50.5277 59.238 50.5465C59.238 50.5646 59.2396 50.5827 59.2403 50.6008C59.2412 50.6258 59.2419 50.6509 59.2443 50.6759C59.2456 50.688 59.2478 50.7001 59.2494 50.7123C59.2533 50.7425 59.2572 50.7727 59.2631 50.8028C59.2647 50.8111 59.2672 50.8192 59.2691 50.8274C59.2763 50.8605 59.284 50.8935 59.2939 50.9264C59.2967 50.9357 59.3006 50.9447 59.3036 50.9542C59.3136 50.9847 59.3236 51.0155 59.3361 51.0457C59.3691 51.1266 59.4106 51.2046 59.4598 51.2783L66.4905 61.8237C66.4909 61.8243 66.4912 61.8246 66.4916 61.8251C66.5199 61.8672 66.5508 61.9072 66.5835 61.9457C66.5942 61.9584 66.6057 61.9702 66.6168 61.9821C66.6391 62.0065 66.6623 62.0301 66.6864 62.0528C66.7006 62.0661 66.7147 62.0792 66.7291 62.0916C66.7547 62.1136 66.7813 62.1342 66.8085 62.1542C66.8208 62.1632 66.8326 62.173 66.8451 62.1815C66.8846 62.2083 66.9256 62.2331 66.968 62.2556C66.9787 62.2613 66.9898 62.266 67.0005 62.2713C67.0342 62.2882 67.0687 62.3038 67.104 62.3177C67.1177 62.3231 67.1314 62.3281 67.1453 62.333C67.1789 62.3449 67.213 62.3555 67.2478 62.3648C67.262 62.3685 67.2761 62.3724 67.2905 62.3759C67.3262 62.3841 67.3624 62.3905 67.3992 62.3957C67.4125 62.3977 67.4257 62.4003 67.439 62.4019C67.4844 62.407 67.5305 62.4098 67.5772 62.4101C67.5809 62.4101 67.5846 62.4109 67.5885 62.4109C67.5892 62.4109 67.59 62.4107 67.5909 62.4107H82.0913V71.6406C82.0913 74.7909 79.5284 77.3538 76.3784 77.3538H8.35118C5.20118 77.3538 2.6383 74.7909 2.6383 71.6406C2.6383 71.6337 2.63742 71.627 2.63724 71.6202V66.3654C2.63724 65.6394 2.04662 65.047 1.31888 65.047C0.592909 65.047 0.000527343 65.6394 0.000527343 66.3654V71.6406C0.000527343 71.6543 0.00210937 71.6676 0.00263671 71.6812C0.0246093 76.2666 3.76083 79.9905 8.35118 79.9905H76.3784C80.9819 79.9905 84.7273 76.2455 84.728 71.642C84.728 71.6418 84.728 71.6416 84.728 71.6413V62.4107H86.0456C88.226 62.4107 90 60.6367 90 58.4563V37.3612C89.9995 35.1808 88.2255 33.4068 86.0451 33.4068ZM16.33 2.96931L39.5927 9.61611C39.5938 9.61646 39.595 9.61664 39.5961 9.61699L55.1871 14.0716H13.5552L16.33 2.96931ZM82.0906 23.3701C80.5959 21.9649 78.5864 21.1013 76.3779 21.1013C76.3756 21.1013 76.3735 21.1016 76.371 21.1016H8.35047C5.2003 21.1016 2.63742 18.5387 2.63742 15.3886C2.63742 12.2384 5.2003 9.67553 8.35047 9.67553H11.9361L10.8374 14.0716H8.35082C7.62274 14.0716 7.03247 14.6619 7.03247 15.39C7.03247 16.1181 7.62274 16.7083 8.35082 16.7083H11.8622C11.864 16.7083 11.8659 16.7087 11.8678 16.7087C11.8693 16.7087 11.8707 16.7083 11.8719 16.7083H64.5958C64.5976 16.7083 64.5991 16.7087 64.6007 16.7087C64.6021 16.7087 64.6035 16.7083 64.6049 16.7083H74.6185C75.3466 16.7083 75.9368 16.1181 75.9368 15.39C75.9368 14.6619 75.3466 14.0716 74.6185 14.0716H64.7848L49.3988 9.67553H76.3777C79.5277 9.67553 82.0906 12.2384 82.0906 15.3886V23.3701ZM87.3628 58.4556C87.3628 59.1821 86.7716 59.7733 86.0451 59.7733H68.2923L62.1401 50.5458L68.2923 41.317H86.0451C86.0636 41.317 86.0815 41.3149 86.0998 41.3142C86.542 41.308 86.9667 41.2293 87.3628 41.089V58.4556ZM86.0451 38.6788C86.036 38.6788 86.027 38.6801 86.0179 38.6803H84.7275V36.0435H86.0451C86.7716 36.0435 87.3628 36.6347 87.3628 37.3612C87.3628 38.0877 86.7716 38.6788 86.0451 38.6788Z" fill="white"/>
<path d="M72.8608 45.7119C70.1953 45.7119 68.0269 47.8805 68.0269 50.5461C68.0269 53.2116 70.1953 55.38 72.8608 55.38C75.5264 55.38 77.6948 53.2116 77.6948 50.5461C77.6948 47.8805 75.5264 45.7119 72.8608 45.7119ZM72.8608 52.7433C71.6492 52.7433 70.6636 51.7577 70.6636 50.5461C70.6636 49.3344 71.6492 48.3486 72.8608 48.3486C74.0725 48.3486 75.0581 49.3344 75.0581 50.5461C75.0581 51.7577 74.0725 52.7433 72.8608 52.7433Z" fill="#FAB900"/>
</svg>
