<svg width="100" height="103" viewBox="0 0 100 103" fill="none" xmlns="http://www.w3.org/2000/svg">
<path d="M18.3333 95.8462C18.8387 95.8462 19.3172 95.6121 19.633 95.211C20.3336 94.3302 36.6666 73.5009 36.6666 63.6628C36.6666 53.3722 28.4586 45.0303 18.3333 45.0303C8.208 45.0303 0 53.3722 0 63.6628C0 73.5009 16.333 94.3219 17.0337 95.211C17.3494 95.6121 17.8279 95.8462 18.3333 95.8462ZM18.3333 48.418C26.6137 48.4271 33.3243 55.2472 33.3333 63.6628C33.3333 70.2348 23.4814 84.6053 18.3333 91.4064C13.1852 84.6078 3.33333 70.2381 3.33333 63.6628C3.34228 55.2472 10.0529 48.4271 18.3333 48.418Z" fill="white"/>
<path d="M24.9999 61.9689C24.9999 58.2271 22.0148 55.1934 18.3332 55.1934C14.6515 55.1934 11.6665 58.2271 11.6665 61.9689C11.6665 65.7106 14.6515 68.7444 18.3332 68.7444C22.0148 68.7444 24.9999 65.7106 24.9999 61.9689ZM14.9998 61.9689C14.9998 60.098 16.4924 58.5811 18.3332 58.5811C20.174 58.5811 21.6665 60.098 21.6665 61.9689C21.6665 63.8397 20.174 65.3566 18.3332 65.3566C16.4924 65.3566 14.9998 63.8397 14.9998 61.9689Z" fill="#FAB900"/>
<path d="M86.6668 36.5608C87.1526 36.5608 87.6133 36.3457 87.9298 35.9711C89.1668 34.5129 100 21.516 100 14.5403C100 7.05597 94.0309 0.989258 86.6668 0.989258C79.3027 0.989258 73.3335 7.05597 73.3335 14.5403C73.3335 21.516 84.1668 34.5129 85.4038 35.9711C85.7204 36.3457 86.181 36.5608 86.6668 36.5608ZM86.6668 4.37702C92.1876 4.38281 96.6611 8.92933 96.6668 14.5403C96.6668 18.8329 90.3037 27.6778 86.6668 32.2227C83.0283 27.6778 76.6668 18.8412 76.6668 14.5403C76.6725 8.92933 81.146 4.38281 86.6668 4.37702Z" fill="white"/>
<path d="M91.6665 12.8464C91.6665 10.04 89.4277 7.76465 86.6665 7.76465C83.9053 7.76465 81.6665 10.04 81.6665 12.8464C81.6665 15.6528 83.9053 17.9282 86.6665 17.9282C89.4277 17.9282 91.6665 15.6528 91.6665 12.8464ZM84.9998 12.8464C84.9998 11.911 85.7461 11.1525 86.6665 11.1525C87.5869 11.1525 88.3332 11.911 88.3332 12.8464C88.3332 13.7819 87.5869 14.5404 86.6665 14.5404C85.7461 14.5404 84.9998 13.7819 84.9998 12.8464Z" fill="#FAB900"/>
<path d="M85.0002 43.3359H86.6668C87.5872 43.3359 88.3335 42.5775 88.3335 41.6421C88.3335 40.7067 87.5872 39.9482 86.6668 39.9482H85.0002C84.0798 39.9482 83.3335 40.7067 83.3335 41.6421C83.3335 42.5775 84.0798 43.3359 85.0002 43.3359Z" fill="#FAB900"/>
<path d="M63.333 53.498H66.703C67.6234 53.498 68.3696 52.7398 68.3696 51.8047C68.3696 50.8695 67.6234 50.1113 66.703 50.1113H63.3062C62.8659 50.1122 62.4436 50.2916 62.1335 50.6091C61.8234 50.9266 61.6501 51.3574 61.6534 51.8047C61.6591 52.7423 62.4102 53.4989 63.333 53.498Z" fill="#FAB900"/>
<path d="M82.0181 51.8047C82.0181 52.7398 82.7643 53.498 83.6847 53.498H87.0799C88.0003 53.498 88.7466 52.7398 88.7466 51.8047C88.7466 50.8695 88.0003 50.1113 87.0799 50.1113H83.6847C82.7643 50.1113 82.0181 50.8695 82.0181 51.8047Z" fill="#FAB900"/>
<path d="M74.8122 43.3359H78.2082C79.1286 43.3359 79.8749 42.5775 79.8749 41.6421C79.8749 40.7067 79.1286 39.9482 78.2082 39.9482H74.8122C73.891 39.9482 73.1455 40.7067 73.1455 41.6421C73.1455 42.5775 73.891 43.3359 74.8122 43.3359Z" fill="#FAB900"/>
<path d="M30.3579 99.2344H26.9611C26.0407 99.2344 25.2944 99.9927 25.2944 100.928C25.2944 101.863 26.0407 102.622 26.9611 102.622H30.3579C31.2783 102.622 32.0245 101.863 32.0245 100.928C32.0245 99.9927 31.2783 99.2344 30.3579 99.2344Z" fill="#FAB900"/>
<path d="M58.4384 49.469C58.5548 49.469 58.6703 49.4566 58.7834 49.4318C59.6835 49.2391 60.2597 48.3425 60.0717 47.4278C60.0245 47.1962 60.0009 46.9613 60.0001 46.7248C59.9992 46.1888 60.1238 45.6611 60.363 45.1831C60.7805 44.3494 60.4542 43.3296 59.633 42.9053C58.8127 42.481 57.8093 42.8127 57.3918 43.6472C56.7009 45.026 56.4959 46.6048 56.81 48.1192C56.9703 48.9033 57.6498 49.4673 58.4384 49.469Z" fill="#FAB900"/>
<path d="M73.5002 53.498H76.8969C77.8173 53.498 78.5636 52.7398 78.5636 51.8047C78.5636 50.8695 77.8173 50.1113 76.8969 50.1113H73.5002C72.5797 50.1113 71.8335 50.8695 71.8335 51.8047C71.8335 52.7398 72.5797 53.498 73.5002 53.498Z" fill="#FAB900"/>
<path d="M64.6232 43.3359H68.02C68.9404 43.3359 69.6866 42.5775 69.6866 41.6421C69.6866 40.7067 68.9404 39.9482 68.02 39.9482H64.6232C63.7028 39.9482 62.9565 40.7067 62.9565 41.6421C62.9565 42.5775 63.7028 43.3359 64.6232 43.3359Z" fill="#FAB900"/>
<path d="M48.1535 72.7707C48.2853 72.8055 48.422 72.822 48.5579 72.822C49.3229 72.8204 49.9886 72.2911 50.1733 71.5376C50.389 70.6667 50.795 69.8562 51.3615 69.1665C51.7618 68.705 51.8839 68.0599 51.6821 67.4809C51.4803 66.9012 50.9847 66.4785 50.3882 66.376C49.7925 66.2742 49.1878 66.5083 48.8102 66.988C47.9175 68.0706 47.2778 69.3443 46.9401 70.7147C46.8319 71.1505 46.8994 71.6129 47.1273 71.9983C47.3543 72.3845 47.7238 72.6624 48.1535 72.7707Z" fill="#FAB900"/>
<path d="M81.0799 99.1626C80.7218 99.2106 80.3613 99.2346 80 99.2337H77.902C76.9808 99.2337 76.2354 99.9921 76.2354 100.928C76.2354 101.863 76.9808 102.621 77.902 102.621H80C80.5013 102.621 81.0026 102.588 81.4998 102.523C82.4129 102.403 83.0574 101.554 82.9402 100.626C82.8222 99.6977 81.9865 99.0427 81.0734 99.1626H81.0799Z" fill="#FAB900"/>
<path d="M83.4019 79.416C82.2992 79.0769 81.1525 78.9057 80.0002 78.9082H79.5632C78.6427 78.9082 77.8965 79.6666 77.8965 80.602C77.8965 81.5374 78.6427 82.2958 79.5632 82.2958H80.0002C80.8237 82.2958 81.6432 82.4191 82.4318 82.6614C82.5889 82.711 82.7525 82.7358 82.9169 82.7358C83.7429 82.7367 84.4452 82.1222 84.5673 81.2918C84.6885 80.4606 84.1929 79.665 83.4019 79.4218V79.416Z" fill="#FAB900"/>
<path d="M79.847 67.0508C80.7674 67.0508 81.5137 66.2924 81.5137 65.3569C81.5137 64.4215 80.7674 63.6631 79.847 63.6631H76.4518C75.5314 63.6631 74.7852 64.4215 74.7852 65.3569C74.7852 66.2924 75.5314 67.0508 76.4518 67.0508H79.847Z" fill="#FAB900"/>
<path d="M89.8064 93.3881C88.9681 93.0043 87.9818 93.3831 87.6034 94.2351C87.2152 95.111 86.6821 95.9133 86.0286 96.6072C85.6006 97.0414 85.4378 97.6766 85.603 98.2672C85.7682 98.8586 86.2353 99.3126 86.8229 99.4533C87.4113 99.5947 88.029 99.4011 88.4367 98.9479C89.3531 97.9769 90.1001 96.8528 90.6438 95.6263C91.0198 94.7735 90.6454 93.7719 89.8064 93.3881Z" fill="#FAB900"/>
<path d="M98.5352 58.8791C98.1112 58.7517 97.6547 58.8005 97.2657 59.0156C96.8775 59.2306 96.5886 59.5937 96.4632 60.0246C96.2183 60.8549 95.7707 61.6091 95.1619 62.2162C94.5036 62.8712 94.4922 63.9439 95.1367 64.6129C95.7813 65.282 96.8368 65.2928 97.4952 64.6386C98.5108 63.6271 99.2562 62.37 99.6615 60.9847C99.7877 60.5539 99.7388 60.0899 99.5281 59.6946C99.3165 59.3001 98.9592 59.0065 98.5352 58.8791Z" fill="#FAB900"/>
<path d="M96.6331 55.7524C97.2915 55.7533 97.888 55.3596 98.1566 54.7492C98.4243 54.1388 98.3144 53.425 97.875 52.9271C96.9237 51.8519 95.7192 51.0405 94.3748 50.5691C93.5041 50.2647 92.556 50.7361 92.2565 51.6211C91.9571 52.5061 92.4209 53.4697 93.2917 53.774C94.099 54.0561 94.8216 54.5432 95.3913 55.19C95.7078 55.5481 96.1595 55.7524 96.6331 55.7524Z" fill="#FAB900"/>
<path d="M72.7718 78.9082H69.3766C68.4562 78.9082 67.71 79.6663 67.71 80.6013C67.71 81.5363 68.4562 82.2944 69.3766 82.2944H72.7718C73.6922 82.2944 74.4385 81.5363 74.4385 80.6013C74.4385 79.6663 73.6922 78.9082 72.7718 78.9082Z" fill="#FAB900"/>
<path d="M90.0351 63.6631H86.6383C85.7179 63.6631 84.9717 64.4215 84.9717 65.3569C84.9717 66.2924 85.7179 67.0508 86.6383 67.0508H90.0351C90.9555 67.0508 91.7018 66.2924 91.7018 65.3569C91.7018 64.4215 90.9555 63.6631 90.0351 63.6631Z" fill="#FAB900"/>
<path d="M40.5452 99.2344H37.1501C36.2297 99.2344 35.4834 99.9927 35.4834 100.928C35.4834 101.863 36.2297 102.622 37.1501 102.622H40.5452C41.4657 102.622 42.2119 101.863 42.2119 100.928C42.2119 99.9927 41.4657 99.2344 40.5452 99.2344Z" fill="#FAB900"/>
<path d="M89.6549 84.1074C89.1349 83.3341 88.0965 83.1356 87.3348 83.6641C86.5739 84.1926 86.3786 85.248 86.8986 86.0222C87.4308 86.8146 87.8255 87.6938 88.0648 88.6219C88.195 89.2282 88.6409 89.7137 89.2277 89.8874C89.8136 90.0611 90.446 89.8948 90.8765 89.454C91.3062 89.0139 91.4648 88.3696 91.2899 87.7749C90.9562 86.4664 90.4036 85.2257 89.6549 84.1074Z" fill="#FAB900"/>
<path d="M53.2536 78.2996C52.4617 77.8985 51.7692 77.3228 51.2248 76.614C50.66 75.8746 49.6126 75.7415 48.8859 76.3155C48.1584 76.8886 48.0274 77.9531 48.5913 78.6925C49.445 79.8057 50.5339 80.7097 51.7781 81.3366C52.5993 81.7261 53.5766 81.3771 53.9778 80.5509C54.379 79.7255 54.0568 78.7247 53.2536 78.2996Z" fill="#FAB900"/>
<path d="M50.7332 99.2344H47.3332C46.4128 99.2344 45.6665 99.9927 45.6665 100.928C45.6665 101.863 46.4128 102.622 47.3332 102.622H50.7332C51.6536 102.622 52.3999 101.863 52.3999 100.928C52.3999 99.9927 51.6536 99.2344 50.7332 99.2344Z" fill="#FAB900"/>
<path d="M71.1102 99.2344H67.715C66.7946 99.2344 66.0483 99.9927 66.0483 100.928C66.0483 101.863 66.7946 102.622 67.715 102.622H71.1102C72.0306 102.622 72.7769 101.863 72.7769 100.928C72.7769 99.9927 72.0306 99.2344 71.1102 99.2344Z" fill="#FAB900"/>
<path d="M59.472 67.0508C60.3924 67.0508 61.1387 66.2924 61.1387 65.3569C61.1387 64.4215 60.3924 63.6631 59.472 63.6631H56.0768C55.1564 63.6631 54.4102 64.4215 54.4102 65.3569C54.4102 66.2924 55.1564 67.0508 56.0768 67.0508H59.472Z" fill="#FAB900"/>
<path d="M69.6662 67.0508C70.5866 67.0508 71.3329 66.2924 71.3329 65.3569C71.3329 64.4215 70.5866 63.6631 69.6662 63.6631H66.2629C65.3425 63.6631 64.5962 64.4215 64.5962 65.3569C64.5962 66.2924 65.3425 67.0508 66.2629 67.0508H69.6662Z" fill="#FAB900"/>
<path d="M62.5847 78.9082H59.1886C58.2682 78.9082 57.522 79.6663 57.522 80.6013C57.522 81.5363 58.2682 82.2944 59.1886 82.2944H62.5847C63.5059 82.2944 64.2513 81.5363 64.2513 80.6013C64.2513 79.6663 63.5059 78.9082 62.5847 78.9082Z" fill="#FAB900"/>
<path d="M60.9238 99.2344H57.527C56.6066 99.2344 55.8604 99.9927 55.8604 100.928C55.8604 101.863 56.6066 102.622 57.527 102.622H60.9238C61.8442 102.622 62.5905 101.863 62.5905 100.928C62.5905 99.9927 61.8442 99.2344 60.9238 99.2344Z" fill="#FAB900"/>
<path d="M19.9998 99.2344H18.3332C17.4128 99.2344 16.6665 99.9927 16.6665 100.928C16.6665 101.863 17.4128 102.622 18.3332 102.622H19.9998C20.9202 102.622 21.6665 101.863 21.6665 100.928C21.6665 99.9927 20.9202 99.2344 19.9998 99.2344Z" fill="#FAB900"/>
</svg>
