<svg width="80" height="96" viewBox="0 0 80 96" fill="none" xmlns="http://www.w3.org/2000/svg">
<path d="M79.5322 56.6589L59.4867 36.3724C58.8615 35.774 57.8841 35.774 57.2596 36.3724L48.3496 45.3884C47.7352 46.011 47.7352 47.0196 48.3496 47.6422L49.4632 48.7691L46.4548 51.8136L44.0423 52.2992L39.4404 47.6422C39.1451 47.3433 38.7445 47.1752 38.3269 47.1752H32.2977L29.4169 44.2615C30.0321 43.6397 30.0321 42.6303 29.4169 42.0077L20.5092 32.9902C20.2132 32.6906 19.8125 32.5225 19.3949 32.5225C18.9766 32.5225 18.5759 32.6906 18.2806 32.9902L0.461418 51.0229C-0.153806 51.6455 -0.153806 52.6541 0.461418 53.2767L9.37062 62.2926C9.98584 62.9152 10.9825 62.9152 11.5977 62.2926L21.8243 72.6417C21.1368 74.0784 21.2098 75.7679 22.0173 77.1384C22.824 78.5089 24.2583 79.3774 25.834 79.449C25.9347 81.8974 27.875 83.857 30.2944 83.9551C30.3974 86.3964 32.33 88.3514 34.7417 88.4557C34.8409 90.3343 36.0213 91.978 37.7563 92.6543C39.4904 93.3298 41.4561 92.9119 42.7742 91.5858L44.4484 93.28C45.7626 94.6271 47.7398 95.0591 49.4863 94.3812C51.232 93.7026 52.4155 92.0426 52.5016 90.1515C54.9179 90.0511 56.8536 88.0914 56.952 85.6462C59.3698 85.5427 61.307 83.5831 61.4093 81.137C63.2711 81.0468 64.9045 79.8529 65.5744 78.0933C66.2442 76.3329 65.8243 74.3391 64.5039 73.0083L62.8382 71.3218L67.2885 66.808L68.4021 67.9365C69.0173 68.5591 70.014 68.5591 70.6292 67.9365L79.5392 58.9205C80.1536 58.2979 80.1536 57.2893 79.5392 56.6667L79.5322 56.6589ZM50.0207 62.8569C50.636 63.4795 50.636 64.4881 50.0207 65.1107C49.3986 65.7154 48.4158 65.7154 47.7936 65.1107L41.1115 58.3501C40.4963 57.7275 39.4989 57.7275 38.8844 58.3501C37.0388 60.2186 34.0457 60.2186 32.2 58.3501L29.9791 60.6031C30.5512 61.1712 31.2057 61.6475 31.9193 62.0156L23.8545 70.1825L18.2806 64.548L32.2977 50.3629H37.6747L50.0207 62.8569ZM10.4888 58.9119L3.80131 52.1498L19.3941 36.3709L26.0762 43.133L10.4888 58.9119ZM27.1944 46.5153L29.4184 48.7691L16.0519 62.2926L13.8248 60.0388L27.1944 46.5153ZM39.4289 89.795C39.0159 89.7966 38.6191 89.6324 38.3269 89.3374C37.7217 88.7226 37.714 87.7303 38.3092 87.1062L38.3269 87.0883L41.563 83.8126L42.7773 82.5869L40.554 80.3269L39.3358 81.5596L36.0867 84.8345L36.0729 84.8524C35.4453 85.4182 34.4902 85.3863 33.9011 84.7792C33.312 84.173 33.2974 83.2056 33.868 82.5807L38.3269 78.0715L36.0998 75.8185L31.6456 80.3269C31.0303 80.9503 30.0329 80.9503 29.4177 80.3277C28.8025 79.7059 28.8017 78.6965 29.4169 78.0739L33.8727 73.5663L31.6456 71.3125L27.1883 75.8201C26.5661 76.4224 25.5856 76.4224 24.9627 75.8201C24.3482 75.1975 24.3482 74.1889 24.9627 73.5663L35.4915 62.9067C37.0526 62.93 38.5853 62.481 39.8919 61.6171L45.5711 67.3645C47.4414 69.1708 50.3837 69.1708 52.254 67.3645C54.0989 65.4974 54.0989 62.4709 52.254 60.6031L46.7262 55.0091L60.611 69.0587L60.1381 69.5365C58.7661 69.1521 57.2958 69.4221 56.1445 70.2689C54.9925 71.1164 54.2858 72.4487 54.2243 73.8877C51.7918 73.992 49.8492 75.9757 49.7685 78.4389C47.3514 78.4996 45.4004 80.4561 45.3181 82.9013C43.8977 82.9628 42.5827 83.6757 41.7444 84.8376C40.907 85.9995 40.6378 87.4844 41.0139 88.872L40.5409 89.3499C40.2433 89.6417 39.8434 89.802 39.4289 89.795ZM48.9072 91.0332C48.285 91.6363 47.303 91.6363 46.6801 91.0332L44.4514 88.7747C43.9008 88.1436 43.93 87.1879 44.5176 86.5925C45.1059 85.9972 46.0502 85.9668 46.6739 86.5241L48.9072 88.7747C49.204 89.072 49.3701 89.4775 49.3686 89.9001C49.3701 90.325 49.204 90.7328 48.9072 91.0332ZM53.3614 86.5241C52.7462 87.1466 51.7495 87.1466 51.1343 86.5241L48.9072 84.2703C48.6119 83.9714 48.445 83.5659 48.445 83.1426C48.445 82.72 48.6119 82.3138 48.9072 82.0149C49.201 81.7145 49.6016 81.5464 50.0192 81.548C50.4368 81.548 50.8374 81.7161 51.1328 82.0149L53.3599 84.2687C53.6559 84.5675 53.8221 84.973 53.8221 85.3964C53.8228 85.819 53.6567 86.2252 53.3614 86.5241ZM57.8141 82.0149C57.1912 82.6173 56.2107 82.6173 55.5885 82.0149L53.3614 79.7611C52.7646 79.1362 52.7731 78.1416 53.3806 77.5268C53.9882 76.912 54.9702 76.9034 55.5885 77.5073L57.8156 79.7611C58.1109 80.06 58.277 80.4654 58.277 80.888C58.2786 81.3114 58.1117 81.7176 57.8141 82.0149ZM62.2706 77.5073C61.9753 77.8069 61.5746 77.975 61.1563 77.975C60.7387 77.975 60.338 77.8069 60.042 77.5073L57.8156 75.2543C57.1989 74.6309 57.1981 73.6208 57.8141 72.9974C58.4293 72.3732 59.4275 72.3725 60.0443 72.9958L62.266 75.2543C62.8812 75.8761 62.8812 76.8855 62.266 77.5073H62.2706ZM62.8282 66.8002L49.4647 53.2767L51.6903 51.0229L65.0553 64.548L62.8282 66.8002ZM69.511 64.548L51.6903 46.5153L58.3732 39.7524L76.1923 57.7858L69.511 64.548Z" fill="white"/>
<path d="M9.76485 90.8212V65.0449H6.58838V90.8212C6.58838 93.4903 8.72102 95.6543 11.3531 95.6543H32.0001V92.4323H11.3531C10.476 92.4323 9.76485 91.7109 9.76485 90.8212Z" fill="white"/>
<path d="M70.1603 90.8713C70.1603 91.7517 69.4324 92.4655 68.5346 92.4655H55.5293V95.6541H68.5346C71.2279 95.6541 73.4116 93.5126 73.4116 90.8713V71.7402H70.1603V90.8713Z" fill="white"/>
<path d="M9.77045 4.81688C9.77045 3.93018 10.4828 3.21125 11.3615 3.21125H55.9105V14.4506C55.9105 17.1107 58.0469 19.2675 60.6836 19.2675H70.2298V44.9575H73.4119V17.7097C73.4119 17.3138 73.2666 16.932 73.004 16.6372L58.6847 0.533118C58.3833 0.193647 57.9529 0 57.5015 0H11.3615C8.72478 0 6.58838 2.15678 6.58838 4.81688V38.535H9.77045V4.81688ZM59.0925 14.4506V5.80471L68.2123 16.0563H60.6836C59.8049 16.0563 59.0925 15.3373 59.0925 14.4506Z" fill="white"/>
<path d="M16 9.56543H18.8235V12.4351H16V9.56543Z" fill="#FAB900"/>
<path d="M22.5884 9.56543H34.8237V12.4351H22.5884V9.56543Z" fill="#FAB900"/>
<path d="M16 16.2617H34.8235V19.1311H16V16.2617Z" fill="#FAB900"/>
<path d="M16 25.8271H22.5883V28.6956H16V25.8271Z" fill="#FAB900"/>
<path d="M25.4116 25.8271H63.0587V28.6956H25.4116V25.8271Z" fill="#FAB900"/>
<path d="M29.1763 35.3916H52.7057V38.26H29.1763V35.3916Z" fill="#FAB900"/>
</svg>
