<svg width="90" height="83" viewBox="0 0 90 83" fill="none" xmlns="http://www.w3.org/2000/svg">
<path d="M86.0451 34.7989H84.7275V30.7786V16.4869C84.7275 11.8078 80.9817 8.00105 76.3779 8.00105H40.1707L15.7436 0.908077C15.7366 0.906112 15.7294 0.90504 15.7224 0.903075C15.7152 0.901109 15.7083 0.898251 15.7011 0.896465C15.6863 0.892713 15.6717 0.890927 15.6572 0.887711C15.6345 0.882888 15.6118 0.877886 15.5891 0.874134C15.5686 0.87074 15.5483 0.868596 15.5278 0.866095C15.5039 0.863237 15.4801 0.860736 15.4564 0.859306C15.4371 0.858235 15.4179 0.858056 15.3986 0.857698C15.374 0.857341 15.3495 0.857163 15.3251 0.858234C15.307 0.858949 15.2889 0.860735 15.271 0.862165C15.2458 0.864308 15.2207 0.866631 15.1959 0.870383C15.179 0.872884 15.1623 0.876099 15.1456 0.879136C15.12 0.883781 15.0947 0.888783 15.0695 0.895035C15.0539 0.898966 15.0386 0.903432 15.0231 0.907898C14.9975 0.915401 14.9721 0.923083 14.9468 0.932015C14.9326 0.937196 14.9185 0.942734 14.9043 0.948451C14.8788 0.958455 14.8535 0.968995 14.8287 0.980607C14.8155 0.98686 14.8027 0.993648 14.7897 1.00026C14.7649 1.01294 14.7405 1.0258 14.7166 1.04028C14.7041 1.0476 14.6921 1.05546 14.6798 1.06332C14.6563 1.07833 14.6331 1.09369 14.6106 1.1103C14.5988 1.11888 14.5874 1.12817 14.5758 1.13728C14.5541 1.15425 14.5327 1.17158 14.5121 1.18998C14.5005 1.20034 14.4894 1.21124 14.4782 1.22196C14.4589 1.24054 14.4397 1.25912 14.4214 1.27877C14.41 1.29109 14.3993 1.30396 14.3882 1.31682C14.3715 1.33629 14.355 1.35594 14.3393 1.37649C14.3281 1.39131 14.3175 1.4065 14.3068 1.42168C14.2929 1.44151 14.2792 1.46152 14.2666 1.48207C14.2557 1.49957 14.2456 1.5178 14.2356 1.53584C14.2245 1.55567 14.2135 1.57568 14.2035 1.59622C14.1936 1.61623 14.1848 1.63677 14.1759 1.65732C14.1671 1.67751 14.1585 1.69769 14.1507 1.71842C14.1426 1.74021 14.1356 1.76254 14.1284 1.78505C14.1238 1.79952 14.1182 1.8131 14.114 1.82775C14.1119 1.83507 14.111 1.84222 14.1091 1.84936C14.1071 1.85669 14.1043 1.86366 14.1026 1.87098L12.5951 8.00069H8.35047C3.75574 8.00069 0.0165234 11.7921 0.00140625 16.4583C0.00123047 16.468 0 16.4771 0 16.4866V62.9346C0 63.6742 0.592382 64.2744 1.31836 64.2744C2.04609 64.2744 2.63671 63.6742 2.63671 62.9346V22.6665C4.13155 24.0949 6.14143 24.9728 8.35047 24.9728H76.3779C76.3794 24.9728 76.3809 24.9726 76.3824 24.9726C79.5303 24.9751 82.0907 27.5787 82.0907 30.7788V40.1584H67.5867C67.5858 40.1584 67.5851 40.1586 67.5843 40.1586C67.5461 40.1586 67.5081 40.1609 67.4703 40.1643C67.4283 40.1681 67.3868 40.1742 67.3461 40.1818C67.3399 40.1829 67.3339 40.1834 67.3278 40.1847C67.2933 40.1917 67.2596 40.201 67.226 40.2106C67.2186 40.2127 67.2111 40.2142 67.2039 40.2165C67.174 40.2258 67.145 40.2369 67.116 40.2481C67.1049 40.2524 67.0936 40.256 67.0826 40.2606C67.0583 40.2708 67.0349 40.2828 67.0116 40.2944C66.9961 40.3019 66.9804 40.3089 66.9653 40.3169C66.947 40.3267 66.9298 40.338 66.9122 40.3487C66.8927 40.3605 66.8729 40.3719 66.8539 40.3848C66.841 40.3934 66.8293 40.4032 66.817 40.4123C66.7945 40.4287 66.7718 40.445 66.7503 40.463C66.741 40.4709 66.7324 40.4796 66.7234 40.4877C66.7004 40.508 66.6774 40.5282 66.6556 40.5504C66.6428 40.5634 66.6312 40.5777 66.619 40.5913C66.602 40.6101 66.5844 40.6285 66.5682 40.6485C66.541 40.6822 66.5155 40.7172 66.4916 40.7535C66.4911 40.754 66.4905 40.7548 66.4902 40.7555L59.4593 51.4744C59.4103 51.5491 59.3688 51.6282 59.3359 51.7106C59.3234 51.7413 59.3134 51.7726 59.3034 51.8037C59.3004 51.8131 59.2965 51.8222 59.2937 51.8317C59.2839 51.8648 59.2763 51.8982 59.2691 51.9314C59.2672 51.9402 59.2647 51.9487 59.263 51.9575C59.2572 51.9875 59.2533 52.0177 59.2496 52.0479C59.248 52.0607 59.2456 52.0736 59.2443 52.0866C59.2419 52.1115 59.2413 52.1361 59.2405 52.161C59.2396 52.1799 59.238 52.1988 59.238 52.2179C59.238 52.2363 59.2396 52.2547 59.2403 52.2732C59.2412 52.2985 59.2419 52.3241 59.2443 52.3494C59.2456 52.3618 59.2478 52.3741 59.2494 52.3864C59.2533 52.4171 59.2572 52.4479 59.2631 52.4784C59.2647 52.4868 59.2672 52.495 59.2691 52.5034C59.2763 52.537 59.284 52.5706 59.2939 52.604C59.2967 52.6135 59.3006 52.6226 59.3036 52.6322C59.3136 52.6633 59.3236 52.6946 59.3361 52.7253C59.3691 52.8075 59.4106 52.8868 59.4598 52.9617L66.4905 63.679C66.4909 63.6795 66.4912 63.6799 66.4916 63.6804C66.5199 63.7231 66.5508 63.7638 66.5835 63.803C66.5942 63.8158 66.6057 63.8278 66.6168 63.84C66.6391 63.8648 66.6623 63.8887 66.6864 63.9118C66.7006 63.9253 66.7147 63.9386 66.7291 63.9513C66.7547 63.9736 66.7813 63.9945 66.8085 64.0148C66.8208 64.024 66.8326 64.034 66.8451 64.0425C66.8846 64.0699 66.9256 64.0951 66.968 64.1179C66.9787 64.1236 66.9898 64.1285 67.0005 64.1338C67.0342 64.151 67.0687 64.1669 67.104 64.181C67.1177 64.1865 67.1314 64.1915 67.1453 64.1965C67.1789 64.2087 67.213 64.2194 67.2478 64.2289C67.262 64.2326 67.2761 64.2365 67.2905 64.2401C67.3262 64.2485 67.3624 64.255 67.3992 64.2603C67.4125 64.2623 67.4257 64.2649 67.439 64.2666C67.4844 64.2717 67.5305 64.2746 67.5772 64.275C67.5809 64.275 67.5846 64.2757 67.5885 64.2757C67.5892 64.2757 67.59 64.2755 67.5909 64.2755H82.0913V73.6558C82.0913 76.8575 79.5284 79.4622 76.3784 79.4622H8.35118C5.20118 79.4622 2.6383 76.8575 2.6383 73.6558C2.6383 73.6489 2.63742 73.6421 2.63724 73.6351V68.2947C2.63724 67.5569 2.04662 66.9548 1.31888 66.9548C0.592909 66.9548 0.000527343 67.5569 0.000527343 68.2947V73.6558C0.000527343 73.6698 0.00210937 73.6834 0.00263671 73.6971C0.0246093 78.3573 3.76083 82.1419 8.35118 82.1419H76.3784C80.9819 82.1419 84.7273 78.3358 84.728 73.6573C84.728 73.6571 84.728 73.6569 84.728 73.6566V64.2755H86.0456C88.226 64.2755 90 62.4726 90 60.2567V38.8177C89.9995 36.6018 88.2255 34.7989 86.0451 34.7989ZM16.33 3.86521L39.5927 10.6204C39.5938 10.6207 39.595 10.6209 39.5961 10.6213L55.1871 15.1485H13.5552L16.33 3.86521ZM82.0906 24.5985C80.5959 23.1704 78.5864 22.2927 76.3779 22.2927C76.3756 22.2927 76.3735 22.2931 76.371 22.2931H8.35047C5.2003 22.2931 2.63742 19.6884 2.63742 16.4869C2.63742 13.2854 5.2003 10.6807 8.35047 10.6807H11.9361L10.8374 15.1485H8.35082C7.62274 15.1485 7.03247 15.7484 7.03247 16.4883C7.03247 17.2283 7.62274 17.8282 8.35082 17.8282H11.8622C11.864 17.8282 11.8659 17.8286 11.8678 17.8286C11.8693 17.8286 11.8707 17.8282 11.8719 17.8282H64.5958C64.5976 17.8282 64.5991 17.8286 64.6007 17.8286C64.6021 17.8286 64.6035 17.8282 64.6049 17.8282H74.6185C75.3466 17.8282 75.9368 17.2283 75.9368 16.4883C75.9368 15.7484 75.3466 15.1485 74.6185 15.1485H64.7848L49.3988 10.6807H76.3777C79.5277 10.6807 82.0906 13.2854 82.0906 16.4869V24.5985ZM87.3628 60.256C87.3628 60.9943 86.7716 61.5951 86.0451 61.5951H68.2923L62.1401 52.2172L68.2923 42.838H86.0451C86.0636 42.838 86.0815 42.8358 86.0998 42.8351C86.542 42.8288 86.9667 42.7488 87.3628 42.6062V60.256ZM86.0451 40.1568C86.036 40.1568 86.027 40.1581 86.0179 40.1583H84.7275V37.4786H86.0451C86.7716 37.4786 87.3628 38.0794 87.3628 38.8177C87.3628 39.556 86.7716 40.1568 86.0451 40.1568Z" fill="white"/>
<path d="M72.8608 47.3047C70.1953 47.3047 68.0269 49.5086 68.0269 52.2176C68.0269 54.9266 70.1953 57.1304 72.8608 57.1304C75.5264 57.1304 77.6948 54.9266 77.6948 52.2176C77.6948 49.5086 75.5264 47.3047 72.8608 47.3047ZM72.8608 54.4507C71.6492 54.4507 70.6636 53.449 70.6636 52.2176C70.6636 50.9862 71.6492 49.9844 72.8608 49.9844C74.0725 49.9844 75.0581 50.9862 75.0581 52.2176C75.0581 53.449 74.0725 54.4507 72.8608 54.4507Z" fill="#FAB900"/>
</svg>
