<svg width="95" height="100" viewBox="0 0 95 100" fill="none" xmlns="http://www.w3.org/2000/svg">
<path d="M13.9922 74.2188C12.9142 74.2188 12.0391 75.0938 12.0391 76.1719C12.0391 77.2499 12.9142 78.125 13.9922 78.125C15.0702 78.125 15.9453 77.2499 15.9453 76.1719C15.9453 75.0938 15.0702 74.2188 13.9922 74.2188Z" fill="black"/>
<path d="M33.5234 15.625H17.8984C14.6674 15.625 12.0391 18.2533 12.0391 21.4844C12.0391 22.5632 12.9134 23.4375 13.9922 23.4375C15.071 23.4375 15.9453 22.5632 15.9453 21.4844C15.9453 20.4071 16.8212 19.5312 17.8984 19.5312H33.5234C36.7545 19.5312 39.3828 16.9029 39.3828 13.6719C39.3828 10.4347 36.7606 7.8125 33.5234 7.8125H17.8984C16.8212 7.8125 15.9453 6.93665 15.9453 5.85938C15.9453 4.78134 16.8204 3.90625 17.8984 3.90625H29.6172C30.696 3.90625 31.5703 3.03192 31.5703 1.95312C31.5703 0.874328 30.696 0 29.6172 0H17.8984C14.6613 0 12.0391 2.62222 12.0391 5.85938C12.0391 9.09042 14.6674 11.7188 17.8984 11.7188H33.5234C34.6022 11.7188 35.4766 12.5938 35.4766 13.6719C35.4766 14.7491 34.6007 15.625 33.5234 15.625Z" fill="white"/>
<path d="M45.2422 58.5938H33.5234C32.4446 58.5938 31.5703 59.4681 31.5703 60.5469V68.3594C31.5703 69.4382 32.4446 70.3125 33.5234 70.3125H45.2422C46.321 70.3125 47.1953 69.4382 47.1953 68.3594V60.5469C47.1953 59.4681 46.321 58.5938 45.2422 58.5938ZM43.2891 66.4062H35.4766V62.5H43.2891V66.4062Z" fill="white"/>
<path d="M45.2422 74.2188H33.5234C32.4446 74.2188 31.5703 75.0931 31.5703 76.1719V83.9844C31.5703 85.0632 32.4446 85.9375 33.5234 85.9375H45.2422C46.321 85.9375 47.1953 85.0632 47.1953 83.9844V76.1719C47.1953 75.0931 46.321 74.2188 45.2422 74.2188ZM43.2891 82.0312H35.4766V78.125H43.2891V82.0312Z" fill="white"/>
<path d="M72.5859 70.3125H84.3047C85.3835 70.3125 86.2578 69.4382 86.2578 68.3594V60.5469C86.2578 59.4681 85.3835 58.5938 84.3047 58.5938H72.5859C71.5071 58.5938 70.6328 59.4681 70.6328 60.5469V68.3594C70.6328 69.4382 71.5071 70.3125 72.5859 70.3125ZM74.5391 62.5H82.3516V66.4062H74.5391V62.5Z" fill="white"/>
<path d="M72.5859 85.9375H84.3047C85.3835 85.9375 86.2578 85.0632 86.2578 83.9844V76.1719C86.2578 75.0931 85.3835 74.2188 84.3047 74.2188H72.5859C71.5071 74.2188 70.6328 75.0931 70.6328 76.1719V83.9844C70.6328 85.0632 71.5071 85.9375 72.5859 85.9375ZM74.5391 78.125H82.3516V82.0312H74.5391V78.125Z" fill="white"/>
<path d="M51.1016 60.5469V68.3594C51.1016 69.4382 51.9759 70.3125 53.0547 70.3125H64.7734C65.8522 70.3125 66.7266 69.4382 66.7266 68.3594V60.5469C66.7266 59.4681 65.8522 58.5938 64.7734 58.5938H53.0547C51.9759 58.5938 51.1016 59.4681 51.1016 60.5469ZM55.0078 62.5H62.8203V66.4062H55.0078V62.5Z" fill="white"/>
<path d="M64.7734 74.2188H53.0547C51.9759 74.2188 51.1016 75.0931 51.1016 76.1719V83.9844C51.1016 85.0632 51.9759 85.9375 53.0547 85.9375H64.7734C65.8522 85.9375 66.7266 85.0632 66.7266 83.9844V76.1719C66.7266 75.0931 65.8522 74.2188 64.7734 74.2188ZM62.8203 82.0312H55.0078V78.125H62.8203V82.0312Z" fill="white"/>
<path d="M93.2831 39.4485C92.7879 39.08 92.1478 38.9679 91.5558 39.1449L58.9142 48.9372V41.0156C58.9142 40.3839 58.6082 39.7911 58.0933 39.4241C57.5783 39.0579 56.9176 38.9633 56.3209 39.1708L24.9405 50.058C24.6918 45.6802 24.0265 33.9645 23.7549 29.1862C23.6961 28.1525 22.8401 27.3438 21.8048 27.3438H6.17979C5.14371 27.3438 4.28846 28.1525 4.22971 29.1862C4.19157 29.8531 4.41434 25.9247 0.323463 97.9362C0.292945 98.4726 0.485206 98.9975 0.853706 99.3881C1.22297 99.7787 1.73643 100 2.27354 100H92.1173C93.1961 100 94.0704 99.1257 94.0704 98.0469V41.0156C94.0704 40.3984 93.7782 39.817 93.2831 39.4485ZM20.8481 46.875L21.0701 50.7812H6.91526L7.13728 46.875H20.8481ZM20.626 42.9688H7.35929L7.58131 39.0625H20.404L20.626 42.9688ZM6.69325 54.6875H21.2921L21.5133 58.5938H6.47123L6.69325 54.6875ZM19.9592 31.25L20.1813 35.1562H7.80332L8.02534 31.25H19.9592ZM15.9454 96.0938V83.9844C15.9454 82.9056 15.0711 82.0312 13.9923 82.0312C12.9135 82.0312 12.0392 82.9056 12.0392 83.9844V96.0938H4.3411L6.24921 62.5H21.7354L23.6435 96.0938H15.9454ZM90.1642 96.0938H27.5566C27.4505 94.2276 25.2785 56.0013 25.1755 54.187C25.2174 54.1489 25.2579 54.11 25.2968 54.0688L55.0079 43.7607V51.5625C55.0079 52.1797 55.3001 52.7611 55.7953 53.1296C56.2904 53.4981 56.9313 53.611 57.5226 53.4332L90.1642 43.6409V96.0938Z" fill="#171717"/>
</svg>
