<svg width="92" height="100" viewBox="0 0 92 100" fill="none" xmlns="http://www.w3.org/2000/svg">
<path d="M85.6539 33.2965C83.8159 29.9171 81.5839 26.8361 79.0325 24.0961L83.7739 18.2137C84.4812 17.3363 84.3431 16.0514 83.4655 15.3441C82.588 14.6369 81.3029 14.7745 80.5957 15.6522L76.1035 21.2255C70.4647 16.1792 63.6202 12.6104 56.1931 10.889V2.04082C56.1931 0.913674 55.2794 0 54.1523 0H38.8223C37.6953 0 36.7814 0.913674 36.7814 2.04082V10.682C32.4894 11.5824 28.3212 13.1031 24.4427 15.2127C21.3353 16.9027 18.4778 18.9204 15.9016 21.2167L11.4169 15.6522C10.7098 14.7749 9.42469 14.6369 8.54714 15.3441C7.66959 16.0514 7.53143 17.3363 8.23878 18.2137L12.968 24.0812C8.25184 29.1339 4.73898 35.2506 2.72367 42.0724C-0.692041 53.6337 0.598979 65.8331 6.35857 76.4231C14.2684 90.9659 29.4753 100 46.0447 100C53.5196 100 60.9631 98.1004 67.57 94.5071C74.6614 90.6504 80.5898 84.9704 84.7143 78.0814C88.7172 71.3953 90.9363 63.7443 91.1325 55.9553C91.3304 48.0857 89.4359 40.2504 85.6539 33.2965ZM40.8631 4.08163H52.1116V10.1371C50.0929 9.86102 48.0412 9.71959 45.9682 9.71959C44.2616 9.71959 42.5569 9.82367 40.8631 10.0194V4.08163ZM87.0521 55.8527C86.6837 70.4945 78.4714 83.932 65.62 90.9216C59.6096 94.1906 52.8404 95.9184 46.0447 95.9184C30.9718 95.9184 17.1388 87.701 9.94429 74.4733C-0.870408 54.5884 6.50878 29.6127 26.3931 18.798C32.4033 15.529 39.1725 13.8012 45.9682 13.8012C61.041 13.8012 74.8739 22.0188 82.0682 35.2465C85.5086 41.5722 87.2321 48.6978 87.0521 55.8527Z" fill="#171717"/>
<path d="M46.9982 23.787C47.0205 23.7876 47.0425 23.7878 47.0645 23.7878C48.1615 23.7878 49.0678 22.9164 49.1031 21.8121L49.1386 20.7007C49.1745 19.5739 48.2905 18.6315 47.1639 18.5958C46.0415 18.5599 45.0947 19.4439 45.059 20.5705L45.0235 21.6821C44.9876 22.8084 45.8717 23.7509 46.9982 23.787Z" fill="white"/>
<path d="M28.5668 26.6177C28.9347 27.3047 29.6392 27.6955 30.3676 27.6955C30.6927 27.6955 31.0225 27.6175 31.3292 27.4535C32.3227 26.9214 32.697 25.6847 32.1649 24.691L31.64 23.7106C31.108 22.7171 29.8715 22.3428 28.8776 22.8749C27.8841 23.4069 27.5098 24.6437 28.0419 25.6373L28.5668 26.6177Z" fill="white"/>
<path d="M18.9344 35.6531L17.9895 35.0668C17.0323 34.4725 15.7738 34.767 15.1793 35.7246C14.5848 36.6823 14.8793 37.9403 15.837 38.5348L16.7819 39.1213C17.117 39.3291 17.4889 39.4282 17.8562 39.4282C18.5389 39.4282 19.2058 39.0858 19.5921 38.4636C20.1866 37.5058 19.8921 36.2476 18.9344 35.6531Z" fill="white"/>
<path d="M14.9333 53.8676C14.9692 52.7408 14.0849 51.7986 12.9584 51.7629L11.847 51.7276C10.7186 51.6925 9.77819 52.5759 9.74227 53.7025C9.70635 54.8292 10.5906 55.7715 11.7172 55.8074L12.8286 55.8427C12.8506 55.8433 12.8729 55.8437 12.8947 55.8437C13.9917 55.8435 14.898 54.9719 14.9333 53.8676Z" fill="white"/>
<path d="M15.8376 68.7014L14.8574 69.2265C13.8637 69.7587 13.4898 70.9956 14.0221 71.9891C14.39 72.6759 15.0945 73.0667 15.8227 73.0667C16.148 73.0667 16.4778 72.9885 16.7845 72.8242L17.7647 72.2993C18.7584 71.7671 19.1323 70.5301 18.6 69.5367C18.0678 68.543 16.831 68.1689 15.8376 68.7014Z" fill="white"/>
<path d="M29.611 81.2738C28.653 80.6795 27.3953 80.9742 26.8006 81.9319L26.2143 82.8766C25.62 83.8342 25.9145 85.0924 26.8722 85.6868C27.2075 85.895 27.5792 85.994 27.9465 85.994C28.6292 85.994 29.2961 85.6515 29.6826 85.0289L30.269 84.084C30.8633 83.1264 30.5686 81.8681 29.611 81.2738Z" fill="white"/>
<path d="M45.015 85.9326C43.8844 85.8993 42.946 86.7807 42.9101 87.9074L42.8746 89.0187C42.8387 90.1452 43.7228 91.0879 44.8493 91.1236C44.8715 91.1244 44.8936 91.1246 44.9156 91.1246C46.0126 91.1246 46.9189 90.2532 46.9542 89.1489L46.9897 88.0372C47.0256 86.9109 46.1415 85.9687 45.015 85.9326Z" fill="white"/>
<path d="M63.4467 83.1013C62.9147 82.1078 61.6777 81.7331 60.6841 82.266C59.6906 82.798 59.3165 84.0349 59.8486 85.0284L60.3737 86.0088C60.7416 86.6958 61.4463 87.0866 62.1745 87.0866C62.4996 87.0866 62.8296 87.0084 63.1363 86.8441C64.1298 86.3121 64.5039 85.0751 63.9718 84.0815L63.4467 83.1013Z" fill="white"/>
<path d="M76.1759 71.1844L75.2312 70.5981C74.2738 70.0038 73.0152 70.2981 72.421 71.2559C71.8265 72.2134 72.121 73.4716 73.0787 74.0661L74.0234 74.6524C74.3585 74.8606 74.7303 74.9598 75.0977 74.9598C75.7803 74.9598 76.4473 74.6173 76.8336 73.9947C77.4279 73.0369 77.1334 71.7787 76.1759 71.1844Z" fill="white"/>
<path d="M80.2962 53.9122L79.1846 53.8769C78.054 53.8434 77.1158 54.7253 77.0797 55.8518C77.0438 56.9785 77.928 57.9208 79.0546 57.9567L80.1662 57.992C80.1882 57.9926 80.2105 57.993 80.2323 57.993C81.3293 57.993 82.2356 57.1214 82.2709 56.0171C82.307 54.8904 81.4227 53.9481 80.2962 53.9122Z" fill="white"/>
<path d="M75.2138 41.2599C75.5391 41.2599 75.8689 41.1819 76.1756 41.0174L77.1558 40.4925C78.1495 39.9605 78.5234 38.7236 77.9911 37.7299C77.4591 36.7364 76.222 36.3623 75.2287 36.8946L74.2485 37.4197C73.2548 37.9517 72.8809 39.1887 73.4132 40.1823C73.7809 40.8693 74.4856 41.2599 75.2138 41.2599Z" fill="white"/>
<path d="M65.141 24.0326C64.1837 23.4383 62.9253 23.733 62.3308 24.6907L61.7445 25.6356C61.1502 26.5932 61.4449 27.8515 62.4027 28.4458C62.7378 28.6538 63.1094 28.753 63.4767 28.753C64.1594 28.753 64.8265 28.4103 65.2129 27.7879L65.7992 26.843C66.3935 25.8848 66.0988 24.6267 65.141 24.0326Z" fill="white"/>
<path d="M49.2309 49.5051C48.2206 48.8973 47.0658 48.5761 45.8911 48.5761C44.3425 48.5761 42.8568 49.1398 41.6988 50.1155L25.9849 40.1412C25.0331 39.5373 23.7719 39.8191 23.1682 40.7706C22.5641 41.7222 22.8459 42.9832 23.7974 43.5875L39.566 53.5965C39.3355 54.5836 39.3392 55.6181 39.5911 56.6304C40.0092 58.312 41.0574 59.7302 42.5423 60.6234C43.5525 61.2314 44.7076 61.5526 45.8823 61.5526C48.1476 61.5526 50.2792 60.3479 51.4458 58.4087C53.2896 55.3434 52.2962 51.3493 49.2309 49.5051ZM47.948 56.3049C47.5088 57.0351 46.7366 57.4712 45.8823 57.4712C45.4488 57.4712 45.0213 57.3518 44.6462 57.1263C44.0955 56.7951 43.7068 56.2691 43.5519 55.6455C43.3968 55.0218 43.4939 54.3751 43.8253 53.8242C44.2645 53.0938 45.037 52.6579 45.8911 52.6579C46.3243 52.6579 46.7517 52.7773 47.1268 53.0028C48.2635 53.6865 48.6321 55.1679 47.948 56.3049Z" fill="#171717"/>
</svg>
