<svg width="100" height="94" viewBox="0 0 100 94" fill="none" xmlns="http://www.w3.org/2000/svg">
<path d="M95 0.333008H5C2.23877 0.333008 0 2.57178 0 5.33301V65.333C0 68.0942 2.23877 70.333 5 70.333H41.6667V66.9997H5C4.07959 66.9997 3.33333 66.2534 3.33333 65.333V5.33301C3.33333 4.4126 4.07959 3.66634 5 3.66634H95C95.9204 3.66634 96.6667 4.4126 96.6667 5.33301V65.333C96.6667 66.2534 95.9204 66.9997 95 66.9997H78.3333V70.333H95C97.7612 70.333 100 68.0942 100 65.333V5.33301C100 2.57178 97.7612 0.333008 95 0.333008Z" fill="#171717"/>
<path d="M19.9998 7H13.1167C12.355 7 11.6901 7.51595 11.5013 8.25326C11.0521 10.0119 9.67839 11.3848 7.91976 11.8332C7.18164 12.022 6.66569 12.6877 6.6665 13.4502V20.3333H9.99984V14.6367C11.9269 13.7977 13.4642 12.2604 14.3032 10.3333H19.9998V7Z" fill="#171717"/>
<path d="M93.3333 20.3333V13.4502C93.3333 12.6885 92.8174 12.0236 92.0801 11.8348C90.3215 11.3856 88.9486 10.0119 88.5002 8.25326C88.3114 7.51514 87.6457 6.99919 86.8831 7H80V10.3333H85.6966C86.5356 12.2604 88.0729 13.7977 90 14.6367V20.3333H93.3333Z" fill="#171717"/>
<path d="M6.6665 50.333V57.2162C6.6665 57.9779 7.18245 58.6427 7.91976 58.8315C9.67839 59.2808 11.0513 60.6545 11.4997 62.4131C11.6885 63.1512 12.3542 63.6672 13.1167 63.6663H19.9998V60.333H14.3032C13.4642 58.4059 11.9269 56.8687 9.99984 56.0296V50.333H6.6665Z" fill="#171717"/>
<path d="M80 63.6663H86.8831C87.6449 63.6663 88.3097 63.1504 88.4985 62.4131C88.9478 60.6545 90.3215 59.2816 92.0801 58.8332C92.8182 58.6444 93.3342 57.9787 93.3333 57.2161V50.333H90V56.0296C88.0729 56.8687 86.5356 58.4059 85.6966 60.333H80V63.6663Z" fill="#171717"/>
<path d="M60.0002 50.333C53.5565 50.333 48.3335 55.556 48.3335 61.9997C48.3335 68.4434 53.5565 73.6663 60.0002 73.6663C66.4438 73.6663 71.6668 68.4434 71.6668 61.9997C71.6595 55.5592 66.4406 50.3403 60.0002 50.333ZM60.0002 70.333C55.3981 70.333 51.6668 66.6017 51.6668 61.9997C51.6668 57.3976 55.3981 53.6663 60.0002 53.6663C64.6022 53.6663 68.3335 57.3976 68.3335 61.9997C68.3278 66.6001 64.6006 70.3273 60.0002 70.333Z" fill="white"/>
<path d="M60 45.333C52.8288 45.3233 46.4575 49.9074 44.1879 56.7092C41.9182 63.5117 44.2603 71.0028 50 75.3013V91.9997C50 92.6003 50.3231 93.1545 50.8464 93.4499C51.3688 93.7461 52.0101 93.7372 52.5253 93.4279L60 88.9431L67.4748 93.4279C67.9899 93.7372 68.6312 93.7461 69.1537 93.4499C69.6769 93.1545 70 92.6003 70 91.9997V75.3013C75.7398 71.0028 78.0819 63.5117 75.8122 56.7092C73.5425 49.9074 67.1712 45.3233 60 45.333ZM66.6667 89.0562L60.8586 85.5715C60.3304 85.2541 59.6696 85.2541 59.1415 85.5715L53.3334 89.0562V77.265C57.5814 79.1335 62.4186 79.1335 66.6667 77.265V89.0562ZM60 75.333C52.6359 75.333 46.6667 69.3638 46.6667 61.9997C46.6667 54.6356 52.6359 48.6664 60 48.6664C67.3641 48.6664 73.3334 54.6356 73.3334 61.9997C73.3252 69.3597 67.3601 75.3249 60 75.333Z" fill="white"/>
<path d="M20 45.333H33.3333V48.6663H20V45.333Z" fill="white"/>
<path d="M20 52H33.3333V55.3333H20V52Z" fill="white"/>
<path d="M20 28.667H80V32.0003H20V28.667Z" fill="white"/>
<path d="M20 35.333H80V38.6663H20V35.333Z" fill="white"/>
<path d="M58.3332 15.3333C58.3332 10.7313 54.6019 7 49.9998 7C45.3978 7 41.6665 10.7313 41.6665 15.3333C41.6665 19.9354 45.3978 23.6667 49.9998 23.6667C54.6003 23.661 58.3275 19.9338 58.3332 15.3333ZM44.9998 15.3333C44.9998 12.5721 47.2386 10.3333 49.9998 10.3333C52.7611 10.3333 54.9998 12.5721 54.9998 15.3333C54.9998 18.0946 52.7611 20.3333 49.9998 20.3333C47.2386 20.3333 44.9998 18.0946 44.9998 15.3333Z" fill="white"/>
</svg>
