<svg width="214" height="57" viewBox="0 0 214 57" fill="none" xmlns="http://www.w3.org/2000/svg">
<path d="M185.224 34.7361C181.771 34.7361 178.959 31.9197 178.959 28.4608C178.959 25.002 181.771 22.1855 185.224 22.1855C188.677 22.1855 191.489 25.002 191.489 28.4608C191.489 31.9197 188.677 34.7361 185.224 34.7361Z" fill="#FAB900"/>
<path d="M30.4843 54.304L4.78475 34.4405C1.72646 32.0687 0 29.4499 0 27.2263C0 24.3111 3.0583 21.6922 3.99552 20.9511L28.0179 1.53223H36.7489L8.63229 24.3111C8.48431 24.4099 8.33632 24.5087 8.18834 24.6075C7.3991 25.2005 5.7713 26.3863 5.7713 27.2263C5.7713 28.264 7.69507 29.7463 8.92825 30.7346L39.5112 54.304H30.4843Z" fill="#575756"/>
<path d="M96.7313 54.8969L78.6282 7.85693C78.5788 7.75811 78.4309 7.41223 78.2829 7.41223C78.1349 7.41223 77.9869 7.80752 77.9376 7.85693L59.8345 54.8969H53.3232L72.9062 5.48517C73.5968 3.65693 75.4219 1.53223 78.2336 1.53223C79.1215 1.53223 82.1304 1.8287 83.5609 5.48517L103.144 54.8969H96.7313Z" fill="#575756"/>
<path d="M132.098 1.53223H126.229V54.304H132.098V1.53223Z" fill="#575756"/>
<path d="M185.224 56.9224C169.538 56.9224 156.812 44.1741 156.812 28.4612C156.812 12.7482 169.587 0 185.224 0C200.91 0 213.637 12.7976 213.637 28.4612C213.637 44.1247 200.91 56.9224 185.224 56.9224ZM185.224 5.88C172.794 5.88 162.681 16.0094 162.681 28.4612C162.681 40.9129 172.794 51.0424 185.224 51.0424C197.655 51.0424 207.767 40.9129 207.767 28.4612C207.767 16.0094 197.655 5.88 185.224 5.88Z" fill="#575756"/>
<path d="M185.224 45.4092C175.901 45.4092 168.305 37.7998 168.305 28.4609C168.305 19.1221 175.901 11.5127 185.224 11.5127C192.179 11.5127 198.542 15.9103 201.009 22.4327L201.502 23.7668H195.237L194.941 23.2727C193.018 19.6656 189.269 17.4421 185.175 17.4421C179.058 17.4421 174.125 22.4327 174.125 28.5103C174.125 34.588 179.107 39.5786 185.175 39.5786C189.219 39.5786 192.968 37.355 194.892 33.748L195.188 33.2539H201.502L201.009 34.588C198.493 41.0609 192.13 45.4092 185.224 45.4092Z" fill="#575756"/>
</svg>
