<svg width="240" height="88" viewBox="0 0 240 88" fill="none" xmlns="http://www.w3.org/2000/svg">
<path d="M2.99251 86.4343V81.7308H1.33008V81.1221H5.37533V81.7308H3.65749V86.4343H2.99251Z" fill="white"/>
<path d="M6.81641 83.7775C6.81641 82.2281 7.86928 81.0107 9.4763 81.0107C11.0279 81.0107 12.1362 82.1728 12.1362 83.7775C12.1362 85.3269 11.0833 86.5443 9.4763 86.5443C7.86928 86.5443 6.81641 85.3269 6.81641 83.7775ZM11.3604 83.7775C11.3604 82.5601 10.5846 81.6194 9.42088 81.6194C8.20177 81.6194 7.48138 82.5601 7.48138 83.7775C7.48138 84.9949 8.25718 85.9356 9.42088 85.9356C10.64 85.9356 11.3604 84.9949 11.3604 83.7775Z" fill="white"/>
<path d="M13.9092 86.4338V81.1216H16.292C17.234 81.1216 17.7882 81.6749 17.7882 82.4496C17.7882 83.1137 17.3449 83.5563 16.8461 83.667C17.4003 83.7777 17.899 84.331 17.899 84.9951C17.899 85.8251 17.3449 86.4338 16.3474 86.4338H13.9092ZM17.0678 82.5603C17.0678 82.0623 16.7353 81.6749 16.1258 81.6749H14.5187V83.3903H16.1258C16.7353 83.3903 17.0678 83.0583 17.0678 82.5603ZM17.1786 84.9397C17.1786 84.4417 16.8461 83.999 16.1812 83.999H14.5742V85.8251H16.1812C16.7907 85.8251 17.1786 85.4931 17.1786 84.9397Z" fill="white"/>
<path d="M23.4962 86.4338L23.0528 85.2717H20.3929L19.9496 86.4338H19.1738L21.335 81.1216H22.1662L24.3274 86.4338H23.4962ZM21.7229 81.7856L20.6146 84.663H22.8866L21.7229 81.7856Z" fill="white"/>
<path d="M25.7676 86.4338V81.1216H27.9287C28.9816 81.1216 29.5912 81.8409 29.5912 82.7263C29.5912 83.6117 28.9816 84.331 27.9287 84.331H26.4326V86.4338H25.7676ZM28.8708 82.7263C28.8708 82.1176 28.4275 81.7303 27.8179 81.7303H26.4326V83.7777H27.8179C28.4275 83.7223 28.8708 83.335 28.8708 82.7263Z" fill="white"/>
<path d="M31.2549 86.4338V81.1216H31.9199V85.2717L34.9677 81.1216H35.6326V86.4338H34.9677V82.173L31.8644 86.4338H31.2549Z" fill="white"/>
<path d="M37.4609 83.7775C37.4609 82.1728 38.6801 81.0107 40.1762 81.0107C41.1183 81.0107 41.7833 81.4534 42.1712 82.0621L41.617 82.3941C41.34 81.9514 40.7858 81.6194 40.1762 81.6194C39.0125 81.6194 38.1259 82.5048 38.1259 83.7775C38.1259 85.0502 39.0125 85.9356 40.1762 85.9356C40.7858 85.9356 41.34 85.6036 41.617 85.1609L42.1712 85.4929C41.7279 86.1016 41.0629 86.5443 40.1208 86.5443C38.6801 86.5443 37.4609 85.3822 37.4609 83.7775Z" fill="white"/>
<path d="M45.1624 86.4338V81.7303H43.5V81.1216H47.5453V81.7303H45.8274V86.4338H45.1624Z" fill="white"/>
<path d="M49.208 86.4338V81.1216H51.5908C52.5329 81.1216 53.087 81.6749 53.087 82.4496C53.087 83.1137 52.6437 83.5563 52.145 83.667C52.6991 83.7777 53.1978 84.331 53.1978 84.9951C53.1978 85.8251 52.6437 86.4338 51.6462 86.4338H49.208ZM52.3666 82.5603C52.3666 82.0623 52.0341 81.6749 51.4246 81.6749H49.873V83.3903H51.48C52.0341 83.3903 52.3666 83.0583 52.3666 82.5603ZM52.4775 84.9397C52.4775 84.4417 52.145 83.999 51.48 83.999H49.873V85.8251H51.48C52.0896 85.8251 52.4775 85.4931 52.4775 84.9397Z" fill="white"/>
<path d="M54.8047 83.7775C54.8047 82.2281 55.8576 81.0107 57.4646 81.0107C59.0162 81.0107 60.1245 82.1728 60.1245 83.7775C60.1245 85.3269 59.0716 86.5443 57.4646 86.5443C55.8576 86.5443 54.8047 85.3269 54.8047 83.7775ZM59.4041 83.7775C59.4041 82.5601 58.6283 81.6194 57.4646 81.6194C56.2455 81.6194 55.5251 82.5601 55.5251 83.7775C55.5251 84.9949 56.3009 85.9356 57.4646 85.9356C58.6283 85.9356 59.4041 84.9949 59.4041 83.7775Z" fill="white"/>
<path d="M67.2178 85.6592L67.6057 85.2166C67.9382 85.6039 68.5477 85.9359 69.2127 85.9359C70.0439 85.9359 70.5426 85.5486 70.5426 84.9399C70.5426 84.2759 69.9885 83.9992 69.1573 83.9992H68.049V83.3905H69.1573C69.8777 83.3905 70.4318 83.1138 70.4318 82.5051C70.4318 81.8964 69.8777 81.6198 69.1573 81.6198C68.5477 81.6198 68.049 81.8411 67.6611 82.2838L67.2732 81.8964C67.6611 81.4538 68.3261 81.0664 69.2127 81.0664C70.2656 81.0664 71.0968 81.5644 71.0968 82.5051C71.0968 83.2798 70.4318 83.6672 69.9331 83.7225C70.4318 83.7778 71.1522 84.1652 71.1522 85.0505C71.1522 85.9359 70.3764 86.5999 69.1573 86.5999C68.2706 86.5446 67.5503 86.1019 67.2178 85.6592Z" fill="white"/>
<path d="M78.522 83.7775C78.522 82.2281 79.5749 81.0107 81.1819 81.0107C82.7335 81.0107 83.8418 82.1728 83.8418 83.7775C83.8418 85.3269 82.7889 86.5443 81.1819 86.5443C79.6303 86.5443 78.522 85.3269 78.522 83.7775ZM83.1214 83.7775C83.1214 82.5601 82.3456 81.6194 81.1819 81.6194C79.9628 81.6194 79.2424 82.5601 79.2424 83.7775C79.2424 84.9949 80.0182 85.9356 81.1819 85.9356C82.401 85.9356 83.1214 84.9949 83.1214 83.7775Z" fill="white"/>
<path d="M89.1066 81.1216V81.7303H86.3359V83.2243H87.8321C88.8849 83.2243 89.4945 83.9437 89.4945 84.829C89.4945 85.7144 88.8849 86.4338 87.8321 86.4338H85.6709V81.1216H89.1066ZM86.3359 83.833V85.8804H87.7212C88.3308 85.8804 88.7741 85.4931 88.7741 84.8844C88.7741 84.2757 88.3308 83.8883 87.7212 83.8883H86.3359V83.833Z" fill="white"/>
<path d="M95.7005 86.4338V82.0623L93.8718 86.4338H93.5947L91.7661 82.0623V86.4338H91.1011V81.1216H92.0431L93.7056 85.1057L95.368 81.1216H96.31V86.4338H95.7005Z" fill="white"/>
<path d="M98.3604 86.4338V81.1216H101.851V81.7303H99.0253V83.4457H101.796V84.0544H99.0253V85.8804H101.851V86.4891H98.3604V86.4338Z" fill="white"/>
<path d="M103.237 86.4338L105.62 83.667L103.403 81.1216H104.234L106.395 83.6117V81.1216H107.06V83.6117L109.222 81.1216H110.053L107.836 83.667L110.274 86.4338H109.443L107.448 84.0544L107.116 84.4417V86.4891H106.395V84.4417L106.063 84.0544L104.068 86.4338H103.237Z" fill="white"/>
<path d="M111.771 86.4338V81.1216H115.263V81.7303H112.436V83.4457H115.207V84.0544H112.436V85.8804H115.263V86.4891H111.771V86.4338Z" fill="white"/>
<path d="M120.859 86.4338V83.999H117.755V86.4338H117.09V81.1216H117.755V83.3903H120.859V81.1216H121.523V86.4338H120.859Z" fill="white"/>
<path d="M123.353 83.7775C123.353 82.2281 124.405 81.0107 126.012 81.0107C127.564 81.0107 128.672 82.1728 128.672 83.7775C128.672 85.3269 127.619 86.5443 126.012 86.5443C124.405 86.5443 123.353 85.3269 123.353 83.7775ZM127.952 83.7775C127.952 82.5601 127.176 81.6194 126.012 81.6194C124.793 81.6194 124.073 82.5601 124.073 83.7775C124.073 84.9949 124.849 85.9356 126.012 85.9356C127.176 85.9356 127.952 84.9949 127.952 83.7775Z" fill="white"/>
<path d="M132.052 83.9988H131.11V86.4336H130.445V81.1214H131.11V83.3902H132.052C132.219 82.0068 133.216 81.0107 134.657 81.0107C136.208 81.0107 137.317 82.1728 137.317 83.7775C137.317 85.3269 136.264 86.5443 134.657 86.5443C133.161 86.5443 132.163 85.4376 132.052 83.9988ZM136.652 83.7775C136.652 82.5601 135.876 81.6194 134.712 81.6194C133.493 81.6194 132.773 82.5601 132.773 83.7775C132.773 84.9949 133.549 85.9356 134.712 85.9356C135.876 85.9356 136.652 84.9949 136.652 83.7775Z" fill="white"/>
<path d="M144.854 86.4338V81.1216H147.236C148.178 81.1216 148.733 81.6749 148.733 82.4496C148.733 83.1137 148.289 83.5563 147.79 83.667C148.345 83.7777 148.843 84.331 148.843 84.9951C148.843 85.8251 148.289 86.4338 147.292 86.4338H144.854ZM148.012 82.5603C148.012 82.0623 147.68 81.6749 147.07 81.6749H145.463V83.3903H147.07C147.735 83.3903 148.012 83.0583 148.012 82.5603ZM148.123 84.9397C148.123 84.4417 147.79 83.999 147.126 83.999H145.518V85.8251H147.126C147.79 85.8251 148.123 85.4931 148.123 84.9397Z" fill="white"/>
<path d="M150.672 86.4338V81.1216H151.337V86.4338H150.672Z" fill="white"/>
<path d="M152.999 85.8805C153.664 85.8251 153.996 85.5484 154.218 83.7777L154.551 81.1216H157.82V85.8251H158.319V87.3745H157.654V86.3785H153.664V87.3745H152.999V85.8805ZM154.052 85.8251H157.155V81.6749H155.16L154.883 83.7777C154.772 84.9397 154.44 85.5484 154.052 85.8251Z" fill="white"/>
<path d="M163.694 86.4338V81.7303H160.591V86.4338H159.926V81.1216H164.359V86.4338H163.694Z" fill="white"/>
<path d="M166.188 83.7775C166.188 82.2281 167.241 81.0107 168.848 81.0107C170.4 81.0107 171.508 82.1728 171.508 83.7775C171.508 85.3269 170.455 86.5443 168.848 86.5443C167.241 86.5443 166.188 85.3269 166.188 83.7775ZM170.787 83.7775C170.787 82.5601 170.012 81.6194 168.848 81.6194C167.629 81.6194 166.908 82.5601 166.908 83.7775C166.908 84.9949 167.684 85.9356 168.848 85.9356C170.012 85.9356 170.787 84.9949 170.787 83.7775Z" fill="white"/>
<path d="M173.281 86.4338V81.1216H175.664C176.606 81.1216 177.16 81.6749 177.16 82.4496C177.16 83.1137 176.716 83.5563 176.218 83.667C176.772 83.7777 177.271 84.331 177.271 84.9951C177.271 85.8251 176.716 86.4338 175.719 86.4338H173.281ZM176.495 82.5603C176.495 82.0623 176.162 81.6749 175.553 81.6749H173.946V83.3903H175.553C176.162 83.3903 176.495 83.0583 176.495 82.5603ZM176.55 84.9397C176.55 84.4417 176.218 83.999 175.553 83.999H173.946V85.8251H175.553C176.218 85.8251 176.55 85.4931 176.55 84.9397Z" fill="white"/>
<path d="M179.099 86.4338V81.1216H179.764V86.4338H179.099Z" fill="white"/>
<path d="M181.427 85.8805C182.092 85.8251 182.425 85.5484 182.646 83.7777L182.979 81.1216H186.248V85.8251H186.747V87.3745H186.082V86.3785H182.092V87.3745H181.427V85.8805ZM182.48 85.8251H185.583V81.6749H183.588L183.311 83.7777C183.201 84.9397 182.923 85.5484 182.48 85.8251Z" fill="white"/>
<path d="M192.178 86.4338L191.734 85.2717H189.075L188.631 86.4338H187.855L190.017 81.1216H190.848L193.009 86.4338H192.178ZM190.349 81.7856L189.241 84.663H191.513L190.349 81.7856Z" fill="white"/>
<path d="M194.06 85.9358C194.725 85.9358 195.058 85.6038 195.279 83.7777L195.612 81.1216H198.881V86.4338H198.216V81.7303H196.166L195.889 83.833C195.612 86.1571 194.947 86.5445 194.005 86.5445V85.9358H194.06Z" fill="white"/>
<path d="M201.543 81.1216V83.2243H203.039C204.092 83.2243 204.701 83.9437 204.701 84.829C204.701 85.7144 204.092 86.4338 203.039 86.4338H200.878V81.1216H201.543ZM201.543 83.833V85.8804H202.928C203.538 85.8804 203.981 85.4931 203.981 84.8844C203.981 84.2757 203.538 83.8883 202.928 83.8883H201.543V83.833Z" fill="white"/>
<path d="M210.131 86.4338V83.999H207.028V86.4338H206.363V81.1216H207.028V83.3903H210.131V81.1216H210.796V86.4338H210.131Z" fill="white"/>
<path d="M212.847 86.4338V81.1216H213.512V86.4338H212.847Z" fill="white"/>
<path d="M215.34 83.7775C215.34 82.1728 216.559 81.0107 218.056 81.0107C218.998 81.0107 219.663 81.4534 220.051 82.0621L219.496 82.3941C219.219 81.9514 218.665 81.6194 218.056 81.6194C216.892 81.6194 216.005 82.5048 216.005 83.7775C216.005 85.0502 216.892 85.9356 218.056 85.9356C218.665 85.9356 219.219 85.6036 219.496 85.1609L220.051 85.4929C219.607 86.1016 218.942 86.5443 218 86.5443C216.504 86.5443 215.34 85.3822 215.34 83.7775Z" fill="white"/>
<path d="M223.043 86.4338V81.7303H221.381V81.1216H225.426V81.7303H223.708V86.4338H223.043Z" fill="white"/>
<path d="M228.64 83.9988H227.698V86.4336H227.033V81.1214H227.698V83.3902H228.64C228.806 82.0068 229.803 81.0107 231.244 81.0107C232.796 81.0107 233.904 82.1728 233.904 83.7775C233.904 85.3269 232.851 86.5443 231.244 86.5443C229.803 86.5443 228.751 85.4376 228.64 83.9988ZM233.239 83.7775C233.239 82.5601 232.463 81.6194 231.3 81.6194C230.08 81.6194 229.36 82.5601 229.36 83.7775C229.36 84.9949 230.136 85.9356 231.3 85.9356C232.463 85.9356 233.239 84.9949 233.239 83.7775Z" fill="white"/>
<path d="M34.2461 60.8136L5.3752 38.5688C1.93951 35.9127 0 32.9799 0 30.4898C0 27.225 3.43569 24.2922 4.48857 23.4622L31.4754 1.71533H41.2837L9.69753 27.225C9.53128 27.3357 9.36504 27.4463 9.1988 27.557C8.31216 28.221 6.48349 29.5491 6.48349 30.4898C6.48349 31.6518 8.64465 33.3119 10.03 34.4186L44.387 60.8136H34.2461Z" fill="white"/>
<path d="M108.668 61.4776L88.3309 8.79827C88.2755 8.6876 88.1093 8.30025 87.943 8.30025C87.7768 8.30025 87.6105 8.74294 87.5551 8.79827L67.218 61.4776H59.9033L81.9029 6.14217C82.6787 4.09476 84.729 1.71533 87.8876 1.71533C88.8851 1.71533 92.2653 2.04734 93.8724 6.14217L115.872 61.4776H108.668Z" fill="white"/>
<path d="M148.4 1.71533H141.806V60.8136H148.4V1.71533Z" fill="white"/>
<path d="M208.081 63.7465C190.46 63.7465 176.163 49.4699 176.163 31.8732C176.163 14.2766 190.515 0 208.081 0C225.703 0 240 14.3319 240 31.8732C240 49.4146 225.703 63.7465 208.081 63.7465ZM208.081 6.58492C194.117 6.58492 182.757 17.9287 182.757 31.8732C182.757 45.8178 194.117 57.1615 208.081 57.1615C222.046 57.1615 233.406 45.8178 233.406 31.8732C233.406 17.9287 222.046 6.58492 208.081 6.58492Z" fill="white"/>
<path d="M208.081 50.8532C197.608 50.8532 189.074 42.3315 189.074 31.8731C189.074 21.4147 197.608 12.8931 208.081 12.8931C215.894 12.8931 223.043 17.8179 225.813 25.1222L226.368 26.6163H219.33L218.998 26.0629C216.836 22.0234 212.625 19.5333 208.025 19.5333C201.154 19.5333 195.613 25.1222 195.613 31.9285C195.613 38.7347 201.209 44.3236 208.025 44.3236C212.569 44.3236 216.781 41.8335 218.942 37.794L219.275 37.2407H226.368L225.813 38.7347C222.987 45.9837 215.839 50.8532 208.081 50.8532Z" fill="white"/>
<path d="M208.081 38.9009C204.202 38.9009 201.043 35.7468 201.043 31.8733C201.043 27.9998 204.202 24.8457 208.081 24.8457C211.96 24.8457 215.118 27.9998 215.118 31.8733C215.118 35.7468 211.96 38.9009 208.081 38.9009Z" fill="#FAB900"/>
</svg>
