<svg width="62" height="60" viewBox="0 0 62 60" xmlns="http://www.w3.org/2000/svg" fill="none"><path d="M.256 29.776c0 16.312 13.813 29.583 30.793 29.583 16.98 0 30.793-13.271 30.793-29.583 0-16.313-13.813-29.583-30.793-29.583-16.98 0-30.793 13.271-30.793 29.583zm37.061-12.961l11.813 11.349c.451.433.7 1.014.7 1.635l.481.008-.481-.001v.008c0 .62-.249 1.201-.7 1.635l-11.81 11.346c-.938.901-2.465.901-3.403 0l-2.019-1.939c-.452-.434-.701-1.01-.701-1.621 0-.61.249-1.187.7-1.62l3.515-3.349c.139-.131.18-.331.106-.504s-.25-.286-.445-.286h-19.908c-1.304 0-2.406-1.084-2.406-2.368v-2.742c0-1.261 1.079-2.288 2.406-2.288h19.762c.195 0 .37-.112.445-.285.074-.173.033-.371-.104-.504l-3.375-3.254c-.452-.434-.702-1.016-.702-1.637s.249-1.203.702-1.637l2.018-1.942c.453-.435 1.057-.674 1.701-.675.645-.001 1.249.238 1.701.672z" fill="#171717"/></svg>