<svg width="49" height="51" viewBox="0 0 49 51" xmlns="http://www.w3.org/2000/svg" fill="none"><path d="M38.451 43.311l-1.081-6.03c-.084-.467-.435-.834-.888-.928l-8.504-1.751c-.37-.076-.752.043-1.018.317l-3.492 3.594c-5.885-2.704-9.137-6.059-12.002-12.376l3.481-3.583c.266-.274.382-.668.308-1.048l-1.701-8.754c-.091-.466-.447-.828-.901-.914l-5.857-1.113c-.15-.029-.305-.025-.454.009-1.533.359-2.931 1.154-4.045 2.3-1.927 1.984-2.663 4.883-2.128 8.382.244 1.593.606 3.244 1.076 4.906.174.616.801.968 1.398.79.598-.179.941-.824.767-1.439-.444-1.568-.785-3.122-1.013-4.618-.424-2.775.079-4.922 1.495-6.38.76-.782 1.701-1.34 2.733-1.623l4.868.925 1.433 7.374-3.608 3.714c-.33.34-.423.855-.232 1.294 3.28 7.561 7.127 11.519 14.196 14.602.424.184.913.086 1.237-.248l3.608-3.714 7.163 1.475.899 5.011c-.275 1.063-.817 2.032-1.576 2.814-1.417 1.458-3.503 1.976-6.198 1.539-5.39-.873-12.866-3.566-17.684-8.507l-.069-.071c-2.216-2.291-4.192-5.45-5.713-9.137-.244-.59-.905-.865-1.479-.615-.573.251-.841.932-.597 1.522 1.633 3.957 3.773 7.369 6.195 9.873l.07.071c5.202 5.334 13.188 8.228 18.926 9.157.72.117 1.414.175 2.079.175 2.474 0 4.545-.802 6.064-2.366 1.113-1.146 1.886-2.586 2.234-4.164.034-.153.037-.312.009-.467zM19.287 22.41l-.001.001-.003.005c-.081.091-.14.202-.187.318l-.036.105-.05.279-.008.106-.004.054c.007.112.029.22.064.322l.014.03c.041.112.1.211.17.302l.023.042 4.833 5.693c.37.436.977.444 1.357.017.379-.427.386-1.126.015-1.563l-2.605-3.07c3.807.504 7.549-.297 7.725-.336 11.553-2.094 19.728-12.763 18.225-23.782-.075-.546-.482-.934-.946-.934l-.15.013c-.523.095-.88.66-.799 1.264 1.339 9.816-6.12 19.351-16.658 21.262-.048.011-3.915.841-7.555.269l4.02-2.387c.471-.28.655-.947.413-1.489-.242-.543-.819-.754-1.292-.477l-6.338 3.763c-.086.052-.163.117-.23.193z" fill="#171717"/></svg>