<svg width="100" height="100" viewBox="0 0 100 100" fill="none" xmlns="http://www.w3.org/2000/svg">
<path d="M100 50C100 22.43 77.57 0 50 0C22.43 0 0 22.43 0 50C0 60.2367 3.09667 69.7617 8.39667 77.6967L8.39333 77.7317L8.73833 78.2367C9.03833 78.675 9.36167 79.09 9.675 79.5167C9.80167 79.69 9.92667 79.865 10.0567 80.0383C10.4533 80.565 10.8617 81.0817 11.2767 81.59C11.3967 81.7367 11.5183 81.8817 11.64 82.0267C13.5683 84.335 15.685 86.4483 17.9617 88.35C18.1 88.465 18.2367 88.5817 18.3767 88.6967C18.8733 89.1017 19.375 89.4983 19.8867 89.8833C20.0933 90.04 20.3033 90.1917 20.5117 90.345C20.9983 90.7017 21.485 91.055 21.985 91.3933C22.2517 91.575 22.5283 91.745 22.7983 91.9217C23.4917 92.3717 24.1917 92.8067 24.905 93.22C25.4017 93.51 25.9 93.7983 26.4083 94.0717C26.715 94.2367 27.0283 94.39 27.3383 94.5483C27.8783 94.825 28.4233 95.0933 28.975 95.35C29.2533 95.4783 29.5317 95.605 29.8117 95.7283C30.45 96.0117 31.0967 96.28 31.7483 96.5367C31.95 96.6167 32.15 96.6983 32.3533 96.7767C34.1417 97.4533 35.9783 98.0333 37.8567 98.5033C37.9333 98.5233 38.0117 98.5383 38.0883 98.5567C38.9183 98.76 39.7567 98.9417 40.6033 99.1033C40.8283 99.1467 41.0533 99.185 41.2783 99.225C41.3117 99.2317 41.3433 99.2367 41.3767 99.2417L41.3717 99.275L42.2517 99.3983C42.4517 99.43 42.6517 99.4533 42.8517 99.4817L43.035 99.5067C43.07 99.5117 43.1033 99.5133 43.1383 99.5167C43.2283 99.5283 43.32 99.54 43.41 99.5517C43.6833 99.5883 43.955 99.6233 44.2283 99.6567C44.89 99.7333 45.555 99.7933 46.225 99.8433C46.365 99.8533 46.505 99.87 46.6433 99.88C46.8033 99.89 46.965 99.9017 47.125 99.9117C48.0783 99.965 49.035 100 50 100C50.965 100 51.9217 99.965 52.8733 99.9117C53.0383 99.9017 53.2033 99.89 53.3683 99.8783C53.5083 99.8683 53.6483 99.8517 53.79 99.8417C54.4533 99.7917 55.115 99.7317 55.7717 99.6567C56.045 99.625 56.3183 99.5883 56.59 99.5517C56.6983 99.5367 56.8067 99.525 56.9133 99.51C56.9467 99.505 56.9817 99.5033 57.015 99.5L57.1833 99.4767C57.3717 99.45 57.5617 99.4267 57.7483 99.3967L58.6833 99.265L58.6783 99.23C58.6933 99.2267 58.7083 99.225 58.7233 99.2217C58.9483 99.1817 59.1733 99.1433 59.3983 99.1C60.245 98.9383 61.0833 98.7567 61.9133 98.5533C61.99 98.535 62.0683 98.5183 62.145 98.5C64.0233 98.03 65.86 97.45 67.6483 96.7733C67.8517 96.6967 68.0533 96.6133 68.2567 96.5333C68.9083 96.2767 69.5533 96.0083 70.1917 95.7267C70.4717 95.6033 70.7517 95.4767 71.0283 95.3483C71.58 95.0917 72.125 94.8233 72.665 94.5467C72.9767 94.3883 73.2883 94.2333 73.595 94.07C74.1033 93.7967 74.6 93.5083 75.0983 93.2183C75.8117 92.8033 76.5133 92.37 77.205 91.92C77.4767 91.7433 77.7517 91.5733 78.0183 91.3917C78.5167 91.0533 79.005 90.7 79.4917 90.3433C79.7 90.19 79.91 90.0383 80.1167 89.8817C80.6267 89.4967 81.13 89.1 81.6267 88.695C81.7667 88.58 81.9033 88.4633 82.0417 88.3483C84.3183 86.445 86.435 84.3333 88.365 82.0233C88.4867 81.8783 88.6067 81.735 88.725 81.5883C89.14 81.08 89.5483 80.5633 89.945 80.0367C90.075 79.865 90.1983 79.69 90.3267 79.515C90.64 79.0883 90.9633 78.6733 91.2633 78.235L91.6083 77.73L91.605 77.695C96.9033 69.7617 100 60.2367 100 50ZM96.6667 50C96.6667 58.2867 94.485 66.07 90.6817 72.8233C88.0033 63.9433 80.1383 57.5067 70.7067 56.7533L70.6433 56.6667H68.8517H60.8867H58.9433C58.6067 56.6667 58.3333 56.3933 58.3333 56.0583V54.9833C58.3333 54.6783 58.5817 54.4783 58.7933 54.3967C69.525 50.3617 76.2183 33.6233 74.815 21.9167C74.0833 15.82 71.065 10.3717 66.6767 6.425C84.195 13.1533 96.6667 30.1433 96.6667 50ZM87.5633 77.65C87.4283 77.8317 87.2933 78.0117 87.1567 78.1917C86.785 78.68 86.41 79.165 86.02 79.6383C85.98 79.6867 85.9383 79.7333 85.8983 79.7817C84.5517 81.4017 83.0967 82.9283 81.5467 84.3533C81.455 84.4383 81.3633 84.525 81.27 84.6083C80.8083 85.0267 80.335 85.4333 79.8567 85.8333C79.7067 85.9583 79.555 86.0817 79.4033 86.205C78.9383 86.5833 78.47 86.955 77.9917 87.315C77.83 87.4367 77.6633 87.5517 77.5 87.6717C77.225 87.8733 76.9467 88.0683 76.6667 88.2633V80H73.3333V90.3883C73.2683 90.4267 73.2033 90.4633 73.1367 90.5017C72.7117 90.745 72.2867 90.9867 71.855 91.215C71.56 91.3717 71.26 91.5233 70.96 91.675C70.4567 91.9283 69.95 92.1733 69.4383 92.4083C69.1883 92.5233 68.94 92.6383 68.6883 92.7483C68.0467 93.0283 67.3983 93.295 66.745 93.5467C66.61 93.5983 66.4783 93.655 66.3433 93.705C64.6767 94.3283 62.9733 94.8583 61.2383 95.2883C61.1133 95.32 60.9867 95.345 60.8617 95.375C60.1433 95.5467 59.42 95.7033 58.6917 95.84C58.5217 95.8717 58.35 95.9017 58.1783 95.9317L55.27 76.6667H56.6667V72.5583L64.1183 77.525L71.0733 60.1383C79.8717 61.13 86.9467 67.9267 88.1517 76.825C87.9567 77.1017 87.765 77.3783 87.5633 77.65ZM39.1367 95.3767C39.0117 95.3467 38.8867 95.32 38.7617 95.29C37.0267 94.8583 35.3217 94.33 33.655 93.7067C33.52 93.6567 33.3867 93.6 33.2533 93.5483C32.6 93.2967 31.9517 93.03 31.3117 92.75C31.06 92.64 30.81 92.525 30.56 92.41C30.0483 92.175 29.5417 91.93 29.0383 91.6767C28.7383 91.525 28.4383 91.375 28.1433 91.2167C27.7117 90.9883 27.2867 90.745 26.8617 90.5033C26.7967 90.465 26.73 90.4283 26.665 90.39V80H23.3317V88.2633C23.0533 88.0683 22.7733 87.8717 22.4983 87.6717C22.335 87.5517 22.1683 87.4367 22.0067 87.315C21.5283 86.955 21.06 86.5833 20.5967 86.2067C20.4433 86.0833 20.2917 85.9583 20.14 85.8333C19.6617 85.435 19.19 85.0283 18.73 84.61C18.635 84.525 18.5433 84.4367 18.45 84.3517C16.9 82.9267 15.445 81.4017 14.1 79.7817C14.06 79.7333 14.0183 79.6867 13.9783 79.6383C13.5883 79.165 13.2133 78.68 12.8417 78.1917C12.705 78.0117 12.5683 77.8317 12.435 77.65C12.235 77.3783 12.0433 77.1017 11.8483 76.825C13.055 67.9267 20.1283 61.13 28.9267 60.1383L35.8817 77.525L43.3333 72.5583V76.6667H44.7333L41.8667 95.9433C41.68 95.91 41.4933 95.8783 41.3083 95.8433C40.58 95.705 39.855 95.5483 39.1367 95.3767ZM42.485 51.3183C34.515 48.37 28.3333 34.75 28.3333 25C28.3333 24.7867 28.3583 24.5783 28.365 24.3667L29.585 22.8617C32.3367 19.5883 37.0333 18.6517 41.2717 20.5283C42.975 21.285 44.79 21.6667 46.6667 21.6667C51.6183 21.6667 56.0667 18.975 58.38 14.6933C63.6833 16.435 68.4167 19.7183 71.6183 23.8567C72.1067 34.0233 66.1283 48.0783 57.6217 51.2767C56.0283 51.8767 55 53.3317 55 54.9833V56.0583C55 57.9683 56.3667 59.5633 58.1733 59.9233L55.33 63.3333H44.67L41.8267 59.9217C43.6333 59.5633 45 57.9667 45 56.0583V55C45 53.3567 43.9917 51.8767 42.485 51.3183ZM50.0667 3.33667C50.0867 3.33667 50.1033 3.33667 50.1217 3.33667C50.9367 3.34167 51.7383 3.38667 52.505 3.475C60.77 4.39667 67.715 10.15 70.425 17.79C66.9 14.72 62.5783 12.3567 57.93 11.0783L56.4967 10.685L55.9417 12.0617C54.4067 15.87 50.7667 18.3333 46.6667 18.3333C45.2583 18.3333 43.8967 18.0467 42.6217 17.4817C38.0117 15.4417 32.9783 15.9933 29.26 18.6983C30.2817 15.3217 32.1267 12.2283 34.695 9.665C38.785 5.58333 44.2167 3.33667 50.0667 3.33667ZM56.6667 66.9367L62.4483 60H67.5383L62.55 72.4733L56.6667 68.5533V66.9367ZM53.9417 96.48C53.4917 96.5183 53.04 96.5617 52.5933 96.5883C51.7367 96.635 50.875 96.6667 50.0117 96.6667C49.955 96.6667 49.8967 96.6617 49.84 96.6617C49.0317 96.6583 48.225 96.6333 47.4233 96.5883C46.9833 96.5633 46.54 96.52 46.0967 96.4833C45.7867 96.4567 45.4783 96.4317 45.17 96.3983L48.1033 76.6667H51.8983L54.875 96.395C54.565 96.4267 54.2533 96.4533 53.9417 96.48ZM53.3333 73.3333H46.6667V70.3367V66.6667H53.3333V70.3367V73.3333ZM43.3333 66.9367V68.5533L37.4517 72.475L32.4633 60H37.5533L43.3333 66.9367ZM33.3033 6.43333C32.9817 6.72333 32.65 6.99667 32.34 7.305C27.6067 12.03 25 18.3117 25 25C25 36.0483 31.9833 50.9883 41.3283 54.4433C41.5267 54.5183 41.6667 54.7467 41.6667 55V56.0583C41.6667 56.3933 41.3933 56.6667 41.0583 56.6667H39.115H31.15H30.2417C30.0817 56.6667 29.9233 56.69 29.7733 56.7317C20.1317 57.3033 12.0433 63.7967 9.32 72.825C5.515 66.07 3.33333 58.2867 3.33333 50C3.33333 30.15 15.7967 13.1667 33.3033 6.43333Z" fill="white"/>
</svg>
