<svg width="47" height="35" viewBox="0 0 47 35" xmlns="http://www.w3.org/2000/svg" fill="none"><path d="M38.054 26.6c-.186 0-.373-.068-.518-.206l-8.72-8.181c-.305-.285-.32-.765-.033-1.07.287-.308.764-.321 1.072-.033l8.72 8.181c.305.285.32.765.033 1.07-.15.159-.35.239-.553.239zM8.945 26.6c-.202 0-.403-.08-.553-.239-.286-.305-.271-.785.033-1.07l8.723-8.181c.306-.285.787-.273 1.072.033.286.305.271.785-.033 1.07l-8.723 8.181c-.145.138-.332.206-.518.206zM43.211 34.206h-39.422c-2.088 0-3.789-1.699-3.789-3.789v-25.835c0-2.09 1.7-3.789 3.789-3.789h39.422c2.088 0 3.789 1.699 3.789 3.789v25.835c0 2.09-1.7 3.789-3.789 3.789zm-39.422-31.898c-1.253 0-2.273 1.02-2.273 2.273v25.835c0 1.253 1.02 2.273 2.273 2.273h39.422c1.253 0 2.273-1.02 2.273-2.273v-25.835c0-1.253-1.02-2.273-2.273-2.273h-39.422zM23.5 21.307c-1.008 0-2.016-.335-2.782-1.003l-19.46-16.976c-.315-.274-.349-.753-.074-1.07.277-.315.755-.344 1.07-.073l19.46 16.974c.968.844 2.605.844 3.572 0l19.435-16.947c.314-.274.791-.244 1.07.073.274.317.242.794-.073 1.07l-19.435 16.947c-.768.67-1.775 1.005-2.782 1.005z" fill="#171717"/></svg>